<?xml version="1.0" encoding="UTF-8"?>
<svg version="1.1" xmlns="http://www.w3.org/2000/svg" width="400" height="400">
<path d="M0 0 C5.25559847 0.00378986 10.51117816 0.00238979 15.76677597 -0.00180173 C72.88287132 -0.04591769 72.88287132 -0.04591769 96.12932479 0.51138186 C96.84827108 0.52652709 97.56721736 0.54167232 98.3079499 0.55727649 C106.15996992 0.73176662 113.95369209 1.21819088 121.76482284 2.01479983 C122.52492817 2.0872498 123.28503351 2.15969977 124.06817234 2.2343452 C128.89419489 2.7694761 132.62378822 3.47811217 135.92619979 7.18325686 C142.59483073 18.75460951 141.19031352 34.27877416 141.04729354 47.12856936 C141.83901962 47.11809573 142.63074569 47.1076221 143.44646347 47.09683108 C147.04254105 47.0551909 150.63856783 47.02921743 154.23479354 47.00356936 C155.48067245 46.98681155 156.72655136 46.97005374 158.01018417 46.95278811 C159.21223495 46.9463428 160.41428573 46.93989749 161.65276229 46.93325686 C163.31021469 46.91754642 163.31021469 46.91754642 165.00115097 46.90151858 C168.14422004 47.13579399 170.26702554 47.66019743 173.04729354 49.12856936 C175.5238899 52.84346391 175.71268234 56.11148397 176.10979354 60.44106936 C176.19140731 61.30192142 176.27302108 62.16277347 176.357108 63.04971194 C177.78118649 79.36485244 178.50142143 95.94154805 177.92229354 112.31606936 C177.85655136 114.2245264 177.85655136 114.2245264 177.78948104 116.17153811 C177.04729354 119.12856936 177.04729354 119.12856936 174.95525253 120.7814014 C171.3934488 122.43147553 168.69774035 122.55963013 164.77776229 122.64028811 C163.75625831 122.66721492 163.75625831 122.66721492 162.71411788 122.6946857 C160.55440474 122.74855567 158.39490955 122.78260719 156.23479354 122.81606936 C154.76406024 122.84926328 153.29335561 122.88375486 151.82268417 122.91958499 C148.23109667 123.00426652 144.63943279 123.07118897 141.04729354 123.12856936 C140.78389732 130.72698939 140.52295163 138.32549039 140.26499069 145.92409682 C140.14508861 149.45380282 140.0243954 152.98347779 139.90178573 156.51309085 C139.76031739 160.58665798 139.62248523 164.66034156 139.48479354 168.73403811 C139.44104599 169.97936816 139.39729843 171.22469821 139.35222518 172.50776553 C139.23412716 176.04781018 139.13566232 179.58766622 139.04729354 183.12856936 C138.99321334 184.94309604 138.99321334 184.94309604 138.93804061 186.79427981 C138.9167308 187.95574527 138.89542099 189.11721072 138.87346542 190.3138721 C138.85022201 191.35075671 138.8269786 192.38764132 138.80303085 193.45594668 C139.06620299 196.33546875 139.47800442 197.43961375 141.39104354 199.55825686 C142.95338729 200.76868655 142.95338729 200.76868655 144.54729354 202.00356936 C146.07869979 203.23720218 146.07869979 203.23720218 147.64104354 204.49575686 C148.18744491 204.91397708 148.73384628 205.33219729 149.29680526 205.76309085 C155.95092746 210.95367739 161.96050493 216.85951039 167.92229354 222.81606936 C168.68026229 223.56179202 169.43823104 224.30751468 170.21916854 225.07583499 C170.94362167 225.79835452 171.66807479 226.52087405 172.41448104 227.26528811 C173.06529647 227.91199466 173.7161119 228.5587012 174.38664901 229.22500491 C177.97427409 233.3374296 178.38737799 236.71914074 178.48479354 242.12856936 C178.52475448 243.34544436 178.56471542 244.56231936 178.60588729 245.81606936 C178.04729354 249.12856936 178.04729354 249.12856936 175.76994979 251.50356936 C171.54681128 254.02412263 168.15477551 254.25375806 163.27454269 254.25555301 C162.09158143 254.25837566 160.90862016 254.26119832 159.68981159 254.26410651 C158.39150378 254.26207945 157.09319597 254.26005239 155.7555455 254.2579639 C154.36658039 254.25929669 152.97761563 254.26105235 151.58865154 254.26319671 C147.78756662 254.2677194 143.98650817 254.26586889 140.18542278 254.26278114 C136.95962977 254.26090028 133.73384254 254.26254642 130.50804973 254.26423103 C120.93840702 254.26919987 111.36878389 254.26455275 101.79914367 254.2573421 C96.36988747 254.25332507 90.94063171 254.25148898 85.51137435 254.24987674 C25.68597877 254.22975857 -34.13240187 253.9635404 -93.95270646 253.12856936 C-94.74329957 253.11759974 -95.53389267 253.10663013 -96.34844315 253.09532809 C-113.06692749 252.86244189 -129.7842476 252.59227668 -146.49958146 252.1878345 C-148.89407413 252.12998587 -151.28861693 252.0747379 -153.68317521 252.01968265 C-157.71103641 251.92493655 -161.73803769 251.81175781 -165.76520646 251.69106936 C-166.81039444 251.66399905 -167.85558243 251.63692874 -168.93244278 251.60903811 C-181.99232122 251.1440112 -181.99232122 251.1440112 -186.95270646 249.12856936 C-190.44244052 243.8762331 -189.79419015 237.12496891 -188.95270646 231.12856936 C-187.22010025 227.46836912 -184.82754823 224.94704169 -181.95270646 222.12856936 C-181.15735489 221.29583499 -180.36200333 220.46310061 -179.54255021 219.60513186 C-175.26912876 215.20621581 -170.83252381 211.04508338 -166.17145646 207.06216311 C-162.70663282 204.04264252 -159.3493378 200.90573126 -155.98835099 197.77139163 C-152.16885329 194.23664278 -152.16885329 194.23664278 -149.95270646 193.12856936 C-150.15186661 191.41153811 -150.15186661 191.41153811 -150.35505021 189.65981936 C-152.1468426 173.1763455 -152.57072509 156.69196447 -152.95270646 140.12856936 C-153.66289933 140.139043 -154.3730922 140.14951663 -155.10480607 140.16030765 C-158.36656925 140.20224422 -161.62827542 140.22801422 -164.89020646 140.25356936 C-166.00717911 140.27032718 -167.12415177 140.28708499 -168.27497208 140.30435061 C-174.82819106 140.34278592 -180.65143097 139.99633205 -186.95270646 138.12856936 C-191.86886086 132.75152549 -191.11732287 124.37747242 -191.15583146 117.45669436 C-191.16153153 116.65246036 -191.1672316 115.84822635 -191.17310441 115.01962161 C-191.18249311 113.33215512 -191.18906378 111.6446708 -191.19294083 109.95718265 C-191.20273108 107.37206732 -191.23384425 104.78772023 -191.26520646 102.20278811 C-191.27172966 100.55826155 -191.2769828 98.91372936 -191.28083146 97.26919436 C-191.29317826 96.49730777 -191.30552506 95.72542117 -191.31824601 94.93014407 C-191.29619432 89.65475791 -191.29619432 89.65475791 -189.68219864 87.1822803 C-185.63728477 84.71787484 -181.42954935 84.94552797 -176.78083146 84.81216311 C-176.09841385 84.79138202 -175.41599625 84.77060092 -174.71289933 84.74919009 C-172.5429329 84.68404884 -170.37285021 84.62497533 -168.20270646 84.56606936 C-166.72743424 84.5228504 -165.25217358 84.47923504 -163.77692521 84.43520999 C-160.16897479 84.32840418 -156.56089513 84.22703783 -152.95270646 84.12856936 C-152.95492707 83.55022342 -152.95714768 82.97187747 -152.95943558 82.37600589 C-152.98181697 76.27481598 -152.99674773 70.17363801 -153.0076381 64.07241702 C-153.01262073 61.80515959 -153.01940925 59.53790528 -153.02814591 57.27065921 C-153.18638152 15.1055224 -153.18638152 15.1055224 -146.82770646 6.12856936 C-140.17917207 1.50350197 -131.59126137 1.76704037 -123.74689591 1.53823733 C-122.69638959 1.50139771 -121.64588328 1.4645581 -120.56354344 1.42660213 C-117.36015206 1.31754819 -114.15660877 1.22126957 -110.95270646 1.12856936 C-109.57273798 1.0860794 -109.57273798 1.0860794 -108.16489136 1.04273105 C-101.85915384 0.85052926 -95.55301198 0.70226335 -89.24567521 0.57388186 C-88.23377814 0.55294593 -87.22188107 0.53200999 -86.17932045 0.51043963 C-57.45569921 -0.06534065 -28.72800488 -0.02312673 0 0 Z M-22.95270646 6.12856936 C-23.94270646 6.62356936 -23.94270646 6.62356936 -24.95270646 7.12856936 C-24.95270646 8.77856936 -24.95270646 10.42856936 -24.95270646 12.12856936 C-23.06091442 12.81005166 -23.06091442 12.81005166 -20.95270646 13.12856936 C-20.29270646 12.46856936 -19.63270646 11.80856936 -18.95270646 11.12856936 C-19.03842307 9.03565779 -19.03842307 9.03565779 -19.95270646 7.12856936 C-20.94270646 6.79856936 -21.93270646 6.46856936 -22.95270646 6.12856936 Z M-12.95270646 9.12856936 C-12.95270646 10.11856936 -12.95270646 11.10856936 -12.95270646 12.12856936 C-11.96270646 11.79856936 -10.97270646 11.46856936 -9.95270646 11.12856936 C-10.28270646 10.46856936 -10.61270646 9.80856936 -10.95270646 9.12856936 C-11.61270646 9.12856936 -12.27270646 9.12856936 -12.95270646 9.12856936 Z M-91.68659317 19.36001468 C-92.75372084 19.37472694 -92.75372084 19.37472694 -93.84240663 19.38973641 C-107.88003473 19.58798921 -121.91607317 19.86821079 -135.95270646 20.12856936 C-135.95270646 41.24856936 -135.95270646 62.36856936 -135.95270646 84.12856936 C-125.76798554 84.08937529 -125.76798554 84.08937529 -115.58332169 84.03848147 C-92.49736231 83.99421446 -92.49736231 83.99421446 -82.95270646 86.12856936 C-81.26785376 92.70765678 -80.67918101 98.63907253 -80.75739396 105.41372561 C-80.76022385 106.35542102 -80.76305375 107.29711642 -80.7659694 108.26734805 C-80.77706439 111.24205727 -80.80214843 114.21645287 -80.82770646 117.19106936 C-80.83775008 119.22166394 -80.8468735 121.25226329 -80.85505021 123.28286624 C-80.87696861 128.23155272 -80.91142346 133.18000808 -80.95270646 138.12856936 C-93.11753316 138.99947008 -105.26165081 139.41310249 -117.45270646 139.69106936 C-123.55770646 139.83544436 -129.66270646 139.97981936 -135.95270646 140.12856936 C-135.95270646 153.65856936 -135.95270646 167.18856936 -135.95270646 181.12856936 C-131.80974015 181.12333255 -127.66677384 181.11809573 -123.3982631 181.11270022 C-109.40887333 181.09581716 -95.41948361 181.08491143 -81.43008626 181.07675719 C-72.98294962 181.07169793 -64.53582303 181.06483765 -56.08869278 181.05312991 C-18.86191573 181.00255942 18.35112099 181.08569731 55.57254684 181.77052188 C77.7322014 182.17711453 99.8846062 182.24204512 122.04729354 182.12856936 C122.66150999 162.45894104 123.23104638 142.81053994 123.04729354 123.12856936 C122.32139022 123.10875003 121.5954869 123.08893069 120.84758651 123.06851077 C117.5388088 122.97288746 114.23063025 122.8633593 110.92229354 122.75356936 C109.78018417 122.72263186 108.63807479 122.69169436 107.46135604 122.65981936 C106.35276229 122.62114749 105.24416854 122.58247561 104.10198104 122.54263186 C103.08603866 122.51121097 102.07009628 122.47979007 101.02336776 122.44741702 C97.751608 122.0968905 95.06831956 121.43601359 92.04729354 120.12856936 C88.47060838 109.39851389 89.86100049 96.01149832 89.86199081 84.78726077 C89.85979162 82.00113803 89.84152539 79.21540446 89.82268417 76.42935061 C89.81975103 74.61815402 89.8177657 72.80695559 89.81682479 70.99575686 C89.80963928 70.18291232 89.80245376 69.37006778 89.7950505 68.53259158 C89.8214461 61.71388817 90.88598727 56.09640703 92.04729354 49.12856936 C102.27729354 48.46856936 112.50729354 47.80856936 123.04729354 47.12856936 C123.04729354 38.21856936 123.04729354 29.30856936 123.04729354 20.12856936 C103.11123307 19.16411437 83.24564972 18.97903771 63.29211962 18.99424386 C58.79515091 18.99683709 54.29818388 18.99440954 49.80121505 18.99285769 C42.21583837 18.9910485 34.63047147 18.99340156 27.04509628 18.99819827 C19.40804546 19.00297418 11.77101422 19.00307256 4.13396347 18.99819827 C-43.77749567 18.94895569 -43.77749567 18.94895569 -91.68659317 19.36001468 Z M95.04729354 53.12856936 C94.1627005 67.74011783 93.93619842 82.30570995 93.92229354 96.94106936 C93.91979599 97.87844943 93.91729843 98.8158295 93.91472518 99.78161502 C93.90885628 102.46631488 93.91031576 105.15089958 93.91448104 107.83560061 C93.9124971 108.6575693 93.91051315 109.47953799 93.90846908 110.32641482 C93.56893389 114.02983317 93.56893389 114.02983317 95.04729354 117.12856936 C102.96025355 118.1996097 110.95064511 118.28821526 118.92229354 118.25356936 C120.03837997 118.25163577 121.1544664 118.24970218 122.30437362 118.24770999 C138.88951625 118.16738913 155.47043064 117.62588848 172.04729354 117.12856936 C172.17271009 96.09910904 171.95607023 75.14161324 171.04729354 54.12856936 C167.88136401 52.27231963 165.57330993 51.87984285 161.92180526 51.88564944 C160.89908523 51.88257281 159.8763652 51.87949618 158.82265365 51.87632632 C157.71858169 51.88351184 156.61450973 51.89069736 155.47698104 51.89810061 C154.32674453 51.89855884 153.17650802 51.89901706 151.99141586 51.89948916 C149.54860553 51.90251273 147.10579715 51.91040209 144.6630162 51.92275882 C140.98504671 51.94076219 137.30733331 51.94327003 133.62932479 51.94302249 C120.73671412 51.96303494 107.90855619 52.20596434 95.04729354 53.12856936 Z M-136.22345841 88.50088382 C-139.91244665 88.56646474 -143.60150177 88.62599537 -147.29059708 88.68520999 C-160.5309674 88.9103311 -173.73573048 89.29888166 -186.95270646 90.12856936 C-186.83540143 96.37668105 -186.71056577 102.62460909 -186.580392 108.87246585 C-186.53697223 110.99970943 -186.49530253 113.12698947 -186.455392 115.25430179 C-186.39785939 118.30495087 -186.33411678 121.35541525 -186.26911271 124.40591311 C-186.25240021 125.36319812 -186.23568772 126.32048312 -186.21846879 127.30677676 C-186.19852356 128.18761432 -186.17857834 129.06845187 -186.15802872 129.97598147 C-186.14248444 130.75541614 -186.12694016 131.5348508 -186.11092484 132.33790469 C-186.14381527 134.15150289 -186.14381527 134.15150289 -184.95270646 135.12856936 C-181.8171076 135.22391894 -178.70357033 135.25407815 -175.56769669 135.24209476 C-174.58244004 135.24224078 -173.59718338 135.24238681 -172.58207047 135.24253726 C-169.30845838 135.24183769 -166.03490241 135.23404322 -162.76130021 135.22622561 C-160.49828478 135.22436159 -158.23526894 135.22293762 -155.97225296 135.22193789 C-150.00291697 135.21811146 -144.03360514 135.20828011 -138.06427872 135.19723392 C-131.97826317 135.18702248 -125.89224373 135.18244085 -119.80622208 135.17739749 C-107.85503957 135.16665796 -95.90387502 135.14958004 -83.95270646 135.12856936 C-83.91244873 122.95481952 -83.91244873 122.95481952 -84.17145646 110.78481936 C-84.1936525 110.11938113 -84.21584855 109.4539429 -84.2387172 108.76833987 C-84.30754079 106.72165456 -84.38001608 104.67512055 -84.45270646 102.62856936 C-84.5011311 101.20800487 -84.54930898 99.78743193 -84.59723771 98.36685061 C-84.71290381 94.95398894 -84.83183529 91.54125115 -84.95270646 88.12856936 C-102.04713427 88.06699635 -119.13172193 88.19349082 -136.22345841 88.50088382 Z M-158.95270646 207.12856936 C-160.34193938 208.40898974 -161.7529114 209.66714924 -163.20270646 210.87856936 C-166.35295726 213.56780786 -169.26214472 216.41348805 -172.15973771 219.37075686 C-174.08381783 221.25710992 -176.09140665 223.00394735 -178.14020646 224.75356936 C-181.10720013 227.32804248 -183.81969947 229.78994973 -185.95270646 233.12856936 C-185.62270646 234.11856936 -185.29270646 235.10856936 -184.95270646 236.12856936 C-176.62849532 238.90330641 -167.0688828 238.30468684 -158.37922013 238.40981936 C-157.1640751 238.42788323 -155.94893008 238.4459471 -154.69696248 238.46455836 C-151.36963619 238.51312336 -148.04230062 238.5579239 -144.71490109 238.60096574 C-141.14998308 238.6479543 -137.58513376 238.69971841 -134.02027237 238.75079226 C-127.11921799 238.84882005 -120.21810699 238.94204806 -113.3169601 239.03330863 C-107.7208421 239.10734585 -102.12474778 239.1829819 -96.52866471 239.25961185 C8.06413745 240.70154411 8.06413745 240.70154411 112.66452301 241.25105929 C115.05547269 241.2535136 117.44641601 241.2574526 119.83736312 241.26168704 C133.32537239 241.28230913 146.81434539 241.30163824 160.29338729 240.74575686 C161.12749633 240.7153934 161.96160537 240.68502994 162.82099044 240.65374637 C166.94015992 240.4470767 170.32882027 239.95921666 174.04729354 238.12856936 C173.51281336 234.06966058 171.48960209 232.2103861 168.63713729 229.39028811 C167.72899276 228.48729983 166.82084823 227.58431155 165.88518417 226.65395999 C165.40798934 226.18707767 164.93079452 225.72019534 164.43913925 225.23916507 C163.00739654 223.83818668 161.58681005 222.4258363 160.16643417 221.01333499 C155.58947649 216.48783994 150.99566913 212.03932535 146.0244664 207.94625735 C144.04729354 206.12856936 144.04729354 206.12856936 142.56496322 204.08709598 C139.56905354 200.18615719 137.23361712 198.36373783 132.34445846 197.39454532 C127.51071668 197.00969445 122.67688711 197.09975253 117.83244979 197.16372561 C115.93198602 197.15899683 114.03152847 197.15061247 112.13109481 197.13891482 C107.98793571 197.12102628 103.8458316 197.12829513 99.70271957 197.15466189 C93.00574762 197.19700888 86.30951859 197.18549899 79.61247909 197.16592288 C72.27625775 197.14748511 64.94013509 197.13438931 57.60388839 197.13996768 C37.62062345 197.15472806 17.63981971 197.04783492 -2.34278667 196.89000988 C-4.77977083 196.87076524 -7.21675658 196.85173605 -9.65374291 196.8327682 C-16.1524645 196.78213008 -22.65118345 196.7311685 -29.14989674 196.67947555 C-39.47831298 196.59747128 -49.80674941 196.51956311 -60.13524127 196.44767725 C-62.42735531 196.43165512 -64.71946643 196.41525207 -67.01157773 196.39884162 C-74.30932054 196.34747774 -81.60695373 196.30495292 -88.90483963 196.28074527 C-100.55045014 196.23857446 -112.18025643 196.16787179 -123.81842911 195.71499515 C-126.30933692 195.63798409 -128.80031877 195.56547764 -131.29143059 195.49540782 C-133.42151956 195.41784806 -135.54137724 195.28121703 -137.66796219 195.13941836 C-148.35510003 194.8521642 -152.42718905 199.38241877 -158.95270646 207.12856936 Z " fill="#000000" transform="translate(200.9527064561844,120.87143063545227)"/>
<path d="M0 0 C6.03434375 -0.09612817 12.06727939 -0.10140183 18.10224915 -0.09426117 C20.0881553 -0.09532352 22.07406131 -0.0967112 24.05996704 -0.0983963 C29.38838959 -0.10119173 34.71678196 -0.09681289 40.04520035 -0.09022141 C43.38875109 -0.08642496 46.73229898 -0.08437405 50.07585144 -0.08275604 C82.94572641 -0.06405765 115.81244216 0.12183794 148.68037415 0.47605133 C149.61761826 0.48590813 150.55486237 0.49576492 151.52050781 0.50592041 C162.18859396 0.61818937 172.85620852 0.74727898 183.52358055 0.91485214 C188.22801989 0.98873735 192.93242304 1.05608041 197.63710022 1.11307526 C202.73143286 1.17534246 207.82535584 1.25253089 212.91932487 1.33947182 C214.86134624 1.37029452 216.80345207 1.39623602 218.74560738 1.41696739 C221.43708487 1.4466593 224.12767758 1.49450411 226.81880188 1.54660797 C228.00359162 1.55351623 228.00359162 1.55351623 229.21231651 1.56056404 C235.49782495 1.71271024 241.08298573 3.11786496 245.7858429 7.59714508 C246.28664368 8.0657193 246.78744446 8.53429352 247.30342102 9.01706696 C247.79906555 9.4985318 248.29471008 9.97999664 248.80537415 10.47605133 C249.31262024 10.95364899 249.81986633 11.43124664 250.34248352 11.92331696 C253.15070199 14.57855855 255.89822727 17.29294124 258.61787415 20.03855133 C258.28787415 21.02855133 257.95787415 22.01855133 257.61787415 23.03855133 C232.84164438 23.15994851 208.07823682 23.03729895 183.30537415 22.60105133 C157.84778862 22.15973878 132.39001756 21.77869828 106.93037415 21.47605133 C106.00669666 21.46494953 105.08301918 21.45384773 104.13135147 21.44240952 C81.01855639 21.16619007 57.90819506 21.00196344 34.7936554 21.01120758 C33.73560259 21.01159971 32.67754978 21.01199184 31.58743477 21.01239586 C21.27635202 21.01759148 10.96534191 21.03278414 0.65431118 21.06632137 C-3.11627135 21.07799575 -6.8868573 21.08618462 -10.65744972 21.09392357 C-13.25175592 21.10089006 -15.84599436 21.11350109 -18.4402771 21.12633514 C-19.99364662 21.1299161 -21.54701679 21.13322395 -23.10038757 21.13620758 C-23.8009109 21.14137107 -24.50143423 21.14653456 -25.22318554 21.15185452 C-28.23429407 21.15219899 -30.49840363 20.99979207 -33.38212585 20.03855133 C-32.83787733 16.02383498 -31.71230433 13.69537556 -29.19462585 10.53855133 C-28.62357117 9.80636383 -28.05251648 9.07417633 -27.4641571 8.31980133 C-21.13163636 1.38135458 -21.13163636 1.38135458 -15.79759216 0.33618927 C-14.46173928 0.27703661 -13.12452224 0.24455896 -11.78739929 0.23435211 C-11.05046719 0.21028856 -10.31353508 0.18622501 -9.5542717 0.16143227 C-6.36987121 0.06989937 -3.18519736 0.0515479 0 0 Z M2.61787415 3.03855133 C1.95787415 4.68855133 1.29787415 6.33855133 0.61787415 8.03855133 C7.21787415 8.03855133 13.81787415 8.03855133 20.61787415 8.03855133 C20.94787415 6.38855133 21.27787415 4.73855133 21.61787415 3.03855133 C15.34787415 3.03855133 9.07787415 3.03855133 2.61787415 3.03855133 Z M24.61787415 3.03855133 C24.28787415 4.68855133 23.95787415 6.33855133 23.61787415 8.03855133 C26.90946731 8.09645486 30.20093018 8.13211394 33.49287415 8.16355133 C34.8985968 8.18868805 34.8985968 8.18868805 36.3327179 8.21433258 C37.22861633 8.22077789 38.12451477 8.22722321 39.04756165 8.23386383 C40.28868713 8.24957428 40.28868713 8.24957428 41.55488586 8.26560211 C43.84185572 8.2315739 43.84185572 8.2315739 45.61787415 6.03855133 C45.61787415 5.04855133 45.61787415 4.05855133 45.61787415 3.03855133 C38.68787415 3.03855133 31.75787415 3.03855133 24.61787415 3.03855133 Z M49.61787415 3.03855133 C49.28787415 4.35855133 48.95787415 5.67855133 48.61787415 7.03855133 C55.21787415 7.36855133 61.81787415 7.69855133 68.61787415 8.03855133 C68.61787415 6.38855133 68.61787415 4.73855133 68.61787415 3.03855133 C62.34787415 3.03855133 56.07787415 3.03855133 49.61787415 3.03855133 Z M71.61787415 3.03855133 C71.94787415 4.68855133 72.27787415 6.33855133 72.61787415 8.03855133 C79.21787415 8.03855133 85.81787415 8.03855133 92.61787415 8.03855133 C92.61787415 6.71855133 92.61787415 5.39855133 92.61787415 4.03855133 C85.57882371 3.10001127 78.71514843 2.93047101 71.61787415 3.03855133 Z M-11.88212585 3.16355133 C-13.8466571 3.19835602 -13.8466571 3.19835602 -15.85087585 3.23386383 C-19.64093812 3.71451473 -19.64093812 3.71451473 -21.85087585 7.09323883 C-22.6088446 8.55116852 -22.6088446 8.55116852 -23.38212585 10.03855133 C-20.81876332 9.92408861 -18.25699141 9.79735632 -15.69462585 9.66355133 C-14.61278015 9.61714508 -14.61278015 9.61714508 -13.50907898 9.56980133 C-9.44531734 9.34712946 -6.04836852 8.98277093 -2.38212585 7.03855133 C-1.03802324 5.02119928 -1.03802324 5.02119928 -0.38212585 3.03855133 C-4.22048478 3.03855133 -8.04528691 3.05025884 -11.88212585 3.16355133 Z M95.61787415 4.03855133 C95.61787415 5.35855133 95.61787415 6.67855133 95.61787415 8.03855133 C102.54787415 8.03855133 109.47787415 8.03855133 116.61787415 8.03855133 C116.61787415 7.04855133 116.61787415 6.05855133 116.61787415 5.03855133 C109.59981557 3.9376794 102.71221647 3.94122041 95.61787415 4.03855133 Z M119.61787415 5.03855133 C119.94787415 6.02855133 120.27787415 7.01855133 120.61787415 8.03855133 C128.20787415 8.03855133 135.79787415 8.03855133 143.61787415 8.03855133 C143.61787415 7.04855133 143.61787415 6.05855133 143.61787415 5.03855133 C135.69787415 5.03855133 127.77787415 5.03855133 119.61787415 5.03855133 Z M146.61787415 5.03855133 C147.27787415 6.35855133 147.93787415 7.67855133 148.61787415 9.03855133 C156.53787415 9.03855133 164.45787415 9.03855133 172.61787415 9.03855133 C172.28787415 7.71855133 171.95787415 6.39855133 171.61787415 5.03855133 C163.36787415 5.03855133 155.11787415 5.03855133 146.61787415 5.03855133 Z M175.61787415 5.03855133 C175.94787415 6.35855133 176.27787415 7.67855133 176.61787415 9.03855133 C184.31051514 9.886559 191.88079089 10.1600762 199.61787415 10.03855133 C198.95787415 8.38855133 198.29787415 6.73855133 197.61787415 5.03855133 C190.35787415 5.03855133 183.09787415 5.03855133 175.61787415 5.03855133 Z M201.61787415 5.03855133 C202.60787415 7.01855133 203.59787415 8.99855133 204.61787415 11.03855133 C210.88787415 11.36855133 217.15787415 11.69855133 223.61787415 12.03855133 C222.62787415 10.05855133 221.63787415 8.07855133 220.61787415 6.03855133 C216.85487041 4.78421675 213.34576505 4.93159711 209.43037415 4.97605133 C208.30598938 4.98281891 208.30598938 4.98281891 207.15888977 4.98972321 C205.31185032 5.00148779 203.46485201 5.01942268 201.61787415 5.03855133 Z M224.61787415 6.03855133 C225.60787415 8.01855133 226.59787415 9.99855133 227.61787415 12.03855133 C233.55787415 12.36855133 239.49787415 12.69855133 245.61787415 13.03855133 C243.69531253 9.77602252 242.70451098 8.10147946 239.61787415 6.03855133 C234.5496924 5.40833855 229.69745203 5.63140959 224.61787415 6.03855133 Z M-24.38212585 10.03855133 C-27.35888045 13.13183028 -27.35888045 13.13183028 -28.38212585 17.03855133 C-21.12212585 17.03855133 -13.86212585 17.03855133 -6.38212585 17.03855133 C-6.05212585 15.05855133 -5.72212585 13.07855133 -5.38212585 11.03855133 C-11.32212585 11.36855133 -17.26212585 11.69855133 -23.38212585 12.03855133 C-23.71212585 11.37855133 -24.04212585 10.71855133 -24.38212585 10.03855133 Z M-2.4875946 12.92917633 C-3.51226535 14.96356195 -3.51226535 14.96356195 -3.38212585 17.03855133 C3.54787415 17.03855133 10.47787415 17.03855133 17.61787415 17.03855133 C17.94787415 15.05855133 18.27787415 13.07855133 18.61787415 11.03855133 C15.51402204 10.92241929 12.41072753 10.85133104 9.30537415 10.78855133 C8.42429993 10.75503571 7.54322571 10.72152008 6.63545227 10.68698883 C1.61824468 10.44979727 1.61824468 10.44979727 -2.4875946 12.92917633 Z M22.61787415 11.03855133 C20.34052405 13.85365127 20.34052405 13.85365127 20.61787415 17.03855133 C28.53787415 17.03855133 36.45787415 17.03855133 44.61787415 17.03855133 C44.28787415 15.05855133 43.95787415 13.07855133 43.61787415 11.03855133 C40.15969815 10.95171843 36.70180071 10.89821851 33.24287415 10.85105133 C32.2580304 10.82591461 31.27318665 10.80077789 30.25849915 10.77487946 C29.31748352 10.76521149 28.3764679 10.75554352 27.40693665 10.74558258 C26.53762512 10.72987213 25.6683136 10.71416168 24.7726593 10.69797516 C23.70604065 10.86656036 23.70604065 10.86656036 22.61787415 11.03855133 Z M46.61787415 11.03855133 C46.28787415 13.01855133 45.95787415 14.99855133 45.61787415 17.03855133 C53.86787415 17.03855133 62.11787415 17.03855133 70.61787415 17.03855133 C69.95787415 15.05855133 69.29787415 13.07855133 68.61787415 11.03855133 C61.35787415 11.03855133 54.09787415 11.03855133 46.61787415 11.03855133 Z M72.61787415 11.03855133 C72.61787415 13.01855133 72.61787415 14.99855133 72.61787415 17.03855133 C79.21787415 17.03855133 85.81787415 17.03855133 92.61787415 17.03855133 C92.61787415 15.05855133 92.61787415 13.07855133 92.61787415 11.03855133 C86.01787415 11.03855133 79.41787415 11.03855133 72.61787415 11.03855133 Z M96.61787415 11.03855133 C95.22016831 13.29163686 95.22016831 13.29163686 96.61787415 17.03855133 C103.87787415 17.03855133 111.13787415 17.03855133 118.61787415 17.03855133 C117.95787415 15.05855133 117.29787415 13.07855133 116.61787415 11.03855133 C110.01787415 11.03855133 103.41787415 11.03855133 96.61787415 11.03855133 Z M120.61787415 11.03855133 C120.94787415 13.01855133 121.27787415 14.99855133 121.61787415 17.03855133 C129.86787415 17.36855133 138.11787415 17.69855133 146.61787415 18.03855133 C145.95787415 16.05855133 145.29787415 14.07855133 144.61787415 12.03855133 C141.67655523 11.05811169 139.7928575 10.92233931 136.7311554 10.94089508 C135.79336243 10.94411774 134.85556946 10.94734039 133.88935852 10.95066071 C132.91289368 10.95903961 131.93642883 10.96741852 130.93037415 10.97605133 C129.94230774 10.98056305 128.95424133 10.98507477 127.93623352 10.98972321 C125.49671941 11.0015083 123.05732725 11.01796122 120.61787415 11.03855133 Z M148.61787415 12.03855133 C149.06317395 16.6687512 149.06317395 16.6687512 150.61787415 18.03855133 C152.47157026 18.12592778 154.32854955 18.14553286 156.1842804 18.13620758 C157.30898743 18.13298492 158.43369446 18.12976227 159.59248352 18.12644196 C161.36848938 18.1138736 161.36848938 18.1138736 163.18037415 18.10105133 C164.36824524 18.09653961 165.55611633 18.09202789 166.77998352 18.08737946 C169.72599641 18.07554808 172.67191095 18.0590642 175.61787415 18.03855133 C174.95787415 16.05855133 174.29787415 14.07855133 173.61787415 12.03855133 C165.36787415 12.03855133 157.11787415 12.03855133 148.61787415 12.03855133 Z M177.61787415 13.03855133 C177.94787415 14.68855133 178.27787415 16.33855133 178.61787415 18.03855133 C187.30466516 18.75816715 195.9008724 19.18223817 204.61787415 19.03855133 C203.44853857 16.28844729 202.85802879 14.91431107 200.61787415 13.03855133 C196.69030083 12.25643048 192.8530331 12.475162 188.86787415 12.66355133 C187.78892883 12.69062164 186.70998352 12.71769196 185.5983429 12.74558258 C182.9361635 12.81625991 180.27803179 12.91486732 177.61787415 13.03855133 Z M205.61787415 14.03855133 C205.61787415 15.68855133 205.61787415 17.33855133 205.61787415 19.03855133 C212.87787415 19.03855133 220.13787415 19.03855133 227.61787415 19.03855133 C226.95787415 17.71855133 226.29787415 16.39855133 225.61787415 15.03855133 C219.17538025 13.32055296 212.23686358 13.94897102 205.61787415 14.03855133 Z M238.49287415 14.47605133 C237.73877258 14.52825836 236.98467102 14.58046539 236.2077179 14.63425446 C234.34408045 14.76400137 232.48092419 14.90062621 230.61787415 15.03855133 C231.27787415 16.68855133 231.93787415 18.33855133 232.61787415 20.03855133 C239.54787415 20.03855133 246.47787415 20.03855133 253.61787415 20.03855133 C247.57928761 13.9999648 246.37557456 13.88382772 238.49287415 14.47605133 Z " fill="#000000" transform="translate(86.38212585449219,321.9614486694336)"/>
<path d="M0 0 C1.31754776 -0.0033284 2.63509552 -0.0066568 3.99256897 -0.01008606 C6.75132064 -0.01600509 9.51004128 -0.017933 12.26879883 -0.01733398 C15.7877376 -0.01723156 19.30647826 -0.03099825 22.82536983 -0.04810619 C26.21691614 -0.06192534 29.60842594 -0.06131444 33 -0.0625 C34.25425278 -0.06968552 35.50850555 -0.07687103 36.80076599 -0.08427429 C48.27072832 -0.05425529 48.27072832 -0.05425529 53.53515625 2.16796875 C55.55647426 5.19994577 55.84148354 6.20437404 56.1328125 9.67578125 C56.25100342 11.01938721 56.25100342 11.01938721 56.37158203 12.39013672 C56.44618652 13.34807129 56.52079102 14.30600586 56.59765625 15.29296875 C56.67999512 16.28055176 56.76233398 17.26813477 56.84716797 18.28564453 C57.08861371 21.24562586 57.31511653 24.20632553 57.53515625 27.16796875 C57.59590332 27.97298828 57.65665039 28.77800781 57.71923828 29.60742188 C60.57671823 68.60562579 60.57671823 68.60562579 55.53515625 76.16796875 C53.53027344 76.65991211 53.53027344 76.65991211 51.08203125 76.8203125 C50.18033203 76.88460449 49.27863281 76.94889648 48.34960938 77.01513672 C47.42083984 77.06557129 46.49207031 77.11600586 45.53515625 77.16796875 C44.69404297 77.22227051 43.85292969 77.27657227 42.98632812 77.33251953 C29.75574335 78.11717092 16.49692459 78.28976628 3.24621582 78.34420776 C1.5825425 78.35163164 -0.0811201 78.3622388 -1.74475098 78.37625122 C-23.82442239 78.5452425 -23.82442239 78.5452425 -29.46484375 76.16796875 C-31.66203444 72.12191739 -31.89928365 68.06589515 -32.08984375 63.54296875 C-32.12634033 62.75317627 -32.16283691 61.96338379 -32.20043945 61.1496582 C-32.52033678 52.99489844 -32.59934148 44.83318864 -32.64007568 36.6729126 C-32.64814421 35.14876424 -32.65916849 33.62462816 -32.67340088 32.1005249 C-32.75428061 22.39949489 -32.70646234 12.66666366 -30.46484375 3.16796875 C-24.65015372 -2.64672128 -7.94338317 0.00712822 0 0 Z M-26.46484375 6.16796875 C-26.48797034 14.62564209 -26.50576045 23.08330231 -26.51665592 31.54099941 C-26.52188406 35.46785533 -26.52898044 39.39468969 -26.5402832 43.3215332 C-26.55111455 47.10811132 -26.55712111 50.89466865 -26.55972099 54.68126106 C-26.5615748 56.12901194 -26.56519456 57.57676163 -26.57057381 59.02450371 C-26.57778742 61.0455401 -26.57825183 63.06659723 -26.57836914 65.08764648 C-26.58058975 66.24014389 -26.58281036 67.3926413 -26.58509827 68.58006287 C-26.7592197 71.09810022 -26.7592197 71.09810022 -25.46484375 72.16796875 C-23.54480595 72.26725205 -21.62108882 72.29596319 -19.69848633 72.29736328 C-17.84438896 72.30209152 -17.84438896 72.30209152 -15.95283508 72.30691528 C-14.58834803 72.30512295 -13.2238613 72.30307137 -11.859375 72.30078125 C-10.45944705 72.30145522 -9.05951922 72.30242603 -7.65959167 72.30368042 C-4.71128231 72.3051593 -1.76300313 72.30300097 1.18530273 72.29833984 C4.92470625 72.29271048 8.66403692 72.29587645 12.40343761 72.30191231 C15.30435202 72.30557154 18.20524995 72.30435393 21.10616493 72.30178452 C22.48176393 72.30112638 23.85736452 72.3019038 25.23296165 72.30426407 C34.38849159 72.31649932 43.41392781 71.94177217 52.53515625 71.16796875 C52.66124782 49.80854306 52.37895289 28.51198421 51.53515625 7.16796875 C45.68796584 4.62321803 40.02239737 4.89642105 33.76953125 4.9375 C32.62212463 4.93795822 31.47471802 4.93841644 30.2925415 4.93888855 C27.86168383 4.94190647 25.43082802 4.94977899 23 4.9621582 C19.33977124 4.98019955 15.67979947 4.98266906 12.01953125 4.98242188 C-0.8405696 5.00245625 -13.63596775 5.24905239 -26.46484375 6.16796875 Z " fill="#000000" transform="translate(44.46484375,24.83203125)"/>
<path d="M0 0 C1.79244141 0.04640625 1.79244141 0.04640625 3.62109375 0.09375 C5.33232422 0.15175781 5.33232422 0.15175781 7.078125 0.2109375 C8.60808105 0.25806885 8.60808105 0.25806885 10.16894531 0.30615234 C12.75 0.625 12.75 0.625 15.75 2.625 C19.8338059 14.87641771 18.75775605 32.88011375 16.75 45.625 C13.68766047 48.68733953 10.03215404 48.09629603 5.90625 48.23828125 C4.9824353 48.27560867 4.05862061 48.3129361 3.10681152 48.35139465 C-8.27343202 48.766053 -19.65929549 48.81105842 -31.04589844 48.81030273 C-34.77289868 48.81251358 -38.49961327 48.83082336 -42.2265625 48.84960938 C-44.64062401 48.85254042 -47.05468689 48.85452715 -49.46875 48.85546875 C-51.10668518 48.86624702 -51.10668518 48.86624702 -52.77770996 48.87724304 C-69.0281588 48.82973575 -69.0281588 48.82973575 -75.25 46.625 C-79.7542553 38.42233942 -78.36817233 26.71258451 -78.4375 17.625 C-78.45055176 16.60937988 -78.46360352 15.59375977 -78.47705078 14.54736328 C-78.47817871 13.5829834 -78.47930664 12.61860352 -78.48046875 11.625 C-78.48457764 10.75875 -78.48868652 9.8925 -78.49291992 9 C-78.22598395 6.39019788 -77.70901244 4.80152469 -76.25 2.625 C-66.61176673 -0.58774442 -54.94758806 0.36667221 -44.875 0.0625 C-43.58078125 0.01931641 -42.2865625 -0.02386719 -40.953125 -0.06835938 C-27.2905264 -0.49787221 -13.6610571 -0.45996825 0 0 Z M-74.25 5.625 C-73.92 18.165 -73.59 30.705 -73.25 43.625 C-68.75093275 44.52481345 -64.69774452 44.76033717 -60.1550293 44.73852539 C-59.35450638 44.73867142 -58.55398346 44.73881744 -57.72920227 44.7389679 C-55.0941798 44.73827355 -52.45922881 44.73050356 -49.82421875 44.72265625 C-47.99290506 44.72079037 -46.16159086 44.71936727 -44.33027649 44.71836853 C-39.51836765 44.71455672 -34.70648916 44.70473785 -29.89459229 44.69366455 C-24.11676409 44.68161971 -18.33892573 44.67704183 -12.56108856 44.67121124 C-3.79070462 44.66152538 4.97961277 44.64235946 13.75 44.625 C13.42 31.425 13.09 18.225 12.75 4.625 C5.39985708 4.60377726 -1.95016889 4.58377519 -9.30031586 4.57324982 C-12.72634754 4.56806265 -16.15235275 4.56118908 -19.57836914 4.54956055 C-37.8396 4.49229419 -56.00483601 4.83926388 -74.25 5.625 Z " fill="#000000" transform="translate(227.25,52.375)"/>
<path d="M0 0 C1.30372559 -0.00459229 2.60745117 -0.00918457 3.95068359 -0.01391602 C10.05787962 -0.00410494 16.15143814 0.10968921 22.25 0.4453125 C23.28640625 0.50219238 24.3228125 0.55907227 25.390625 0.61767578 C28 1.125 28 1.125 29.796875 2.29248047 C32.77699362 6.83159783 32.15962497 12.75787803 32.16796875 18.0078125 C32.17296135 19.11284622 32.17296135 19.11284622 32.17805481 20.24020386 C32.1830913 21.78822205 32.18546416 23.33625097 32.18530273 24.88427734 C32.18749987 27.24985469 32.20571877 29.61497305 32.22460938 31.98046875 C32.22754189 33.48958175 32.22952763 34.99869695 32.23046875 36.5078125 C32.23765427 37.21205353 32.24483978 37.91629456 32.25224304 38.64187622 C32.22073789 45.41099683 32.22073789 45.41099683 30 48.125 C25.74305818 49.3292355 21.46457393 49.27298213 17.07617188 49.27026367 C15.90206505 49.27530159 15.90206505 49.27530159 14.70423889 49.28044128 C12.12572631 49.28991362 9.54727888 49.29189232 6.96875 49.29296875 C5.17183404 49.29618318 3.37491834 49.2995474 1.57800293 49.30305481 C-2.18449511 49.30903624 -5.9469702 49.31089565 -9.70947266 49.31030273 C-14.52808847 49.310201 -19.3465573 49.3238692 -24.16513824 49.34107494 C-27.87462031 49.35219647 -31.58406681 49.35422192 -35.29356384 49.35369301 C-37.07014982 49.35487227 -38.84673674 49.35929107 -40.62330627 49.36702538 C-43.10769962 49.37683123 -45.5917733 49.37394524 -48.07617188 49.36791992 C-48.80775009 49.37353943 -49.53932831 49.37915894 -50.29307556 49.38494873 C-55.47557802 49.35303719 -59.26510449 48.85989551 -63 45.125 C-64.40308147 38.75716871 -64.38814835 32.24252175 -64.625 25.75 C-64.6765625 24.55632813 -64.728125 23.36265625 -64.78125 22.1328125 C-65.25824687 9.45030746 -65.25824687 9.45030746 -64 4.125 C-60.75198179 1.82279622 -57.47909843 1.75704482 -53.5859375 1.53515625 C-52.33780273 1.46184082 -51.08966797 1.38852539 -49.80371094 1.31298828 C-48.54848633 1.25095215 -47.29326172 1.18891602 -46 1.125 C-44.34532715 1.04161377 -44.34532715 1.04161377 -42.65722656 0.95654297 C-28.44257885 0.30808795 -14.22776574 0.02538051 0 0 Z M2.71376801 4.46433926 C-0.69535632 4.51861557 -4.10448866 4.57186054 -7.51367188 4.62231445 C-25.35481607 4.88887852 -43.17367393 5.34206365 -61 6.125 C-60.88175936 11.19718134 -60.75751147 16.2691664 -60.62768555 21.34106445 C-60.58436438 23.06660965 -60.54268727 24.79219693 -60.50268555 26.51782227 C-60.44491474 28.99768764 -60.38123997 31.47734172 -60.31640625 33.95703125 C-60.29969376 34.72900345 -60.28298126 35.50097565 -60.26576233 36.29634094 C-60.17772105 39.47682933 -60.01254805 42.08735584 -59 45.125 C-30.29 45.125 -1.58 45.125 28 45.125 C29.15781966 24.42091307 29.15781966 24.42091307 27 4.125 C18.90525294 4.125 10.80730085 4.33535978 2.71376801 4.46433926 Z " fill="#000000" transform="translate(358,32.875)"/>
<path d="M0 0 C3.0625 1.125 3.0625 1.125 5 3 C5.9375 6.0625 5.9375 6.0625 6 9 C4 11 4 11 1.6875 11.25 C-1.199584 10.98143405 -3.33037977 10.08227847 -6 9 C-6.99 9.495 -6.99 9.495 -8 10 C-8.48616594 12.3511062 -8.48616594 12.3511062 -8 15 C-5.44955823 16.97273807 -5.44955823 16.97273807 -2.1875 18.5 C2.31021916 20.77841449 4.89059169 22.33329531 7 27 C7.72310712 33.40466307 6.78233196 36.7865154 3 42 C-0.74480255 45.41437879 -4.67042422 45.5676739 -9.5546875 45.421875 C-13.62793808 44.71914167 -15.2754149 43.07389088 -18 40 C-19.0625 37.875 -19.0625 37.875 -19 36 C-17.875 34.1875 -17.875 34.1875 -16 33 C-13.3125 33.3125 -13.3125 33.3125 -11 34 C-11 34.66 -11 35.32 -11 36 C-8.08347826 36.16681109 -8.08347826 36.16681109 -5 36 C-2.65026182 34.10244856 -2.65026182 34.10244856 -2.875 30.875 C-2.91625 29.92625 -2.9575 28.9775 -3 28 C-3.86625 27.7525 -4.7325 27.505 -5.625 27.25 C-10.22143766 25.54761568 -13.71556528 23.54132166 -16.875 19.75 C-18.38657876 16.0550297 -18.58433082 12.93822962 -18 9 C-14.38068122 0.61841966 -8.5219986 -1.13346779 0 0 Z " fill="#000000" transform="translate(353,185)"/>
<path d="M0 0 C2.35546875 0.15234375 2.35546875 0.15234375 5 1 C7.42798601 3.78612711 9.07501097 6.82152975 11 10 C14.465 5.05 14.465 5.05 18 0 C22 1 22 1 23 2 C23.21809756 6.25748426 23.18579161 10.52045724 23.18530273 14.78295898 C23.18748743 16.92517 23.20563512 19.06686471 23.22460938 21.20898438 C23.22754359 22.5651024 23.2295282 23.92122288 23.23046875 25.27734375 C23.23457764 26.51734131 23.23868652 27.75733887 23.24291992 29.03491211 C23 32 23 32 21 34 C19.35 33.67 17.7 33.34 16 33 C15.67 28.05 15.34 23.1 15 18 C14.34 18.66 13.68 19.32 13 20 C10.375 19.625 10.375 19.625 8 19 C7.67 18.01 7.34 17.02 7 16 C5.64055064 17.12856201 5.64055064 17.12856201 5.9375 20.08984375 C5.97912438 22.65234444 6.02079096 25.21484444 6.0625 27.77734375 C6 31 6 31 5 33 C0.125 32.125 0.125 32.125 -1 31 C-1.10012401 28.79349344 -1.1308118 26.58377614 -1.1328125 24.375 C-1.13376923 23.71290527 -1.13472595 23.05081055 -1.13571167 22.36865234 C-1.13639326 20.96647039 -1.13454042 19.5642853 -1.13037109 18.16210938 C-1.12502246 16.00904287 -1.1303167 13.85618498 -1.13671875 11.703125 C-1.13605796 10.34374954 -1.13477679 8.9843742 -1.1328125 7.625 C-1.13168457 6.37976563 -1.13055664 5.13453125 -1.12939453 3.8515625 C-1 1 -1 1 0 0 Z " fill="#000000" transform="translate(69,217)"/>
<path d="M0 0 C3.69230769 0.69230769 3.69230769 0.69230769 5 2 C5.23363881 3.84891946 5.41303635 5.70488031 5.5625 7.5625 C5.68818359 9.08037109 5.68818359 9.08037109 5.81640625 10.62890625 C5.87699219 11.41136719 5.93757813 12.19382813 6 13 C8.64 13.33 11.28 13.66 14 14 C13.835 13.34 13.67 12.68 13.5 12 C12.87816701 8.26900206 12.93591074 4.78126622 13 1 C14.65 0.67 16.3 0.34 18 0 C20.33676983 3.50515475 20.66822299 6.48863179 21.125 10.5625 C21.2084668 11.27833252 21.29193359 11.99416504 21.37792969 12.73168945 C23.0872411 28.21142293 23.0872411 28.21142293 20 34 C18.68 33.67 17.36 33.34 16 33 C15.66430703 31.37548581 15.3315204 29.75037083 15 28.125 C14.814375 27.22007812 14.62875 26.31515625 14.4375 25.3828125 C14 23 14 23 14 21 C11.36 21 8.72 21 6 21 C6.01160156 21.68707031 6.02320313 22.37414062 6.03515625 23.08203125 C6.04869141 24.43361328 6.04869141 24.43361328 6.0625 25.8125 C6.07410156 26.70582031 6.08570313 27.59914062 6.09765625 28.51953125 C6 31 6 31 5 34 C3.35 34 1.7 34 0 34 C-1.54917022 29.35248934 -1.41978378 24.62086743 -1.625 19.75 C-1.70234375 18.21279297 -1.70234375 18.21279297 -1.78125 16.64453125 C-2.01595421 11.28084983 -2.09175829 6.26955333 -1 1 C-0.67 0.67 -0.34 0.34 0 0 Z " fill="#000000" transform="translate(22,218)"/>
<path d="M0 0 C1.134375 0.020625 2.26875 0.04125 3.4375 0.0625 C4.54624173 2.27998346 4.63063282 3.64406418 4.75390625 6.10546875 C4.81723145 7.33475098 4.81723145 7.33475098 4.88183594 8.58886719 C4.92083008 9.46704102 4.95982422 10.34521484 5 11.25 C5.0402832 12.14750977 5.08056641 13.04501953 5.12207031 13.96972656 C5.23625798 16.66705046 5.3389245 19.36456447 5.4375 22.0625 C5.48269775 23.19196045 5.48269775 23.19196045 5.52880859 24.34423828 C6.13136091 40.82807407 6.13136091 40.82807407 -0.125 48 C-4.11920646 50.95571278 -8.71662702 51.23988637 -13.5625 51.0625 C-16.6875 50.125 -16.6875 50.125 -18.5625 49.0625 C-18.5625 46.7525 -18.5625 44.4425 -18.5625 42.0625 C-17.80324219 42.01351562 -17.04398437 41.96453125 -16.26171875 41.9140625 C-15.26785156 41.83929688 -14.27398437 41.76453125 -13.25 41.6875 C-11.77080078 41.58308594 -11.77080078 41.58308594 -10.26171875 41.4765625 C-7.34721567 41.22384528 -7.34721567 41.22384528 -4.5625 39.0625 C-1.61135597 29.32711683 -3.62769687 17.24394258 -4.29443359 7.19677734 C-4.42097841 5.15398253 -4.49664831 3.10815095 -4.5625 1.0625 C-3.5625 0.0625 -3.5625 0.0625 0 0 Z " fill="#000000" transform="translate(323.5625,179.9375)"/>
<path d="M0 0 C7.11764706 0.45920304 7.11764706 0.45920304 9.9375 2.1875 C11.50049887 4.85379219 11.82169649 6.90940584 12 10 C11.33333333 12.33333333 10.66666667 14.66666667 10 17 C10.11366037 22.56935836 12.35661656 25.07635629 16 29 C15.33871094 29.47566406 14.67742187 29.95132813 13.99609375 30.44140625 C10.70195919 34.66382921 11.85870921 39.22248077 12.24414062 44.35742188 C12.4360982 48.72898392 12.44225225 50.40881057 9.7265625 54.0390625 C6.24159546 56.54544281 4.20367721 56.55520265 0 56 C-0.66 55.34 -1.32 54.68 -2 54 C-1.625 51.875 -1.625 51.875 -1 50 C1.97 49.505 1.97 49.505 5 49 C4.98839844 47.73542969 4.97679688 46.47085938 4.96484375 45.16796875 C4.95546434 43.50781398 4.9463643 41.84765761 4.9375 40.1875 C4.92912109 39.35412109 4.92074219 38.52074219 4.91210938 37.66210938 C4.90888672 36.85966797 4.90566406 36.05722656 4.90234375 35.23046875 C4.89448853 34.12288208 4.89448853 34.12288208 4.88647461 32.99291992 C5 31 5 31 6 28 C5.505 26.948125 5.01 25.89625 4.5 24.8125 C2.55060517 20.61244022 3.09687094 17.42622657 4 13 C4.185625 11.845 4.37125 10.69 4.5625 9.5 C4.706875 8.675 4.85125 7.85 5 7 C2.69 6.34 0.38 5.68 -2 5 C-1.125 1.125 -1.125 1.125 0 0 Z " fill="#000000" transform="translate(69,35)"/>
<path d="M0 0 C0.33 1.65 0.66 3.3 1 5 C-0.98 5.33 -2.96 5.66 -5 6 C-4.90460937 7.10859375 -4.80921875 8.2171875 -4.7109375 9.359375 C-4.5983609 10.82287083 -4.48641476 12.28641526 -4.375 13.75 C-4.31054688 14.47960938 -4.24609375 15.20921875 -4.1796875 15.9609375 C-3.88417167 20.02428012 -4.04966807 22.46645745 -6 26 C-5.98767768 28.49258656 -5.98767768 28.49258656 -5.5625 31.125 C-4.93125118 36.59337641 -5.30860702 41.56458747 -6 47 C-6 47.66 -6 48.32 -6 49 C-3.69 49 -1.38 49 1 49 C1 50.65 1 52.3 1 54 C-1.6875 55.1875 -1.6875 55.1875 -5 56 C-7.92878184 54.66873553 -9.73304965 53.26695035 -12 51 C-13.09828068 45.4087529 -12.87377607 40.79648138 -11.86328125 35.19921875 C-11.7553784 32.80207866 -11.7553784 32.80207866 -13.98046875 31.20703125 C-14.64691406 30.80871094 -15.31335938 30.41039063 -16 30 C-15.56860181 27.08806224 -15.01871617 26.01931425 -12.921875 23.85546875 C-10.39205608 20.09673373 -10.89260339 17.27544105 -11.5 13 C-12.51570859 5.8504668 -12.51570859 5.8504668 -10.21875 2.0625 C-6.67220562 -1.23428773 -4.48929262 -1.0919901 0 0 Z " fill="#000000" transform="translate(46,36)"/>
<path d="M0 0 C1.09461044 -0.00315216 2.18922089 -0.00630432 3.31700134 -0.009552 C5.10443504 -0.00651566 5.10443504 -0.00651566 6.92797852 -0.00341797 C8.14260269 -0.00437469 9.35722687 -0.00533142 10.60865784 -0.00631714 C13.18360445 -0.00699924 15.75855276 -0.00514288 18.33349609 -0.00097656 C22.28625335 0.00436664 26.23889672 -0.00091821 30.19165039 -0.00732422 C32.68709335 -0.00666335 35.18253624 -0.00538201 37.67797852 -0.00341797 C38.86757675 -0.0054422 40.05717499 -0.00746643 41.28282166 -0.009552 C42.92946556 -0.00482376 42.92946556 -0.00482376 44.609375 0 C46.0637925 0.00119339 46.0637925 0.00119339 47.54759216 0.00241089 C49.86938477 0.12939453 49.86938477 0.12939453 51.86938477 1.12939453 C51.86938477 2.77939453 51.86938477 4.42939453 51.86938477 6.12939453 C49.36329248 7.38244067 47.6449521 7.26310217 44.84057617 7.2746582 C43.26851913 7.28422798 43.26851913 7.28422798 41.66470337 7.29399109 C39.9600441 7.29566032 39.9600441 7.29566032 38.22094727 7.29736328 C36.47483658 7.30235588 36.47483658 7.30235588 34.69345093 7.30744934 C32.22703446 7.31251977 29.76061112 7.31485763 27.29418945 7.31469727 C23.51705627 7.31688142 19.74021613 7.33502979 15.96313477 7.35400391 C13.5699066 7.35693823 11.17667704 7.35892277 8.78344727 7.35986328 C7.65105621 7.3670488 6.51866516 7.37423431 5.35195923 7.38163757 C4.29761688 7.37856094 3.24327454 7.37548431 2.15698242 7.37231445 C1.23035797 7.37373947 0.30373352 7.37516449 -0.65097046 7.37663269 C-3.25556613 7.11693604 -4.89200345 6.44990418 -7.13061523 5.12939453 C-5.97762843 0.02331009 -5.21482157 0.00428242 0 0 Z " fill="#000000" transform="translate(131.130615234375,286.87060546875)"/>
<path d="M0 0 C1.09461044 -0.00637985 2.18922089 -0.0127597 3.31700134 -0.01933289 C5.10443504 -0.02100212 5.10443504 -0.02100212 6.92797852 -0.02270508 C8.14260269 -0.02603348 9.35722687 -0.02936188 10.60865784 -0.03279114 C13.18360006 -0.03786556 15.75854888 -0.04019931 18.33349609 -0.04003906 C22.28632374 -0.04222496 26.23887222 -0.06037394 30.19165039 -0.0793457 C32.68709214 -0.08227955 35.18253522 -0.0842644 37.67797852 -0.08520508 C38.86757675 -0.09239059 40.05717499 -0.09957611 41.28282166 -0.10697937 C42.38058426 -0.10390274 43.47834686 -0.10082611 44.609375 -0.09765625 C45.57898666 -0.09908127 46.54859833 -0.10050629 47.54759216 -0.10197449 C49.86938477 0.14526367 49.86938477 0.14526367 51.86938477 2.14526367 C51.61938477 4.20776367 51.61938477 4.20776367 50.86938477 6.14526367 C48.38544654 7.38723279 46.71106464 7.27885295 43.93237305 7.29052734 C42.90435577 7.2969072 41.8763385 7.30328705 40.81716919 7.30986023 C39.14532059 7.31152946 39.14532059 7.31152946 37.43969727 7.31323242 C36.29781952 7.31656082 35.15594177 7.31988922 33.97946167 7.32331848 C31.56012374 7.32838876 29.14077879 7.33072678 26.72143555 7.33056641 C23.01672849 7.3327505 19.31232024 7.35089883 15.60766602 7.36987305 C13.26001079 7.37280739 10.91235414 7.37479191 8.56469727 7.37573242 C7.45417999 7.38291794 6.34366272 7.39010345 5.19949341 7.39750671 C4.16517181 7.39443008 3.13085022 7.39135345 2.06518555 7.38818359 C0.70189621 7.39032112 0.70189621 7.39032112 -0.68893433 7.39250183 C-3.27207358 7.13093997 -4.90774915 6.4519947 -7.13061523 5.14526367 C-5.97809177 0.0412312 -5.21279607 0.0205097 0 0 Z " fill="#000000" transform="translate(143.130615234375,267.854736328125)"/>
<path d="M0 0 C1.0720015 -0.00095673 2.14400299 -0.00191345 3.24848938 -0.00289917 C5.5068874 -0.00357786 7.7652874 -0.00174528 10.02368164 0.00244141 C13.48653512 0.00780979 16.94925983 0.00247779 20.41210938 -0.00390625 C22.6080732 -0.00324572 24.80403695 -0.00196509 27 0 C28.5562635 -0.00303635 28.5562635 -0.00303635 30.14396667 -0.00613403 C31.10539078 -0.00298187 32.06681488 0.00017029 33.05737305 0.00341797 C34.32595406 0.00461136 34.32595406 0.00461136 35.62016296 0.00582886 C37.80078125 0.1328125 37.80078125 0.1328125 40.80078125 1.1328125 C40.84350225 2.79893155 40.84141957 4.46664135 40.80078125 6.1328125 C39.11274813 7.82084562 36.99893196 7.26894768 34.68603516 7.27807617 C33.5946524 7.28445602 32.50326965 7.29083588 31.3788147 7.29740906 C29.59608658 7.29907829 29.59608658 7.29907829 27.77734375 7.30078125 C26.56509125 7.30410965 25.35283875 7.30743805 24.10385132 7.31086731 C21.53310527 7.31594212 18.96235261 7.31827547 16.39160156 7.31811523 C12.44975963 7.32029921 8.50819851 7.33844251 4.56640625 7.35742188 C2.07421971 7.36035612 -0.41796816 7.36234071 -2.91015625 7.36328125 C-4.0945932 7.37046677 -5.27903015 7.37765228 -6.49935913 7.38505554 C-8.14588974 7.3804406 -8.14588974 7.3804406 -9.82568359 7.37573242 C-11.27677017 7.37786995 -11.27677017 7.37786995 -12.75717163 7.38005066 C-15.19921875 7.1328125 -15.19921875 7.1328125 -18.19921875 5.1328125 C-17.86921875 3.8128125 -17.53921875 2.4928125 -17.19921875 1.1328125 C-11.46746866 -0.09250803 -5.83032003 -0.01144221 0 0 Z " fill="#000000" transform="translate(257.19921875,266.8671875)"/>
<path d="M0 0 C1.09453491 -0.00315216 2.18906982 -0.00630432 3.31677246 -0.009552 C5.09646423 -0.00651566 5.09646423 -0.00651566 6.91210938 -0.00341797 C8.1253186 -0.00437469 9.33852783 -0.00533142 10.58850098 -0.00631714 C13.15747123 -0.00699864 15.7264432 -0.00514644 18.29541016 -0.00097656 C22.23929696 0.00437207 26.18306988 -0.00092261 30.12695312 -0.00732422 C32.61783879 -0.00666343 35.10872439 -0.00538226 37.59960938 -0.00341797 C38.78607056 -0.0054422 39.97253174 -0.00746643 41.19494629 -0.009552 C42.2894812 -0.00639984 43.38401611 -0.00324768 44.51171875 0 C45.47831421 0.00079559 46.44490967 0.00159119 47.4407959 0.00241089 C49.75585938 0.12939453 49.75585938 0.12939453 51.75585938 1.12939453 C51.38085938 3.56689453 51.38085938 3.56689453 50.75585938 6.12939453 C48.44554534 7.28455155 47.1266739 7.25611561 44.55664062 7.25878906 C43.68813477 7.26194122 42.81962891 7.26509338 41.92480469 7.26834106 C40.51086426 7.26530472 40.51086426 7.26530472 39.06835938 7.26220703 C37.60994629 7.26364212 37.60994629 7.26364212 36.12207031 7.2651062 C34.05745377 7.26578796 31.9928351 7.26393397 29.92822266 7.25976562 C26.79649907 7.25446334 23.66492195 7.25968671 20.53320312 7.26611328 C18.52408823 7.2654516 16.51497342 7.26416857 14.50585938 7.26220703 C13.11620972 7.26524338 13.11620972 7.26524338 11.69848633 7.26834106 C5.66291379 7.24705361 -0.2506282 6.83845568 -6.24414062 6.12939453 C-6.57414062 4.47939453 -6.90414062 2.82939453 -7.24414062 1.12939453 C-4.68325065 -0.15105045 -2.86703413 0.00235982 0 0 Z " fill="#000000" transform="translate(134.244140625,211.87060546875)"/>
<path d="M0 0 C-0.37295848 2.41656657 -0.62436964 3.67144603 -2.49609375 5.30859375 C-3.45708984 5.86740234 -3.45708984 5.86740234 -4.4375 6.4375 C-5.14777344 6.85257813 -5.85804688 7.26765625 -6.58984375 7.6953125 C-10.6736932 9.90601869 -14.81634821 11.98533162 -19 14 C-18.35933594 14.25394531 -17.71867187 14.50789063 -17.05859375 14.76953125 C-15.266043 15.4828115 -13.47577039 16.20183656 -11.6875 16.92578125 C-10.0716815 17.57163894 -8.44844524 18.1999386 -6.8125 18.79296875 C-2.25082759 20.51309939 -2.25082759 20.51309939 -0.9375 23.0625 C-1 25 -1 25 -3 27 C-12.46298127 26.84486916 -22.19812926 23.35671922 -30 18 C-30.75 15.6875 -30.75 15.6875 -30 13 C-24.36171049 6.51596707 -8.66710226 -2.88903409 0 0 Z " fill="#000000" transform="translate(334,45)"/>
<path d="M0 0 C1.55182228 -0.00472824 1.55182228 -0.00472824 3.13499451 -0.009552 C4.8239962 -0.00651566 4.8239962 -0.00651566 6.54711914 -0.00341797 C7.69515518 -0.00437469 8.84319122 -0.00533142 10.02601624 -0.00631714 C12.45972752 -0.00699921 14.89344062 -0.00514305 17.32714844 -0.00097656 C21.06262282 0.00436642 24.79797668 -0.00091816 28.53344727 -0.00732422 C30.89217149 -0.00666335 33.25089564 -0.005382 35.60961914 -0.00341797 C36.73359604 -0.0054422 37.85757294 -0.00746643 39.01560974 -0.009552 C40.57216026 -0.00482376 40.57216026 -0.00482376 42.16015625 0 C43.07647324 0.00079559 43.99279022 0.00159119 44.93687439 0.00241089 C47.14477539 0.12939453 47.14477539 0.12939453 49.14477539 1.12939453 C49.18749639 2.79551358 49.18541371 4.46322338 49.14477539 6.12939453 C47.54316218 7.73100774 45.84571901 7.26471668 43.62841797 7.2746582 C42.18605522 7.28422798 42.18605522 7.28422798 40.71455383 7.29399109 C39.14280647 7.29566032 39.14280647 7.29566032 37.53930664 7.29736328 C35.93136482 7.30235588 35.93136482 7.30235588 34.29093933 7.30744934 C32.01525299 7.31252505 29.73955918 7.31485747 27.46386719 7.31469727 C23.98953842 7.31687431 20.51553188 7.33499723 17.04125977 7.35400391 C14.83227648 7.35693961 12.62329168 7.35892322 10.41430664 7.35986328 C9.37659622 7.3670488 8.3388858 7.37423431 7.26972961 7.38163757 C2.16179014 7.36555791 -2.07693605 7.18086225 -6.85522461 5.12939453 C-5.73396986 0.16383779 -5.07932406 0.00441396 0 0 Z " fill="#000000" transform="translate(98.855224609375,190.87060546875)"/>
<path d="M0 0 C1.09453491 -0.00315216 2.18906982 -0.00630432 3.31677246 -0.009552 C5.09646423 -0.00651566 5.09646423 -0.00651566 6.91210938 -0.00341797 C8.1253186 -0.00437469 9.33852783 -0.00533142 10.58850098 -0.00631714 C13.15747123 -0.00699864 15.7264432 -0.00514644 18.29541016 -0.00097656 C22.23929696 0.00437207 26.18306988 -0.00092261 30.12695312 -0.00732422 C32.61783879 -0.00666343 35.10872439 -0.00538226 37.59960938 -0.00341797 C38.78607056 -0.0054422 39.97253174 -0.00746643 41.19494629 -0.009552 C42.2894812 -0.00639984 43.38401611 -0.00324768 44.51171875 0 C45.47831421 0.00079559 46.44490967 0.00159119 47.4407959 0.00241089 C49.75585938 0.12939453 49.75585938 0.12939453 51.75585938 1.12939453 C51.42585938 2.77939453 51.09585938 4.42939453 50.75585938 6.12939453 C41.2400123 7.01670483 31.80996215 7.28257773 22.25585938 7.25439453 C20.28939453 7.26019531 20.28939453 7.26019531 18.28320312 7.26611328 C10.06151838 7.25794875 1.94210033 6.89272499 -6.24414062 6.12939453 C-6.57414063 4.47939453 -6.90414062 2.82939453 -7.24414062 1.12939453 C-4.68325065 -0.15105045 -2.86703413 0.00235982 0 0 Z " fill="#000000" transform="translate(246.244140625,150.87060546875)"/>
<path d="M0 0 C0.87503677 -0.00315216 1.75007355 -0.00630432 2.65162659 -0.009552 C3.60568893 -0.00752777 4.55975128 -0.00550354 5.54272461 -0.00341797 C6.52115829 -0.00437469 7.49959198 -0.00533142 8.50767517 -0.00631714 C10.5866604 -0.00699952 12.66564774 -0.00514125 14.74462891 -0.00097656 C17.90719496 0.00433097 21.06961637 -0.00089876 24.23217773 -0.00732422 C26.25236034 -0.00666266 28.27254285 -0.0053799 30.29272461 -0.00341797 C31.23261734 -0.0054422 32.17251007 -0.00746643 33.1408844 -0.009552 C38.47958864 0.00920668 43.59954436 0.35121781 48.88256836 1.12939453 C49.26475603 2.7855411 49.59651938 4.45396477 49.88256836 6.12939453 C48.23302255 7.77894034 46.31382453 7.25680937 44.04321289 7.25878906 C42.49623215 7.2635173 42.49623215 7.2635173 40.91799927 7.26834106 C39.23370316 7.26530472 39.23370316 7.26530472 37.51538086 7.26220703 C35.79688431 7.26364212 35.79688431 7.26364212 34.04367065 7.2651062 C31.61415553 7.26578833 29.1846386 7.26393178 26.75512695 7.25976562 C23.03063868 7.2544276 19.30627155 7.25970451 15.58178711 7.26611328 C13.22631809 7.26545231 10.87084915 7.26417077 8.51538086 7.26220703 C7.39656525 7.26423126 6.27774963 7.26625549 5.12503052 7.26834106 C4.0874057 7.2651889 3.04978088 7.26203674 1.98071289 7.25878906 C1.06661652 7.25799347 0.15252014 7.25719788 -0.78927612 7.25637817 C-3.11743164 7.12939453 -3.11743164 7.12939453 -6.11743164 6.12939453 C-5.01821085 0.00516442 -5.01821085 0.00516442 0 0 Z " fill="#000000" transform="translate(166.117431640625,248.87060546875)"/>
<path d="M0 0 C3.48914397 1.20334256 6.42149051 3.0279299 9.48291016 5.06103516 C10.08941406 5.439375 10.69591797 5.81771484 11.32080078 6.20751953 C15.00238196 8.60115482 17.23506097 10.80098176 19.17041016 14.74853516 C13.48678057 22.83466517 3.62028507 25.88153164 -5.80615234 27.61962891 C-7.82958984 27.74853516 -7.82958984 27.74853516 -10.82958984 26.74853516 C-10.89208984 24.49853516 -10.89208984 24.49853516 -9.82958984 21.74853516 C-4.2174887 18.10066941 2.7787309 16.5099165 9.17041016 14.74853516 C9.17041016 14.08853516 9.17041016 13.42853516 9.17041016 12.74853516 C8.46400391 12.48814453 7.75759766 12.22775391 7.02978516 11.95947266 C3.96485601 10.66148354 1.25001034 9.12482824 -1.57958984 7.37353516 C-2.54380859 6.78830078 -3.50802734 6.20306641 -4.50146484 5.60009766 C-6.82958984 3.74853516 -6.82958984 3.74853516 -7.65771484 1.52197266 C-7.71443359 0.93673828 -7.77115234 0.35150391 -7.82958984 -0.25146484 C-4.9927599 -1.66987981 -2.95222565 -0.79690753 0 0 Z " fill="#000000" transform="translate(360.82958984375,45.25146484375)"/>
<path d="M0 0 C1.125 3.75 1.125 3.75 0 6 C-18.81 6 -37.62 6 -57 6 C-57.33 4.35 -57.66 2.7 -58 1 C-55.99571143 -1.00428857 -52.00969545 -0.2800768 -49.2578125 -0.3515625 C-48.46600586 -0.37512314 -47.67419922 -0.39868378 -46.85839844 -0.42295837 C-44.28072764 -0.49664704 -41.70294305 -0.56159623 -39.125 -0.625 C-38.25840759 -0.64779022 -37.39181519 -0.67058044 -36.4989624 -0.69406128 C-24.2903968 -1.00812581 -12.17676674 -1.09624631 0 0 Z " fill="#000000" transform="translate(182,171)"/>
<path d="M0 0 C1.01037827 0.00222061 2.02075653 0.00444122 3.06175232 0.00672913 C4.77341331 0.00684242 4.77341331 0.00684242 6.51965332 0.00695801 C7.76129745 0.01211929 9.00294159 0.01728058 10.2822113 0.02259827 C12.17785072 0.02472069 12.17785072 0.02472069 14.11178589 0.02688599 C17.47705394 0.0315487 20.84225495 0.04053972 24.20750427 0.05158997 C27.63930175 0.06180606 31.07110614 0.06638403 34.50291443 0.07142639 C41.2405633 0.08248071 47.9781803 0.09923742 54.71580505 0.12025452 C55.09799272 1.77640109 55.42975607 3.44482476 55.71580505 5.12025452 C54.71580505 6.12025452 54.71580505 6.12025452 52.43161011 6.24050903 C51.42123184 6.23828842 50.41085358 6.23606781 49.36985779 6.23377991 C48.22875046 6.23370438 47.08764313 6.23362885 45.91195679 6.23355103 C44.67031265 6.22838974 43.42866852 6.22322845 42.1493988 6.21791077 C40.25375938 6.21578835 40.25375938 6.21578835 38.31982422 6.21362305 C34.95455616 6.20896034 31.58935516 6.19996932 28.22410583 6.18891907 C24.79230836 6.17870298 21.36050397 6.174125 17.92869568 6.16908264 C11.19104681 6.15802832 4.45342981 6.14127162 -2.28419495 6.12025452 C-2.66638262 4.46410794 -2.99814596 2.79568427 -3.28419495 1.12025452 C-2.28419495 0.12025452 -2.28419495 0.12025452 0 0 Z " fill="#000000" transform="translate(129.28419494628906,229.87974548339844)"/>
<path d="M0 0 C1.51223648 0.00666183 1.51223648 0.00666183 3.05502319 0.01345825 C4.19605499 0.01360931 5.33708679 0.01376038 6.51269531 0.01391602 C8.36741959 0.02939987 8.36741959 0.02939987 10.25961304 0.04519653 C12.15313004 0.04944138 12.15313004 0.04944138 14.0848999 0.05377197 C17.44201998 0.06308772 20.79886965 0.08106068 24.15591431 0.10317993 C27.58108176 0.12363353 31.00627713 0.13277264 34.43148804 0.14285278 C41.15291724 0.16494445 47.87421827 0.19844527 54.59555054 0.24050903 C55.22055054 2.11550903 55.22055054 2.11550903 55.59555054 4.24050903 C53.59555054 6.24050903 53.59555054 6.24050903 51.22906494 6.48101807 C49.7434758 6.47435623 49.7434758 6.47435623 48.22787476 6.46755981 C46.54635818 6.46733322 46.54635818 6.46733322 44.83087158 6.46710205 C43.61626251 6.45677948 42.40165344 6.44645691 41.15023804 6.43582153 C39.91008942 6.43299164 38.6699408 6.43016174 37.39221191 6.42724609 C34.09430421 6.41793078 30.79659081 6.39995793 27.49874878 6.37783813 C24.13390484 6.35738377 20.76903247 6.34824527 17.40414429 6.33816528 C10.80120331 6.31607422 4.19839283 6.28257386 -2.40444946 6.24050903 C-3.06444946 4.92050903 -3.72444946 3.60050903 -4.40444946 2.24050903 C-2.40444946 0.24050903 -2.40444946 0.24050903 0 0 Z " fill="#000000" transform="translate(139.40444946289063,151.75949096679688)"/>
<path d="M0 0 C0.95708359 0.00222061 1.91416718 0.00444122 2.9002533 0.00672913 C3.98129837 0.00680466 5.06234344 0.00688019 6.17614746 0.00695801 C7.94018166 0.01469994 7.94018166 0.01469994 9.73985291 0.02259827 C10.93702438 0.02401321 12.13419586 0.02542816 13.36764526 0.02688599 C17.20918732 0.03250472 21.05067208 0.04506041 24.89219666 0.05775452 C27.48920102 0.0627671 30.0862063 0.06733043 32.68321228 0.07142639 C39.06539344 0.08248024 45.44754096 0.0992366 51.82969666 0.12025452 C52.21188433 1.77640109 52.54364767 3.44482476 52.82969666 5.12025452 C51.82969666 6.12025452 51.82969666 6.12025452 49.65939331 6.24050903 C48.70230972 6.23828842 47.74522614 6.23606781 46.75914001 6.23377991 C45.67809494 6.23370438 44.59704987 6.23362885 43.48324585 6.23355103 C41.71921165 6.2258091 41.71921165 6.2258091 39.91954041 6.21791077 C38.72236893 6.21649582 37.52519745 6.21508087 36.29174805 6.21362305 C32.450206 6.20800431 28.60872123 6.19544862 24.76719666 6.18275452 C22.17019229 6.17774193 19.57318701 6.17317861 16.97618103 6.16908264 C10.59399987 6.15802879 4.21185235 6.14127244 -2.17030334 6.12025452 C-2.55249102 4.46410794 -2.88425436 2.79568427 -3.17030334 1.12025452 C-2.17030334 0.12025452 -2.17030334 0.12025452 0 0 Z " fill="#000000" transform="translate(191.17030334472656,190.87974548339844)"/>
<path d="M0 0 C2.875 1.1875 2.875 1.1875 5 3 C5.8125 5.6875 5.8125 5.6875 6 8 C4.1875 8.625 4.1875 8.625 2 9 C1.01 8.34 0.02 7.68 -1 7 C-4.04211431 6.5832448 -4.04211431 6.5832448 -7 7 C-9.45449095 10.68173642 -9.69560229 13.72333408 -9 18 C-7.49720824 20.6715404 -7.49720824 20.6715404 -5 22 C-1.95488176 21.92572882 -0.56245977 21.58495816 1.5625 19.375 C2.036875 18.92125 2.51125 18.4675 3 18 C5.1875 18.3125 5.1875 18.3125 7 19 C6.76481427 22.52778597 6.63136193 24.40809819 4 26.875 C-0.11183378 28.41693767 -3.66688818 28.82390154 -8 28 C-11.857231 25.94063091 -14.36557667 23.03798704 -16 19 C-16.70439351 14.03648296 -16.53310707 10.08595884 -14.3125 5.5625 C-9.90798054 0.68181627 -6.6228423 -0.70959025 0 0 Z " fill="#000000" transform="translate(175,63)"/>
<path d="M0 0 C1.27617188 0.00483398 1.27617188 0.00483398 2.578125 0.00976562 C3.46757813 0.01814453 4.35703125 0.02652344 5.2734375 0.03515625 C6.170625 0.03966797 7.0678125 0.04417969 7.9921875 0.04882812 C10.21100398 0.06063034 12.42968768 0.0770947 14.6484375 0.09765625 C14.9784375 1.74765625 15.3084375 3.39765625 15.6484375 5.09765625 C13.3384375 5.75765625 11.0284375 6.41765625 8.6484375 7.09765625 C8.65367432 7.88003662 8.65891113 8.66241699 8.66430664 9.46850586 C8.68500856 12.99071458 8.69807588 16.51291055 8.7109375 20.03515625 C8.71931641 21.26685547 8.72769531 22.49855469 8.73632812 23.76757812 C8.73955078 24.93740234 8.74277344 26.10722656 8.74609375 27.3125 C8.75133057 28.396521 8.75656738 29.48054199 8.76196289 30.59741211 C8.6484375 33.09765625 8.6484375 33.09765625 7.6484375 34.09765625 C5.98226635 34.13829457 4.31455655 34.14037725 2.6484375 34.09765625 C1.60896 30.97922375 1.53348912 28.82290039 1.55078125 25.5546875 C1.55400391 24.48154297 1.55722656 23.40839844 1.56054688 22.30273438 C1.56892578 21.18318359 1.57730469 20.06363281 1.5859375 18.91015625 C1.59044922 17.77900391 1.59496094 16.64785156 1.59960938 15.48242188 C1.61140252 12.68744698 1.627861 9.89257805 1.6484375 7.09765625 C0.6996875 7.11828125 -0.2490625 7.13890625 -1.2265625 7.16015625 C-4.3515625 7.09765625 -4.3515625 7.09765625 -6.3515625 6.09765625 C-6.3515625 4.44765625 -6.3515625 2.79765625 -6.3515625 1.09765625 C-4.00303722 -0.07660639 -2.61382185 -0.01742548 0 0 Z " fill="#000000" transform="translate(50.3515625,216.90234375)"/>
<path d="M0 0 C1.24587891 -0.00128906 2.49175781 -0.00257813 3.77539062 -0.00390625 C5.07541016 -0.00003906 6.37542969 0.00382813 7.71484375 0.0078125 C8.98779297 0.00394531 10.26074219 0.00007812 11.57226562 -0.00390625 C18.98936209 0.00371275 26.28148074 0.29288807 33.65234375 1.1328125 C34.03453142 2.78895907 34.36629477 4.45738274 34.65234375 6.1328125 C32.4888943 8.29626195 27.4787467 7.32180726 24.47265625 7.3359375 C23.08710037 7.34448761 23.08710037 7.34448761 21.67355347 7.35321045 C19.71483512 7.36267595 17.75610073 7.36920056 15.79736328 7.37304688 C12.79691827 7.3827492 9.79715895 7.41375651 6.796875 7.4453125 C4.8971395 7.45184252 2.99739908 7.457093 1.09765625 7.4609375 C0.19757843 7.4732843 -0.70249939 7.4856311 -1.62985229 7.49835205 C-2.46726959 7.49535095 -3.30468689 7.49234985 -4.16748047 7.48925781 C-4.90392792 7.49290344 -5.64037537 7.49654907 -6.3991394 7.50030518 C-8.86609671 7.03503399 -9.76205384 6.02431652 -11.34765625 4.1328125 C-11.01765625 3.1428125 -10.68765625 2.1528125 -10.34765625 1.1328125 C-7.032802 -0.2187813 -3.53414517 0.00354656 0 0 Z " fill="#000000" transform="translate(241.34765625,210.8671875)"/>
<path d="M0 0 C1.22912109 0.04769531 2.45824219 0.09539062 3.72460938 0.14453125 C6.71233488 0.26078516 9.69995123 0.37930393 12.6875 0.5 C13.8125 4.25 13.8125 4.25 12.6875 6.5 C6.76098943 6.52469854 0.83450875 6.54285931 -5.09204102 6.55493164 C-7.10864789 6.55996382 -9.1252511 6.56679014 -11.1418457 6.57543945 C-14.03858339 6.58755373 -16.93527288 6.59323943 -19.83203125 6.59765625 C-20.73524612 6.60281754 -21.638461 6.60797882 -22.56904602 6.61329651 C-23.8300135 6.61340981 -23.8300135 6.61340981 -25.11645508 6.61352539 C-26.22565056 6.61685631 -26.22565056 6.61685631 -27.35725403 6.62025452 C-29.3125 6.5 -29.3125 6.5 -32.3125 5.5 C-31.9825 3.85 -31.6525 2.2 -31.3125 0.5 C-21.68871456 -2.41028563 -9.92312492 -0.40148236 0 0 Z " fill="#000000" transform="translate(256.3125,229.5)"/>
<path d="M0 0 C2.5 0.125 2.5 0.125 3.5 1.125 C3.58737645 2.97869611 3.60698153 4.83567541 3.59765625 6.69140625 C3.59282227 8.3784668 3.59282227 8.3784668 3.58789062 10.09960938 C3.57951172 11.28361328 3.57113281 12.46761719 3.5625 13.6875 C3.55798828 14.87537109 3.55347656 16.06324219 3.54882812 17.28710938 C3.53699675 20.23312226 3.52051287 23.17903681 3.5 26.125 C4.13808594 26.11339844 4.77617188 26.10179687 5.43359375 26.08984375 C6.25988281 26.08082031 7.08617188 26.07179687 7.9375 26.0625 C8.76121094 26.05089844 9.58492187 26.03929687 10.43359375 26.02734375 C12.5 26.125 12.5 26.125 13.5 27.125 C13.54063832 28.79117115 13.542721 30.45888095 13.5 32.125 C10.91246844 33.41876578 8.95041015 33.29332397 6.0625 33.3125 C5.09441406 33.32667969 4.12632813 33.34085938 3.12890625 33.35546875 C0.5 33.125 0.5 33.125 -2.5 31.125 C-3.90258016 23.73736405 -3.58164711 15.82870151 -3.625 8.3125 C-3.62975342 7.61302246 -3.63450684 6.91354492 -3.6394043 6.19287109 C-3.61921002 0.1809605 -3.61921002 0.1809605 0 0 Z " fill="#000000" transform="translate(99.5,216.875)"/>
<path d="M0 0 C14.19 0 28.38 0 43 0 C43.495 2.475 43.495 2.475 44 5 C42.05576948 6.94423052 39.12160078 6.12917217 36.53443909 6.13894653 C35.62717575 6.1369223 34.71991241 6.13489807 33.78515625 6.1328125 C32.39604286 6.13424759 32.39604286 6.13424759 30.97886658 6.13571167 C29.01593966 6.13639362 27.0530105 6.13453832 25.09008789 6.13037109 C22.07888737 6.12502907 19.06783643 6.13031247 16.05664062 6.13671875 C14.1536455 6.13605785 12.25065047 6.13477645 10.34765625 6.1328125 C8.98979759 6.13584885 8.98979759 6.13584885 7.60450745 6.13894653 C6.76701462 6.13579437 5.92952179 6.13264221 5.06665039 6.12939453 C4.32798233 6.12859894 3.58931427 6.12780334 2.82826233 6.12698364 C1 6 1 6 -1 5 C-0.67 3.35 -0.34 1.7 0 0 Z " fill="#000000" transform="translate(222,287)"/>
<path d="M0 0 C14.19 0 28.38 0 43 0 C43.495 2.475 43.495 2.475 44 5 C42.05576948 6.94423052 39.12160078 6.12917217 36.53443909 6.13894653 C35.62717575 6.1369223 34.71991241 6.13489807 33.78515625 6.1328125 C32.39604286 6.13424759 32.39604286 6.13424759 30.97886658 6.13571167 C29.01593966 6.13639362 27.0530105 6.13453832 25.09008789 6.13037109 C22.07888737 6.12502907 19.06783643 6.13031247 16.05664062 6.13671875 C14.1536455 6.13605785 12.25065047 6.13477645 10.34765625 6.1328125 C8.98979759 6.13584885 8.98979759 6.13584885 7.60450745 6.13894653 C6.76701462 6.13579437 5.92952179 6.13264221 5.06665039 6.12939453 C4.32798233 6.12859894 3.58931427 6.12780334 2.82826233 6.12698364 C1 6 1 6 -1 5 C-0.67 3.35 -0.34 1.7 0 0 Z " fill="#000000" transform="translate(222,171)"/>
<path d="M0 0 C0.75728394 0.00202423 1.51456787 0.00404846 2.2947998 0.00613403 C3.06787476 0.00517731 3.84094971 0.00422058 4.63745117 0.00323486 C6.27502524 0.00255313 7.91260199 0.00440697 9.5501709 0.00857544 C12.06536901 0.01392382 14.58038854 0.00863027 17.09558105 0.00222778 C18.68282103 0.00288857 20.2700609 0.00416973 21.8572998 0.00613403 C22.99322571 0.00309769 22.99322571 0.00309769 24.15209961 0 C29.46109849 0.02399522 29.46109849 0.02399522 30.5760498 1.13894653 C30.61668813 2.80511768 30.61877081 4.47282748 30.5760498 6.13894653 C27.59390455 7.63001916 24.5377518 7.3017319 21.26745605 7.30691528 C20.54493149 7.31024368 19.82240692 7.31357208 19.07798767 7.31700134 C17.5489465 7.32206641 16.01989427 7.3244098 14.49084473 7.32424927 C12.1512226 7.3264347 9.81207278 7.34459134 7.47253418 7.36355591 C5.98750975 7.36649013 4.50248308 7.36847473 3.01745605 7.36941528 C2.3173793 7.3766008 1.61730255 7.38378632 0.89601135 7.39118958 C-2.77518287 7.37391915 -4.28147675 7.23392883 -7.4239502 5.13894653 C-6.24704955 -0.07304205 -5.37852348 0.02430945 0 0 Z " fill="#000000" transform="translate(99.4239501953125,151.86105346679688)"/>
<path d="M0 0 C-0.875 3.875 -0.875 3.875 -2 5 C-4.58189446 5.10091475 -7.136465 5.13971499 -9.71875 5.1328125 C-10.87836243 5.13424759 -10.87836243 5.13424759 -12.06140137 5.13571167 C-13.69897544 5.13639341 -15.33655219 5.13453957 -16.97412109 5.13037109 C-19.48931921 5.12502271 -22.00433873 5.13031626 -24.51953125 5.13671875 C-26.10677123 5.13605797 -27.6940111 5.1347768 -29.28125 5.1328125 C-30.03853394 5.13483673 -30.79581787 5.13686096 -31.5760498 5.13894653 C-36.88504868 5.11495132 -36.88504868 5.11495132 -38 4 C-38.04063832 2.33382885 -38.042721 0.66611905 -38 -1 C-33.39228583 -1.19295733 -28.78431774 -1.37156479 -24.17553711 -1.53710938 C-22.60898062 -1.59537576 -21.04256276 -1.65750649 -19.47631836 -1.72363281 C-17.2201462 -1.81820719 -14.96383462 -1.89870334 -12.70703125 -1.9765625 C-12.01100296 -2.00875885 -11.31497467 -2.0409552 -10.59785461 -2.0741272 C-6.57612728 -2.1969875 -3.61491953 -1.79368573 0 0 Z " fill="#000000" transform="translate(131,270)"/>
<path d="M0 0 C2.0625 0.4375 2.0625 0.4375 4 1 C4.33 3.31 4.66 5.62 5 8 C7.64 8.66 10.28 9.32 13 10 C12.67 11.32 12.34 12.64 12 14 C9.69 14.33 7.38 14.66 5 15 C4.67 17.64 4.34 20.28 4 23 C2.68 23 1.36 23 0 23 C-1 22 -1 22 -1.0625 18.4375 C-1.041875 17.303125 -1.02125 16.16875 -1 15 C-3.31 15 -5.62 15 -8 15 C-8.33 13.35 -8.66 11.7 -9 10 C-6.36 9.67 -3.72 9.34 -1 9 C-1.020625 7.700625 -1.04125 6.40125 -1.0625 5.0625 C-1.08399454 3.70834367 -1.07148199 2.35243917 -1 1 C-0.67 0.67 -0.34 0.34 0 0 Z " fill="#000000" transform="translate(196,65)"/>
<path d="M0 0 C1.2478125 -0.00128906 2.495625 -0.00257813 3.78125 -0.00390625 C5.0909375 -0.00003906 6.400625 0.00382813 7.75 0.0078125 C9.0596875 0.00394531 10.369375 0.00007812 11.71875 -0.00390625 C13.59046875 -0.00197266 13.59046875 -0.00197266 15.5 0 C16.64984375 0.00112793 17.7996875 0.00225586 18.984375 0.00341797 C21.75 0.1328125 21.75 0.1328125 23.75 1.1328125 C23.75 2.7828125 23.75 4.4328125 23.75 6.1328125 C18.56977595 7.18229063 13.57333941 7.31619926 8.3125 7.3203125 C7.08176758 7.33868164 7.08176758 7.33868164 5.82617188 7.35742188 C0.73989627 7.36959971 -3.43130262 6.77363408 -8.25 5.1328125 C-8.25 3.8128125 -8.25 2.4928125 -8.25 1.1328125 C-5.4522735 -0.26605075 -3.12611108 0.00306653 0 0 Z " fill="#000000" transform="translate(200.25,211.8671875)"/>
<path d="M0 0 C2.0625 0.4375 2.0625 0.4375 4 1 C4.33 3.31 4.66 5.62 5 8 C7.31 8.33 9.62 8.66 12 9 C12.5625 10.9375 12.5625 10.9375 13 13 C12 14 12 14 8.4375 14.0625 C7.303125 14.041875 6.16875 14.02125 5 14 C4.67 16.97 4.34 19.94 4 23 C2.68 23 1.36 23 0 23 C-1.35439668 20.29120665 -1.06501451 17.99066732 -1 15 C-3.64 14.67 -6.28 14.34 -9 14 C-9 12.68 -9 11.36 -9 10 C-6.29120665 8.64560332 -3.99066732 8.93498549 -1 9 C-1.020625 7.700625 -1.04125 6.40125 -1.0625 5.0625 C-1.08399454 3.70834367 -1.07148199 2.35243917 -1 1 C-0.67 0.67 -0.34 0.34 0 0 Z " fill="#000000" transform="translate(222,65)"/>
<path d="M0 0 C0.99 0.33 1.98 0.66 3 1 C2.42903982 8.15430406 0.41628144 14.53309918 -1.875 21.3125 C-2.40287109 22.93768555 -2.40287109 22.93768555 -2.94140625 24.59570312 C-3.28816406 25.63275391 -3.63492187 26.66980469 -3.9921875 27.73828125 C-4.30526855 28.67712158 -4.61834961 29.61596191 -4.94091797 30.58325195 C-5.99843631 32.99643178 -7.01244221 34.30651604 -9 36 C-9.66 35.67 -10.32 35.34 -11 35 C-11.24962496 29.65386546 -10.4357546 25.21732837 -8.75 20.1875 C-8.52401123 19.49188965 -8.29802246 18.7962793 -8.06518555 18.07958984 C-3.14537366 3.14537366 -3.14537366 3.14537366 0 0 Z " fill="#000000" transform="translate(347,40)"/>
<path d="M0 0 C1.2478125 -0.00128906 2.495625 -0.00257813 3.78125 -0.00390625 C5.0909375 -0.00003906 6.400625 0.00382812 7.75 0.0078125 C9.0596875 0.00394531 10.369375 0.00007813 11.71875 -0.00390625 C13.59046875 -0.00197266 13.59046875 -0.00197266 15.5 0 C16.64984375 0.00112793 17.7996875 0.00225586 18.984375 0.00341797 C21.75 0.1328125 21.75 0.1328125 23.75 1.1328125 C23.42 2.7828125 23.09 4.4328125 22.75 6.1328125 C18.70915379 6.35974571 14.66741914 6.56105759 10.625 6.7578125 C9.48289063 6.82226562 8.34078125 6.88671875 7.1640625 6.953125 C6.05546875 7.0046875 4.946875 7.05625 3.8046875 7.109375 C2.78874512 7.16174316 1.77280273 7.21411133 0.72607422 7.26806641 C-2.57483186 7.11804984 -5.17544806 6.30731539 -8.25 5.1328125 C-8.25 3.8128125 -8.25 2.4928125 -8.25 1.1328125 C-5.4522735 -0.26605075 -3.12611108 0.00306653 0 0 Z " fill="#000000" transform="translate(209.25,267.8671875)"/>
<path d="M0 0 C1.2463623 0.01047363 2.49272461 0.02094727 3.77685547 0.03173828 C4.77143265 0.03598312 4.77143265 0.03598312 5.78610229 0.04031372 C7.9055988 0.05151643 10.02467401 0.07662027 12.14404297 0.10205078 C13.58023479 0.11208051 15.01643322 0.12120637 16.45263672 0.12939453 C19.97490925 0.15145578 23.496935 0.18598585 27.01904297 0.22705078 C27.40123064 1.88319735 27.73299399 3.55162102 28.01904297 5.22705078 C27.01904297 6.22705078 27.01904297 6.22705078 24.15161133 6.34057617 C22.90001221 6.33533936 21.64841309 6.33010254 20.35888672 6.32470703 C19.36218712 6.32258461 19.36218712 6.32258461 18.34535217 6.32041931 C16.21570398 6.31480596 14.08615957 6.30225132 11.95654297 6.28955078 C10.51578927 6.2845375 9.07503394 6.27997429 7.63427734 6.27587891 C4.09583195 6.26483223 0.55744758 6.2475587 -2.98095703 6.22705078 C-3.64095703 4.90705078 -4.30095703 3.58705078 -4.98095703 2.22705078 C-2.98095703 0.22705078 -2.98095703 0.22705078 0 0 Z " fill="#000000" transform="translate(204.98095703125,151.77294921875)"/>
<path d="M0 0 C1.11890625 -0.01224609 2.2378125 -0.02449219 3.390625 -0.03710938 C4.99164063 -0.04000977 4.99164063 -0.04000977 6.625 -0.04296875 C7.60726562 -0.04707764 8.58953125 -0.05118652 9.6015625 -0.05541992 C12 0.1875 12 0.1875 14 2.1875 C14 3.5075 14 4.8275 14 6.1875 C11.35171821 7.5116409 9.33319888 7.31707042 6.37109375 7.3203125 C4.69563477 7.32224609 4.69563477 7.32224609 2.98632812 7.32421875 C1.81521484 7.32035156 0.64410156 7.31648437 -0.5625 7.3125 C-1.73748047 7.31636719 -2.91246094 7.32023438 -4.12304688 7.32421875 C-5.79657227 7.32228516 -5.79657227 7.32228516 -7.50390625 7.3203125 C-8.53330322 7.31918457 -9.5627002 7.31805664 -10.62329102 7.31689453 C-13 7.1875 -13 7.1875 -14 6.1875 C-14.04063832 4.52132885 -14.042721 2.85361905 -14 1.1875 C-9.88137709 -0.87181145 -4.52640955 0.00260738 0 0 Z " fill="#000000" transform="translate(201,169.8125)"/>
<path d="M0 0 C1.07056641 -0.00128906 2.14113281 -0.00257813 3.24414062 -0.00390625 C4.93506836 0.00189453 4.93506836 0.00189453 6.66015625 0.0078125 C8.3452832 0.00201172 8.3452832 0.00201172 10.06445312 -0.00390625 C11.67223633 -0.00197266 11.67223633 -0.00197266 13.3125 0 C14.79544556 0.00169189 14.79544556 0.00169189 16.30834961 0.00341797 C18.72265625 0.1328125 18.72265625 0.1328125 20.72265625 1.1328125 C20.76537725 2.79893155 20.76329457 4.46664135 20.72265625 6.1328125 C18.98192421 7.87354454 16.5917399 7.26303343 14.2265625 7.265625 C13.11087891 7.26691406 11.99519531 7.26820313 10.84570312 7.26953125 C9.08323242 7.26373047 9.08323242 7.26373047 7.28515625 7.2578125 C6.11404297 7.26167969 4.94292969 7.26554688 3.73632812 7.26953125 C2.61935547 7.26824219 1.50238281 7.26695312 0.3515625 7.265625 C-0.6789624 7.26449707 -1.7094873 7.26336914 -2.77124023 7.26220703 C-5.27734375 7.1328125 -5.27734375 7.1328125 -7.27734375 6.1328125 C-6.23726321 0.33807805 -5.89591332 0.00673434 0 0 Z " fill="#000000" transform="translate(99.27734375,169.8671875)"/>
<path d="M0 0 C8.58 0 17.16 0 26 0 C26.33 1.65 26.66 3.3 27 5 C21.68450966 7.18516079 16.95902318 7.3018426 11.3125 7.25 C10.45849609 7.25773438 9.60449219 7.26546875 8.72460938 7.2734375 C7.90412109 7.27085937 7.08363281 7.26828125 6.23828125 7.265625 C5.49618408 7.26336914 4.75408691 7.26111328 3.98950195 7.25878906 C2 7 2 7 -1 5 C-0.67 3.35 -0.34 1.7 0 0 Z " fill="#000000" transform="translate(155,191)"/>
<path d="M0 0 C1.084021 0.00523682 2.16804199 0.01047363 3.28491211 0.01586914 C5.03964844 0.02070313 5.03964844 0.02070313 6.82983398 0.02563477 C8.67738281 0.03820312 8.67738281 0.03820312 10.56225586 0.05102539 C12.41560547 0.05779297 12.41560547 0.05779297 14.30639648 0.06469727 C17.37089703 0.07652931 20.43530307 0.09301366 23.49975586 0.11352539 C24.62475586 3.86352539 24.62475586 3.86352539 23.49975586 6.11352539 C19.56265675 6.31017968 15.62506914 6.49428016 11.68725586 6.67602539 C10.56770508 6.73209961 9.4481543 6.78817383 8.29467773 6.84594727 C6.68496094 6.91845703 6.68496094 6.91845703 5.04272461 6.99243164 C3.55808716 7.06312866 3.55808716 7.06312866 2.04345703 7.13525391 C-0.50024414 7.11352539 -0.50024414 7.11352539 -3.50024414 6.11352539 C-3.54296514 4.44740634 -3.54088246 2.77969654 -3.50024414 1.11352539 C-2.50024414 0.11352539 -2.50024414 0.11352539 0 0 Z " fill="#000000" transform="translate(96.500244140625,286.886474609375)"/>
<path d="M0 0 C8.58 0 17.16 0 26 0 C26.33 1.65 26.66 3.3 27 5 C24.56904576 7.43095424 18.52826634 6.53188609 15.25 6.6875 C13.74566406 6.77741211 13.74566406 6.77741211 12.2109375 6.86914062 C11.23898438 6.91619141 10.26703125 6.96324219 9.265625 7.01171875 C8.37649414 7.05772217 7.48736328 7.10372559 6.57128906 7.15112305 C3.69244238 6.98192384 1.60587559 6.19948817 -1 5 C-0.67 3.35 -0.34 1.7 0 0 Z " fill="#000000" transform="translate(127,250)"/>
<path d="M0 0 C8.91 0 17.82 0 27 0 C27 1.65 27 3.3 27 5 C26 6 26 6 23.49975586 6.11352539 C22.41573486 6.10828857 21.33171387 6.10305176 20.21484375 6.09765625 C19.04501953 6.09443359 17.87519531 6.09121094 16.66992188 6.08789062 C15.43822266 6.07951172 14.20652344 6.07113281 12.9375 6.0625 C11.08415039 6.05573242 11.08415039 6.05573242 9.19335938 6.04882812 C6.12885883 6.03699608 3.06445279 6.02051173 0 6 C-1.125 2.25 -1.125 2.25 0 0 Z " fill="#000000" transform="translate(190,230)"/>
<path d="M0 0 C4.31248609 -0.02886537 8.62494762 -0.04675255 12.9375 -0.0625 C14.16919922 -0.07087891 15.40089844 -0.07925781 16.66992188 -0.08789062 C17.83974609 -0.09111328 19.00957031 -0.09433594 20.21484375 -0.09765625 C21.84087524 -0.10551147 21.84087524 -0.10551147 23.49975586 -0.11352539 C26 0 26 0 27 1 C27 2.65 27 4.3 27 6 C18.42 6 9.84 6 1 6 C0.34 4.68 -0.32 3.36 -1 2 C-0.67 1.34 -0.34 0.68 0 0 Z " fill="#000000" transform="translate(188,287)"/>
<path d="M0 0 C2.9375 0.875 2.9375 0.875 4.9375 3.875 C4.6133631 7.19740324 4.32973697 8.48276303 1.9375 10.875 C-1.0625 11.125 -1.0625 11.125 -4.0625 10.875 C-6.0625 8.875 -6.0625 8.875 -6.375 5.9375 C-6.0625 2.875 -6.0625 2.875 -4.9375 0.9375 C-3.0625 -0.125 -3.0625 -0.125 0 0 Z " fill="#000000" transform="translate(84.0625,284.125)"/>
<path d="M0 0 C1.875 1.125 1.875 1.125 3 3 C2.875 6.0625 2.875 6.0625 2 9 C-1 11 -1 11 -4.125 10.75 C-5.548125 10.37875 -5.548125 10.37875 -7 10 C-8.39431504 7.21136993 -8.25660094 5.07921132 -8 2 C-4.76746204 -0.15502531 -3.74849077 -0.46856135 0 0 Z " fill="#000000" transform="translate(86,266)"/>
<path d="M0 0 C2.4375 0.75 2.4375 0.75 4.4375 2.75 C4.6875 5.75 4.6875 5.75 4.4375 8.75 C2.4375 10.75 2.4375 10.75 -0.5 11.125 C-3.5625 10.75 -3.5625 10.75 -5.5 9.0625 C-6.85219442 6.11948861 -6.67318406 4.76471387 -5.5625 1.75 C-2.5625 -0.25 -2.5625 -0.25 0 0 Z " fill="#000000" transform="translate(83.5625,188.25)"/>
<path d="M0 0 C3 0.25 3 0.25 5 2.25 C5.33333333 7.58333333 5.33333333 7.58333333 4 10.25 C1.1875 11.125 1.1875 11.125 -2 11.25 C-4.4375 9.625 -4.4375 9.625 -6 7.25 C-5.78476555 2.73007645 -4.7670208 0.39725173 0 0 Z " fill="#000000" transform="translate(83,167.75)"/>
<path d="M0 0 C1 1 1 1 1.1875 3.9375 C1 7 1 7 -1 9 C-3.9375 9.375 -3.9375 9.375 -7 9 C-8.9375 7.3125 -8.9375 7.3125 -10 5 C-9.9375 2.375 -9.9375 2.375 -9 0 C-5.68088138 -2.72641887 -3.62348217 -1.86070706 0 0 Z " fill="#000000" transform="translate(87,151)"/>
</svg>
