<?xml version="1.0" encoding="UTF-8"?>
<svg version="1.1" xmlns="http://www.w3.org/2000/svg" width="400" height="400">
<path d="M0 0 C3.46799085 0.72457225 4.77727538 1.71325872 6.95703125 4.51953125 C15.37854317 19.46549873 20.93440545 35.37534109 25 52 C25.64731549 54.33940051 26.32146084 56.66936551 27 59 C27.99 58.34 28.98 57.68 30 57 C35.00171164 56.54529894 37.17236352 56.89004536 41 60 C42.134375 60.268125 43.26875 60.53625 44.4375 60.8125 C49.6190236 62.53967453 51.8526506 65.7053012 54.25 70.5 C56.45249923 77.8416641 56.21865915 85.282679 56.25 92.875 C56.2809375 94.73705078 56.2809375 94.73705078 56.3125 96.63671875 C56.34488193 104.23837695 56.35975491 110.87594066 51.3515625 117.0234375 C50.49691406 117.69246094 50.49691406 117.69246094 49.625 118.375 C48.77808594 119.06722656 48.77808594 119.06722656 47.9140625 119.7734375 C43.32246316 122.71580932 39.61190838 123.23458401 34.1875 123.125 C33.02605469 123.10695313 31.86460937 123.08890625 30.66796875 123.0703125 C29.78753906 123.04710937 28.90710938 123.02390625 28 123 C28 131.26879674 32.23883541 136.49271354 37 143 C37.66 142.34 38.32 141.68 39 141 C45.60468308 141.2650941 51.14230252 143.32834439 57.234375 145.76171875 C58.70441986 146.33578461 58.70441986 146.33578461 60.2041626 146.92144775 C63.38972818 148.16779347 66.56997211 149.42709909 69.75 150.6875 C71.94502998 151.55158067 74.14034481 152.41493806 76.3359375 153.27758789 C79.66411271 154.58528845 82.99201258 155.89363744 86.31848145 157.20567322 C93.259037 159.93967687 100.21966356 162.61210298 107.203125 165.234375 C109.68768507 166.1738022 112.17183727 167.11430007 114.65588379 168.05508423 C116.21373625 168.64151999 117.77355615 169.22275666 119.33532715 169.79867554 C121.47911133 170.59013983 123.61495459 171.40015962 125.75 172.21484375 C127.53664063 172.88181274 127.53664063 172.88181274 129.359375 173.56225586 C132 175 132 175 133.07373047 176.88061523 C132.96955779 179.87506224 131.82605479 181.28328118 130.0703125 183.6953125 C129.43996094 184.57574219 128.80960937 185.45617187 128.16015625 186.36328125 C127.48855469 187.27464844 126.81695312 188.18601563 126.125 189.125 C124.81434559 190.93955649 123.50441338 192.75463491 122.1953125 194.5703125 C121.60766113 195.37227051 121.02000977 196.17422852 120.41455078 197.00048828 C118.96732402 198.93912338 118.96732402 198.93912338 118 201 C125.80676036 198.58490724 133.17395845 195.3916239 140.62304688 192.05273438 C141.51701172 191.66021484 142.41097656 191.26769531 143.33203125 190.86328125 C144.13358643 190.50532471 144.9351416 190.14736816 145.76098633 189.77856445 C148 189 148 189 152 189 C151.43465345 192.45071895 150.59941319 195.10434449 148.875 198.140625 C148.42447266 198.94693359 147.97394531 199.75324219 147.50976562 200.58398438 C147.01154297 201.46376953 146.51332031 202.34355469 146 203.25 C140.62938931 212.90124503 135.52699633 222.66688818 130.5 232.5 C125.31811417 242.62464502 120.06135984 252.68846033 114.54492188 262.63623047 C111.54695854 268.07389442 108.66703753 273.56208509 105.84765625 279.09375 C105.48800278 279.79797089 105.1283493 280.50219177 104.75779724 281.22775269 C102.97114173 284.72883323 101.193666 288.23414498 99.42944336 291.74658203 C98.77615396 293.03171538 98.1226017 294.31671515 97.46875 295.6015625 C96.89576172 296.73932129 96.32277344 297.87708008 95.73242188 299.04931641 C92.85921318 303.94300302 89.9932818 306.29425007 84.78515625 308.453125 C83.19707153 309.12154419 83.19707153 309.12154419 81.5769043 309.8034668 C80.41715088 310.28082275 79.25739746 310.75817871 78.0625 311.25 C76.81957023 311.77070382 75.5771518 312.29262963 74.33520508 312.81567383 C72.34148222 313.65520283 70.34747953 314.49399079 68.35203552 315.329422 C61.03989753 318.39172288 53.76433301 321.53726115 46.4906311 324.68954468 C44.1793693 325.69102306 41.86746407 326.69100305 39.55541992 327.69067383 C31.05521603 331.36753701 22.56194786 335.06005625 14.07421875 338.765625 C13.1756163 339.15784744 12.27701385 339.55006989 11.35118103 339.95417786 C6.98348148 341.86091307 2.61653435 343.76934375 -1.74926758 345.68041992 C-3.32501898 346.36900892 -4.90078327 347.05756844 -6.4765625 347.74609375 C-7.19664993 348.06197449 -7.91673737 348.37785522 -8.65864563 348.70330811 C-11.41842457 349.90808321 -14.14136842 351.04712281 -17 352 C-18.48046875 351.0234375 -18.48046875 351.0234375 -20.1875 349.375 C-31.32455476 339.15248441 -43.32219104 330.13306637 -55.75195312 321.55664062 C-58.05654727 319.96084433 -60.34984829 318.34993526 -62.640625 316.734375 C-63.4342041 316.17621094 -64.2277832 315.61804688 -65.04541016 315.04296875 C-66.69402971 313.88070344 -68.33950318 312.7139638 -69.98193359 311.54296875 C-74.6712972 308.22629837 -79.41664954 305.10734318 -84.3359375 302.140625 C-99.08274045 293.06965464 -107.46437873 284.42597823 -115.37109375 269.07080078 C-117.63561886 264.80173651 -120.15808527 260.70966198 -122.68676758 256.59326172 C-129.74976639 245.09353598 -136.33032244 233.35879429 -142.68066406 221.45361328 C-143.95109584 219.09094871 -145.24747383 216.74481759 -146.5546875 214.40234375 C-146.93955322 213.70512207 -147.32441895 213.00790039 -147.72094727 212.28955078 C-148.42502427 211.01430686 -149.13596627 209.74281765 -149.85522461 208.47607422 C-150.76953125 206.80078125 -150.76953125 206.80078125 -152 204 C-151.67 203.01 -151.34 202.02 -151 201 C-144.91331186 202.63872373 -139.78729404 205.80648407 -134.375 208.9375 C-132.31700658 210.11563262 -130.2584009 211.29269631 -128.19921875 212.46875 C-126.64726807 213.35626953 -126.64726807 213.35626953 -125.06396484 214.26171875 C-120.4657417 216.8704318 -115.82863858 219.40617113 -111.1875 221.9375 C-105.32035244 225.13875024 -99.51760076 228.38770246 -93.875 231.9765625 C-91.92036006 233.04347013 -90.15892156 233.50002154 -88 234 C-88.31001953 233.50000488 -88.62003906 233.00000977 -88.93945312 232.48486328 C-92.96398458 225.99259693 -96.98291978 219.49687896 -101 213 C-101.35173279 212.43138245 -101.70346558 211.86276489 -102.06585693 211.2769165 C-104.25204144 207.74259511 -106.43631054 204.2071018 -108.61816406 200.67010498 C-109.32866958 199.51889949 -110.03976603 198.36805849 -110.75146484 197.21759033 C-111.75649104 195.59266841 -112.75914988 193.96628298 -113.76171875 192.33984375 C-114.33881592 191.40519287 -114.91591309 190.47054199 -115.51049805 189.50756836 C-116.77834665 187.3731522 -117.92876707 185.2378833 -119 183 C-115.81399863 180.34580243 -112.68660928 178.95073619 -108.8125 177.50390625 C-107.55767764 177.02910804 -106.30287718 176.55425195 -105.0480957 176.0793457 C-104.38879059 175.83254059 -103.72948547 175.58573547 -103.05020142 175.33145142 C-88.22629668 169.77157693 -73.65968043 163.73804128 -59.16503906 157.36669922 C-56.14535253 156.06276485 -53.10760397 154.82138831 -50.0546875 153.59765625 C-40.52598688 149.70231264 -33.63675158 146.75818103 -29 137 C-28.45214844 136.18015625 -27.90429688 135.3603125 -27.33984375 134.515625 C-25.12252213 130.35249053 -26.00392833 126.47863336 -27 122 C-28.4421908 119.14751227 -28.4421908 119.14751227 -30 117 C-30 116.01 -30 115.02 -30 114 C-30.70125 114.03480469 -31.4025 114.06960937 -32.125 114.10546875 C-38.84768245 114.29728442 -45.30416392 114.36585072 -50.53125 109.60546875 C-55.48800799 103.91384257 -56.30916663 99.66207885 -56.1875 92.25 C-56.1774292 91.41178711 -56.1673584 90.57357422 -56.15698242 89.70996094 C-56.13038559 87.9823091 -56.09723055 86.25474615 -56.05761719 84.52734375 C-56.02063468 82.90512791 -55.9919168 81.28269058 -55.97363281 79.66015625 C-55.80319313 66.28357968 -55.80319313 66.28357968 -52.8125 61.625 C-49.89001519 58.89734751 -47.88682902 57.81352235 -44 57 C-43.9175 56.0925 -43.835 55.185 -43.75 54.25 C-42.8994601 50.56432708 -41.88206042 49.35804943 -39 47 C-36.72751762 45.86375881 -35.21697236 45.73553157 -32.6875 45.625 C-31.92824219 45.57601562 -31.16898437 45.52703125 -30.38671875 45.4765625 C-26.89005313 46.24342534 -25.32726959 48.38851519 -23 51 C-22.82460693 50.38181396 -22.64921387 49.76362793 -22.46850586 49.12670898 C-18.8655405 36.55076088 -15.06558896 24.61525426 -9 13 C-8.44957031 11.91589844 -7.89914063 10.83179688 -7.33203125 9.71484375 C-3.46101485 2.30734323 -3.46101485 2.30734323 0 0 Z M-14 36 C-17.76001243 43.87812128 -20.27395016 52.22054965 -20 61 C-18.07690578 60.96044102 -18.07690578 60.96044102 -16 60 C-14.98308736 58.00854609 -13.98357352 56.00812926 -13 54 C-9.65129014 51.36887082 -6.12011936 51.63858602 -2 52 C0.8125 53.125 0.8125 53.125 3 55 C3.28875 55.99 3.5775 56.98 3.875 58 C4.74637511 61.37444627 4.74637511 61.37444627 8.5 62.6875 C9.655 63.120625 10.81 63.55375 12 64 C14.18975773 67.28463659 14.99806563 70.20696275 16 74 C16.268125 73.443125 16.53625 72.88625 16.8125 72.3125 C20.41818182 65.29090909 20.41818182 65.29090909 23 64 C22.42100187 57.40474547 21.20265263 51.3108382 19.4375 44.9375 C19.20353516 44.07189453 18.96957031 43.20628906 18.72851562 42.31445312 C18.1582666 40.20802305 17.57998166 38.10377111 17 36 C16.33355469 36.2165625 15.66710937 36.433125 14.98046875 36.65625 C4.65265183 39.77626182 -3.9475465 40.16990664 -14 36 Z M-39 51 C-39.81171228 53.55519921 -39.81171228 53.55519921 -40 56 C-34.11577958 58.55058676 -34.11577958 58.55058676 -27.9375 58.1875 C-27.298125 57.795625 -26.65875 57.40375 -26 57 C-25.66574265 54.62625139 -25.66574265 54.62625139 -26 52 C-28.11332461 49.73013283 -29.42209036 49.07223871 -32.5 48.6875 C-35.21219639 49.02652455 -36.80702067 49.3552655 -39 51 Z M-12 57 C-12.33 57.99 -12.66 58.98 -13 60 C-10.16137697 61.89241536 -8.06515061 63.10911299 -4.59765625 62.75390625 C-2.36863845 62.24330976 -0.18458153 61.67479296 2 61 C1.72108798 59.04880621 1.72108798 59.04880621 1 57 C-4.59600721 53.66620847 -6.64392735 53.2919497 -12 57 Z M-50 64 C-50.9688059 67.13265479 -50.9688059 67.13265479 -51 70 C-45.81286347 73.65457346 -42.54166583 75.1550245 -36.25 75.0625 C-35.05117187 75.04896484 -35.05117187 75.04896484 -33.828125 75.03515625 C-33.22484375 75.02355469 -32.6215625 75.01195313 -32 75 C-30.84697526 69.43522474 -30.84697526 69.43522474 -32.25 64.125 C-34.75308326 61.08554175 -36.38042339 60.07014075 -40.3125 59.625 C-44.71596687 60.07281019 -46.72639678 61.03816851 -50 64 Z M-28.6875 61.5 C-29.120625 61.995 -29.55375 62.49 -30 63 C-29.34 65.31 -28.68 67.62 -28 70 C-25.2027092 67.93243723 -24.97307727 66.85559629 -24.3125 63.3125 C-24.209375 62.219375 -24.10625 61.12625 -24 60 C-27.00259517 59.66781808 -27.00259517 59.66781808 -28.6875 61.5 Z M29 62 C30.98 62.66 32.96 63.32 35 64 C35.66 63.01 36.32 62.02 37 61 C35.94689723 59.72996677 35.94689723 59.72996677 33.5625 59.8125 C30.83265325 59.73160017 30.83265325 59.73160017 29 62 Z M-22 67 C-24.09973008 69.76782602 -23.99954691 71.00860878 -23.8125 74.5625 C-22.98054124 78.08232554 -22.6915301 78.84555527 -20 81 C-17.04852971 82.28228672 -14.22393403 82.9773759 -11 83 C-8.14164435 80.85623326 -6.58775583 79.17551166 -5 76 C-4.43830069 71.8808717 -4.83371237 70.26706802 -7.0625 66.6875 C-12.42777531 61.77884386 -16.99429491 61.70825461 -22 67 Z M-3 66 C-3.22107787 68.7885289 -3.28107535 71.34653181 -3.1875 74.125 C-3.17396484 74.87910156 -3.16042969 75.63320312 -3.14648438 76.41015625 C-3.11109985 78.27374127 -3.05729167 80.13695978 -3 82 C1.13703018 82.9292042 3.55812425 83.25058415 7.3125 81.1875 C8.32763672 80.65189453 8.32763672 80.65189453 9.36328125 80.10546875 C11.16162066 79.08583452 11.16162066 79.08583452 12 77 C12.60706074 71.10388111 12.60706074 71.10388111 9.9375 66 C5.28176147 62.83013547 1.65453762 62.89697492 -3 66 Z M37 66 C36.63441883 69.35503476 36.63441883 69.35503476 36.8125 73.125 C36.83957031 74.40632813 36.86664063 75.68765625 36.89453125 77.0078125 C36.92933594 77.99523437 36.96414062 78.98265625 37 80 C38.60727327 79.77082032 40.21087416 79.51579198 41.8125 79.25 C42.70582031 79.11078125 43.59914062 78.9715625 44.51953125 78.828125 C47.546681 77.81748603 48.42049493 76.72823604 50 74 C50.58333333 71.5 50.58333333 71.5 50 69 C47.86205197 66.03976426 46.46108374 65.13173821 42.9375 64.125 C39.80734473 63.7026341 39.80734473 63.7026341 37 66 Z M21 69 C20.19053578 72.10197397 20.19053578 72.10197397 20 75 C23.69172595 78.53790403 27.09390595 78.59115883 32 79 C33.68864588 77.36290685 33.68864588 77.36290685 35 75 C34.92857348 71.50010028 34.66021066 69.70736857 32.25 67.125 C27.82895783 64.91447891 24.39918056 65.35802083 21 69 Z M-52 73 C-52.042721 74.66611905 -52.04063832 76.33382885 -52 78 C-50.84354174 79.37375369 -50.84354174 79.37375369 -47.6875 79.25 C-44 80 -44 80 -41.5625 82.5625 C-41.046875 83.366875 -40.53125 84.17125 -40 85 C-39.44570312 84.855625 -38.89140625 84.71125 -38.3203125 84.5625 C-37.59585938 84.376875 -36.87140625 84.19125 -36.125 84 C-35.40570313 83.814375 -34.68640625 83.62875 -33.9453125 83.4375 C-32 83 -32 83 -30 83 C-29.67 81.35 -29.34 79.7 -29 78 C-29.90621094 77.97421875 -30.81242187 77.9484375 -31.74609375 77.921875 C-39.32284691 77.56909496 -45.36387812 76.77451377 -52 73 Z M18 79 C18.33 81.31 18.66 83.62 19 86 C21.95981143 87.28963486 21.95981143 87.28963486 24.875 86.25 C26.421875 86.12625 26.421875 86.12625 28 86 C29.68711423 87.6459651 31.3545622 89.31237149 33 91 C36.44616056 90.91985673 37.5556104 90.4443896 40 88 C41.0725 88.226875 42.145 88.45375 43.25 88.6875 C46.80155739 89.34314848 46.80155739 89.34314848 48.79296875 87.9609375 C50.26026858 86.71320985 51.63805413 85.36194587 53 84 C52.505 81.525 52.505 81.525 52 79 C51.09121094 79.32484375 51.09121094 79.32484375 50.1640625 79.65625 C38.72277816 83.4582768 29.58644795 81.80478855 18 79 Z M-27 81 C-27.05790353 84.29159316 -27.09356261 87.58305603 -27.125 90.875 C-27.14175781 91.81214844 -27.15851563 92.74929687 -27.17578125 93.71484375 C-27.18222656 94.61074219 -27.18867188 95.50664063 -27.1953125 96.4296875 C-27.20578613 97.25710449 -27.21625977 98.08452148 -27.22705078 98.93701172 C-27.19302257 101.22398157 -27.19302257 101.22398157 -25 103 C-22.92435324 103.19758231 -22.92435324 103.19758231 -20.625 103.1875 C-16.43496976 103.52486153 -16.43496976 103.52486153 -14.51953125 105.6171875 C-13.4375 107.5625 -13.4375 107.5625 -12 111 C-8.99346985 110.57049569 -7.116779 110.07785266 -4.5625 108.375 C-1.23464753 106.58932306 0.40266983 107.08153272 4 108 C5.33319292 108.33389447 6.66649815 108.66734147 8 109 C15.00545622 100.19827295 14.13647642 91.93327775 14 81 C13.34773438 81.27714844 12.69546875 81.55429688 12.0234375 81.83984375 C-0.9059992 87.19850409 -11.78820759 86.92868412 -24.86328125 81.8984375 C-25.56839844 81.60195312 -26.27351563 81.30546875 -27 81 Z M-52 86 C-53.77714844 87.77714844 -53.21450494 90.28270998 -53.25 92.6875 C-53.19797552 97.56045955 -52.93772947 100.94795935 -50 105 C-44.0541824 110.78511983 -39.25532279 111 -31 111 C-30.67 104.4 -30.34 97.8 -30 91 C-34.60532389 89.54685336 -34.60532389 89.54685336 -37 91 C-39.8125 91.375 -39.8125 91.375 -43 91 C-44.70680947 89.37446717 -46.37660195 87.70884005 -48 86 C-49.32 86 -50.64 86 -52 86 Z M17 93 C15.25379999 104.46187922 15.25379999 104.46187922 19 115 C24.28043882 119.21839568 29.99312042 120.74324772 36.6796875 120.35546875 C42.81686309 119.41526172 47.20672986 116.87706161 51 112 C53.42982958 105.40474827 53.20896481 98.96549366 53 92 C52.01 92.66 51.02 93.32 50 94 C50 94.66 50 95.32 50 96 C49.27554688 95.90460938 48.55109375 95.80921875 47.8046875 95.7109375 C41.65701367 94.92303401 41.65701367 94.92303401 35.6875 96.1875 C34.800625 96.455625 33.91375 96.72375 33 97 C29.875 95.1875 29.875 95.1875 27 93 C23.47537518 91.56812117 20.68017192 92.3449694 17 93 Z M-27 114 C-25.1524272 118.96535191 -22.86955964 121.46219947 -18.375 124.0234375 C-11.33198056 126.91941589 -4.04802457 126.50861891 3 124 C6.86890976 121.85060569 9.48078522 120.25380138 11 116 C9.4221875 116.0309375 9.4221875 116.0309375 7.8125 116.0625 C4 116 4 116 1.4375 115.25 C-1.23349785 114.70197915 -1.23349785 114.70197915 -3.75 117 C-7.67702782 119.41663251 -9.61750168 119.23210866 -14.046875 118.75 C-16 118 -16 118 -17.203125 116.0625 C-17.46609375 115.381875 -17.7290625 114.70125 -18 114 C-18.33 113.34 -18.66 112.68 -19 112 C-22.20395416 112 -24.09399739 112.74335022 -27 114 Z M15 115 C14.52820313 115.81404297 14.52820313 115.81404297 14.046875 116.64453125 C10.75898957 122.14084574 8.6773684 125.10754387 2.4375 127.1875 C-5.90255151 129.03223258 -13.82679072 128.1437926 -22 126 C-21.45405461 133.67970337 -20.09622529 141.01660751 -18.3125 148.5 C-18.08111328 149.5828125 -17.84972656 150.665625 -17.61132812 151.78125 C-17.36447266 152.8125 -17.11761719 153.84375 -16.86328125 154.90625 C-16.64969971 155.83759766 -16.43611816 156.76894531 -16.21606445 157.72851562 C-15.1293044 160.32990003 -15.1293044 160.32990003 -11.88354492 161.31835938 C-10.9319751 161.54330078 -9.98040527 161.76824219 -9 162 C-8.71278076 161.09644775 -8.42556152 160.19289551 -8.12963867 159.26196289 C-7.06013268 155.91725153 -5.97997142 152.57638696 -4.89233398 149.23754883 C-4.42347802 147.79070512 -3.95893647 146.34245601 -3.4987793 144.89282227 C-2.83726363 142.81143336 -2.16048567 140.73556279 -1.48046875 138.66015625 C-1.07723389 137.40855713 -0.67399902 136.15695801 -0.25854492 134.86743164 C0.1567749 133.9211792 0.57209473 132.97492676 1 132 C1.99 131.67 2.98 131.34 4 131 C3.88994608 135.39634104 3.75935538 139.79183979 3.625 144.1875 C3.5940625 145.43337891 3.563125 146.67925781 3.53125 147.96289062 C3.49257812 149.16494141 3.45390625 150.36699219 3.4140625 151.60546875 C3.3826416 152.71043701 3.3512207 153.81540527 3.31884766 154.95385742 C3.00122818 157.98826646 2.27753965 160.24544522 1 163 C6.37865575 163.18872476 10.96335764 163.17266925 16 161 C19.38946403 155.73899985 20.36639423 149.78664619 21.625 143.75 C21.8415625 142.76386719 22.058125 141.77773437 22.28125 140.76171875 C23.61266687 134.52378417 24.51522655 128.3598076 25 122 C23.906875 121.401875 22.81375 120.80375 21.6875 120.1875 C19.04001677 118.7388771 17.05910961 117.21116694 15 115 Z M41 145 C40.22128282 146.76790534 40.22128282 146.76790534 40 149 C41.15009239 151.33510021 41.15009239 151.33510021 42.875 153.5625 C44.74449154 156.14065926 45.98534639 157.95603916 47 161 C45.84242188 160.82339844 44.68484375 160.64679688 43.4921875 160.46484375 C35.10012068 159.10474473 35.10012068 159.10474473 27.46484375 161.76171875 C25.73117987 164.24130894 24.61880367 166.03160342 24 169 C24.6049451 170.69004842 25.27722969 172.35688549 26 174 C26.5673403 180.19902715 26.56364639 186.23179563 24 192 C24.61875 192.45375 25.2375 192.9075 25.875 193.375 C28.95957005 197.18535123 29.30873376 201.23390116 30 206 C34.1537532 206 34.42574915 205.99453592 37.3125 203.5625 C40.86662607 200.9082484 43.4643446 200 48 200 C51.77059757 200.68040858 54.87323715 201.6271625 57.359375 204.65625 C58.92512571 207.33391063 60.02082652 210.06247955 61 213 C61.99 212.5978125 61.99 212.5978125 63 212.1875 C63.99 211.795625 64.98 211.40375 66 211 C66.61617187 210.73574219 67.23234375 210.47148437 67.8671875 210.19921875 C73.5977351 207.84679551 78.23401643 206.86106559 84.1875 209.3125 C87 211 87 211 88.609375 212.78125 C91.48898329 214.2492856 92.13465525 213.97551078 95.16015625 213.10546875 C107.38502905 208.64166661 113.57289347 203.15531476 119.890625 191.90185547 C121.47806202 189.18043505 123.35844803 186.70341189 125.25 184.1875 C126.94513706 182.04179246 126.94513706 182.04179246 128 180 C127.35578754 176.96853511 127.35578754 176.96853511 125.37565613 176.0500946 C124.66927505 175.77921524 123.96289398 175.50833588 123.23510742 175.22924805 C122.42918655 174.91381546 121.62326569 174.59838287 120.79292297 174.27339172 C119.90606308 173.93953964 119.01920319 173.60568756 118.10546875 173.26171875 C117.18239426 172.90389816 116.25931976 172.54607758 115.30827332 172.17741394 C112.27205706 171.00330364 109.22998765 169.84525133 106.1875 168.6875 C104.1000328 167.88464056 102.01295802 167.08076011 99.92626953 166.27587891 C95.68133057 164.6396193 91.43429956 163.00895165 87.18603516 161.38134766 C81.46905964 159.18654556 75.76895596 156.95098863 70.07421875 154.69921875 C68.41191966 154.04388863 66.74956771 153.38869255 65.0871582 152.73364258 C62.74501813 151.81074503 60.40354834 150.8863523 58.06430054 149.95614624 C55.92809381 149.10770248 53.78874601 148.26771907 51.6484375 147.4296875 C50.45395996 146.95772949 49.25948242 146.48577148 48.02880859 145.99951172 C44.89849251 144.79108078 44.89849251 144.79108078 41 145 Z M-48.25 156.23828125 C-49.85512451 156.96591675 -49.85512451 156.96591675 -51.49267578 157.70825195 C-52.65009277 158.23765381 -53.80750977 158.76705566 -55 159.3125 C-67.86978254 165.12044183 -80.87787403 170.51717686 -93.97998047 175.78222656 C-98.39189131 177.56125739 -102.7906982 179.371512 -107.1875 181.1875 C-107.89471191 181.47923096 -108.60192383 181.77096191 -109.33056641 182.0715332 C-110.88725243 182.71385122 -112.44366499 183.35683194 -114 184 C-111.21881921 189.79086234 -108.10912502 195.17066422 -104.625 200.5625 C-99.08623024 209.21480526 -93.73516122 217.9715026 -88.45751953 226.78540039 C-87.60649658 228.19680298 -87.60649658 228.19680298 -86.73828125 229.63671875 C-86.23337158 230.47936279 -85.72846191 231.32200684 -85.20825195 232.19018555 C-84.80952881 232.78742432 -84.41080566 233.38466309 -84 234 C-83.67 234 -83.34 234 -83 234 C-82.7525 232.906875 -82.505 231.81375 -82.25 230.6875 C-80.95225775 226.85916036 -80.52680737 225.76340368 -77 224 C-71.25609725 222.08536575 -66.48020907 224.08300987 -61 226 C-60.49339844 225.15115234 -60.49339844 225.15115234 -59.9765625 224.28515625 C-59.53054687 223.55167969 -59.08453125 222.81820312 -58.625 222.0625 C-58.18414062 221.33160156 -57.74328125 220.60070312 -57.2890625 219.84765625 C-56 218 -56 218 -54 217 C-49.84280895 216.31863466 -46.35793006 216.23266885 -42.62890625 218.33984375 C-40.67222536 219.82217776 -38.81010515 221.34279202 -37 223 C-33.85551076 220.05838103 -32.10984481 218.19477021 -31.88647461 213.73168945 C-31.89171143 212.86761475 -31.89694824 212.00354004 -31.90234375 211.11328125 C-31.90556641 210.17548828 -31.90878906 209.23769531 -31.91210938 208.27148438 C-31.92048828 207.29501953 -31.92886719 206.31855469 -31.9375 205.3125 C-31.94201172 204.32443359 -31.94652344 203.33636719 -31.95117188 202.31835938 C-31.9629568 199.87888042 -31.98089217 197.43943259 -32 195 C-29.03 193.68 -26.06 192.36 -23 191 C-23.48578543 187.87709365 -23.9986012 185.00419641 -25 182 C-25.53928623 175.63642252 -24.54752091 171.35094292 -21 166 C-20.18982422 165.23623047 -20.18982422 165.23623047 -19.36328125 164.45703125 C-17.65838776 162.9674564 -17.65838776 162.9674564 -18 160 C-29.88 160.99 -29.88 160.99 -42 162 C-42 158.79604584 -41.25664978 156.90600261 -40 154 C-43.42997078 154 -45.14420908 154.8139982 -48.25 156.23828125 Z M21 159 C20.34 160.32 19.68 161.64 19 163 C20.485 163.99 20.485 163.99 22 165 C24.67331713 162.28996707 24.67331713 162.28996707 26 159 C24.35 159 22.7 159 21 159 Z M-16 165 C-20.06330843 169.55883385 -22.14262738 171.93618299 -22.125 178 C-22.12757813 178.886875 -22.13015625 179.77375 -22.1328125 180.6875 C-22.15127902 183.02676966 -22.15127902 183.02676966 -21 185 C-20.86584528 187.6723621 -20.95681459 190.32250488 -21 193 C-23.97 194.32 -26.94 195.64 -30 197 C-29.89300781 198.03898437 -29.78601563 199.07796875 -29.67578125 200.1484375 C-28.23450264 216.03681837 -28.23450264 216.03681837 -32 223 C-35.29904229 225.19936153 -36.17419887 225.71177696 -40 225 C-41.41015625 223.65625 -41.41015625 223.65625 -42.875 222 C-45.3318394 219.32787055 -45.80494382 219.03363038 -49.625 218.375 C-53.49950988 219.09250183 -54.71530499 219.83657614 -57 223 C-58.36964139 226.26606794 -57.73123966 228.61173684 -57 232 C-57.70125 231.566875 -58.4025 231.13375 -59.125 230.6875 C-67.07370835 226.01923392 -67.07370835 226.01923392 -76 226 C-78.73061576 227.31379818 -78.73061576 227.31379818 -80 230 C-80.01614614 232.82019329 -79.55884898 235.2057551 -79 238 C-80.98 237.67 -82.96 237.34 -85 237 C-81.31571426 240.99599882 -76.62674283 243.42122911 -72 246.1875 C-70.62714844 247.02571289 -70.62714844 247.02571289 -69.2265625 247.88085938 C-68.34742188 248.40873047 -67.46828125 248.93660156 -66.5625 249.48046875 C-65.75941406 249.96410889 -64.95632812 250.44774902 -64.12890625 250.94604492 C-61.94782492 252.22183734 -61.94782492 252.22183734 -59 252 C-58.91363281 251.40832031 -58.82726562 250.81664062 -58.73828125 250.20703125 C-57.75168512 244.65855945 -56.56563473 241.65250778 -52 238 C-49.59454362 236.79727181 -48.05003047 236.89928528 -45.375 236.9375 C-44.55773437 236.94652344 -43.74046875 236.95554687 -42.8984375 236.96484375 C-42.27195313 236.97644531 -41.64546875 236.98804688 -41 237 C-41 237.99 -41 238.98 -41 240 C-42.051875 239.773125 -43.10375 239.54625 -44.1875 239.3125 C-48.48043713 238.96061991 -49.74327158 239.28605965 -53 242 C-55.3453706 244.91149453 -55.96853279 246.7797295 -56.5 250.5 C-55.86310042 254.95829704 -54.3955553 256.14464668 -51 259 C-47.81011887 261.8515662 -46.25297998 264.18680516 -44.80859375 268.20703125 C-44.2350415 269.77843872 -44.2350415 269.77843872 -43.64990234 271.3815918 C-43.24980957 272.5137915 -42.8497168 273.64599121 -42.4375 274.8125 C-42.0142041 275.98272705 -41.5909082 277.1529541 -41.15478516 278.35864258 C-40.0035176 281.55140448 -38.86300887 284.74756931 -37.7288208 287.94641113 C-36.9764388 290.06638808 -36.22083322 292.18519223 -35.46435547 294.30371094 C-32.28978245 303.19552857 -29.13555267 312.09434683 -26 321 C-25.01 320.67 -24.02 320.34 -23 320 C-22.67 319.34 -22.34 318.68 -22 318 C-21.01 317.67 -20.02 317.34 -19 317 C-18.9175 317.763125 -18.835 318.52625 -18.75 319.3125 C-18.21013719 322.06991067 -18.21013719 322.06991067 -16.25 323.8125 C-13.61808911 325.20156408 -11.93149059 325.09221576 -9 325 C-8.72027344 324.26515381 -8.44054687 323.53030762 -8.15234375 322.77319336 C-1.83781209 306.22673471 4.66131716 289.76374197 11.375 273.375 C11.71080078 272.55264862 12.04660156 271.73029724 12.39257812 270.88302612 C14.27838764 266.26912419 16.18304643 261.66400934 18.12411499 257.07305908 C18.69779724 255.71525846 19.26778608 254.35589003 19.83364868 252.99481201 C20.59570284 251.17203852 21.38120761 249.3591213 22.16796875 247.546875 C22.81415161 246.04012207 22.81415161 246.04012207 23.47338867 244.50292969 C26.18280622 240.06075013 30.24999026 238.63819234 35 237 C36.37892041 236.40483542 37.75452085 235.80185272 39.125 235.1875 C40.07375 234.795625 41.0225 234.40375 42 234 C41.06896676 231.67241689 40.34617872 230.25642868 38.3125 228.75 C33.91891015 227.32505194 29.37648175 227.59952584 25 229 C26.69197516 226.92223246 27.59704571 226.07698438 30.26953125 225.56640625 C36.18020636 225.55732687 39.49736805 226.07462856 44 230 C44.33 230.66 44.66 231.32 45 232 C53.72512687 229.27524223 62.11264399 225.7776965 70.5625 222.3125 C72.06304353 221.6996065 73.56369374 221.08697412 75.06445312 220.47460938 C78.71087263 218.98608128 82.35582909 217.49402412 86 216 C85.2488418 214.01171625 85.2488418 214.01171625 84 212 C79.59286889 210.25234456 76.54199725 209.48300882 72 211 C68.16605553 212.67876858 64.99319138 215.06031859 61.76171875 217.6953125 C60 219 60 219 57 220 C57.05800781 219.34773438 57.11601562 218.69546875 57.17578125 218.0234375 C57.5354131 211.76539918 57.5354131 211.76539918 54.625 206.4375 C51.45884989 203.49750347 49.50389527 202.5 45.1328125 202.5 C41.28590755 203.40183852 38.45956666 206.02935847 35.4296875 208.46875 C32.67622876 210.20404875 31.19136302 210.31800059 28 210 C27.90203125 209.19175781 27.8040625 208.38351563 27.703125 207.55078125 C26.83939848 201.37811501 26.09894255 197.80565679 22 193 C22.18157383 189.91324488 22.62182182 187.75635635 24 185 C24.56596244 178.94855548 24.36493845 174.2343487 21 169 C20.319375 167.824375 20.319375 167.824375 19.625 166.625 C18.06327735 164.71738393 18.06327735 164.71738393 15.3125 164.75 C14.549375 164.8325 13.78625 164.915 13 165 C13.825 165.886875 14.65 166.77375 15.5 167.6875 C17.46099476 170.01307407 17.97259478 170.74787194 18.3125 173.875 C18.209375 174.57625 18.10625 175.2775 18 176 C15.69 177.32 13.38 178.64 11 180 C12.37691962 182.75383923 14.36720042 183.51483101 17 185 C17.1767374 189.41843512 17.1767374 189.41843512 16 192 C13.48985729 193.85588064 10.94358519 195.24696167 8.15234375 196.640625 C7.44207031 197.08921875 6.73179687 197.5378125 6 198 C6 198.99 6 199.98 6 201 C6.66 201.33 7.32 201.66 8 202 C8.41895496 205.42146551 8.72315823 207.98081209 6.6640625 210.8828125 C5.57859611 212.06000844 4.46192295 213.20938492 3.3125 214.32421875 C1.58892993 216.17008325 1.58892993 216.17008325 2 220 C0.68 220 -0.64 220 -2 220 C-2.07427838 216.65747276 -2.06546953 214.1964086 -1 211 C-2.95481784 208.82798018 -4.59374463 207.6623805 -7.1875 206.1875 C-10 204 -10 204 -10.625 201.0625 C-9.88478462 197.43544464 -8.34491409 195.79876843 -6 193 C-6.68217055 189.79854032 -6.68217055 189.79854032 -9.5 188.6875 C-12 187 -12 187 -12.8125 183.8125 C-12.9053125 182.4203125 -12.9053125 182.4203125 -13 181 C-12.01 180.67 -11.02 180.34 -10 180 C-10 179.34 -10 178.68 -10 178 C-10.98226562 177.35611328 -10.98226562 177.35611328 -11.984375 176.69921875 C-14 175 -14 175 -14.390625 172.51953125 C-14.34421875 171.62621094 -14.2978125 170.73289063 -14.25 169.8125 C-14.21390625 168.91144531 -14.1778125 168.01039063 -14.140625 167.08203125 C-14.09421875 166.39496094 -14.0478125 165.70789063 -14 165 C-14.66 165 -15.32 165 -16 165 Z M-7 169 C-7.99 169.33 -8.98 169.66 -10 170 C-10.33 169.01 -10.66 168.02 -11 167 C-12.23007345 168.03632739 -12.23007345 168.03632739 -12.375 170.25 C-11.85232388 174.08295819 -9.71091606 175.35685684 -7 178 C-7 179.32 -7 180.64 -7 182 C-8.98 182.99 -8.98 182.99 -11 184 C-8.82575883 186.50037734 -7.26954202 187.43628586 -4 188 C-3.49576981 193.29441695 -4.81076967 195.81413519 -8 200 C-6.4855048 204.24058656 -3.66268041 205.60804544 0 208 C1.875 210.25 1.875 210.25 3 212 C4.32 210.02 5.64 208.04 7 206 C5.9790625 205.2265625 5.9790625 205.2265625 4.9375 204.4375 C3 202 3 202 3.25 198.25 C3.4975 197.1775 3.745 196.105 4 195 C4.9075 194.71125 5.815 194.4225 6.75 194.125 C10.55658228 192.9054261 10.55658228 192.9054261 14 191 C14.81171228 188.44480079 14.81171228 188.44480079 15 186 C10.545 184.02 10.545 184.02 6 182 C6 181.01 6 180.02 6 179 C6.9075 178.7525 7.815 178.505 8.75 178.25 C12.10351489 176.96018658 13.67708236 175.68028958 16 173 C14.41003131 170.03205845 12.77623344 167.93422157 10 166 C4.01516164 164.9990992 -2.81661678 163.94885617 -7 169 Z M136.52734375 197.453125 C135.19323959 198.00429741 135.19323959 198.00429741 133.83218384 198.56660461 C130.86651083 199.79253065 127.90196468 201.02115519 124.9375 202.25 C122.86778253 203.10675075 120.79803932 203.9634393 118.72827148 204.82006836 C113.26051802 207.08400416 107.79401362 209.35093964 102.32800293 211.61907959 C99.04729898 212.98037378 95.76633506 214.3410399 92.48535156 215.70166016 C87.1920906 217.89729435 81.89996643 220.09564888 76.6086731 222.29602051 C74.61531242 223.12478182 72.62172977 223.95300951 70.62789917 224.78063965 C65.9575554 226.71991231 61.29264255 228.67021203 56.63720703 230.64501953 C52.66913676 232.32282477 48.67474798 233.90879642 44.65576172 235.46044922 C42.5711466 236.29489159 40.48667005 237.12968021 38.40234375 237.96484375 C37.43430313 238.32155655 36.46626251 238.67826935 35.46888733 239.04579163 C30.4416902 241.10232269 27.606641 242.82162736 25.09350586 247.7355957 C24.36520237 249.47797229 23.66647643 251.23305028 23 253 C22.34178089 254.5248123 21.68120792 256.04861107 21.01806641 257.57128906 C20.37517312 259.13440458 19.73648768 260.69925598 19.1015625 262.265625 C18.74944199 263.12583252 18.39732147 263.98604004 18.03453064 264.87231445 C16.89378662 267.66317061 15.75911085 270.45644248 14.625 273.25 C13.83072702 275.19892552 13.03637375 277.14781832 12.24194336 279.09667969 C5.69970418 295.17239112 -0.71651364 311.29749358 -7.05859375 327.453125 C-7.31407486 328.10337646 -7.56955597 328.75362793 -7.83277893 329.42358398 C-8.55982384 331.28058019 -9.27995354 333.14027898 -10 335 C-10.29182159 335.7065271 -10.58364319 336.4130542 -10.88430786 337.14099121 C-12.7632866 341.47635937 -12.7632866 341.47635937 -12 346 C7.35127814 337.72871627 26.68245113 329.41140452 45.98959351 321.03759766 C50.65144173 319.01603931 55.31596102 317.00081913 59.98269653 314.99057007 C62.93656856 313.71680447 65.88828418 312.43809993 68.83947754 311.15814209 C70.22148216 310.55993278 71.6043575 309.96373041 72.98815918 309.36968994 C74.89947445 308.54880228 76.80745764 307.72059334 78.71484375 306.890625 C79.78855225 306.42688477 80.86226074 305.96314453 81.96850586 305.48535156 C87.73087485 302.6619439 91.35058748 300.30498579 94.2265625 294.4765625 C94.77683105 293.38504883 95.32709961 292.29353516 95.89404297 291.16894531 C96.46525879 289.99944336 97.03647461 288.82994141 97.625 287.625 C98.5517783 285.77391202 99.48441124 283.92585066 100.41738892 282.07788086 C101.04624594 280.831535 101.67333788 279.58429701 102.29867554 278.33618164 C105.027256 272.89934499 107.92312322 267.56783082 110.875 262.25 C116.1115067 252.75982774 121.08388571 243.14422619 126.02536011 233.49850464 C131.00916623 223.77365916 136.11582205 214.13166861 141.45898438 204.59765625 C141.91466797 203.7778125 142.37035156 202.95796875 142.83984375 202.11328125 C143.43333618 201.05814331 143.43333618 201.05814331 144.03881836 199.98168945 C145.00128346 197.99735385 145.5490891 196.15321267 146 194 C142.99923375 194 139.33095086 196.28990436 136.52734375 197.453125 Z M-145 208 C-143.3760058 213.944803 -140.3666045 218.95146493 -137.3125 224.25 C-136.74088135 225.24999023 -136.1692627 226.24998047 -135.58032227 227.28027344 C-134.35647777 229.4187354 -133.1300812 231.55573849 -131.90136719 233.69140625 C-130.00125498 236.99781619 -128.11301331 240.31078015 -126.2265625 243.625 C-119.14615634 256.02597422 -111.90963541 268.28956824 -104.09887695 280.24707031 C-103 282 -103 282 -101.68359375 284.66015625 C-99.08006313 288.27852015 -95.54455848 290.26454609 -91.8125 292.625 C-90.17380875 293.68907242 -88.53580062 294.75419751 -86.8984375 295.8203125 C-86.0744043 296.35301758 -85.25037109 296.88572266 -84.40136719 297.43457031 C-80.87445202 299.73373461 -77.40171637 302.10775116 -73.9375 304.5 C-73.28668457 304.94899658 -72.63586914 305.39799316 -71.96533203 305.8605957 C-55.04994023 317.55794145 -38.4401588 329.64426799 -22 342 C-24.16909951 334.48915936 -26.64138549 327.110985 -29.23828125 319.73828125 C-29.64153122 318.5894194 -30.04478119 317.44055756 -30.46025085 316.25688171 C-31.31047156 313.83694229 -32.16187608 311.41741849 -33.0144043 308.99829102 C-34.30208461 305.34207328 -35.58388201 301.68383009 -36.86523438 298.02539062 C-38.86745944 292.31975692 -40.89727867 286.6246327 -42.94805908 280.9362793 C-43.87604022 278.34600853 -44.77988628 275.74874374 -45.67919922 273.1484375 C-48.25925652 265.91134377 -50.50640052 260.98473416 -57.5 257.375 C-58.5981604 256.73655151 -58.5981604 256.73655151 -59.71850586 256.08520508 C-61.29952009 255.16991578 -62.89103656 254.27256673 -64.49169922 253.39208984 C-67.08153562 251.95474828 -69.62187347 250.4521714 -72.16015625 248.92578125 C-76.7826364 246.14874423 -81.4298631 243.41711523 -86.08789062 240.70019531 C-89.01530447 238.99106469 -91.93774924 237.27369056 -94.859375 235.5546875 C-108.3118657 227.65486111 -121.87608864 219.97076408 -135.51831055 212.40356445 C-137.26630945 211.41495199 -138.99016794 210.38304023 -140.69458008 209.32104492 C-142.84636814 207.83427414 -142.84636814 207.83427414 -145 208 Z M-22 322 C-22.99 322.495 -22.99 322.495 -24 323 C-23.42381249 328.14595054 -22.25256722 332.55078055 -20.4375 337.4375 C-19.98246094 338.67371094 -19.52742187 339.90992188 -19.05859375 341.18359375 C-18.53458984 342.57771484 -18.53458984 342.57771484 -18 344 C-14.8601549 342.43007745 -14.57856654 339.77552998 -13.375 336.5625 C-12.92898437 335.38816406 -12.48296875 334.21382813 -12.0234375 333.00390625 C-10.89250051 330.21338743 -10.89250051 330.21338743 -11 328 C-12.0725 327.7525 -13.145 327.505 -14.25 327.25 C-17.99649437 326.00116854 -19.52073882 324.97511342 -22 322 Z " fill="#000000" transform="translate(203,24)"/>
<path d="M0 0 C0.66 0 1.32 0 2 0 C2.86838824 2.72535688 3.71992619 5.45416373 4.5625 8.1875 C4.9327832 9.34088867 4.9327832 9.34088867 5.31054688 10.51757812 C6.58110499 14.68715615 7.43600867 17.70917169 6 22 C5.08307373 22.17023682 4.16614746 22.34047363 3.22143555 22.51586914 C-0.50778956 24.2339411 -1.27052512 25.73468937 -2.73735046 29.48594666 C-3.0032045 30.2317952 -3.26905853 30.97764374 -3.54296875 31.74609375 C-3.98567863 32.89646873 -3.98567863 32.89646873 -4.43733215 34.07008362 C-5.3756715 36.5183185 -6.28286532 38.9766339 -7.1875 41.4375 C-8.10780518 43.89252888 -9.03450815 46.34484713 -9.96980286 48.79420471 C-10.54958267 50.31744649 -11.11987337 51.84434219 -11.67948914 53.37510681 C-13.59196626 58.46661125 -14.9388369 60.97086793 -19.77734375 63.38671875 C-21.34162109 64.03060547 -21.34162109 64.03060547 -22.9375 64.6875 C-23.97777344 65.12449219 -25.01804687 65.56148438 -26.08984375 66.01171875 C-29 67 -29 67 -33 67 C-32.33283779 62.51832843 -30.67318289 58.61690086 -28.83984375 54.51171875 C-28.53051407 53.80852005 -28.22118439 53.10532135 -27.90248108 52.3808136 C-26.91883629 50.14760821 -25.92828402 47.91754581 -24.9375 45.6875 C-24.26711901 44.16882237 -23.5971921 42.64994422 -22.92773438 41.13085938 C-21.2904054 37.4182302 -19.64687689 33.70840311 -18 30 C-19.98 30.66 -21.96 31.32 -24 32 C-24 28.23699276 -23.05739099 27.48406689 -20.6875 24.625 C-19.96304687 23.74585938 -19.23859375 22.86671875 -18.4921875 21.9609375 C-17.66976563 20.98382813 -16.84734375 20.00671875 -16 19 C-15.5452832 18.45891602 -15.09056641 17.91783203 -14.62207031 17.36035156 C-11.8631578 14.08024819 -9.09486363 10.80839167 -6.30712891 7.55273438 C-5.3982117 6.47303444 -4.50571883 5.37938105 -3.62646484 4.27539062 C-2.45869777 2.81643008 -1.23355664 1.40377485 0 0 Z " fill="#000000" transform="translate(283,262)"/>
<path d="M0 0 C3.2630121 1.0876707 3.87839928 1.75066713 6 4.3125 C8.21878727 6.94463736 10.4680798 9.52172664 12.83203125 12.0234375 C13.32380859 12.54639404 13.81558594 13.06935059 14.32226562 13.6081543 C15.29887391 14.64316069 16.28048912 15.67347058 17.26757812 16.69848633 C20.00759689 19.62263046 21.78838578 22.16905794 23 26 C21.35 25.34 19.7 24.68 18 24 C18.23187012 24.57967529 18.46374023 25.15935059 18.70263672 25.7565918 C21.13509115 31.83772786 23.56754557 37.91886393 26 44 C26.37012207 44.86343018 26.74024414 45.72686035 27.12158203 46.61645508 C28 49 28 49 28 52 C22.17969017 50.97565234 17.94828241 47.21001173 14 43 C11.68540748 38.75155859 10.20898859 34.35300626 8.75 29.75 C6.39291967 20.89556204 6.39291967 20.89556204 0.703125 14.203125 C-0.18890625 13.80609375 -1.0809375 13.4090625 -2 13 C-1.85851011 11.3954444 -1.71164314 9.79136233 -1.5625 8.1875 C-1.48128906 7.29417969 -1.40007812 6.40085937 -1.31640625 5.48046875 C-1 3 -1 3 0 0 Z " fill="#000000" transform="translate(105,268)"/>
<path d="M0 0 C-0.38236657 2.39659046 -0.69486585 3.6997517 -2.44848633 5.42529297 C-3.38084106 6.07715576 -3.38084106 6.07715576 -4.33203125 6.7421875 C-5.03779297 7.24363281 -5.74355469 7.74507813 -6.47070312 8.26171875 C-7.24349609 8.79410156 -8.01628906 9.32648438 -8.8125 9.875 C-9.61494141 10.44089844 -10.41738281 11.00679687 -11.24414062 11.58984375 C-13.82199248 13.40410917 -16.41029395 15.20270634 -19 17 C-20.67113496 18.16846741 -22.34171472 19.3377293 -24.01171875 20.5078125 C-26.5135108 22.25997364 -29.01595974 24.01113024 -31.52124023 25.75830078 C-37.17623918 29.70523014 -42.78939125 33.70553788 -48.375 37.75 C-49.10920166 38.28069092 -49.84340332 38.81138184 -50.59985352 39.3581543 C-54.11909641 41.90436737 -57.6298078 44.46132838 -61.12890625 47.03515625 C-62.39838498 47.96100952 -63.66791344 48.88679461 -64.9375 49.8125 C-65.51097168 50.23950195 -66.08444336 50.66650391 -66.67529297 51.10644531 C-70.66091553 54 -70.66091553 54 -74 54 C-72.65008634 50.84921991 -71.33725021 49.21336882 -68.53515625 47.2578125 C-67.82746094 46.75636719 -67.11976563 46.25492188 -66.390625 45.73828125 C-65.62234375 45.20589844 -64.8540625 44.67351562 -64.0625 44.125 C-62.41725981 42.9619397 -60.77275175 41.79784319 -59.12890625 40.6328125 C-58.2795752 40.0337207 -57.43024414 39.43462891 -56.55517578 38.81738281 C-52.49746577 35.93131427 -48.49993923 32.96534355 -44.5 30 C-36.08129514 23.77883107 -27.61230479 17.63071756 -19.11035156 11.52392578 C-17.02104533 10.01519724 -14.94297901 8.49209716 -12.8671875 6.96484375 C-11.90099487 6.25956543 -11.90099487 6.25956543 -10.9152832 5.54003906 C-9.71444073 4.66341931 -8.51739622 3.7815635 -7.32495117 2.89355469 C-3.33872124 0 -3.33872124 0 0 0 Z " fill="#000000" transform="translate(391,85)"/>
<path d="M0 0 C8.35010865 0.38132594 15.74315607 2.1392801 23.68359375 4.67578125 C24.86035172 5.04221237 26.03710968 5.40864349 27.24952698 5.78617859 C30.98216895 6.95131924 34.70977011 8.13175031 38.4375 9.3125 C40.93523811 10.09408638 43.43328267 10.87469411 45.93164062 11.65429688 C56.65365107 15.00904233 67.35194056 18.41657378 78 22 C78 22.99 78 23.98 78 25 C70.13731251 24.4851501 63.26240233 22.36435712 55.8203125 19.8515625 C53.91202414 19.22003276 52.0037349 18.58850566 50.09539604 17.95712852 C47.44064482 17.07633646 44.78864871 16.18740285 42.13659668 15.29852295 C37.50540135 13.74790579 32.87026096 12.20913857 28.23458862 10.67196655 C25.77464447 9.85535314 23.31585086 9.03526258 20.85842896 8.21109009 C13.95809548 5.91200268 7.04112472 3.82465359 0 2 C0 1.34 0 0.68 0 0 Z " fill="#000000" transform="translate(9,157)"/>
<path d="M0 0 C4.08771508 0.0713728 6.62735134 0.40287916 9.75 3.25 C12.66727779 8.30661484 13.02184005 11.58453068 11.75 17.25 C10.43 17.25 9.11 17.25 7.75 17.25 C7.81960937 16.34507812 7.81960937 16.34507812 7.890625 15.421875 C8.16137822 10.28565098 8.16137822 10.28565098 6.125 5.6875 C3.02451464 3.81089044 1.31716403 3.65547266 -2.25 4.25 C-4.80985074 5.55861457 -4.80985074 5.55861457 -6.25 8.25 C-6.57338916 11.28046934 -6.48343996 14.21528054 -6.25 17.25 C-9.25 18.25 -9.25 18.25 -12.75 18.5625 C-16.22190854 18.942095 -16.22190854 18.942095 -18.1875 20.9375 C-19.58817538 23.98602877 -19.7342732 25.92926952 -19.25 29.25 C-17.01793569 32.09780619 -15.70007001 33.09997666 -12.25 34.25 C-12.58 35.24 -12.91 36.23 -13.25 37.25 C-18.7352071 36.64053254 -18.7352071 36.64053254 -21.0625 34.875 C-23.81712742 31.10550985 -23.7315693 26.72421655 -23.25 22.25 C-21.48798828 18.07681435 -19.34551097 16.14791972 -15.25 14.25 C-13.93 14.25 -12.61 14.25 -11.25 14.25 C-11.1571875 12.4246875 -11.1571875 12.4246875 -11.0625 10.5625 C-10.52972409 6.07764009 -8.74793857 4.13579932 -5.25 1.25 C-3.68966377 -0.31033623 -2.16052864 0.04292441 0 0 Z " fill="#000000" transform="translate(191.25,280.75)"/>
<path d="M0 0 C-0.33 0.99 -0.66 1.98 -1 3 C-3.26048778 4.11962949 -5.41944006 5.04166431 -7.7734375 5.91796875 C-8.45298492 6.18007645 -9.13253235 6.44218414 -9.83267212 6.7122345 C-11.27149113 7.26461151 -12.71243354 7.81148414 -14.15527344 8.35327148 C-16.36373053 9.18326465 -18.56494625 10.03048519 -20.765625 10.88085938 C-22.16366939 11.41509238 -23.56209503 11.94832896 -24.9609375 12.48046875 C-25.95013687 12.86008003 -25.95013687 12.86008003 -26.95932007 13.24736023 C-29.79686255 14.30739313 -31.94235472 15 -35 15 C-34 12 -34 12 -32.31689453 10.98852539 C-31.23577393 10.54754517 -31.23577393 10.54754517 -30.1328125 10.09765625 C-28.93507202 9.60072266 -28.93507202 9.60072266 -27.71313477 9.09375 C-26.43200806 8.58328125 -26.43200806 8.58328125 -25.125 8.0625 C-24.26253662 7.71058594 -23.40007324 7.35867187 -22.51147461 6.99609375 C-20.01306129 5.98312843 -17.50843282 4.9878549 -15 4 C-13.82308594 3.53464844 -12.64617187 3.06929687 -11.43359375 2.58984375 C-7.29342998 1.01827138 -4.48215864 0 0 0 Z " fill="#000000" transform="translate(368,149)"/>
<path d="M0 0 C10.19586937 3.56576852 20.2096691 12.67733779 27 21 C27 21.99 27 22.98 27 24 C22.86572362 22.35228115 20.02023919 19.3483718 16.875 16.3125 C12.1184328 11.79122567 7.31658056 7.89255352 1.73046875 4.40234375 C1.15941406 3.93957031 0.58835938 3.47679688 0 3 C0 2.01 0 1.02 0 0 Z " fill="#000000" transform="translate(63,124)"/>
<path d="M0 0 C3.25914951 3.08297927 6.06553673 5.9161331 8 10 C7.67 10.99 7.34 11.98 7 13 C2.71 13 -1.58 13 -6 13 C-6.33 12.34 -6.66 11.68 -7 11 C-6.07421875 8.90625 -6.07421875 8.90625 -4.6875 6.5 C-4.23761719 5.7059375 -3.78773438 4.911875 -3.32421875 4.09375 C-2 2 -2 2 0 0 Z M0 5 C-1.03013277 6.64821244 -2.03114628 8.31503702 -3 10 C-1.02 10 0.96 10 3 10 C2.34 8.35 1.68 6.7 1 5 C0.67 5 0.34 5 0 5 Z " fill="#000000" transform="translate(287,37)"/>
<path d="M0 0 C1.75 0.0625 1.75 0.0625 4 1 C6.44727466 4.2161819 8 6.92394904 8 11 C1.565 11.495 1.565 11.495 -5 12 C-3.54996379 7.64989137 -2.09990776 4.00891482 0 0 Z M1 4 C0.34 5.65 -0.32 7.3 -1 9 C0.65 8.67 2.3 8.34 4 8 C3.34 6.68 2.68 5.36 2 4 C1.67 4 1.34 4 1 4 Z " fill="#000000" transform="translate(115,47)"/>
<path d="M0 0 C0.721875 0.391875 1.44375 0.78375 2.1875 1.1875 C3.51600242 7.58846618 3.51600242 7.58846618 2.125 10.125 C-0.71125113 11.68036352 -2.63532567 11.65083792 -5.8125 11.1875 C-7.75 9.5 -7.75 9.5 -8.8125 7.1875 C-8.8125 4.625 -8.8125 4.625 -7.8125 2.1875 C-4.88723731 -0.33147621 -3.77651992 -1.09099464 0 0 Z M-2.8125 2.1875 C-3.8025 2.8475 -4.7925 3.5075 -5.8125 4.1875 C-5.4825 5.5075 -5.1525 6.8275 -4.8125 8.1875 C-3.1625 7.8575 -1.5125 7.5275 0.1875 7.1875 C-0.16036708 5.21213255 -0.16036708 5.21213255 -0.8125 3.1875 C-1.4725 2.8575 -2.1325 2.5275 -2.8125 2.1875 Z " fill="#000000" transform="translate(270.8125,58.8125)"/>
<path d="M0 0 C2.5 0.25 2.5 0.25 4.5 2.25 C4.8125 5.25 4.8125 5.25 4.5 8.25 C1.5 10.25 1.5 10.25 -1.125 9.9375 C-3.5 9.25 -3.5 9.25 -4.5 8.25 C-4.6875 5.3125 -4.6875 5.3125 -4.5 2.25 C-2.5 0.25 -2.5 0.25 0 0 Z M-1.5 3.25 C-1.17 4.57 -0.84 5.89 -0.5 7.25 C0.49 6.92 1.48 6.59 2.5 6.25 C2.17 5.26 1.84 4.27 1.5 3.25 C0.51 3.25 -0.48 3.25 -1.5 3.25 Z " fill="#000000" transform="translate(135.5,149.75)"/>
<path d="M0 0 C0.66 0 1.32 0 2 0 C2 1.98 2 3.96 2 6 C3.65 6 5.3 6 7 6 C7 6.66 7 7.32 7 8 C5.35 8 3.7 8 2 8 C2 9.98 2 11.96 2 14 C1.34 14 0.68 14 0 14 C0 12.35 0 10.7 0 9 C-1.65 9 -3.3 9 -5 9 C-5 8.01 -5 7.02 -5 6 C-3.35 6 -1.7 6 0 6 C0 4.02 0 2.04 0 0 Z " fill="#000000" transform="translate(289,133)"/>
<path d="M0 0 C0.66 0 1.32 0 2 0 C2 1.65 2 3.3 2 5 C3.65 5 5.3 5 7 5 C7 5.99 7 6.98 7 8 C5.35 8 3.7 8 2 8 C1.67 9.65 1.34 11.3 1 13 C0.67 13 0.34 13 0 13 C0 11.35 0 9.7 0 8 C-1.32 8 -2.64 8 -4 8 C-4 7.01 -4 6.02 -4 5 C-2.68 5 -1.36 5 0 5 C0 3.35 0 1.7 0 0 Z " fill="#000000" transform="translate(115,175)"/>
</svg>
