<?xml version="1.0" encoding="UTF-8"?>
<svg version="1.1" xmlns="http://www.w3.org/2000/svg" width="400" height="400">
<path d="M0 0 C1.27073364 0.0820015 2.54146729 0.16400299 3.85070801 0.24848938 C5.29371097 0.35286151 6.73670367 0.45737546 8.1796875 0.56201172 C9.74729102 0.6674363 11.31496168 0.77186624 12.88269043 0.87541199 C16.38344883 1.10884874 19.88362373 1.34945574 23.38354492 1.59512329 C29.16711324 2.00101754 34.95162508 2.39215457 40.73632812 2.78149414 C48.73779943 3.32126196 56.738933 3.86575322 64.73983002 4.41396618 C85.00012787 5.80145879 105.26269161 7.15455961 125.52545166 8.5055542 C135.6680504 9.18179987 145.81058663 9.85898241 155.953125 10.53613281 C156.96625134 10.60377067 157.97937767 10.67140853 159.0232048 10.74109602 C180.14673768 12.15140089 201.27016031 13.56333549 222.39317322 14.98140907 C226.07483437 15.2285366 229.75652645 15.47519516 233.43824768 15.72142601 C237.73633135 16.00889275 242.03435161 16.2972897 246.33232498 16.58640075 C247.89245523 16.69119343 249.45260705 16.79566552 251.01278305 16.89977479 C254.46183852 17.13002117 257.91040201 17.3647364 261.3585968 17.60769081 C263.79163638 17.77818925 266.22541071 17.93855477 268.65983582 18.08797264 C269.7457753 18.16179979 270.83171478 18.23562695 271.95056152 18.31169128 C272.89371971 18.37119555 273.8368779 18.43069983 274.80861664 18.49200726 C277.0546875 18.86669922 277.0546875 18.86669922 279.0546875 20.86669922 C279.13484192 23.82708645 279.13484192 23.82708645 278.89379883 27.67124939 C278.85293089 28.36882784 278.81206295 29.06640628 278.76995659 29.78512347 C278.63147571 32.10463926 278.47790004 34.42290062 278.32421875 36.74145508 C278.22339149 38.37624028 278.12345507 40.01108064 278.02436829 41.64597225 C277.76424439 45.89414401 277.49138286 50.14139641 277.21497345 54.38853598 C277.0152204 57.47689564 276.82215918 60.56564867 276.62979412 63.65447587 C276.02308555 73.39467535 275.38566145 83.13277584 274.7421875 92.87060547 C274.63511028 94.4939307 274.52804461 96.1172567 274.42098999 97.74058342 C273.97645864 104.4770152 273.53095972 111.21338159 273.08253479 117.9495554 C272.44713901 127.49458719 271.8180658 137.03999031 271.19727993 146.58598381 C270.7550577 153.37862765 270.30603392 160.17080084 269.85185337 166.96265548 C269.58248482 170.99338637 269.31607001 175.02426046 269.05697632 179.05566597 C268.81521639 182.8150342 268.56506818 186.57374864 268.30833054 190.3321228 C268.2157245 191.70942209 268.12619282 193.08693198 268.03993607 194.46464348 C267.92200753 196.34082229 267.79201914 198.21623158 267.66137695 200.09156799 C267.59207474 201.14082238 267.52277252 202.19007677 267.45137024 203.27112675 C267.0546875 205.86669922 267.0546875 205.86669922 265.0546875 208.86669922 C262.84094238 209.1815033 262.84094238 209.1815033 260.11914062 209.09301758 C259.12857666 209.0656955 258.1380127 209.03837341 257.11743164 209.01022339 C255.60137329 208.93917892 255.60137329 208.93917892 254.0546875 208.86669922 C253.15032959 208.82666779 252.24597168 208.78663635 251.31420898 208.74539185 C248.54860138 208.60294079 245.78660277 208.4292787 243.0234375 208.24560547 C242.02509888 208.18138901 241.02676025 208.11717255 239.99816895 208.05101013 C237.91077344 207.91573756 235.82349284 207.77868061 233.73632812 207.63989258 C230.53549743 207.42792842 227.3342138 207.22413938 224.1328125 207.02099609 C222.09632227 206.8880202 220.05986269 206.75457373 218.0234375 206.62060547 C217.06723511 206.56014542 216.11103271 206.49968536 215.12585449 206.43739319 C214.2406311 206.37740646 213.35540771 206.31741974 212.44335938 206.25561523 C211.6660144 206.20454117 210.88866943 206.1534671 210.08776855 206.10084534 C208.0546875 205.86669922 208.0546875 205.86669922 205.0546875 204.86669922 C205.32732422 206.28982422 205.32732422 206.28982422 205.60546875 207.74169922 C207.9614971 220.38461194 209.5502769 233.09775224 211.0546875 245.86669922 C211.63436279 245.77582031 212.21403809 245.68494141 212.8112793 245.59130859 C215.45432338 245.17919977 218.09822912 244.77289905 220.7421875 244.36669922 C221.65419922 244.22361328 222.56621094 244.08052734 223.50585938 243.93310547 C224.39208984 243.79775391 225.27832031 243.66240234 226.19140625 243.52294922 C227.00311279 243.39726562 227.81481934 243.27158203 228.65112305 243.14208984 C231.14002155 242.85692199 233.55175439 242.81995183 236.0546875 242.86669922 C237.53669417 245.83071256 237.63031056 248.97843176 237.99438477 252.23461914 C238.08231293 252.99419922 238.17024109 253.7537793 238.26083374 254.53637695 C238.55144081 257.05621502 238.83643826 259.57665114 239.12109375 262.09716797 C239.3212271 263.84876473 239.52158313 265.60033607 239.72215271 267.35188293 C240.14237352 271.0294761 240.55981428 274.70737172 240.9753418 278.38549805 C241.50695255 283.08909751 242.04548111 287.79187372 242.58613682 292.49444103 C243.001631 296.1153212 243.413364 299.73662161 243.82398796 303.35805702 C244.02097371 305.09125318 244.21912789 306.82431696 244.41848946 308.55724144 C244.69760823 310.98834812 244.9716352 313.41997824 245.24438477 315.85180664 C245.32697037 316.56220596 245.40955597 317.27260529 245.49464417 318.00453186 C245.97308573 322.32925186 246.12800316 326.52503815 246.0546875 330.86669922 C232.46854816 332.56600427 218.88192215 334.26135791 205.29466057 335.95166779 C198.98558391 336.73666833 192.67668304 337.5230293 186.36816406 338.3125 C180.28019313 339.0743197 174.1917867 339.83256492 168.10306168 340.58833313 C165.78009293 340.87731142 163.45728403 341.16757766 161.13463974 341.45915222 C157.88167743 341.86729151 154.62817711 342.27084942 151.37451172 342.67333984 C150.41425583 342.79489944 149.45399994 342.91645905 148.46464539 343.04170227 C143.96289047 343.59390717 139.60139437 344.01069683 135.0546875 343.86669922 C133.42364047 334.83118163 132.24943787 325.77120335 131.19482422 316.65478516 C130.92683991 314.342125 130.65316105 312.0301858 130.37890625 309.71826172 C130.20539513 308.23652996 130.03220603 306.75476045 129.859375 305.27294922 C129.73754349 304.24482117 129.73754349 304.24482117 129.61325073 303.19592285 C129.25203832 300.04792528 129.0546875 297.04344936 129.0546875 293.86669922 C127.33572266 294.19154297 127.33572266 294.19154297 125.58203125 294.52294922 C124.05214303 294.80452374 122.52219169 295.08575552 120.9921875 295.36669922 C120.24001953 295.50978516 119.48785156 295.65287109 118.71289062 295.80029297 C114.07728575 296.64313022 109.765726 297.01685184 105.0546875 296.86669922 C102.94391383 288.23037335 101.72952645 279.47531362 100.453125 270.68701172 C100.20958967 269.02550964 99.96582156 267.36404167 99.72183228 265.7026062 C99.21382886 262.23840037 98.70809621 258.7738733 98.20410156 255.30908203 C97.55777061 250.86654057 96.90653772 246.4247346 96.25372887 241.98314095 C95.75108724 238.56051557 95.25059968 235.13757802 94.75081253 231.71453476 C94.51135741 230.07577064 94.27132715 228.43709046 94.03071213 226.79849625 C93.69591575 224.51570813 93.36392008 222.23253028 93.03271484 219.94921875 C92.84333344 218.65065948 92.65395203 217.35210022 92.45883179 216.01419067 C92.0546875 212.86669922 92.0546875 212.86669922 92.0546875 209.86669922 C96.94342157 209.04773707 101.83234545 208.22991998 106.72143555 207.41308594 C108.37871256 207.1360438 110.03594061 206.85870861 111.69311523 206.58105469 C121.47084244 204.94305624 131.25031816 203.33861595 141.0546875 201.86669922 C123.35128306 200.14497224 105.61556986 199.02035077 87.86474609 197.92016602 C86.87711273 197.85794861 85.88947937 197.7957312 84.87191772 197.73162842 C83.00587619 197.61412454 81.1396911 197.49887009 79.27334595 197.3862915 C78.4264621 197.3326947 77.57957825 197.2790979 76.70703125 197.22387695 C75.97476318 197.1788353 75.24249512 197.13379364 74.48803711 197.08738708 C71.3245925 196.80048469 68.1959099 196.33425327 65.0546875 195.86669922 C65.13199348 196.47408558 65.20929947 197.08147194 65.28894806 197.70726395 C67.17519591 212.53147196 69.05312399 227.3567123 70.92195892 242.18312454 C71.82593518 249.3532325 72.73265595 256.52297283 73.64599609 263.69189453 C74.44266723 269.94512341 75.23402803 276.19899828 76.01919317 282.45368266 C76.43456554 285.76110759 76.85325844 289.06802648 77.27674866 292.3744278 C77.75069797 296.07836927 78.21525322 299.78338104 78.67773438 303.48876953 C78.88812599 305.1071875 78.88812599 305.1071875 79.10276794 306.75830078 C81.44130566 325.77224981 81.44130566 325.77224981 78.31362915 330.496521 C73.2998062 332.60451548 68.28994944 333.16343833 62.91162109 333.78955078 C61.68010315 333.94619202 60.44858521 334.10283325 59.17974854 334.26422119 C55.80878469 334.68944778 52.43664807 335.0997737 49.06304121 335.50314045 C45.52205613 335.92972655 41.98331086 336.37417541 38.44424438 336.81634521 C32.49558084 337.55691964 26.54547867 338.28483601 20.59423828 339.00439453 C13.73695176 339.83357679 6.88179645 340.67875667 0.02765787 341.53354669 C-7.29357962 342.44652551 -14.61606481 343.34914735 -21.93904829 344.24800396 C-24.03620088 344.50601101 -26.13313288 344.76575164 -28.23003006 345.0258255 C-32.16098998 345.51262761 -36.09332596 345.98765726 -40.02587891 346.46142578 C-41.17537018 346.60475342 -42.32486145 346.74808105 -43.50918579 346.89575195 C-48.66142421 347.50764244 -53.81917519 348.02330334 -59.0027771 348.26702881 C-59.86073065 348.31235622 -60.7186842 348.35768364 -61.60263634 348.40438461 C-63.9453125 347.86669922 -63.9453125 347.86669922 -66.14348412 346.01722431 C-68.72428963 341.50464552 -69.11889201 337.17374421 -69.71710205 332.05796814 C-69.85936053 330.95552012 -70.00161901 329.85307209 -70.14818835 328.71721655 C-70.62145264 325.01747631 -71.07089446 321.31523206 -71.52050781 317.61254883 C-71.85466552 314.96117609 -72.19012493 312.30999804 -72.52719116 309.65899658 C-73.34522587 303.20096849 -74.1455393 296.74086191 -74.93991426 290.27988564 C-75.86646795 282.74933906 -76.81056405 275.22102351 -77.7553893 267.69275136 C-79.44166522 254.25183898 -81.11202406 240.80899642 -82.7734375 227.36499023 C-84.383635 214.33553666 -86.00488944 201.30752347 -87.63867188 188.28100586 C-87.73917883 187.47962851 -87.83968579 186.67825117 -87.94323841 185.85258966 C-88.04357697 185.05256804 -88.14391554 184.25254642 -88.24729466 183.42828172 C-90.10903676 168.58370713 -91.96102666 153.73793064 -93.80808987 138.89152284 C-94.46026851 133.65099503 -95.11518445 128.41081343 -95.77091217 123.17072868 C-96.57112145 116.77428358 -97.36559294 110.37715341 -98.15313819 103.97913634 C-98.55459409 100.71849306 -98.95906165 97.45827709 -99.3683815 94.19861031 C-99.81293933 90.65465405 -100.24832513 87.10968401 -100.68145752 83.5643158 C-100.81102128 82.5482335 -100.94058505 81.53215121 -101.07407498 80.48527855 C-101.67818652 75.45933056 -102.09969183 70.44564641 -102.27430344 65.38559818 C-102.30930537 64.42380714 -102.3443073 63.46201611 -102.3803699 62.47107989 C-101.81757107 59.10200174 -100.57847045 57.96653695 -97.9453125 55.86669922 C-95.49902344 55.140625 -95.49902344 55.140625 -92.6796875 54.81201172 C-91.58479004 54.67504883 -90.48989258 54.53808594 -89.36181641 54.39697266 C-88.15187012 54.26323242 -86.94192383 54.12949219 -85.6953125 53.99169922 C-83.72481817 53.75277585 -81.75432917 53.51380692 -79.78396606 53.27380371 C-77.54440769 53.00352483 -75.30399719 52.74117854 -73.06347656 52.47900391 C-67.22434077 51.78873804 -61.39383865 51.03361365 -55.5625 50.28076172 C-52.31213656 49.86374008 -49.06167275 49.44751171 -45.81115723 49.03167725 C-43.6589414 48.75609407 -41.5068405 48.47961182 -39.3548584 48.20220947 C-36.29448542 47.80923339 -33.23332533 47.42305574 -30.171875 47.03857422 C-29.25832245 46.92003082 -28.3447699 46.80148743 -27.40353394 46.67935181 C-22.20405261 46.03364875 -17.18490746 45.75251365 -11.9453125 45.86669922 C-11.88996338 44.81804687 -11.83461426 43.76939453 -11.77758789 42.68896484 C-11.56985199 38.76758382 -11.35834736 34.84641329 -11.14575195 30.92529297 C-11.05456743 29.23394115 -10.96438072 27.54253521 -10.87524414 25.85107422 C-10.7463314 23.40821373 -10.61373273 20.96557575 -10.48046875 18.52294922 C-10.44188248 17.77678345 -10.4032962 17.03061768 -10.36354065 16.26184082 C-10.24512123 14.12805328 -10.10257348 11.99795786 -9.9453125 9.86669922 C-9.89559296 9.12508545 -9.84587341 8.38347168 -9.79464722 7.61938477 C-9.59936523 5.45068359 -9.59936523 5.45068359 -8.9453125 1.86669922 C-5.35946043 -0.52386883 -4.21507965 -0.28997794 0 0 Z M0.0546875 7.86669922 C-1.62031552 12.31946526 -2.29443869 16.27352271 -2.578125 21.01513672 C-2.64046829 22.00122421 -2.64046829 22.00122421 -2.70407104 23.00723267 C-2.83370976 25.0850077 -2.95219088 27.16324092 -3.0703125 29.24169922 C-3.15681233 30.65971329 -3.24404482 32.07768287 -3.33203125 33.49560547 C-3.544929 36.95216314 -3.74783311 40.40922242 -3.9453125 43.86669922 C7.3804449 43.31737985 18.56980142 42.19832845 29.82348633 40.79516602 C31.50607544 40.59467651 31.50607544 40.59467651 33.22265625 40.39013672 C34.72735474 40.20330322 34.72735474 40.20330322 36.26245117 40.01269531 C39.06629865 39.86609211 41.34063417 40.18965973 44.0546875 40.86669922 C44.3846875 41.85669922 44.7146875 42.84669922 45.0546875 43.86669922 C45.3846875 42.87669922 45.7146875 41.88669922 46.0546875 40.86669922 C45.41402344 40.17705078 44.77335937 39.48740234 44.11328125 38.77685547 C39.25664484 33.50042039 34.61962725 28.2092418 30.33203125 22.44873047 C29.69974609 21.665625 29.69974609 21.665625 29.0546875 20.86669922 C28.7246875 20.86669922 28.3946875 20.86669922 28.0546875 20.86669922 C27.7246875 27.13669922 27.3946875 33.40669922 27.0546875 39.86669922 C26.3946875 39.86669922 25.7346875 39.86669922 25.0546875 39.86669922 C25.21316162 39.28694336 25.37163574 38.7071875 25.53491211 38.10986328 C26.33557368 34.65449524 26.42691832 31.14759619 26.6171875 27.61669922 C26.66037109 26.87162109 26.70355469 26.12654297 26.74804688 25.35888672 C26.85365475 23.52835022 26.95462951 21.69754746 27.0546875 19.86669922 C36.51145382 19.70481449 45.87839033 20.21358679 55.3046875 20.86669922 C56.7434651 20.96341831 58.18226713 21.05977465 59.62109375 21.15576172 C63.09924911 21.38857299 66.57705116 21.62624478 70.0546875 21.86669922 C70.02439453 22.52452393 69.99410156 23.18234863 69.96289062 23.86010742 C69.32924159 37.87228097 68.90422309 51.84007223 69.0546875 65.86669922 C68.36503906 65.79451172 67.67539063 65.72232422 66.96484375 65.64794922 C60.95880091 65.0547598 55.0889875 64.76777627 49.0546875 64.86669922 C49.0546875 64.20669922 49.0546875 63.54669922 49.0546875 62.86669922 C49.75980469 63.03041016 50.46492188 63.19412109 51.19140625 63.36279297 C54.15127438 63.88369746 56.86530023 63.96536654 59.8671875 63.92919922 C60.84300781 63.92017578 61.81882812 63.91115234 62.82421875 63.90185547 C63.56027344 63.89025391 64.29632813 63.87865234 65.0546875 63.86669922 C64.2915625 62.97982422 63.5284375 62.09294922 62.7421875 61.17919922 C57.81612124 55.43410026 52.9395449 49.64682408 48.0546875 43.86669922 C47.0646875 44.36169922 47.0646875 44.36169922 46.0546875 44.86669922 C46.63037978 54.46030813 47.57136539 63.95434805 48.78417969 73.48486328 C49.05964257 75.65574946 49.32698278 77.82754155 49.59375 79.99951172 C49.76775438 81.38759215 49.94221555 82.77561542 50.1171875 84.16357422 C50.27316406 85.40461914 50.42914063 86.64566406 50.58984375 87.92431641 C50.89081045 90.79074732 50.89081045 90.79074732 52.0546875 92.86669922 C55.33024358 93.33670955 55.33024358 93.33670955 59.1171875 93.49169922 C60.40753906 93.56646484 61.69789063 93.64123047 63.02734375 93.71826172 C64.52587891 93.79173828 64.52587891 93.79173828 66.0546875 93.86669922 C65.96380859 94.95088135 65.87292969 96.03506348 65.77929688 97.15209961 C65.44093705 101.1979221 65.10638617 105.24405227 64.77294922 109.2902832 C64.62847089 111.03711345 64.4829778 112.78386009 64.33642578 114.53051758 C64.12521892 117.04991377 63.91773655 119.5695941 63.7109375 122.08935547 C63.64531616 122.8625563 63.57969482 123.63575714 63.51208496 124.43238831 C63.14728714 128.92835015 62.99200111 133.35589088 63.0546875 137.86669922 C61.0546875 136.53336589 59.0546875 135.20003255 57.0546875 133.86669922 C57.68768312 143.59484249 58.7932752 153.2047422 60.0546875 162.86669922 C77.50848086 164.67987516 94.99621852 165.90197891 112.50094986 167.08877802 C116.52118533 167.36186442 120.54121707 167.63792106 124.5612793 167.9135437 C131.28811807 168.37430498 138.01510264 168.83288546 144.7421875 169.29003906 C152.50948712 169.81790338 160.27656161 170.34898585 168.04352283 170.88180459 C175.55538393 171.39707603 183.06737596 171.91041232 190.57943726 172.4227562 C193.76276562 172.63988359 196.94605072 172.85763022 200.12930298 173.07587051 C203.86566185 173.3319214 207.60213358 173.58625836 211.33869934 173.83927155 C213.35938051 173.97649019 215.37994855 174.11537177 217.4005127 174.25430298 C218.60550415 174.3355542 219.81049561 174.41680542 221.05200195 174.5005188 C222.096772 174.5716646 223.14154205 174.6428104 224.2179718 174.71611214 C226.82701901 174.85461343 229.44196671 174.86669922 232.0546875 174.86669922 C231.7246875 178.49669922 231.3946875 182.12669922 231.0546875 185.86669922 C229.69969147 185.74743073 228.34469543 185.62816223 226.94863892 185.50527954 C210.23025416 184.05938429 193.49592183 182.92307643 176.75067854 181.84654951 C172.93783181 181.60104424 169.12513233 181.35326982 165.31240845 181.10586548 C158.93721428 180.69254038 152.56190582 180.28101653 146.18652344 179.87060547 C138.83103082 179.39707598 131.4757386 178.92052283 124.12054098 178.44243467 C116.99471697 177.97933222 109.86875343 177.51841128 102.74272537 177.05846024 C99.72768092 176.86381112 96.71268797 176.66839032 93.69773483 176.472332 C90.15996617 176.24236858 86.62207937 176.0143155 83.08409309 175.78772545 C81.17455524 175.66497744 79.26513938 175.54033638 77.35572815 175.41563416 C76.21259659 175.34279709 75.06946503 175.26996002 73.89169312 175.19491577 C72.90336172 175.13114431 71.91503033 175.06737286 70.8967495 175.00166893 C67.94509654 174.86149474 65.00921199 174.84369981 62.0546875 174.86669922 C62.19501861 176.84626362 62.3420998 178.82535063 62.4921875 180.80419922 C62.57339844 181.90634766 62.65460938 183.00849609 62.73828125 184.14404297 C62.75886834 186.77779824 62.75886834 186.77779824 64.0546875 187.86669922 C65.62236871 188.06616299 67.19826971 188.20141477 68.77479553 188.31085205 C70.30720634 188.42038712 70.30720634 188.42038712 71.87057495 188.53213501 C73.56671432 188.64602066 73.56671432 188.64602066 75.29711914 188.76220703 C76.48100723 188.8452005 77.66489532 188.92819397 78.88465881 189.01370239 C82.82767845 189.28810879 86.77118284 189.55484582 90.71484375 189.81982422 C92.07560487 189.91178343 93.43636269 190.00379156 94.79711723 190.09584808 C100.46802512 190.47889696 106.1390846 190.85954152 111.81060123 191.23347855 C119.91180683 191.76761617 128.01180671 192.31537674 136.11071497 192.88332105 C141.81617367 193.28230958 147.5225654 193.66550841 153.22985548 194.0373714 C156.63044112 194.25932098 160.03028251 194.4876858 163.42927742 194.73288727 C183.92140538 196.2222633 183.92140538 196.2222633 204.0546875 192.86669922 C204.0546875 194.18669922 204.0546875 195.50669922 204.0546875 196.86669922 C209.47607395 197.3014894 214.89801099 197.72835096 220.32055664 198.1484375 C222.15828551 198.29186217 223.99585791 198.43730878 225.83325195 198.58496094 C236.93551092 199.47556507 247.91329884 200.09754238 259.0546875 199.86669922 C259.96163472 197.14585756 260.26883816 195.16269847 260.45846558 192.33573914 C260.52281799 191.40522232 260.58717041 190.47470551 260.6534729 189.51599121 C260.75321915 187.98549133 260.75321915 187.98549133 260.85498047 186.42407227 C260.92833618 185.34660233 261.00169189 184.26913239 261.07727051 183.15901184 C261.32093334 179.56572555 261.55891746 175.97208625 261.796875 172.37841797 C261.96728935 169.84729313 262.13804109 167.31619099 262.30911255 164.78511047 C262.66953585 159.44096113 263.02755161 154.09665916 263.38330078 148.75219727 C263.91680197 140.73735283 264.45615789 132.72290982 264.99609375 124.70849609 C265.94296985 110.63778829 266.88071571 96.56648414 267.81394958 82.49486542 C268.05141587 78.91600603 268.28939378 75.33718096 268.52746582 71.75836182 C268.8912653 66.28627355 269.25319963 60.81406522 269.61349869 55.34174538 C269.74475023 53.35121016 269.87652119 51.36070912 270.00884628 49.37024498 C270.18863224 46.6631911 270.36634226 43.95600907 270.54345703 41.2487793 C270.59596745 40.46444582 270.64847786 39.68011234 270.7025795 38.87201118 C271.1341332 33.36972513 271.1341332 33.36972513 271.0546875 27.86669922 C268.53981842 25.35183014 267.50077776 25.52758201 264.00563049 25.28877258 C262.92634089 25.21052813 261.84705128 25.13228367 260.73505592 25.05166817 C259.53543913 24.97427343 258.33582233 24.8968787 257.09985352 24.81713867 C255.82632711 24.72766905 254.55280071 24.63819942 253.2406826 24.5460186 C249.66996871 24.29550879 246.09854624 24.05678994 242.52690578 23.81990981 C238.64928577 23.56076392 234.77239934 23.29103864 230.895401 23.02278137 C223.10337921 22.48551885 215.31066429 21.95897958 207.5176819 21.43585545 C200.78717112 20.98386447 194.05693682 20.52792308 187.32684326 20.06976318 C160.84953981 18.26767214 134.37085195 16.4868305 107.89140093 14.71659672 C98.95795005 14.11920522 90.02466437 13.5193703 81.09141153 12.9190256 C72.35122252 12.33172265 63.61094777 11.74570873 54.87059981 11.16077596 C49.70427865 10.81502507 44.53798857 10.4688269 39.37177849 10.12141991 C34.5751415 9.79893102 29.77839924 9.47805657 24.98156929 9.15845108 C23.22749629 9.041312 21.47346114 8.92360467 19.71946716 8.80528831 C17.32971525 8.64417828 14.93983537 8.48511954 12.5499115 8.32658386 C11.85738012 8.27941213 11.16484874 8.2322404 10.45133156 8.18363923 C6.97914232 7.95560219 3.53440648 7.8174674 0.0546875 7.86669922 Z M31.0546875 20.86669922 C35.99390078 27.98460737 41.85348379 33.86411057 48.0546875 39.86669922 C54.46369727 35.30162243 60.2737036 30.19752454 66.0546875 24.86669922 C65.5596875 23.87669922 65.5596875 23.87669922 65.0546875 22.86669922 C62.79562036 22.39592991 62.79562036 22.39592991 60.05859375 22.23388672 C59.02412109 22.15009766 57.98964844 22.06630859 56.92382812 21.97998047 C55.83263672 21.90134766 54.74144531 21.82271484 53.6171875 21.74169922 C52.56080078 21.65533203 51.50441406 21.56896484 50.41601562 21.47998047 C43.94928436 20.97794218 37.53985099 20.7524312 31.0546875 20.86669922 Z M61.2421875 32.67919922 C53.59062116 39.32830856 53.59062116 39.32830856 50.0546875 41.86669922 C51.58572006 45.42819207 53.72732627 47.86186832 56.3671875 50.67919922 C59.12771363 53.6797711 61.7283291 56.64201601 64.0546875 59.99169922 C64.7146875 60.94044922 65.3746875 61.88919922 66.0546875 62.86669922 C66.3846875 62.86669922 66.7146875 62.86669922 67.0546875 62.86669922 C67.39363206 58.55462128 67.72482104 54.24198035 68.0546875 49.92919922 C68.19777344 48.1106543 68.19777344 48.1106543 68.34375 46.25537109 C68.8358714 39.76991401 69.16694468 33.37059965 69.0546875 26.86669922 C66.50211501 26.86669922 63.21925214 30.95647053 61.2421875 32.67919922 Z M23.23510742 49.37800598 C22.29307465 49.49146866 21.35104187 49.60493134 20.38046265 49.72183228 C18.84828598 49.91112808 18.84828598 49.91112808 17.28515625 50.10424805 C16.20005768 50.23597916 15.11495911 50.36771027 13.99697876 50.50343323 C10.41159825 50.93993745 6.82684516 51.38133122 3.2421875 51.82373047 C2.01736664 51.97444189 0.79254578 52.12515331 -0.46939087 52.28043175 C-6.27950455 52.99567072 -12.08930421 53.71337162 -17.89864254 54.43488199 C-24.59531398 55.26651419 -31.29309235 56.08836147 -37.99198246 56.90192395 C-43.80299679 57.60836773 -49.61236649 58.32765672 -55.42123413 59.05151939 C-57.8895161 59.35723746 -60.35829046 59.65900682 -62.82754517 59.95676613 C-66.27842327 60.37385805 -69.72716823 60.80559729 -73.17578125 61.2409668 C-74.19723236 61.36109131 -75.21868347 61.48121582 -76.27108765 61.60498047 C-81.56829669 62.29056926 -85.99799973 62.91938645 -89.9453125 66.86669922 C-90.16550515 73.37285177 -89.63897607 79.61690141 -88.81985474 86.06463623 C-88.6987593 87.05293434 -88.57766386 88.04123246 -88.45289886 89.059479 C-88.04820877 92.35103123 -87.63569351 95.64155317 -87.22314453 98.93212891 C-86.93037373 101.29964189 -86.63806796 103.66721242 -86.34619141 106.03483582 C-85.63595942 111.78498683 -84.92055826 117.53447685 -84.20252933 123.28365913 C-83.61906366 127.95613048 -83.03766745 132.62885498 -82.45772934 137.30176544 C-82.33370425 138.30106399 -82.33370425 138.30106399 -82.20717361 139.3205504 C-82.03919182 140.67406453 -81.87121329 142.02757907 -81.703238 143.38109401 C-80.13004391 156.05538994 -78.54990813 168.72881311 -76.96750866 181.40196255 C-75.61029709 192.2731064 -74.25962948 203.14504751 -72.91357422 214.01757812 C-71.34912383 226.65415725 -69.78020811 239.29016964 -68.20447814 251.92534757 C-68.03648702 253.27252946 -67.86850334 254.61971229 -67.70052719 255.96689606 C-67.61788531 256.62968818 -67.53524342 257.29248031 -67.45009724 257.97535704 C-66.86835787 262.64355861 -66.28985921 267.31215519 -65.7126503 271.98091888 C-64.93569781 278.26239923 -64.15218688 284.54302696 -63.36357117 290.82305336 C-63.07500588 293.12984759 -62.78876117 295.43693345 -62.50498581 297.74432182 C-62.11782805 300.88926781 -61.72235988 304.03305929 -61.32473755 307.17669678 C-61.21383478 308.09371203 -61.10293202 309.01072729 -60.98866856 309.95553088 C-60.06704033 317.36367376 -60.06704033 317.36367376 -56.37110901 323.71951294 C-52.62568389 325.49076633 -49.11138809 324.7489858 -45.13256836 324.22167969 C-43.81070353 324.06735379 -43.81070353 324.06735379 -42.46213436 323.9099102 C-40.57947173 323.68852684 -38.69766777 323.45973732 -36.81672287 323.22420502 C-34.02700548 322.87687043 -31.23568643 322.55302707 -28.44216919 322.237854 C-16.04257033 320.83324515 -3.65601854 319.31383716 8.73168945 317.80859375 C13.26453999 317.25877425 17.79836578 316.71831106 22.33325195 316.18554688 C27.85648325 315.53656293 33.37753579 314.87138287 38.89741707 314.19451523 C40.98869758 313.94084261 43.08068013 313.69288807 45.17333794 313.45084 C48.08441049 313.11298532 50.99221067 312.7543611 53.90014648 312.390625 C54.75777084 312.29593933 55.6153952 312.20125366 56.49900818 312.10369873 C61.30770928 311.47651132 64.91923769 310.87945356 68.0546875 306.86669922 C68.83033262 300.55832042 67.72933251 293.98176699 66.92922974 287.72018433 C66.8081343 286.7373809 66.68703886 285.75457747 66.56227386 284.74199212 C66.15760542 281.46892074 65.74507685 278.19689032 65.33251953 274.92480469 C65.03974298 272.57038986 64.74743738 270.21591642 64.45556641 267.86138916 C63.66311855 261.48083597 62.86368301 255.10117643 62.06267786 248.72169256 C61.56236947 244.73524793 61.06440856 240.74851244 60.56710434 236.76169205 C60.48442095 236.09884582 60.40173756 235.43599959 60.31654861 234.75306711 C60.14856513 233.40632165 59.98058661 232.05957558 59.812613 230.71282889 C58.23933226 218.10095294 56.65927688 205.48993289 55.07688366 192.87919749 C53.7202819 182.06660612 52.36949559 171.25330119 51.02294922 160.43945312 C49.45756193 147.86815922 47.88857175 135.29732362 46.31385314 122.72719491 C46.14586486 121.38615547 45.97788119 120.04511546 45.80990219 118.70407486 C45.72726031 118.04432827 45.64461842 117.38458168 45.55947224 116.70484277 C44.97827975 112.06306282 44.39970758 107.4209619 43.8220253 102.77874374 C43.04400484 96.52858042 42.26056713 90.27911953 41.47294617 84.030159 C41.18482046 81.7370518 40.89857891 79.44370695 40.61436081 77.15011215 C40.22606601 74.01915485 39.83095484 70.88913054 39.43411255 67.75924683 C39.32320978 66.8519482 39.21230702 65.94464958 39.09804356 65.00985706 C38.47106416 60.12966434 37.75126232 55.49866455 36.0546875 50.86669922 C31.75045386 47.99721013 28.20543545 48.77201698 23.23510742 49.37800598 Z M52.0546875 94.86669922 C53.21292186 106.89262197 54.48197641 118.88732536 56.0546875 130.86669922 C57.0446875 130.86669922 58.0346875 130.86669922 59.0546875 130.86669922 C59.7146875 132.18669922 60.3746875 133.50669922 61.0546875 134.86669922 C61.3846875 134.86669922 61.7146875 134.86669922 62.0546875 134.86669922 C62.87689866 129.63633077 63.34140071 124.46501841 63.6171875 119.17919922 C63.659646 118.39625488 63.70210449 117.61331055 63.74584961 116.80664062 C64.06785597 110.48702283 64.13581915 104.19496772 64.0546875 97.86669922 C61.4146875 99.84669922 58.7746875 101.82669922 56.0546875 103.86669922 C56.0546875 103.20669922 56.0546875 102.54669922 56.0546875 101.86669922 C58.01395813 100.15233742 60.01348962 98.48264754 62.0546875 96.86669922 C58.63071027 94.75963631 56.01526283 94.77989209 52.0546875 94.86669922 Z M61.0546875 164.86669922 C61.3846875 167.83669922 61.7146875 170.80669922 62.0546875 173.86669922 C83.3684403 175.30254396 104.68229517 176.73686479 125.99627304 178.16936493 C135.89242111 178.83451513 145.78853499 179.50016644 155.68457031 180.16699219 C164.3086228 180.74810649 172.93273758 181.32828595 181.55692887 181.90733671 C186.12454454 182.21405134 190.69212736 182.52123819 195.25963593 182.82954407 C199.55715369 183.1196108 203.85475353 183.40842915 208.15242004 183.69628334 C209.73107761 183.80224283 211.30970444 183.9086614 212.88829803 184.01556969 C215.04131645 184.16131167 217.19443874 184.30541092 219.34759521 184.44909668 C220.55330044 184.53021446 221.75900566 184.61133224 223.00124741 184.69490814 C225.34937795 184.82701746 227.70284356 184.86669922 230.0546875 184.86669922 C230.0546875 181.89669922 230.0546875 178.92669922 230.0546875 175.86669922 C208.61054957 174.43086427 187.16631081 172.99654401 165.72195053 171.56403351 C155.7652689 170.89887894 145.80862103 170.23322626 135.85205078 169.56640625 C127.17525977 168.98529798 118.49840722 168.40511889 109.82147908 167.82606173 C105.2259183 167.51934297 100.63038997 167.21215478 96.034935 166.90385437 C91.71115148 166.61379462 87.38728687 166.32497564 83.0633564 166.0371151 C81.47502387 165.93115279 79.88672171 165.82473413 78.29845238 165.71782875 C76.13229582 165.57209424 73.96603661 165.42799243 71.79974365 165.28430176 C70.58666409 165.20318398 69.37358452 165.12206619 68.12374496 165.0384903 C65.7703807 164.90676028 63.41173569 164.86669922 61.0546875 164.86669922 Z M64.0546875 188.86669922 C64.0546875 190.84669922 64.0546875 192.82669922 64.0546875 194.86669922 C64.3846875 194.86669922 64.7146875 194.86669922 65.0546875 194.86669922 C65.0546875 192.88669922 65.0546875 190.90669922 65.0546875 188.86669922 C64.7246875 188.86669922 64.3946875 188.86669922 64.0546875 188.86669922 Z M189.1328125 197.01904297 C188.30471573 197.15418304 187.47661896 197.28932312 186.62342834 197.42855835 C183.84960369 197.88172522 181.07720514 198.34310919 178.3046875 198.80419922 C174.3250294 199.45766784 170.3444013 200.1050128 166.36328125 200.74951172 C165.31057541 200.92011612 164.25786957 201.09072052 163.17326355 201.26649475 C154.84394499 202.60499474 146.50205953 203.84229083 138.15234375 205.04638672 C136.91839874 205.2250679 135.68445374 205.40374908 134.41311646 205.58784485 C129.5103173 206.29681947 124.60743518 207.00456284 119.70202637 207.69528198 C116.27286292 208.17837085 112.84536494 208.67203384 109.41796875 209.16748047 C107.86324608 209.3811879 107.86324608 209.3811879 106.27711487 209.59921265 C105.33657761 209.73687042 104.39604034 209.8745282 103.42700195 210.01635742 C102.60263138 210.13292191 101.7782608 210.24948639 100.9289093 210.36958313 C100.31041611 210.53363144 99.69192291 210.69767975 99.0546875 210.86669922 C98.7246875 211.52669922 98.3946875 212.18669922 98.0546875 212.86669922 C98.96456421 213.35529419 98.96456421 213.35529419 99.89282227 213.85375977 C112.41314953 220.5853584 124.8815741 227.39041525 137.21313477 234.46313477 C143.06595937 237.80448015 148.99468501 240.91744363 155.0546875 243.86669922 C155.70953125 243.15126953 156.364375 242.43583984 157.0390625 241.69873047 C166.44407238 231.42808969 175.88107936 221.18752287 185.3671875 210.99169922 C185.92962158 210.38543701 186.49205566 209.7791748 187.0715332 209.15454102 C190.97568163 204.96540986 194.98153501 200.89151707 199.0546875 196.86669922 C195.83811737 195.25841415 192.56424134 196.43502177 189.1328125 197.01904297 Z M200.0546875 197.86669922 C199.67248047 198.27919922 199.29027344 198.69169922 198.89648438 199.11669922 C186.27945924 212.72061561 186.27945924 212.72061561 179.765625 219.12451172 C178.00735706 220.91489415 176.37318382 222.77254155 174.7421875 224.67919922 C170.90842452 229.15044704 166.71564252 233.23727392 162.5078125 237.35107422 C158.54079125 241.02155816 158.54079125 241.02155816 157.0546875 245.86669922 C165.59783382 251.80172154 173.23606064 251.0911931 183.0546875 249.86669922 C185.15356874 249.62644143 187.25253253 249.3869041 189.3515625 249.14794922 C193.6274338 248.64572616 197.90157409 248.13315421 202.171875 247.58544922 C203.51161377 247.41432617 203.51161377 247.41432617 204.87841797 247.23974609 C207.09285715 246.96831013 207.09285715 246.96831013 209.0546875 245.86669922 C208.22708909 239.96065602 207.38498885 234.05689518 206.52978516 228.15478516 C206.20144073 225.88235824 205.87576469 223.60954475 205.55224609 221.33642578 C205.0413768 217.76178795 204.51803022 214.18916179 203.9921875 210.61669922 C203.83008789 209.46830566 203.66798828 208.31991211 203.50097656 207.13671875 C203.34209961 206.07308105 203.18322266 205.00944336 203.01953125 203.91357422 C202.881521 202.96321289 202.74351074 202.01285156 202.60131836 201.03369141 C202.33073608 199.96103027 202.33073608 199.96103027 202.0546875 198.86669922 C201.3946875 198.53669922 200.7346875 198.20669922 200.0546875 197.86669922 Z M95.0546875 212.86669922 C95.61451803 222.97500076 96.80593207 232.88900792 98.33984375 242.89013672 C98.563088 244.37221306 98.785852 245.85436182 99.00816345 247.33657837 C99.58701053 251.18733577 100.17225784 255.03709225 100.75897217 258.88665771 C101.35955832 262.83513561 101.95390875 266.78455177 102.54882812 270.73388672 C103.71144282 278.44574104 104.88083944 286.15654586 106.0546875 293.86669922 C107.16019061 292.93419175 108.2635231 291.9991107 109.3659668 291.06298828 C109.98062302 290.54254944 110.59527924 290.0221106 111.2285614 289.48590088 C113.98169692 287.04473233 116.42251761 284.36134976 118.8671875 281.61669922 C123.99913194 275.92225477 123.99913194 275.92225477 126.0546875 273.86669922 C126.03720531 270.94717354 125.91524117 268.14372037 125.6796875 265.24169922 C125.62296875 264.43990234 125.56625 263.63810547 125.5078125 262.81201172 C125.36620768 260.82954424 125.21166491 258.84800871 125.0546875 256.86669922 C125.62388916 256.81771484 126.19309082 256.76873047 126.77954102 256.71826172 C139.48638053 256.10946402 139.48638053 256.10946402 149.8046875 249.80419922 C151.67485206 247.06286694 151.67485206 247.06286694 152.0546875 243.86669922 C151.38751709 243.51067627 150.72034668 243.15465332 150.03295898 242.7878418 C136.80569469 235.72041604 123.63321858 228.5865952 110.61889648 221.1315918 C105.50127796 218.2083766 100.35347743 215.44816098 95.0546875 212.86669922 Z M154.0546875 246.86669922 C152.4046875 248.84669922 150.7546875 250.82669922 149.0546875 252.86669922 C153.8880347 252.95003279 158.29161313 252.81931409 163.0546875 251.86669922 C160.52512222 248.77500832 157.83014138 247.95738589 154.0546875 246.86669922 Z M219.15869141 246.8605957 C218.26066299 246.96627869 217.36263458 247.07196167 216.43739319 247.18084717 C213.46840258 247.53086757 210.49982414 247.88425915 207.53125 248.23779297 C205.46627696 248.48218261 203.40128441 248.7264074 201.33627319 248.97047424 C197.00688504 249.48267982 192.67769011 249.99648041 188.34863281 250.51147461 C182.80516238 251.17086727 177.26130589 251.82694414 171.71730995 252.48190212 C167.4517814 252.98608776 163.18642536 253.4917203 158.9211235 253.9978199 C156.87746956 254.24019498 154.83377121 254.48219596 152.79002762 254.72381401 C149.92967187 255.06225931 147.06954469 255.40257466 144.20947266 255.7434082 C143.36770981 255.84267105 142.52594696 255.9419339 141.65867615 256.04420471 C137.43554659 256.54954016 133.2445759 257.12496968 129.0546875 257.86669922 C132.95795696 261.00177203 137.25834776 263.44505611 141.5546875 265.99169922 C147.86617862 269.74937679 154.16039178 273.53273304 160.42578125 277.36669922 C161.69139266 278.13999619 162.95701766 278.91327094 164.22265625 279.68652344 C166.09995259 280.83367262 167.97645413 281.98202553 169.85058594 283.13433838 C171.61316571 284.21781696 173.37856922 285.2965574 175.14453125 286.37451172 C176.16409912 286.99986816 177.18366699 287.62522461 178.23413086 288.26953125 C180.79672574 289.72062583 183.29424386 290.8538723 186.0546875 291.86669922 C193.16656795 285.55615741 200.16109778 279.27058262 206.3671875 272.05419922 C212.50622821 264.95163194 219.22751141 258.49816341 226.359375 252.40576172 C228.53876731 250.42723506 230.32595661 248.24370419 232.0546875 245.86669922 C227.69636759 245.86669922 223.47702512 246.34346924 219.15869141 246.8605957 Z M231.10580444 249.57507324 C230.3108255 250.37449341 229.51584656 251.17391357 228.69677734 251.99755859 C227.79599457 252.89849243 226.89521179 253.79942627 225.96713257 254.72766113 C224.98318999 255.72181822 223.99935672 256.71608349 223.015625 257.71044922 C222.01000829 258.71979487 221.00394997 259.72870072 219.99746704 260.73718262 C217.34623025 263.39606529 214.70105334 266.06089888 212.05706787 268.72698975 C209.35936788 271.44512762 206.6560159 274.15763107 203.953125 276.87060547 C198.6480783 282.19711892 193.34941685 287.52992777 188.0546875 292.86669922 C191.54326467 295.70728366 194.96015637 298.07583986 198.89453125 300.26513672 C200.59838989 301.22226562 200.59838989 301.22226562 202.33666992 302.19873047 C202.93353607 302.53211426 203.53040222 302.86549805 204.14535522 303.20898438 C216.8512254 310.31387468 229.19328519 317.84343213 241.3659668 325.83544922 C242.86714574 326.9535618 242.86714574 326.9535618 244.0546875 326.86669922 C243.44818509 316.95024344 242.44800866 307.13761501 241.20703125 297.28076172 C241.0287835 295.84349403 240.85085704 294.40618646 240.67323303 292.96884155 C240.21117844 289.23678145 239.7448445 285.50526897 239.27752686 281.77386475 C238.79889912 277.94576425 238.3244453 274.11714656 237.84960938 270.28857422 C236.92198564 262.81411209 235.98982717 255.34022516 235.0546875 247.86669922 C232.87340575 247.64697185 232.87340575 247.64697185 231.10580444 249.57507324 Z M127.0546875 259.86669922 C127.66723044 269.85128892 128.67271202 279.74617966 129.90234375 289.67138672 C130.08058018 291.13107664 130.2585069 292.5908044 130.43614197 294.05056763 C130.89831059 297.8417909 131.36460603 301.63249482 131.83184814 305.4230957 C132.31037976 309.31153613 132.78488888 313.20046731 133.25976562 317.08935547 C134.18753372 324.68228139 135.11967461 332.27466166 136.0546875 339.86669922 C139.54440753 338.37139598 141.78934145 336.3747826 144.45605469 333.69238281 C145.3166449 332.83164154 146.17723511 331.97090027 147.06390381 331.08407593 C147.98383118 330.15382599 148.90375854 329.22357605 149.8515625 328.26513672 C150.80947847 327.30348835 151.76783864 326.34228228 152.72662354 325.38150024 C155.24303875 322.8574664 157.75338857 320.3274833 160.26251221 317.79620361 C162.82631191 315.21190731 165.39581668 312.63329723 167.96484375 310.05419922 C173.00038207 304.99724225 178.0295331 299.93397665 183.0546875 294.86669922 C181.72542527 290.87891252 180.10808013 290.45092537 176.4921875 288.38232422 C175.91700378 288.04947922 175.34182007 287.71663422 174.74920654 287.373703 C172.85558966 286.27990298 170.95519709 285.1984707 169.0546875 284.11669922 C167.08264703 282.98142866 165.11250228 281.84291889 163.14251709 280.7040863 C161.79530762 279.92540152 160.44752237 279.14771209 159.09918213 278.37098694 C151.18569101 273.80613669 143.37416521 269.07478917 135.5625 264.33837891 C134.58539063 263.74831055 133.60828125 263.15824219 132.6015625 262.55029297 C131.74401367 262.03007568 130.88646484 261.5098584 130.00292969 260.97387695 C128.28326319 259.78435184 128.28326319 259.78435184 127.0546875 259.86669922 Z M122.45703125 280.33154297 C121.73837891 281.04890625 121.01972656 281.76626953 120.27929688 282.50537109 C119.52455078 283.26398438 118.76980469 284.02259766 117.9921875 284.80419922 C117.23357422 285.55894531 116.47496094 286.31369141 115.69335938 287.09130859 C114.61731445 288.16928711 114.61731445 288.16928711 113.51953125 289.26904297 C112.8555835 289.93411865 112.19163574 290.59919434 111.50756836 291.28442383 C109.94196298 292.63144156 109.94196298 292.63144156 110.0546875 293.86669922 C111.90906612 293.72358625 113.76318179 293.57706471 115.6171875 293.42919922 C116.64972656 293.34798828 117.68226563 293.26677734 118.74609375 293.18310547 C122.19446336 292.85333222 125.62540138 292.35659724 129.0546875 291.86669922 C128.3946875 286.91669922 127.7346875 281.96669922 127.0546875 276.86669922 C125.1216223 276.86669922 123.73361043 279.05712879 122.45703125 280.33154297 Z M186.0546875 294.86669922 C185.55213943 295.36924728 185.04959137 295.87179535 184.53181458 296.38957214 C169.70610555 311.21528117 154.88039653 326.04099019 140.0546875 340.86669922 C159.21121203 339.22065067 178.28848391 336.8932541 197.37762451 334.61560059 C200.89233677 334.19698906 204.40738853 333.78126828 207.92244625 333.36556911 C211.32753134 332.96261455 214.73244335 332.55821326 218.13730049 332.15333748 C219.75391904 331.96121013 221.37058075 331.76944557 222.98728752 331.57806206 C225.23510478 331.3116784 227.48269164 331.04342856 229.73022461 330.7746582 C231.00369247 330.62302719 232.27716034 330.47139618 233.58921814 330.31517029 C236.76066032 329.90474967 239.90465116 329.41592828 243.0546875 328.86669922 C239.0159135 325.39477069 234.77808759 322.93429176 230.1171875 320.42919922 C220.26046721 315.04581892 210.61330883 309.33127439 200.96302795 303.58856201 C197.88948377 301.7688915 194.80627224 299.96657341 191.72021484 298.16821289 C190.65475433 297.54718185 189.58929382 296.92615082 188.49154663 296.28630066 C187.68738312 295.81783218 186.8832196 295.34936371 186.0546875 294.86669922 Z " fill="#000000" transform="translate(111.9453125,26.13330078125)"/>
<path d="M0 0 C2.64 22.11 5.28 44.22 8 67 C-2.23 68.4025 -12.46 69.805 -23 71.25 C-26.15433594 71.68344727 -29.30867188 72.11689453 -32.55859375 72.56347656 C-47.0096926 74.543064 -61.46599183 76.47207065 -75.9375 78.296875 C-76.6265744 78.38451363 -77.3156488 78.47215225 -78.02560425 78.56244659 C-79.96334286 78.80833261 -81.90158307 79.05025595 -83.83984375 79.29199219 C-84.93675537 79.42933777 -86.03366699 79.56668335 -87.16381836 79.70819092 C-90 80 -90 80 -94 80 C-95.04766659 72.15081706 -96.0911048 64.30108837 -97.12921143 56.45063591 C-97.61142301 52.80502884 -98.09506606 49.15962384 -98.58203125 45.51464844 C-99.05228737 41.99433449 -99.51871692 38.47353246 -99.98254395 34.95236588 C-100.24582097 32.96129204 -100.51301579 30.97073752 -100.78027344 28.98019409 C-100.94043945 27.75938141 -101.10060547 26.53856873 -101.265625 25.28076172 C-101.40774414 24.21042694 -101.54986328 23.14009216 -101.69628906 22.037323 C-101.99973021 19.00269811 -102.05364489 16.04752222 -102 13 C-91.91639904 10.97393478 -81.73716716 9.71362673 -71.54296875 8.3984375 C-69.66732546 8.15480934 -67.79170015 7.9110427 -65.91609192 7.66714478 C-62.00558378 7.15933575 -58.09480793 6.65365289 -54.18383789 6.14941406 C-49.17886288 5.50388418 -44.17469796 4.8522939 -39.17072582 4.19904137 C-35.3063037 3.69535409 -31.4414276 3.19522278 -27.57641029 2.69612503 C-25.73072382 2.45728644 -23.88518989 2.21726581 -22.0398159 1.97602463 C-19.46344413 1.63969061 -16.88648809 1.30824469 -14.30932617 0.97802734 C-13.55336655 0.87831131 -12.79740692 0.77859528 -12.01853943 0.67585754 C-7.93154907 0.15793049 -4.15226947 0 0 0 Z M-18.53222656 3.89624023 C-19.39112488 4.00338348 -20.25002319 4.11052673 -21.13494873 4.22091675 C-23.97110564 4.5764806 -26.80581145 4.94248652 -29.640625 5.30859375 C-31.60780852 5.55728954 -33.57507463 5.80533291 -35.54241943 6.05274963 C-40.71849544 6.70548445 -45.89340133 7.3670825 -51.06811523 8.03051758 C-56.34942095 8.70602871 -61.63178269 9.37317221 -66.9140625 10.04101562 C-77.27709381 11.35247857 -87.6389085 12.67330512 -98 14 C-95.710995 16.289005 -93.73814205 17.1473702 -90.78515625 18.46875 C-89.17954834 19.195177 -89.17954834 19.195177 -87.54150391 19.9362793 C-86.39343262 20.45230713 -85.24536133 20.96833496 -84.0625 21.5 C-74.8047998 25.70414974 -65.71080543 30.08585539 -56.78930664 34.96484375 C-56.07766357 35.3515625 -55.36602051 35.73828125 -54.6328125 36.13671875 C-54.02324707 36.47405029 -53.41368164 36.81138184 -52.78564453 37.15893555 C-50.80122813 38.09362443 -49.18674529 38.7438947 -47 39 C-45.25686103 38.09601747 -45.25686103 38.09601747 -43.71484375 36.5703125 C-43.10769531 36.02697266 -42.50054687 35.48363281 -41.875 34.92382812 C-40.9159375 34.0334082 -40.9159375 34.0334082 -39.9375 33.125 C-38.58312896 31.90763181 -37.22765457 30.69149005 -35.87109375 29.4765625 C-35.20835449 28.8774707 -34.54561523 28.27837891 -33.86279297 27.66113281 C-31.4704813 25.52780534 -28.99903396 23.50674306 -26.5 21.5 C-19.51383462 15.84553936 -12.7692553 9.91053735 -6 4 C-10.30368836 2.73273493 -14.15047471 3.3192932 -18.53222656 3.89624023 Z M-9.9375 9.4375 C-14.81221861 14.02645924 -19.79454577 18.36780037 -25.01953125 22.55859375 C-29.45022176 26.18792739 -33.74937539 29.96614357 -38.05029297 33.74780273 C-38.97092529 34.55326538 -38.97092529 34.55326538 -39.91015625 35.375 C-40.45808838 35.85710937 -41.00602051 36.33921875 -41.57055664 36.8359375 C-43 38 -43 38 -45 39 C-45 39.66 -45 40.32 -45 41 C-40.95321861 42.97532637 -36.90442646 44.94646146 -32.85400391 46.91430664 C-31.48663021 47.57927104 -30.11974024 48.24523138 -28.75341797 48.91235352 C-17.27486778 54.51548569 -5.67081866 59.8100584 6 65 C5.02204918 57.43766044 4.04337694 49.87541449 3.06420898 42.31323242 C2.73136142 39.74196475 2.39867751 37.17067588 2.06616211 34.59936523 C1.58751004 30.89821852 1.10826475 27.19714903 0.62890625 23.49609375 C0.48095108 22.35103867 0.33299591 21.20598358 0.18055725 20.02622986 C-0.51259087 14.67882021 -1.2186556 9.33527439 -2 4 C-5.45445858 4 -7.55149521 7.1505408 -9.9375 9.4375 Z M-100 17 C-99.03031052 25.6702305 -98.02850745 34.33655193 -97 43 C-96.91796326 43.69121948 -96.83592651 44.38243896 -96.75140381 45.09460449 C-96.2442299 49.35223132 -95.72580435 53.60829747 -95.19470215 57.86300659 C-95.02352894 59.24362372 -94.85514295 60.62458933 -94.6895752 62.00588989 C-94.45567375 63.95147933 -94.2104929 65.89570264 -93.96484375 67.83984375 C-93.8268335 68.95738037 -93.68882324 70.07491699 -93.54663086 71.22631836 C-93.14516529 74.19754573 -93.14516529 74.19754573 -91 77 C-90.55011719 76.52691406 -90.10023437 76.05382812 -89.63671875 75.56640625 C-85.0611265 70.86244067 -80.25332133 66.66967889 -75.13671875 62.56640625 C-70.7784578 59.04165387 -66.58779888 55.31832436 -62.39038086 51.60473633 C-58.42259589 48.12550794 -54.33972293 45.00442357 -50 42 C-52.25099177 39.50968987 -54.43143001 38.10885829 -57.43969727 36.63989258 C-58.33394913 36.19966263 -59.22820099 35.75943268 -60.14955139 35.30586243 C-61.11211349 34.84012314 -62.0746756 34.37438385 -63.06640625 33.89453125 C-64.05624008 33.4104631 -65.04607391 32.92639496 -66.06590271 32.42765808 C-68.15666686 31.40689681 -70.24891611 30.38917257 -72.3425293 29.37426758 C-75.55703583 27.81515026 -78.76610945 26.24526304 -81.97460938 24.67382812 C-84.00489518 23.68425309 -86.03548395 22.69529934 -88.06640625 21.70703125 C-89.03099258 21.23521927 -89.99557892 20.76340729 -90.98939514 20.27729797 C-92.32604469 19.63113777 -92.32604469 19.63113777 -93.68969727 18.97192383 C-94.86859276 18.39925529 -94.86859276 18.39925529 -96.07130432 17.8150177 C-97.95807287 16.87025085 -97.95807287 16.87025085 -100 17 Z M-50.65625 43.43359375 C-51.56890625 44.42552734 -51.56890625 44.42552734 -52.5 45.4375 C-56.39802744 49.48436122 -60.55058796 52.98696193 -64.9296875 56.5 C-69.01823309 59.82909565 -72.99765958 63.27912199 -76.96533203 66.75097656 C-79.85898044 69.25919877 -82.78389144 71.59870963 -85.921875 73.796875 C-86.93765625 74.52390625 -87.9534375 75.2509375 -89 76 C-89 76.33 -89 76.66 -89 77 C-77.51321168 76.4442015 -66.20571652 75.25594723 -54.8125 73.71484375 C-53.13149275 73.49159027 -51.45042039 73.2688265 -49.76928711 73.04652405 C-45.40241884 72.4677704 -41.03645087 71.88249109 -36.6706543 71.29571533 C-32.19243263 70.69505067 -27.71336729 70.10074538 -23.234375 69.50585938 C-14.4887588 68.34336279 -5.74408594 67.17395137 3 66 C0.12087625 63.78716792 -2.5836206 62.14028562 -5.90234375 60.65234375 C-6.86567627 60.21639893 -7.82900879 59.7804541 -8.8215332 59.33129883 C-9.84980225 58.87134521 -10.87807129 58.4113916 -11.9375 57.9375 C-21.18919709 53.76038309 -30.37653654 49.47729438 -39.48608398 44.99780273 C-40.70920288 44.4052771 -40.70920288 44.4052771 -41.95703125 43.80078125 C-42.66835205 43.45184814 -43.37967285 43.10291504 -44.11254883 42.7434082 C-46.85674762 41.66255381 -48.37337685 41.45761628 -50.65625 43.43359375 Z " fill="#000000" transform="translate(138,85)"/>
<path d="M0 0 C0.08547592 0.7213916 0.17095184 1.4427832 0.25901794 2.18603516 C1.06783996 9.01186593 1.87690836 15.83766745 2.68624783 22.66343689 C3.10224534 26.17193032 3.51815033 29.68043467 3.93383789 33.18896484 C4.41264134 37.23017667 4.89185797 41.27133942 5.37109375 45.3125 C5.51904892 46.5617627 5.66700409 47.81102539 5.81944275 49.09814453 C6.52769884 55.06789523 7.24477622 61.03600105 8 67 C6.63500366 67.13716431 6.63500366 67.13716431 5.24243164 67.27709961 C-5.13788466 68.35958963 -15.47725952 69.71177004 -25.81640625 71.12890625 C-27.26109684 71.32637532 -28.70578883 71.52383412 -30.15048218 71.72128296 C-36.12790234 72.53928271 -42.10496856 73.35975152 -48.08081055 74.18920898 C-80.34744133 78.66317485 -80.34744133 78.66317485 -94 79 C-98.89463567 44.21177641 -98.89463567 44.21177641 -100.8125 29.1875 C-100.99776245 27.77017578 -100.99776245 27.77017578 -101.18676758 26.32421875 C-101.29657959 25.44765625 -101.4063916 24.57109375 -101.51953125 23.66796875 C-101.61339111 22.92828857 -101.70725098 22.1886084 -101.80395508 21.42651367 C-102.05810754 18.28078345 -102.01154444 15.15476503 -102 12 C-90.17839955 10.42776074 -78.35589124 8.862552 -66.53219032 7.30618286 C-61.04134529 6.58319394 -55.55083564 5.85783464 -50.06103516 5.12695312 C-44.75793388 4.42101818 -39.45402764 3.72144717 -34.14951706 3.02618408 C-32.13115192 2.76051872 -30.11308134 2.49260496 -28.09532547 2.22235107 C-25.2578321 1.84270348 -22.41937357 1.4712401 -19.58056641 1.1015625 C-18.75625122 0.98935364 -17.93193604 0.87714478 -17.0826416 0.76153564 C-11.36477249 0.02873975 -5.76151346 -0.12056359 0 0 Z M-4 3 C-4.52207031 3.54527344 -5.04414063 4.09054688 -5.58203125 4.65234375 C-10.45871609 9.64859705 -15.519886 14.1739065 -20.96484375 18.5390625 C-24.44662927 21.36213184 -27.85256594 24.26395793 -31.25 27.1875 C-31.81614014 27.67452393 -32.38228027 28.16154785 -32.96557617 28.66333008 C-34.07306507 29.6168262 -35.18024814 30.57067767 -36.28710938 31.52490234 C-39.18676532 34.02201198 -42.09351658 36.51084373 -45 39 C-41.17071943 42.23195904 -36.77221329 44.19087872 -32.2890625 46.34375 C-31.44330658 46.75411499 -30.59755066 47.16447998 -29.72616577 47.58728027 C-27.02770186 48.89553971 -24.32643979 50.19789832 -21.625 51.5 C-19.8149105 52.37590198 -18.00501252 53.25219986 -16.1953125 54.12890625 C-13.63868553 55.36745875 -11.08180981 56.60545603 -8.52334595 57.84020996 C-7.75590057 58.21069458 -6.9884552 58.5811792 -6.19775391 58.96289062 C-5.47742981 59.30876221 -4.75710571 59.65463379 -4.01495361 60.01098633 C-2.17808918 60.91258725 -0.36912736 61.87047856 1.43603516 62.83398438 C2.28214355 63.21876953 3.12825195 63.60355469 4 64 C4.66 63.67 5.32 63.34 6 63 C5.00142272 55.47093099 3.99375709 47.94312629 2.97441292 40.41684151 C2.50139756 36.92219431 2.03154544 33.42718179 1.56884766 29.93115234 C1.03700593 25.91374424 0.4915453 21.8982894 -0.0546875 17.8828125 C-0.21935516 16.62445587 -0.38402283 15.36609924 -0.55368042 14.0696106 C-0.71369537 12.90855804 -0.87371033 11.74750549 -1.03857422 10.55126953 C-1.17625214 9.52534698 -1.31393005 8.49942444 -1.45578003 7.44241333 C-1.80762422 4.83477951 -1.80762422 4.83477951 -4 3 Z M-22.30615234 3.88623047 C-23.10536102 3.98055359 -23.9045697 4.07487671 -24.72799683 4.17205811 C-27.34786582 4.48263356 -29.96692451 4.79947964 -32.5859375 5.1171875 C-34.41198554 5.33669807 -36.2380457 5.55610779 -38.06411743 5.77542114 C-41.87889451 6.23477216 -45.69322486 6.69765482 -49.50732422 7.16259766 C-54.40584423 7.7591062 -59.30576209 8.34317494 -64.2061367 8.92422295 C-67.97112389 9.37263014 -71.73506946 9.82933795 -75.49876785 10.28842545 C-77.30619965 10.50751756 -79.11400225 10.7235722 -80.9221611 10.93658066 C-83.43932966 11.23401098 -85.95481719 11.54297673 -88.47021484 11.85498047 C-89.5984668 11.98445572 -89.5984668 11.98445572 -90.74951172 12.11654663 C-92.51001324 12.34110212 -94.25792601 12.66092921 -96 13 C-96.33 13.66 -96.66 14.32 -97 15 C-96.07364746 15.44802979 -95.14729492 15.89605957 -94.19287109 16.35766602 C-90.68477401 18.05465926 -87.17726882 19.752873 -83.66992188 21.45141602 C-82.16519486 22.179928 -80.66031728 22.90812911 -79.15527344 23.63598633 C-77.6931468 24.34313636 -76.23125268 25.05076736 -74.76959229 25.75888062 C-73.31396903 26.46382671 -71.85770984 27.16746117 -70.40081787 27.86978149 C-66.88293732 29.57185873 -63.38945136 31.30501149 -59.93066406 33.12451172 C-59.29375641 33.45603745 -58.65684875 33.78756317 -58.00064087 34.12913513 C-56.27629254 35.03113656 -54.55902043 35.94662904 -52.84228516 36.86303711 C-50.16996969 38.17247935 -50.16996969 38.17247935 -47.81567383 37.84155273 C-45.82244279 36.91770342 -44.42253299 35.90997654 -42.78515625 34.4453125 C-42.18799805 33.9184082 -41.59083984 33.39150391 -40.97558594 32.84863281 C-40.0286084 31.99543457 -40.0286084 31.99543457 -39.0625 31.125 C-37.71542355 29.93423959 -36.36775693 28.74414654 -35.01953125 27.5546875 C-34.34486816 26.95624023 -33.67020508 26.35779297 -32.97509766 25.74121094 C-30.09896826 23.20566646 -27.18028776 20.72256917 -24.25 18.25 C-23.72647949 17.80688477 -23.20295898 17.36376953 -22.66357422 16.90722656 C-18.14703424 13.09626392 -13.55997403 9.3761846 -8.94921875 5.6796875 C-8.30597656 5.12539062 -7.66273438 4.57109375 -7 4 C-7 3.67 -7 3.34 -7 3 C-12.16803147 2.90396944 -17.17369284 3.25949795 -22.30615234 3.88623047 Z M-100 16 C-99.36816911 27.09911819 -97.93431161 38.08253324 -96.47094727 49.09692383 C-96.05849028 52.2178401 -95.65902696 55.34026213 -95.25976562 58.46289062 C-94.99818626 60.44802098 -94.73584489 62.43305111 -94.47265625 64.41796875 C-94.3548732 65.35118454 -94.23709015 66.28440033 -94.11573792 67.24589539 C-93.94061928 68.53412956 -93.94061928 68.53412956 -93.76196289 69.84838867 C-93.66283096 70.60415695 -93.56369904 71.35992523 -93.46156311 72.13859558 C-93.1125563 74.23153567 -93.1125563 74.23153567 -91 76 C-90.26136719 75.31035156 -89.52273437 74.62070313 -88.76171875 73.91015625 C-82.99504185 68.55682339 -77.14112758 63.40806923 -71.01171875 58.46875 C-67.28685089 55.41542122 -63.63948667 52.2792509 -60 49.125 C-59.35248779 48.56506348 -58.70497559 48.00512695 -58.0378418 47.42822266 C-55.27141658 45.02425426 -52.57003798 42.61538025 -50 40 C-60.38232688 34.78117962 -70.79507726 29.62990612 -81.2512207 24.56054688 C-83.48948365 23.47478314 -85.72618851 22.38584985 -87.96289062 21.296875 C-89.39053254 20.60397613 -90.8182633 19.91126027 -92.24609375 19.21875 C-92.91257431 18.89386597 -93.57905487 18.56898193 -94.26573181 18.23425293 C-97.01254962 16.67245617 -97.01254962 16.67245617 -100 16 Z M-48 41 C-49.39581299 42.19653198 -49.39581299 42.19653198 -50.81982422 43.41723633 C-52.61270163 44.9540206 -54.40587522 46.49045272 -56.19970703 48.02612305 C-59.32575222 50.70263568 -62.44693375 53.38429207 -65.5546875 56.08203125 C-73.51354789 62.97581546 -81.66564679 69.56557533 -90 76 C-86.06997473 77.31000842 -82.72724508 76.65521748 -78.70483398 76.13549805 C-77.85904785 76.03156738 -77.01326172 75.92763672 -76.1418457 75.82055664 C-73.34234792 75.47455237 -70.54423356 75.11852716 -67.74609375 74.76171875 C-65.80465461 74.51811189 -63.86317143 74.27485578 -61.92164612 74.03193665 C-57.85155496 73.52102327 -53.78214968 73.00500844 -49.71313477 72.4855957 C-44.48971696 71.81936109 -39.26466687 71.16707146 -34.03900051 70.51874065 C-30.02947457 70.01951997 -26.02099169 69.51229963 -22.01277351 69.00269508 C-20.08612148 68.75885444 -18.1591302 68.51767932 -16.23180962 68.27918053 C-13.54200739 67.94523832 -10.85382018 67.60042238 -8.16577148 67.25268555 C-7.36416092 67.15544693 -6.56255035 67.05820831 -5.73664856 66.95802307 C-1.41778691 66.48940952 -1.41778691 66.48940952 2 64 C-2.54775369 61.84655498 -7.09698116 59.69626249 -11.64746094 57.54858398 C-13.18755955 56.82120864 -14.72728794 56.09304878 -16.26660156 55.36401367 C-26.76781496 50.39138027 -37.3281075 45.59534744 -48 41 Z " fill="#000000" transform="translate(148,157)"/>
<path d="M0 0 C10.37594501 -0.13406335 20.58479354 0.24335775 30.9375 1 C32.31441966 1.09683116 33.69137283 1.19318706 35.06835938 1.2890625 C38.37926392 1.52140668 41.68975751 1.75843742 45 2 C44.52036915 12.70334117 43.86741858 23.38311281 43 34.0625 C42.9170166 35.11501953 42.8340332 36.16753906 42.74853516 37.25195312 C42.62551025 38.72245117 42.62551025 38.72245117 42.5 40.22265625 C42.4278125 41.09672119 42.355625 41.97078613 42.28125 42.87133789 C42 45 42 45 41 47 C1.18620858 45.59310429 1.18620858 45.59310429 -2 44 C-2.41156538 29.27510544 -1.16267271 14.66946626 0 0 Z M5 2 C7.40745391 6.3269104 10.31394412 9.98927091 13.5 13.75 C13.98597656 14.33910156 14.47195313 14.92820313 14.97265625 15.53515625 C17.9177587 19.05018293 17.9177587 19.05018293 22 21 C24.55407391 19.35189992 24.55407391 19.35189992 27.1875 17 C28.6415625 15.7625 28.6415625 15.7625 30.125 14.5 C31.07375 13.675 32.0225 12.85 33 12 C33.825 11.29875 34.65 10.5975 35.5 9.875 C38.29766951 7.49004167 38.29766951 7.49004167 41 5 C41 4.67 41 4.34 41 4 C37.06311613 3.65912071 33.1254167 3.32871499 29.1875 3 C27.53717773 2.85691406 27.53717773 2.85691406 25.85351562 2.7109375 C18.88293198 2.13519608 11.99364163 1.87343416 5 2 Z M2 4 C0.20614243 5.79385757 0.63592093 8.50895195 0.46484375 10.94140625 C0.37783203 12.16537109 0.29082031 13.38933594 0.20117188 14.65039062 C0.11416016 15.94138672 0.02714844 17.23238281 -0.0625 18.5625 C-0.15337891 19.82642578 -0.24425781 21.09035156 -0.33789062 22.39257812 C-0.77011293 28.6094297 -1.11787868 34.76814699 -1 41 C6.19872326 35.87783153 12.56439479 30.02801688 19 24 C17.46386447 20.43485124 15.3161548 17.96129644 12.6875 15.125 C10.05384359 12.258089 7.45394117 9.39744954 5 6.375 C4.34 5.59125 3.68 4.8075 3 4 C2.67 4 2.34 4 2 4 Z M36.4375 11.125 C32.14004118 15.0390884 27.73243015 18.62913495 23 22 C24.69786705 26.07488093 27.52640429 29.19412972 30.375 32.5 C30.85710937 33.06847656 31.33921875 33.63695312 31.8359375 34.22265625 C34.44392269 37.27711716 37.10957676 40.20546758 40 43 C40.97019387 37.93705551 41.31426857 32.94890274 41.5625 27.8125 C41.62618774 26.55699341 41.62618774 26.55699341 41.69116211 25.27612305 C41.9839135 19.18135717 42.12341137 13.10200657 42 7 C39.90676242 7 37.84431864 9.82342428 36.4375 11.125 Z M14.3125 30.1875 C13.26822509 31.1615497 12.22265353 32.13421115 11.17578125 33.10546875 C10.39775146 33.82742432 10.39775146 33.82742432 9.60400391 34.56396484 C7.98125415 36.01678282 6.30584576 37.37767984 4.60546875 38.73828125 C3.74566406 39.48464844 2.88585937 40.23101562 2 41 C2 41.66 2 42.32 2 43 C5.93688387 43.34087929 9.8745833 43.67128501 13.8125 44 C15.46282227 44.14308594 15.46282227 44.14308594 17.14648438 44.2890625 C24.11706802 44.86480392 31.00635837 45.12656584 38 45 C36.59509308 41.85545561 34.91526361 39.61164862 32.55859375 37.109375 C31.89279297 36.40039062 31.22699219 35.69140625 30.54101562 34.9609375 C29.84685547 34.23132813 29.15269531 33.50171875 28.4375 32.75 C27.73947266 32.00492188 27.04144531 31.25984375 26.32226562 30.4921875 C23.70415553 27.70356218 23.70415553 27.70356218 21 25 C18.6488039 25 16.04065781 28.57137162 14.3125 30.1875 Z " fill="#000000" transform="translate(305,129)"/>
<path d="M0 0 C14.72489456 -0.41156538 29.33053374 0.83732729 44 2 C44.2847365 11.63490329 43.3967502 21.10912451 42.5 30.6875 C42.3550161 32.27534936 42.21048156 33.86323982 42.06640625 35.45117188 C41.71611013 39.30127409 41.35975892 43.15077096 41 47 C3.05105194 45.59915456 3.05105194 45.59915456 -3 44 C-3.13609675 35.42892913 -2.79053314 26.93780086 -2.20043945 18.38720703 C-2.06031589 16.34313899 -1.9292638 14.29861305 -1.79882812 12.25390625 C-1.71181641 10.96097656 -1.62480469 9.66804688 -1.53515625 8.3359375 C-1.456604 7.16595215 -1.37805176 5.9959668 -1.29711914 4.79052734 C-1 2 -1 2 0 0 Z M4 2 C7.46461153 6.74176245 11.0422896 11.39583719 14.6875 16 C15.43386719 16.94875 16.18023437 17.8975 16.94921875 18.875 C17.62597656 19.57625 18.30273438 20.2775 19 21 C23.39895123 21 25.36507664 18.20378899 28.375 15.3125 C28.93960938 14.78205078 29.50421875 14.25160156 30.0859375 13.70507812 C33.45190909 10.53000076 36.74350973 7.28698175 40 4 C22.0348384 2.21312338 22.0348384 2.21312338 4 2 Z M1 3 C0.02539941 7.21612931 -0.29635505 11.39947894 -0.53515625 15.70703125 C-0.57813339 16.43242599 -0.62111053 17.15782074 -0.66539001 17.90519714 C-0.8010395 20.20745353 -0.93184041 22.50995558 -1.0625 24.8125 C-1.15397618 26.37957604 -1.24576965 27.9466336 -1.33789062 29.51367188 C-1.56226736 33.34224366 -1.78229799 37.17104311 -2 41 C3.09880426 37.29371256 7.90484985 33.43881443 12.5 29.125 C13.304375 28.37863281 13.304375 28.37863281 14.125 27.6171875 C15.41982466 26.41485032 16.71039301 25.20793188 18 24 C16.555746 19.38688281 13.90119431 16.36457168 10.625 12.9375 C10.14289063 12.42123047 9.66078125 11.90496094 9.1640625 11.37304688 C6.49625208 8.52762408 3.77430244 5.74143156 1 3 Z M34.875 11.625 C30.65399952 15.5053197 26.38073217 19.30071506 22 23 C27.09586279 30.15419168 32.78780419 36.78780419 39 43 C41.1799614 40.8200386 40.42805977 35.91053337 40.5625 32.875 C40.62618774 31.53066895 40.62618774 31.53066895 40.69116211 30.15917969 C41.03261446 22.43424956 41.10542667 14.73128941 41 7 C38.80739257 7 36.32631401 10.28441295 34.875 11.625 Z M12.6875 30.6875 C11.83381836 31.48317383 11.83381836 31.48317383 10.96289062 32.29492188 C7.57451315 35.4654473 4.26273763 38.70053361 1 42 C3.50334895 43.25167448 5.5185763 43.3096533 8.3125 43.53515625 C9.38886719 43.62216797 10.46523437 43.70917969 11.57421875 43.79882812 C12.70472656 43.88583984 13.83523437 43.97285156 15 44.0625 C16.09957031 44.15337891 17.19914062 44.24425781 18.33203125 44.33789062 C24.90391476 44.85631323 31.40823144 45.12554864 38 45 C34.23496183 40.59215043 30.43832196 36.21616443 26.60546875 31.8671875 C25.24759694 30.28795946 23.95902491 28.64954583 22.6875 27 C22.130625 26.34 21.57375 25.68 21 25 C17.44545012 25 15.16163546 28.34517198 12.6875 30.6875 Z " fill="#000000" transform="translate(196,49)"/>
<path d="M0 0 C6.31125 0.309375 12.6225 0.61875 19.125 0.9375 C22.09717529 1.08046509 22.09717529 1.08046509 25.12939453 1.22631836 C26.71388102 1.30555058 28.2983546 1.38504185 29.8828125 1.46484375 C30.69419678 1.50291138 31.50558105 1.540979 32.34155273 1.5802002 C36.63132428 1.79973479 40.77118117 2.18813816 45 3 C44.71620736 7.50053146 44.42144137 12.0002854 44.125 16.5 C44.04636719 17.74910156 43.96773438 18.99820313 43.88671875 20.28515625 C43.26703278 29.58044583 42.24298215 38.76990436 41 48 C36.18007535 47.73667688 31.36034969 47.47002937 26.54077148 47.20043945 C24.90475311 47.10937942 23.26868589 47.01919235 21.63256836 46.92993164 C19.26662705 46.80069652 16.90088536 46.66821302 14.53515625 46.53515625 C13.81602554 46.49656998 13.09689484 46.4579837 12.35597229 46.41822815 C7.19383353 46.12351932 2.15788436 45.57309826 -3 45 C-2.01 30.15 -1.02 15.3 0 0 Z M4 2 C5.97861436 4.68312098 7.98343849 7.34528611 10 10 C10.67289062 10.886875 11.34578125 11.77375 12.0390625 12.6875 C12.72742188 13.574375 13.41578125 14.46125 14.125 15.375 C14.76695312 16.20773438 15.40890625 17.04046875 16.0703125 17.8984375 C17.96625886 19.96325357 19.42571869 20.95884623 22 22 C22.78503906 21.26394531 23.57007813 20.52789062 24.37890625 19.76953125 C29.71645814 14.80061359 34.96250926 10.11647096 41 6 C41 5.67 41 5.34 41 5 C28.67475639 3.68717674 16.38069085 2.60941224 4 2 Z M1 3 C0.66062596 7.4578947 0.32960875 11.91637349 0 16.375 C-0.09539062 17.62667969 -0.19078125 18.87835938 -0.2890625 20.16796875 C-0.79918597 27.12751043 -1.1466168 34.02144775 -1 41 C3.52800381 38.14627305 7.37214549 34.99061577 11.25 31.3125 C16.75619835 26.12190083 16.75619835 26.12190083 19 25 C17.71359495 22.22951358 16.31576229 19.9963532 14.3203125 17.6875 C13.80339844 17.08679688 13.28648437 16.48609375 12.75390625 15.8671875 C12.21636719 15.25101563 11.67882812 14.63484375 11.125 14 C10.59519531 13.38382813 10.06539063 12.76765625 9.51953125 12.1328125 C6.78235451 8.96773964 3.97929767 5.94164588 1 3 Z M32.4375 14.75 C31.63119141 15.38421875 30.82488281 16.0184375 29.99414062 16.671875 C29.23166016 17.290625 28.46917969 17.909375 27.68359375 18.546875 C26.62483032 19.39523926 26.62483032 19.39523926 25.54467773 20.26074219 C23.55730362 22.1107677 23.55730362 22.1107677 24 26 C25.76838452 28.40118867 25.76838452 28.40118867 28.125 30.75 C31.68712366 34.53686332 34.89413417 38.36786636 37.90625 42.6015625 C38.2671875 43.06304687 38.628125 43.52453125 39 44 C39.33 44 39.66 44 40 44 C40.28799328 39.99834864 40.5727019 35.99647784 40.85449219 31.99438477 C40.95061525 30.63559812 41.04760416 29.27687241 41.14550781 27.91821289 C41.28683631 25.95475624 41.42469599 23.99105091 41.5625 22.02734375 C41.64628906 20.84906006 41.73007812 19.67077637 41.81640625 18.45678711 C42.00190223 14.96418387 42.03123903 11.49681932 42 8 C38.90874938 8 34.75222573 12.87590881 32.4375 14.75 Z M20 25 C19.62230469 25.40089844 19.24460937 25.80179688 18.85546875 26.21484375 C14.29882021 30.9208906 9.39211755 35.017956 4.2578125 39.08203125 C1.93677989 40.79965743 1.93677989 40.79965743 1 43 C13.6597396 44.46019393 26.26782256 45.45820522 39 46 C35.50221356 41.89697026 31.98171336 37.82066732 28.375 33.8125 C27.64023437 32.99394531 26.90546875 32.17539063 26.1484375 31.33203125 C24.15045022 29.16330687 22.10141829 27.06813791 20 25 Z " fill="#000000" transform="translate(253,52)"/>
<path d="M0 0 C5.60530128 0.261695 11.21033658 0.52835041 16.81518555 0.79956055 C18.72104533 0.89108717 20.62697017 0.9812694 22.53295898 1.07006836 C25.27606215 1.19810368 28.01889326 1.33100723 30.76171875 1.46484375 C31.61086349 1.50343002 32.46000824 1.5420163 33.33488464 1.58177185 C37.31558806 1.78052531 41.1099816 2.0560222 45 3 C44.73464597 6.91039913 44.46806256 10.82071252 44.20043945 14.73095703 C44.06594998 16.69950208 43.93237698 18.66810967 43.79882812 20.63671875 C43.38461829 26.68111418 42.96125356 32.7249195 42.49609375 38.765625 C42.42447021 39.70696289 42.35284668 40.64830078 42.27905273 41.61816406 C42 44 42 44 41 47 C26.57250983 47.33166644 12.363825 46.31246615 -2 45 C-2.84713428 42.11643408 -3.06891459 39.77313308 -2.83813477 36.78222656 C-2.77799698 35.96167786 -2.71785919 35.14112915 -2.65589905 34.29571533 C-2.58511642 33.41953552 -2.5143338 32.54335571 -2.44140625 31.640625 C-2.37340317 30.73624695 -2.30540009 29.8318689 -2.2353363 28.90008545 C-2.01709565 26.01622553 -1.78991484 23.13314954 -1.5625 20.25 C-1.41282146 18.29301379 -1.26372597 16.33598288 -1.11523438 14.37890625 C-0.75024908 9.58539302 -0.37724519 4.79256333 0 0 Z M4 2 C9.25536431 9.04364289 9.25536431 9.04364289 14.625 16 C15.72714844 17.423125 15.72714844 17.423125 16.8515625 18.875 C18.97034578 21.46881207 18.97034578 21.46881207 23 21 C25.12663026 19.32970305 27.00977671 17.68727708 28.9375 15.8125 C29.70610352 15.08836914 29.70610352 15.08836914 30.49023438 14.34960938 C33.71962386 11.29256342 36.86734641 8.15573023 40 5 C36.25759075 3.86480253 32.48862229 3.68519148 28.609375 3.46484375 C27.90476135 3.42186661 27.20014771 3.37888947 26.47418213 3.33460999 C24.23298352 3.19871902 21.99151609 3.06803874 19.75 2.9375 C18.22654181 2.84604719 16.703104 2.75425414 15.1796875 2.66210938 C11.45335305 2.43746393 7.72675975 2.21748929 4 2 Z M1 3 C0.66062596 7.4578947 0.32960875 11.91637349 0 16.375 C-0.09539062 17.62667969 -0.19078125 18.87835938 -0.2890625 20.16796875 C-0.79918597 27.12751043 -1.1466168 34.02144775 -1 41 C3.52800381 38.14627305 7.37214549 34.99061577 11.25 31.3125 C16.75619835 26.12190083 16.75619835 26.12190083 19 25 C17.71359495 22.22951358 16.31576229 19.9963532 14.3203125 17.6875 C13.80339844 17.08679688 13.28648437 16.48609375 12.75390625 15.8671875 C12.21636719 15.25101563 11.67882812 14.63484375 11.125 14 C10.59519531 13.38382813 10.06539063 12.76765625 9.51953125 12.1328125 C6.78235451 8.96773964 3.97929767 5.94164588 1 3 Z M35.875 12.125 C34.88628906 12.94097656 33.89757812 13.75695312 32.87890625 14.59765625 C29.5586343 17.36830381 26.26788795 20.16783044 23 23 C24.53103256 26.56149285 26.67263877 28.9951691 29.3125 31.8125 C32.07302613 34.81307188 34.6736416 37.7753168 37 41.125 C37.66 42.07375 38.32 43.0225 39 44 C39.33 44 39.66 44 40 44 C40.28799328 39.99834864 40.5727019 35.99647784 40.85449219 31.99438477 C40.95061525 30.63559812 41.04760416 29.27687241 41.14550781 27.91821289 C41.28683631 25.95475624 41.42469599 23.99105091 41.5625 22.02734375 C41.64628906 20.84906006 41.73007812 19.67077637 41.81640625 18.45678711 C42.00190223 14.96418387 42.03123903 11.49681932 42 8 C39.81947211 8 37.41899605 10.85025667 35.875 12.125 Z M18.7578125 26.21484375 C18.21898437 26.78332031 17.68015625 27.35179687 17.125 27.9375 C13.12327958 32.02258959 8.73720341 35.53635534 4.2578125 39.08203125 C1.93677989 40.79965743 1.93677989 40.79965743 1 43 C5.44708645 43.43088073 9.89451346 43.85800371 14.34228516 44.28173828 C15.85345053 44.42622832 17.36452032 44.57172176 18.87548828 44.71826172 C21.05476559 44.92943757 23.23436786 45.13693159 25.4140625 45.34375 C27.37786865 45.53227539 27.37786865 45.53227539 29.38134766 45.72460938 C32.60730777 45.97011491 35.76684608 46.05250047 39 46 C35.25592777 41.61669593 31.48196858 37.26302634 27.67578125 32.93359375 C26.12682545 31.14633705 24.62066413 29.33186529 23.125 27.5 C22.42375 26.675 21.7225 25.85 21 25 C19.82957345 24.88346762 19.82957345 24.88346762 18.7578125 26.21484375 Z " fill="#000000" transform="translate(310,56)"/>
<path d="M0 0 C24.0983553 0.90350675 24.0983553 0.90350675 34.875 1.5 C36.19242188 1.5721875 37.50984375 1.644375 38.8671875 1.71875 C42 2 42 2 45 3 C44.59386707 8.14142125 44.18483705 13.28260101 43.77319336 18.42358398 C43.63373672 20.1702663 43.49505341 21.91701054 43.35717773 23.66381836 C43.15815303 26.18360043 42.95629112 28.7031421 42.75390625 31.22265625 C42.66321617 32.3824575 42.66321617 32.3824575 42.57069397 33.56568909 C42.20513236 38.0767371 41.68647811 42.52623512 41 47 C30.99896966 47.30615399 21.10215391 46.76395939 11.125 46.0625 C9.85817383 45.97564941 8.59134766 45.88879883 7.28613281 45.79931641 C6.10116211 45.71214355 4.91619141 45.6249707 3.6953125 45.53515625 C2.0868042 45.41732788 2.0868042 45.41732788 0.44580078 45.29711914 C-2 45 -2 45 -3 44 C-3.02899553 42.5507882 -2.98651144 41.10003388 -2.9140625 39.65234375 C-2.87087891 38.74419922 -2.82769531 37.83605469 -2.78320312 36.90039062 C-2.73099609 35.92263672 -2.67878906 34.94488281 -2.625 33.9375 C-2.57537109 32.94556641 -2.52574219 31.95363281 -2.47460938 30.93164062 C-2.32294563 27.9540398 -2.16283283 24.97700893 -2 22 C-1.95584961 21.17129395 -1.91169922 20.34258789 -1.86621094 19.48876953 C-1.15495658 6.31376264 -1.15495658 6.31376264 0 0 Z M4 2 C7.32718192 6.51186033 10.7222667 10.96819683 14.1875 15.375 C14.84105469 16.20773438 15.49460938 17.04046875 16.16796875 17.8984375 C18.00825182 20.19522171 18.00825182 20.19522171 21 22 C21.61746094 21.43152344 22.23492187 20.86304688 22.87109375 20.27734375 C28.39255921 15.2433136 34.0259917 10.48772121 40 6 C37.35131338 3.35131338 35.84681798 3.61942086 32.14453125 3.3671875 C30.96439453 3.28339844 29.78425781 3.19960937 28.56835938 3.11328125 C27.32892578 3.03464844 26.08949219 2.95601563 24.8125 2.875 C22.98235352 2.74544922 22.98235352 2.74544922 21.11523438 2.61328125 C15.40089343 2.22218567 9.72795974 1.88119787 4 2 Z M1 3 C-0.24380656 15.69112734 -1.36285311 28.23966572 -1 41 C6.19872326 35.87783153 12.56439479 30.02801688 19 24 C13.6258334 16.45509159 7.57107408 9.52663542 1 3 Z M36.5 11.0625 C31.84592032 15.30079734 27.03100713 19.22066856 22 23 C27.43125529 30.55026777 33.42436222 37.42436222 40 44 C40.66 31.79 41.32 19.58 42 7 C39.9186 7 37.9007165 9.76770188 36.5 11.0625 Z M20 25 C19.2265625 25.72445312 18.453125 26.44890625 17.65625 27.1953125 C12.40263671 32.08235535 7.21015699 36.84001154 1.328125 40.9765625 C0.88984375 41.31429687 0.4515625 41.65203125 0 42 C0 42.33 0 42.66 0 43 C12.54 43.99 25.08 44.98 38 46 C36.45842279 42.91684559 35.54899161 41.28494375 33.3203125 38.90625 C32.80339844 38.35066406 32.28648437 37.79507813 31.75390625 37.22265625 C31.21636719 36.65417969 30.67882812 36.08570313 30.125 35.5 C29.33029297 34.64728516 29.33029297 34.64728516 28.51953125 33.77734375 C25.73245525 30.79662476 22.90692035 27.86479107 20 25 Z " fill="#000000" transform="translate(191,121)"/>
<path d="M0 0 C25.43543376 0.90549678 25.43543376 0.90549678 35.4375 1.5 C37.26087891 1.60828125 37.26087891 1.60828125 39.12109375 1.71875 C42 2 42 2 45 3 C44.50352962 13.34748791 43.83668524 23.6741554 43 34 C42.9170166 35.05638672 42.8340332 36.11277344 42.74853516 37.20117188 C42.62551025 38.6794043 42.62551025 38.6794043 42.5 40.1875 C42.4278125 41.06792969 42.355625 41.94835937 42.28125 42.85546875 C42 45 42 45 41 47 C26.6188694 47.44023869 12.32600086 46.12772455 -2 45 C-2.38736547 29.93578728 -1.19781188 15.00928368 0 0 Z M4 2 C9.01661192 8.93352867 14.48630789 15.46202516 20 22 C23.79937227 20.3997938 26.42802289 17.97157938 29.4375 15.1875 C30.36433594 14.33542969 31.29117188 13.48335937 32.24609375 12.60546875 C34.88035316 10.1131978 37.45003255 7.57773479 40 5 C38.20140296 3.20140296 35.46083271 3.63529708 33.0234375 3.46484375 C31.18072266 3.33432617 31.18072266 3.33432617 29.30078125 3.20117188 C28.00527344 3.11416016 26.70976562 3.02714844 25.375 2.9375 C24.10269531 2.84662109 22.83039063 2.75574219 21.51953125 2.66210938 C15.66327395 2.25601854 9.87291189 1.9519989 4 2 Z M1 4 C0.66126532 8.47877512 0.32999263 12.95807297 0 17.4375 C-0.09539062 18.69755859 -0.19078125 19.95761719 -0.2890625 21.25585938 C-0.77173267 27.85809778 -1.11525087 34.38027835 -1 41 C4.63110924 36.94510491 9.80064622 32.56658546 14.8984375 27.85546875 C17 26 17 26 19 25 C17.55676913 20.36287359 14.8669489 17.36258067 11.5625 13.9375 C6.2551191 8.35115033 6.2551191 8.35115033 4.27734375 5.62890625 C3.85582031 5.09136719 3.43429688 4.55382812 3 4 C2.34 4 1.68 4 1 4 Z M35.875 12.125 C34.88628906 12.94097656 33.89757812 13.75695312 32.87890625 14.59765625 C29.5586343 17.36830381 26.26788795 20.16783044 23 23 C24.59521355 26.81775828 27.05258757 29.38508535 29.875 32.375 C32.58752155 35.24946313 35.1058618 38.04101865 37.2578125 41.3515625 C38.12019531 42.66253906 38.12019531 42.66253906 39 44 C39.33 44 39.66 44 40 44 C41.12374424 36.5209627 41.32840762 29.05235745 41.5625 21.5 C41.60568359 20.200625 41.64886719 18.90125 41.69335938 17.5625 C41.7988251 14.37509155 41.90094448 11.18761302 42 8 C39.81947211 8 37.41899605 10.85025667 35.875 12.125 Z M17.015625 27.66796875 C16.40976562 28.23193359 15.80390625 28.79589844 15.1796875 29.37695312 C14.22449219 30.27317383 14.22449219 30.27317383 13.25 31.1875 C12.62867188 31.76564453 12.00734375 32.34378906 11.3671875 32.93945312 C7.83925326 36.23293604 4.41636089 39.58363911 1 43 C13.54 43.99 26.08 44.98 39 46 C35.03488779 40.71318372 31.17062465 35.79018799 26.6875 31 C26.15060547 30.41605469 25.61371094 29.83210938 25.06054688 29.23046875 C23.73052253 27.79813484 22.3682257 26.39588812 21 25 C19.24281918 25 18.25156079 26.51448909 17.015625 27.66796875 Z " fill="#000000" transform="translate(248,125)"/>
<path d="M0 0 C5.43879866 1.84919155 8.77361725 5.37586838 12 10 C13.72237197 15.1671159 13.65561622 20.10599758 11.875 25.25 C9.0252053 29.4296989 5.89407029 32.36864324 1 34 C-5.82267788 34.52482138 -10.5164824 33.04200336 -15.8125 28.6875 C-19.25387944 24.45951955 -20.04776091 21.50446852 -19.875 16.0625 C-18.95869969 10.49011554 -16.59716851 6.44505722 -12.375 2.625 C-8.25783755 -0.19200589 -4.9158632 -0.48790402 0 0 Z M-12 6 C-12.66 6.99 -13.32 7.98 -14 9 C-10.37 11.31 -6.74 13.62 -3 16 C-0.36 12.7 2.28 9.4 5 6 C2.26687138 3.26687138 0.07682373 3.30928575 -3.67578125 2.96484375 C-7.07370119 3.01624086 -9.22512751 4.10496513 -12 6 Z M7 8 C5.82750647 9.45365269 4.66216184 10.91307419 3.5 12.375 C2.8503125 13.18710938 2.200625 13.99921875 1.53125 14.8359375 C-0.19253615 16.83026843 -0.19253615 16.83026843 0 19 C2.01791336 20.58969247 2.01791336 20.58969247 4.5 22.125 C5.3353125 22.66382813 6.170625 23.20265625 7.03125 23.7578125 C7.6809375 24.16773438 8.330625 24.57765625 9 25 C10.66188214 22.07508744 11.31741772 19.86280527 11.375 16.5 C11.40335938 15.7471875 11.43171875 14.994375 11.4609375 14.21875 C10.83441208 11.20293271 9.27925808 9.98196354 7 8 Z M-16 11 C-17.72350648 14.44701297 -17.37111831 18.22370843 -17 22 C-15.88353524 25.0373468 -15.88353524 25.0373468 -14 27 C-13.01 27 -12.02 27 -11 27 C-9.30932426 25.30846844 -9.30932426 25.30846844 -7.8125 23.125 C-7.28269531 22.40570313 -6.75289062 21.68640625 -6.20703125 20.9453125 C-4.82425485 19.0983201 -4.82425485 19.0983201 -5 17 C-6.67873065 15.40988654 -6.67873065 15.40988654 -8.8125 13.875 C-9.52019531 13.33617187 -10.22789063 12.79734375 -10.95703125 12.2421875 C-13.02872995 10.74023387 -13.02872995 10.74023387 -16 11 Z M-3 20 C-4.59011346 21.67873065 -4.59011346 21.67873065 -6.125 23.8125 C-6.66382812 24.52019531 -7.20265625 25.22789062 -7.7578125 25.95703125 C-9.25976613 28.02872995 -9.25976613 28.02872995 -9 31 C-3.05103092 32.33548285 -0.2484187 31.67566443 5 29 C5.66 28.67 6.32 28.34 7 28 C5.89904638 24.69713914 5.3103981 24.21489099 2.5625 22.3125 C1.94503906 21.87550781 1.32757813 21.43851562 0.69140625 20.98828125 C-0.96131105 19.8318364 -0.96131105 19.8318364 -3 20 Z " fill="#000000" transform="translate(79,240)"/>
<path d="M0 0 C3.22329004 3.22329004 3.16990882 6.63746251 3.25 11.0625 C3.27578125 11.91972656 3.3015625 12.77695312 3.328125 13.66015625 C2.91738149 16.58914869 2.32697076 17.21197959 0 19 C-2.67414856 19.67120361 -2.67414856 19.67120361 -5.93676758 20.09082031 C-7.15846146 20.25398743 -8.38015533 20.41715454 -9.63887024 20.58526611 C-10.9740253 20.75008204 -12.30924749 20.91435496 -13.64453125 21.078125 C-15.01603756 21.25472357 -16.38743026 21.43220657 -17.75871277 21.61053467 C-20.63350769 21.98154337 -23.5092407 22.34365937 -26.38598633 22.69921875 C-30.06307742 23.15414801 -33.7374055 23.62806237 -37.41125965 24.10835648 C-40.24408867 24.47704499 -43.07797334 24.83700356 -45.91226768 25.19423676 C-47.26686969 25.3657434 -48.62117793 25.53958769 -49.97516823 25.71585846 C-51.87403486 25.96143408 -53.77452669 26.19434127 -55.67504883 26.42675781 C-57.29362541 26.62969452 -57.29362541 26.62969452 -58.94490051 26.83673096 C-62.16907466 27.0090356 -64.86404591 26.75917951 -68 26 C-71.20481832 22.79518168 -71.18627408 19.34212036 -71.3125 14.9375 C-71.34988281 14.08027344 -71.38726562 13.22304688 -71.42578125 12.33984375 C-71 10 -71 10 -69.29196167 8.41520691 C-66.71348114 6.82308453 -64.89631411 6.41250862 -61.90283203 6.0168457 C-60.88722198 5.87692703 -59.87161194 5.73700836 -58.82522583 5.59284973 C-57.73047943 5.45521713 -56.63573303 5.31758453 -55.5078125 5.17578125 C-54.37028534 5.02465378 -53.23275818 4.87352631 -52.0607605 4.71781921 C-49.64901924 4.40033395 -47.23647898 4.08886902 -44.82324219 3.78295898 C-41.171558 3.31842271 -37.52335909 2.83168691 -33.875 2.34179688 C-7.92550262 -1.07235292 -7.92550262 -1.07235292 0 0 Z M-22.515625 3.42578125 C-23.68961853 3.57403854 -24.86361206 3.72229584 -26.07318115 3.87504578 C-28.54103467 4.18899272 -31.00849975 4.50600674 -33.47558594 4.82592773 C-37.2504736 5.31256105 -41.02737385 5.78066687 -44.8046875 6.24804688 C-47.20847843 6.55616182 -49.61212967 6.8653689 -52.015625 7.17578125 C-53.14276917 7.31341385 -54.26991333 7.45104645 -55.43121338 7.59284973 C-56.4829071 7.7327684 -57.53460083 7.87268707 -58.61816406 8.0168457 C-59.53921936 8.13453812 -60.46027466 8.25223053 -61.40924072 8.37348938 C-64.36499667 9.08826536 -66.47962661 10.32425991 -69 12 C-68.91266424 13.60517097 -68.80447776 15.20921662 -68.6875 16.8125 C-68.62949219 17.70582031 -68.57148437 18.59914063 -68.51171875 19.51953125 C-67.91298937 22.42176906 -67.33486187 23.22789971 -65 25 C-62.82921958 25.25528461 -62.82921958 25.25528461 -60.3046875 24.87109375 C-58.69932129 24.69296143 -58.69932129 24.69296143 -57.06152344 24.51123047 C-55.70764238 24.34113771 -54.3538059 24.17068994 -53 24 C-51.23740348 23.79099461 -49.47469937 23.58289541 -47.71191406 23.37548828 C-42.5860467 22.76470444 -37.46449161 22.12319859 -32.34375 21.47094727 C-29.11273442 21.06094354 -25.88064576 20.66024435 -22.6484375 20.25976562 C-20.58065713 19.99796416 -18.51294617 19.73561379 -16.4453125 19.47265625 C-15.48585724 19.3548732 -14.52640198 19.23709015 -13.53787231 19.11573792 C-5.68904393 18.47718517 -5.68904393 18.47718517 1 15 C1.19989763 13.00009484 1.19989763 13.00009484 1.1875 10.6875 C1.20167969 9.90761719 1.21585937 9.12773437 1.23046875 8.32421875 C0.97862233 5.78441158 0.18646119 4.23273363 -1 2 C-8.29203041 1.82521729 -15.28710778 2.49751286 -22.515625 3.42578125 Z " fill="#000000" transform="translate(152,312)"/>
<path d="M0 0 C4.28181666 2.10841562 7.16838068 4.88251154 10 8.6875 C11.8467122 14.80473415 12.13287994 20.60352321 9.375 26.4375 C6.03615179 30.03994149 2.91665096 32.34659626 -1.75 33.9375 C-7.05772127 34.03957156 -12.58304979 33.06539381 -16.71875 29.53125 C-20.84820461 24.63352476 -21.40912837 21.12999329 -21.34375 14.89453125 C-20.64299922 8.99389117 -17.54569869 5.43785925 -13.3125 1.5 C-8.72764136 -0.5761624 -4.9446244 -1.00568632 0 0 Z M-15 7 C-15 7.66 -15 8.32 -15 9 C-13.36053896 10.62794512 -13.36053896 10.62794512 -11.25 12.1875 C-10.55390625 12.73792969 -9.8578125 13.28835938 -9.140625 13.85546875 C-7.10129805 15.16977036 -7.10129805 15.16977036 -4.9375 14.9609375 C-2.26779646 13.63685066 -1.30901284 11.95317981 0.25 9.4375 C1.03117187 8.19806641 1.03117187 8.19806641 1.828125 6.93359375 C2.21484375 6.29550781 2.6015625 5.65742188 3 5 C-3.68878957 1.2840058 -9.25746112 2.11884196 -15 7 Z M5 7 C2.69 10.3 0.38 13.6 -2 17 C-1.21625 17.78375 -0.4325 18.5675 0.375 19.375 C1.91666667 20.91666667 3.45833333 22.45833333 5 24 C5.99 24 6.98 24 8 24 C9.96671789 19.2567392 10.29464681 15.99363771 9 11 C7.68 9.68 6.36 8.36 5 7 Z M-17 10 C-19.47441166 13.71161749 -19.67548653 16.69573701 -19 21 C-17.88710151 23.57418259 -16.56646279 25.65030581 -15 28 C-12.06799526 25.14723863 -9.35684596 22.34920216 -7 19 C-8.40929697 15.52867905 -9.90605083 14.11906726 -13.125 12.25 C-13.84945312 11.82203125 -14.57390625 11.3940625 -15.3203125 10.953125 C-15.87460938 10.63859375 -16.42890625 10.3240625 -17 10 Z M-5 20 C-6.58826222 21.71497772 -6.58826222 21.71497772 -8.125 23.875 C-8.66382812 24.59429687 -9.20265625 25.31359375 -9.7578125 26.0546875 C-11.17939632 27.89626006 -11.17939632 27.89626006 -11 30 C-7.80803528 31.59598236 -4.47304937 31.3785159 -1 31 C1.98244913 29.8646327 1.98244913 29.8646327 4 28 C4 27.01 4 26.02 4 25 C2.53697745 23.53644249 2.53697745 23.53644249 0.625 22.3125 C-0.00148438 21.87550781 -0.62796875 21.43851562 -1.2734375 20.98828125 C-2.95772657 19.83440894 -2.95772657 19.83440894 -5 20 Z " fill="#000000" transform="translate(85,278)"/>
<path d="M0 0 C-0.33 0.99 -0.66 1.98 -1 3 C-8.57986115 4.00231471 -16.16049729 4.99860047 -23.74169922 5.99072266 C-26.32000622 6.32885597 -28.89813347 6.6683629 -31.47607422 7.00927734 C-35.18410447 7.49939464 -38.89275562 7.9845491 -42.6015625 8.46875 C-43.75177887 8.62186646 -44.90199524 8.77498291 -46.08706665 8.93273926 C-47.16773407 9.07288452 -48.24840149 9.21302979 -49.36181641 9.35742188 C-50.30779694 9.48177612 -51.25377747 9.60613037 -52.22842407 9.73425293 C-55.16830633 10.01613772 -58.04844035 10.04477163 -61 10 C-61 9.34 -61 8.68 -61 8 C-53.69025853 6.60842041 -46.38310002 5.44460509 -39.00390625 4.4921875 C-38.0079393 4.36184113 -37.01197235 4.23149475 -35.98582458 4.09719849 C-33.90291729 3.82532246 -31.81983057 3.55481776 -29.73657227 3.28564453 C-26.54584763 2.87284561 -23.35591477 2.45428137 -20.16601562 2.03515625 C-18.13285705 1.77049087 -16.09965541 1.50615605 -14.06640625 1.2421875 C-13.11536514 1.11721893 -12.16432404 0.99225037 -11.1844635 0.86349487 C-10.29931564 0.74982574 -9.41416779 0.63615662 -8.50219727 0.51904297 C-7.72707291 0.41848602 -6.95194855 0.31792908 -6.15333557 0.21432495 C-4 0 -4 0 0 0 Z " fill="#000000" transform="translate(158,236)"/>
<path d="M0 0 C0 0.66 0 1.32 0 2 C-7.00906673 3.49996147 -14.00685348 4.61583565 -21.1171875 5.5078125 C-22.13676544 5.63815887 -23.15634338 5.76850525 -24.20681763 5.90280151 C-26.34273855 6.17503536 -28.47888153 6.44553215 -30.61523438 6.71435547 C-33.88732528 7.12655266 -37.1585311 7.54530154 -40.4296875 7.96484375 C-42.51297175 8.22955323 -44.59630347 8.49388946 -46.6796875 8.7578125 C-47.65573944 8.88278107 -48.63179138 9.00774963 -49.63742065 9.13650513 C-50.54581696 9.25017426 -51.45421326 9.36384338 -52.39013672 9.48095703 C-53.5839949 9.63179245 -53.5839949 9.63179245 -54.80197144 9.78567505 C-57 10 -57 10 -61 10 C-60.67 9.01 -60.34 8.02 -60 7 C-52.25927191 5.99868147 -44.51792311 5.00227357 -36.77612305 4.00927734 C-34.14251388 3.6708906 -31.50904887 3.3313799 -28.87573242 2.99072266 C-25.09070576 2.5012734 -21.3051791 2.01586821 -17.51953125 1.53125 C-16.34227982 1.37813354 -15.16502838 1.22501709 -13.95210266 1.06726074 C-12.30095711 0.85704285 -12.30095711 0.85704285 -10.61645508 0.64257812 C-9.65048904 0.51822388 -8.68452301 0.39386963 -7.68928528 0.26574707 C-5.1052108 0.01039661 -2.59457161 -0.04848875 0 0 Z " fill="#000000" transform="translate(163,273)"/>
<path d="M0 0 C0 0.66 0 1.32 0 2 C-7.57211492 3.46180541 -15.13640396 4.59569902 -22.79296875 5.5078125 C-23.86501053 5.63815887 -24.93705231 5.76850525 -26.0415802 5.90280151 C-29.42319173 6.31325787 -32.80532607 6.71920668 -36.1875 7.125 C-38.49808314 7.40464845 -40.80863039 7.68459362 -43.11914062 7.96484375 C-48.74568376 8.64665691 -54.3726617 9.32478286 -60 10 C-60 9.01 -60 8.02 -60 7 C-52.42013885 5.99768529 -44.83950271 5.00139953 -37.25830078 4.00927734 C-34.67999378 3.67114403 -32.10186653 3.3316371 -29.52392578 2.99072266 C-25.81589553 2.50060536 -22.10724438 2.0154509 -18.3984375 1.53125 C-17.24822113 1.37813354 -16.09800476 1.22501709 -14.91293335 1.06726074 C-13.83226593 0.92711548 -12.75159851 0.78697021 -11.63818359 0.64257812 C-10.69220306 0.51822388 -9.74622253 0.39386963 -8.77157593 0.26574707 C-5.83169367 -0.01613772 -2.95155965 -0.04477163 0 0 Z " fill="#000000" transform="translate(160,254)"/>
<path d="M0 0 C0 0.66 0 1.32 0 2 C-13.52758916 4.23919018 -27.07246959 6.07108706 -40.6875 7.6875 C-42.57621051 7.91439213 -44.46488261 8.1416043 -46.35351562 8.36914062 C-50.90191187 8.91642969 -55.45079703 9.45945935 -60 10 C-60 9.01 -60 8.02 -60 7 C-52.42013885 5.99768529 -44.83950271 5.00139953 -37.25830078 4.00927734 C-34.67999378 3.67114403 -32.10186653 3.3316371 -29.52392578 2.99072266 C-25.81589553 2.50060536 -22.10724438 2.0154509 -18.3984375 1.53125 C-17.24822113 1.37813354 -16.09800476 1.22501709 -14.91293335 1.06726074 C-13.83226593 0.92711548 -12.75159851 0.78697021 -11.63818359 0.64257812 C-10.69220306 0.51822388 -9.74622253 0.39386963 -8.77157593 0.26574707 C-5.83169367 -0.01613772 -2.95155965 -0.04477163 0 0 Z " fill="#000000" transform="translate(165,291)"/>
<path d="M0 0 C0 0.66 0 1.32 0 2 C-7.41898273 3.00335466 -14.83890694 3.99950926 -22.25952148 4.99072266 C-24.78252927 5.32859222 -27.30531899 5.66809443 -29.82788086 6.00927734 C-33.45890771 6.50009201 -37.09068461 6.98498255 -40.72265625 7.46875 C-42.40742821 7.69842468 -42.40742821 7.69842468 -44.12623596 7.93273926 C-49.46608484 8.63835391 -54.61314992 9.18865766 -60 9 C-60 8.34 -60 7.68 -60 7 C-48.87097659 5.1069187 -37.70781633 3.51081253 -26.51000977 2.08483887 C-25.09781816 1.90470168 -23.685865 1.72268421 -22.27416992 1.53869629 C-14.82395989 0.57119945 -7.52507028 -0.2408687 0 0 Z " fill="#000000" transform="translate(164,283)"/>
<path d="M0 0 C0 0.66 0 1.32 0 2 C-7.5614295 3.00323663 -15.12376613 3.99940637 -22.68676758 4.99072266 C-25.25826987 5.32862211 -27.82956202 5.66812489 -30.40063477 6.00927734 C-34.10118083 6.50001282 -37.80245003 6.98493354 -41.50390625 7.46875 C-42.64896133 7.62186646 -43.79401642 7.77498291 -44.97377014 7.93273926 C-50.36209348 8.63156738 -55.5658182 9.19127227 -61 9 C-61 8.34 -61 7.68 -61 7 C-56.00531405 6.32436419 -51.01060249 5.6489181 -46.01586914 4.97363281 C-44.32380514 4.74484128 -42.63174763 4.51600173 -40.93969727 4.28710938 C-39.71754517 4.12178711 -39.71754517 4.12178711 -38.47070312 3.953125 C-37.25206322 3.78827103 -37.25206322 3.78827103 -36.00880432 3.62008667 C-33.56775203 3.29029979 -31.12653088 2.96178304 -28.68530273 2.63330078 C-25.66567074 2.22658419 -22.64704644 1.81343756 -19.62915039 1.39404297 C-18.95042374 1.30077728 -18.27169708 1.2075116 -17.57240295 1.11141968 C-15.75764263 0.86198167 -13.94325871 0.60980945 -12.12890625 0.35742188 C-8.0432088 -0.10929637 -4.10639254 -0.14408395 0 0 Z " fill="#000000" transform="translate(159,246)"/>
<path d="M0 0 C5.1230835 0.26281051 10.24594775 0.52946477 15.36865234 0.79956055 C17.10850716 0.89076652 18.84841575 0.9809531 20.58837891 1.07006836 C23.10073711 1.1989257 25.61287404 1.33154402 28.125 1.46484375 C28.89303955 1.50343002 29.6610791 1.5420163 30.45239258 1.58177185 C35.34093716 1.84573437 40.14820218 2.34298571 45 3 C45 3.66 45 4.32 45 5 C36.28968903 5.13948897 27.64643853 4.77905835 18.95996094 4.20043945 C16.84344715 4.06041249 14.72649553 3.92932557 12.609375 3.79882812 C11.2577783 3.71146495 9.90621431 3.62359394 8.5546875 3.53515625 C7.34280762 3.456604 6.13092773 3.37805176 4.88232422 3.29711914 C2 3 2 3 0 2 C0 1.34 0 0.68 0 0 Z " fill="#000000" transform="translate(186,171)"/>
<path d="M0 0 C8.71031097 -0.13948897 17.35356147 0.22094165 26.04003906 0.79956055 C28.15655285 0.93958751 30.27350447 1.07067443 32.390625 1.20117188 C33.7422217 1.28853505 35.09378569 1.37640606 36.4453125 1.46484375 C37.65719238 1.543396 38.86907227 1.62194824 40.11767578 1.70288086 C43 2 43 2 45 3 C45 3.66 45 4.32 45 5 C39.8769165 4.73718949 34.75405225 4.47053523 29.63134766 4.20043945 C27.89149284 4.10923348 26.15158425 4.0190469 24.41162109 3.92993164 C21.89926289 3.8010743 19.38712596 3.66845598 16.875 3.53515625 C16.10696045 3.49656998 15.3389209 3.4579837 14.54760742 3.41822815 C9.65906284 3.15426563 4.85179782 2.65701429 0 2 C0 1.34 0 0.68 0 0 Z " fill="#000000" transform="translate(243,183)"/>
<path d="M0 0 C5.1230835 0.26281051 10.24594775 0.52946477 15.36865234 0.79956055 C17.10850716 0.89076652 18.84841575 0.9809531 20.58837891 1.07006836 C23.10073711 1.1989257 25.61287404 1.33154402 28.125 1.46484375 C28.89303955 1.50343002 29.6610791 1.5420163 30.45239258 1.58177185 C35.34093716 1.84573437 40.14820218 2.34298571 45 3 C45 3.66 45 4.32 45 5 C35.77338131 5.14635102 26.64048938 4.69765492 17.4375 4.0625 C16.07228281 3.97434291 14.70704846 3.88645094 13.34179688 3.79882812 C12.05208984 3.71181641 10.76238281 3.62480469 9.43359375 3.53515625 C8.26884521 3.456604 7.10409668 3.37805176 5.90405273 3.29711914 C3 3 3 3 0 2 C0 1.34 0 0.68 0 0 Z " fill="#000000" transform="translate(305,114)"/>
<path d="M0 0 C4.96233993 0.26323276 9.9244808 0.52988176 14.88647461 0.79956055 C16.57099562 0.89064624 18.25556549 0.98083329 19.94018555 1.07006836 C22.3756256 1.19923688 24.81086573 1.33174434 27.24609375 1.46484375 C27.98709824 1.50343002 28.72810272 1.5420163 29.49156189 1.58177185 C34.68860434 1.87022386 39.83063303 2.38986719 45 3 C45 3.66 45 4.32 45 5 C35.39613804 5.1380894 25.89207502 4.72559282 16.3125 4.0625 C14.94337789 3.97432146 13.57423729 3.88642952 12.20507812 3.79882812 C10.91666016 3.71181641 9.62824219 3.62480469 8.30078125 3.53515625 C7.13716064 3.456604 5.97354004 3.37805176 4.7746582 3.29711914 C2 3 2 3 0 2 C0 1.34 0 0.68 0 0 Z " fill="#000000" transform="translate(248,110)"/>
<path d="M0 0 C9.81394841 -0.15197425 19.53030622 0.31802696 29.3125 1 C30.74671809 1.09675087 32.18096285 1.19310714 33.61523438 1.2890625 C37.07714107 1.5215125 40.53866054 1.75923344 44 2 C44 2.99 44 3.98 44 5 C39.18007535 4.73667688 34.36034969 4.47002937 29.54077148 4.20043945 C27.90475311 4.10937942 26.26868589 4.01919235 24.63256836 3.92993164 C7.89783459 3.01582809 7.89783459 3.01582809 0 2 C0 1.34 0 0.68 0 0 Z " fill="#000000" transform="translate(191,99)"/>
<path d="M0 0 C14.70366665 -0.45710881 29.35053032 0.8904823 44 2 C44 2.99 44 3.98 44 5 C39.34082325 4.73620781 34.68182067 4.46956983 30.02294922 4.20043945 C28.44226347 4.1095122 26.86153493 4.0193255 25.28076172 3.92993164 C16.83159408 3.45162645 8.41369673 2.93579192 0 2 C0 1.34 0 0.68 0 0 Z " fill="#000000" transform="translate(191,107)"/>
<path d="M0 0 C22.12236563 0.90431857 22.12236563 0.90431857 32.125 1.5 C33.34445312 1.5721875 34.56390625 1.644375 35.8203125 1.71875 C38.61980853 1.96637127 41.26207338 2.38009209 44 3 C44 3.66 44 4.32 44 5 C20.77618742 4.09536502 20.77618742 4.09536502 10.75 3.5 C9.52796875 3.4278125 8.3059375 3.355625 7.046875 3.28125 C4.56886224 3.05251036 2.37668091 2.70594482 0 2 C0 1.34 0 0.68 0 0 Z " fill="#000000" transform="translate(301,179)"/>
<path d="M0 0 C23.22381258 0.90463498 23.22381258 0.90463498 33.25 1.5 C34.47203125 1.5721875 35.6940625 1.644375 36.953125 1.71875 C39.43113776 1.94748964 41.62331909 2.29405518 44 3 C44 3.66 44 4.32 44 5 C29.2675887 4.50237908 14.65866665 3.55814517 0 2 C0 1.34 0 0.68 0 0 Z " fill="#000000" transform="translate(186,179)"/>
<path d="M0 0 C5.14141187 0.26247677 10.28258415 0.52913329 15.42358398 0.79956055 C17.17026996 0.89086202 18.91701465 0.98104777 20.66381836 1.07006836 C23.18359612 1.19867977 25.70313115 1.33138455 28.22265625 1.46484375 C28.99585709 1.50343002 29.76905792 1.5420163 30.56568909 1.58177185 C35.09753199 1.82644889 39.51662694 2.29127919 44 3 C44 3.66 44 4.32 44 5 C4.84964413 3.61654804 4.84964413 3.61654804 0 2 C0 1.34 0 0.68 0 0 Z " fill="#000000" transform="translate(244,175)"/>
<path d="M0 0 C14.52 0.99 29.04 1.98 44 3 C44 3.66 44 4.32 44 5 C29.27510544 5.41156538 14.66946626 4.16267271 0 3 C0 2.01 0 1.02 0 0 Z " fill="#000000" transform="translate(306,106)"/>
<path d="M0 0 C14.70366665 -0.45710881 29.35053032 0.8904823 44 2 C44 2.99 44 3.98 44 5 C29.48 4.01 14.96 3.02 0 2 C0 1.34 0 0.68 0 0 Z " fill="#000000" transform="translate(249,103)"/>
<path d="M0 0 C10.01441088 -0.14058054 19.88510137 0.2745314 29.875 1 C31.25647941 1.09679776 32.63798983 1.19315384 34.01953125 1.2890625 C37.34668343 1.52173048 40.67345958 1.75876968 44 2 C44 2.99 44 3.98 44 5 C29.48 4.01 14.96 3.02 0 2 C0 1.34 0 0.68 0 0 Z " fill="#000000" transform="translate(300,187)"/>
<path d="M0 0 C2.08326131 -0.02709444 4.16662441 -0.04643873 6.25 -0.0625 C7.41015625 -0.07410156 8.5703125 -0.08570312 9.765625 -0.09765625 C12.40977128 -0.01782092 14.49826091 0.21356222 17 1 C17 1.66 17 2.32 17 3 C11.39 2.67 5.78 2.34 0 2 C0 1.34 0 0.68 0 0 Z " fill="#000000" transform="translate(162,97)"/>
<path d="M0 0 C6.93 0.495 6.93 0.495 14 1 C14.33 1.99 14.66 2.98 15 4 C10.05 3.67 5.1 3.34 0 3 C0 2.01 0 1.02 0 0 Z " fill="#000000" transform="translate(163,104)"/>
<path d="M0 0 C0.99 0 1.98 0 3 0 C3 0.99 3 1.98 3 3 C2.01 2.67 1.02 2.34 0 2 C0 1.34 0 0.68 0 0 Z " fill="#000000" transform="translate(171,170)"/>
<path d="M0 0 C0.66 0 1.32 0 2 0 C2 0.66 2 1.32 2 2 C1.34 2 0.68 2 0 2 C0 1.34 0 0.68 0 0 Z " fill="#000000" transform="translate(172,178)"/>
</svg>
