<?xml version="1.0" encoding="UTF-8"?>
<svg version="1.1" xmlns="http://www.w3.org/2000/svg" width="400" height="400">
<path d="M0 0 C2.955699 2.04625315 3.80632018 3.28984065 4.75 6.75 C4.8325 7.4925 4.915 8.235 5 9 C5.66 8.67 6.32 8.34 7 8 C10.5 7.8125 10.5 7.8125 14 8 C16 10 16 10 16.125 13.125 C16.08375 14.07375 16.0425 15.0225 16 16 C17.2065625 16.4640625 17.2065625 16.4640625 18.4375 16.9375 C21 18 21 18 22 19 C22.56500922 24.76309406 21.4318643 27.42418094 18 32 C17.67 32.99 17.34 33.98 17 35 C17.8210217 37.22942742 17.8210217 37.22942742 20.21484375 37.74609375 C22.02688118 38.20625247 23.83938146 38.66459245 25.65234375 39.12109375 C28 40 28 40 30 43 C30.33957563 47.07490752 30.31332486 48.53001271 28 52 C27.957279 53.66611905 27.95936168 55.33382885 28 57 C27.79375 57.61875 27.5875 58.2375 27.375 58.875 C26.77049886 62.30050647 27.75966406 64.81056472 29 68 C30.32 68.66 31.64 69.32 33 70 C33 73.96 33 77.92 33 82 C31.68 82.33 30.36 82.66 29 83 C28.06855857 84.98219504 28.06855857 84.98219504 27.625 87.4375 C25.53382549 95.28502583 21.91549967 102.7011982 14.87890625 107.171875 C11.61364482 108.61103389 8.54759079 108.8132847 5 109 C5.52773789 110.97735042 5.52773789 110.97735042 7 113 C9.28649625 114.05007266 11.44137914 114.89053665 13.8125 115.6875 C22.20808077 118.75589943 30.450338 123.18271082 36.66015625 129.7578125 C38.08626564 131.34392732 38.08626564 131.34392732 41.1875 131.1875 C42.115625 131.125625 43.04375 131.06375 44 131 C45.125 134.75 45.125 134.75 44 137 C45.2928935 139.15380846 46.63341572 141.18938226 48.0625 143.25 C57.2241424 157.03785352 61.67279751 171.70958257 64 188 C73.9 188.33 83.8 188.66 94 189 C94 182.4 94 175.8 94 169 C92.27652344 168.19175781 90.55304688 167.38351563 88.77734375 166.55078125 C86.49722591 165.47171314 84.2172874 164.39226605 81.9375 163.3125 C80.80376953 162.78205078 79.67003906 162.25160156 78.50195312 161.70507812 C75.30707343 160.18681168 72.15568831 158.59762325 69 157 C68.2177002 156.67563965 67.43540039 156.3512793 66.62939453 156.01708984 C64.37822143 154.88554781 63.32509282 154.15476937 62 152 C61.18250062 146.95952995 61.60145337 142.05671296 62 137 C62.1030251 135.41527534 62.20487611 133.83047399 62.30566406 132.24560547 C62.67516688 126.80320946 63.14466284 121.37107662 63.625 115.9375 C63.71103485 114.94685547 63.7970697 113.95621094 63.88571167 112.93554688 C65.307034 96.64198481 66.92079218 80.36804372 68.67425537 64.10696411 C68.93189882 61.71334262 69.18620298 59.31935921 69.43707275 56.92501831 C69.79148546 53.56321016 70.16099683 50.20341074 70.53515625 46.84375 C70.63823593 45.8478334 70.74131561 44.85191681 70.84751892 43.82582092 C71.47891175 38.34060128 72.53000734 33.94940459 75 29 C85.60970686 28.43950219 95.65751686 30.13790764 106.0625 31.9375 C106.95865021 32.08973022 107.85480042 32.24196045 108.77810669 32.39880371 C123.55127268 34.91334359 138.25827763 37.73765652 152.9375 40.75 C154.35097214 41.03506912 154.35097214 41.03506912 155.79299927 41.32589722 C158.45723507 41.86621067 161.11759773 42.42242775 163.77734375 42.984375 C164.9650386 43.22315117 164.9650386 43.22315117 166.17672729 43.4667511 C170.00556777 44.29720082 172.56691908 44.86208543 175 48 C175.27040781 50.92171935 175.35862904 53.59908882 175.2902832 56.51586914 C175.27941586 57.36216668 175.26854853 58.20846422 175.25735188 59.08040714 C175.0839122 68.01431466 174.27266676 76.86327682 173.35546875 85.74609375 C173.18240522 87.49348829 173.01025363 89.24097335 172.83894348 90.98854065 C172.38937771 95.5538104 171.92935182 100.11795844 171.46636963 104.68188477 C170.73640013 111.89498673 170.022345 119.10968887 169.30807877 126.32435989 C169.13174209 128.10145109 168.95464949 129.87846745 168.77679062 131.65540695 C167.81484578 141.26709003 166.90374512 150.87871335 166.13916016 160.50830078 C166.07220727 161.34617787 166.00525438 162.18405497 165.93627262 163.04732227 C165.62178947 167.00612494 165.31754938 170.9653307 165.02934265 174.9261322 C164.92119568 176.32845465 164.81287364 177.73076362 164.7043457 179.13305664 C164.57150932 180.94973595 164.57150932 180.94973595 164.43598938 182.80311584 C164.01566174 185.88516056 163.40464122 188.23255609 162 191 C158.22739166 193.263565 154.29744391 193.61140707 150 193 C146.24115599 191.7451216 142.66681243 190.14078748 139.0625 188.5 C137.6074707 187.85611328 137.6074707 187.85611328 136.12304688 187.19921875 C133.7433396 186.14417612 131.36954847 185.07761753 129 184 C128.67 186.31 128.34 188.62 128 191 C129.00546875 190.96648437 130.0109375 190.93296875 131.046875 190.8984375 C145.8121081 191.27778143 158.72993426 197.90583977 168.92016602 208.25708008 C179.04796878 219.18528698 180.36007247 232.49692858 180.31567383 246.80151367 C180.31251108 248.93004509 180.33605185 251.05718602 180.36132812 253.18554688 C180.42106579 265.65589791 178.80183283 274.82996301 170 284 C165.59387684 287.97231567 161.70300192 290.26078665 156 292 C156.00785522 292.91495239 156.00785522 292.91495239 156.01586914 293.84838867 C156.03673335 296.62808185 156.04969013 299.40775851 156.0625 302.1875 C156.07087891 303.14720703 156.07925781 304.10691406 156.08789062 305.09570312 C156.09272461 306.49272461 156.09272461 306.49272461 156.09765625 307.91796875 C156.10551147 309.19837036 156.10551147 309.19837036 156.11352539 310.50463867 C155.99579323 313.09246747 155.57107044 315.47661953 155 318 C154.34 318 153.68 318 153 318 C153 310.08 153 302.16 153 294 C150.6796875 294.4640625 150.6796875 294.4640625 148.3125 294.9375 C142.68047961 295.87008413 137.12678459 296.30417606 131.43359375 296.55859375 C130.0539444 296.62123917 130.0539444 296.62123917 128.64642334 296.68515015 C118.34691709 297.11729039 108.05696804 297.14975885 97.75 297.125 C96.66943329 297.12411377 95.58886658 297.12322754 94.47555542 297.12231445 C49.64983057 297.08103517 4.82276372 296.47057424 -40 296 C-39.7834375 296.79664063 -39.566875 297.59328125 -39.34375 298.4140625 C-39.0653125 299.47367187 -38.786875 300.53328125 -38.5 301.625 C-38.08234375 303.19121094 -38.08234375 303.19121094 -37.65625 304.7890625 C-37.00881404 307.95687418 -36.8838708 310.77741467 -37 314 C-37.99 313.67 -38.98 313.34 -40 313 C-40.99560547 310.46240234 -40.99560547 310.46240234 -41.8671875 307.0859375 C-42.19332031 305.85601074 -42.51945313 304.62608398 -42.85546875 303.35888672 C-43.19532882 302.03092866 -43.53517229 300.70296634 -43.875 299.375 C-44.5741889 296.7169968 -45.28259642 294.0614927 -45.9921875 291.40625 C-46.16457947 290.75719696 -46.33697144 290.10814392 -46.5145874 289.43942261 C-48.13821467 283.37333041 -50.07401917 277.46409114 -52.1875 271.5546875 C-53 269 -53 269 -53 266 C-57.7767454 265.37354159 -62.24990902 264.97603767 -67.0625 265.1875 C-82.76269762 265.27545629 -96.4135019 258.92920364 -107.5 248.0625 C-118.51540389 236.79401955 -127.41716792 223.76985479 -135 210 C-135.5256958 209.04939697 -135.5256958 209.04939697 -136.06201172 208.07958984 C-144.78555873 192.07636552 -153.01293575 172.61965572 -151 154 C-150 150.9375 -150 150.9375 -149 149 C-148.34 149 -147.68 149 -147 149 C-147.04640625 149.88558594 -147.0928125 150.77117187 -147.140625 151.68359375 C-148.11537116 185.13827456 -128.33403887 219.692296 -105.890625 243.51464844 C-92.19250361 257.53021224 -76.89906153 260.57577864 -58 261 C-55.5104838 247.29987575 -53.4973023 233.92446432 -53 220 C-57.95 220.33 -62.9 220.66 -68 221 C-68 220.34 -68 219.68 -68 219 C-66.02 218.01 -64.04 217.02 -62 216 C-76.29360787 181.2065163 -76.29360787 181.2065163 -97 150 C-97.45761719 149.38382813 -97.91523437 148.76765625 -98.38671875 148.1328125 C-103.7778965 141.18143718 -112.21900422 135.30088826 -121 134 C-127.12015313 134.1360034 -133.07475667 135.55721025 -139 137 C-138.67 136.01 -138.34 135.02 -138 134 C-135.49609375 132.83203125 -135.49609375 132.83203125 -132.4375 131.8125 C-131.42558594 131.46832031 -130.41367188 131.12414062 -129.37109375 130.76953125 C-128.58863281 130.51558594 -127.80617188 130.26164063 -127 130 C-129.24659907 128.20392214 -131.49703789 126.41306517 -133.75 124.625 C-134.38421875 124.11710937 -135.0184375 123.60921875 -135.671875 123.0859375 C-136.290625 122.59609375 -136.909375 122.10625 -137.546875 121.6015625 C-138.39523926 120.92601318 -138.39523926 120.92601318 -139.26074219 120.23681641 C-142.76250541 117.73729533 -142.76250541 117.73729533 -146.875 117.0625 C-159.38067421 122.57970921 -167.24259362 138.60661994 -172.10498047 150.62988281 C-176.21449572 161.51236345 -179.01655037 172.78814385 -180.9375 184.25 C-181.06616455 184.99942871 -181.1948291 185.74885742 -181.32739258 186.52099609 C-182.20896204 192.44095688 -182.98222889 199.12850051 -179.44140625 204.2578125 C-176.05130015 206.67699221 -172.55090816 208.80719318 -168.9375 210.875 C-168.17816162 211.3177124 -167.41882324 211.7604248 -166.63647461 212.21655273 C-162.49887825 214.61620933 -158.32160348 216.88413332 -154.0625 219.0625 C-141.94739025 225.5632906 -134.45108033 235.21597473 -130 248 C-128.77982265 252.50660155 -127.8374743 257.0449265 -126.9375 261.625 C-126.42723944 264.0963864 -125.91682277 266.56774058 -125.40625 269.0390625 C-124.93632944 271.35913822 -124.46749112 273.67943354 -124 276 C-121.52367696 288.27632934 -118.42903616 299.34317315 -112.6875 310.5625 C-111 314 -111 314 -111 317 C-114.30497432 315.95981835 -115.11152061 314.8233531 -117 311.83203125 C-117.68444625 310.50118225 -118.35007763 309.16054548 -119 307.8125 C-119.35175293 307.08691895 -119.70350586 306.36133789 -120.06591797 305.61376953 C-124.96644117 295.15947177 -126.96279878 284.2689848 -129.1550293 273.00732422 C-133.39834156 247.06331298 -133.39834156 247.06331298 -149.39453125 227.1875 C-155.8344389 222.9140129 -162.74239597 219.30567903 -169.54272461 215.63867188 C-183.3802443 208.11276331 -183.3802443 208.11276331 -186 202 C-186.6875 198.1875 -186.6875 198.1875 -187 195 C-192.62150008 203.71423476 -196.1781577 211.10121233 -196.59375 221.54296875 C-195.38186451 226.55794224 -191.85462627 229.40207466 -187.80078125 232.23828125 C-186.64195258 232.93625725 -185.4790349 233.62748122 -184.3125 234.3125 C-166.44848326 245.40948834 -160.97685946 258.35180913 -156 278 C-155.10421295 281.48630635 -154.20519529 284.97176023 -153.30444336 288.45678711 C-152.69771067 290.81056569 -152.09545402 293.16550389 -151.49829102 295.52172852 C-150.05522039 301.16922957 -148.5257427 306.71118315 -146.53759766 312.19311523 C-146 314 -146 314 -146 317 C-147.87670898 316.77783203 -147.87670898 316.77783203 -150 316 C-155.24310713 307.13805302 -156.64094551 294.72333644 -158.99731445 284.75732422 C-164.99622857 258.9531727 -164.99622857 258.9531727 -182.671875 240.296875 C-185.09705046 238.83080848 -187.54130529 237.40871022 -190 236 C-189.98839844 236.63019043 -189.97679687 237.26038086 -189.96484375 237.90966797 C-189.88624453 245.69239478 -190.40518682 253.36875705 -191 261.125 C-192.30559569 279.40559646 -192.82996412 297.73303678 -191 316 C-191.99 316.33 -192.98 316.66 -194 317 C-195.69694274 308.00764565 -196.2895836 299.24989431 -196.20581055 290.11645508 C-196.18754674 288.06774323 -196.18530207 286.01948815 -196.18554688 283.97070312 C-196.16499501 276.39847768 -195.82703773 268.89322216 -195.23364258 261.34204102 C-194.86300184 256.04036796 -194.77726381 250.75053549 -194.75 245.4375 C-194.7190625 243.87805664 -194.7190625 243.87805664 -194.6875 242.28710938 C-194.60006683 235.14031396 -194.60006683 235.14031396 -198 229 C-201.41623072 223.87565392 -200.49818282 217.97819385 -200 212 C-198.13290691 203.36888703 -193.47769943 193.98513295 -186 189 C-185.23369653 186.61580862 -185.23369653 186.61580862 -184.859375 183.78515625 C-184.67979248 182.71555664 -184.50020996 181.64595703 -184.31518555 180.54394531 C-184.12867432 179.39506836 -183.94216309 178.24619141 -183.75 177.0625 C-179.53646524 153.41474656 -171.17976834 130.83369606 -151.80078125 115.421875 C-149.21602955 113.18680379 -148.0821387 111.89420521 -146.8125 108.8125 C-145.46369163 105.59137315 -145.10258684 105.06839123 -142 103 C-139.73828125 102.8046875 -139.73828125 102.8046875 -137.3125 102.875 C-136.50425781 102.89304687 -135.69601563 102.91109375 -134.86328125 102.9296875 C-134.24839844 102.95289063 -133.63351563 102.97609375 -133 103 C-132.34 101.35 -131.68 99.7 -131 98 C-131.680625 97.835 -132.36125 97.67 -133.0625 97.5 C-139.76546637 94.07720866 -143.81514346 87.72196459 -146.27734375 80.76171875 C-149.05690073 70.1393037 -148.6908998 59.74604653 -143.3671875 50.015625 C-138.9543546 43.40530851 -134.1976715 39.31590841 -127 36 C-125.95585937 35.51080078 -125.95585937 35.51080078 -124.890625 35.01171875 C-115.34000314 31.22378414 -104.25353038 31.20205127 -94.3671875 33.52734375 C-91.77546215 34.04483346 -89.63413228 34.2723497 -87 34 C-85.06482363 32.76697349 -85.06482363 32.76697349 -83.4375 31.0625 C-81.03182661 28.71238489 -79.38905379 27.44022761 -76 27 C-74.25 28 -74.25 28 -73 30 C-73.04125 31.155 -73.0825 32.31 -73.125 33.5 C-73.08375 34.655 -73.0425 35.81 -73 37 C-72.175 37.495 -71.35 37.99 -70.5 38.5 C-69.675 38.995 -68.85 39.49 -68 40 C-67.3125 43.25 -67.3125 43.25 -68 47 C-69.4609375 48.66015625 -69.4609375 48.66015625 -71.1875 50.3125 C-73.52949659 52.80500683 -73.52949659 52.80500683 -74.01171875 56.06640625 C-72.83449775 60.33473514 -70.90003356 64.22957011 -68.99609375 68.2109375 C-68.63918457 68.95811035 -68.28227539 69.7052832 -67.91455078 70.47509766 C-67.19056931 71.96957248 -66.45104891 73.45663768 -65.69482422 74.93505859 C-63.64516265 79.05629814 -62.1598871 82.29536775 -63 87 C-63.65871094 87.61101562 -64.31742188 88.22203125 -64.99609375 88.8515625 C-67.40863825 90.98805849 -67.40863825 90.98805849 -67.28515625 94.8984375 C-67.23088773 96.39148368 -67.15601417 97.88389737 -67.0625 99.375 C-66.73183312 105.06049615 -66.65978899 109.07523454 -70 114 C-72.88259009 116.10017278 -74.90704492 116.19248293 -78.375 115.6875 C-79.46941406 115.53861328 -79.46941406 115.53861328 -80.5859375 115.38671875 C-83.39279869 114.93707594 -86.19691063 114.47256694 -89 114 C-89.89625886 116.22260167 -90.76675553 118.45025334 -91.625 120.6875 C-92.00785156 121.62625977 -92.00785156 121.62625977 -92.3984375 122.58398438 C-93.53029031 125.58653835 -94.15464776 127.46517651 -93.25 130.59375 C-92.8375 131.3878125 -92.425 132.181875 -92 133 C-91.4321989 134.93000283 -90.89044668 136.86786025 -90.375 138.8125 C-90.11460938 139.78832031 -89.85421875 140.76414063 -89.5859375 141.76953125 C-89.29589844 142.87361328 -89.29589844 142.87361328 -89 144 C-88.34 144 -87.68 144 -87 144 C-85.75714671 142.5455338 -84.58095206 141.03384277 -83.4375 139.5 C-68.44473404 120.49131459 -48.08788188 114.64982085 -25 111 C-24.88406494 110.40461426 -24.76812988 109.80922852 -24.64868164 109.19580078 C-24.12296202 106.50493604 -23.59278705 103.8149682 -23.0625 101.125 C-22.88009766 100.18785156 -22.69769531 99.25070313 -22.50976562 98.28515625 C-22.33251953 97.38925781 -22.15527344 96.49335938 -21.97265625 95.5703125 C-21.81031494 94.74289551 -21.64797363 93.91547852 -21.48071289 93.06298828 C-21 91 -21 91 -20 89 C-20.763125 89.061875 -21.52625 89.12375 -22.3125 89.1875 C-25 89 -25 89 -26.63671875 87.765625 C-28.32224743 85.58264803 -28.38950335 84.2926881 -28.5 81.5625 C-28.61703574 78.68049497 -28.71917136 77.3692786 -30.48828125 75.04296875 C-32.35026586 72.5266433 -32.48385522 70.84540068 -32.6875 67.75 C-32.75324219 66.85796875 -32.81898438 65.9659375 -32.88671875 65.046875 C-32.94279297 64.03367188 -32.94279297 64.03367188 -33 63 C-34.216875 63.0825 -35.43375 63.165 -36.6875 63.25 C-40.0726174 63.26200396 -40.93868234 63.03913893 -43.9375 61.125 C-46.49936434 58.4855034 -46.97119778 57.6912532 -47.125 54 C-47 51 -47 51 -46 49 C-45.34 49 -44.68 49 -44 49 C-44.7425 48.29875 -45.485 47.5975 -46.25 46.875 C-48.97537317 44.02574623 -51.12156318 41.46788336 -53 38 C-52.93145637 35.05262402 -52.45144048 33.63201667 -50.75 31.25 C-48.55535876 29.68239911 -46.64824722 29.35787125 -44 29 C-44.474375 28.443125 -44.94875 27.88625 -45.4375 27.3125 C-47.1951425 24.7111891 -47.92139542 23.14418333 -48 20 C-46.5625 17.625 -46.5625 17.625 -44 16 C-40.48220061 15.89592309 -37.1746717 16.41266415 -34 18 C-34.20625 17.278125 -34.4125 16.55625 -34.625 15.8125 C-35.15435029 11.84237279 -34.02094153 9.50454541 -31.8125 6.25 C-28.90418351 4.24426449 -26.50041815 4.11668061 -23 4 C-20.47169569 4.77076461 -18.37088873 5.79036289 -16 7 C-15.4225 6.21625 -14.845 5.4325 -14.25 4.625 C-10.2165716 -0.08066647 -6.05558812 -1.00719228 0 0 Z M-25.375 47 C-29.37067947 52.7604379 -31.74574997 57.79108359 -31 65 C-30.14798701 68.06039148 -29.13063113 71.03209329 -28 74 C-26.68 74 -25.36 74 -24 74 C-23.85304687 73.23816406 -23.70609375 72.47632813 -23.5546875 71.69140625 C-21.1523925 60.63256547 -17.23229592 53.7134493 -7.640625 47.49609375 C-0.53840861 43.47220488 7.17596347 41.19738898 15 39 C13.61112939 35.73682828 13.14116352 35.07905157 9.875 33.25 C-3.48035363 28.27609258 -17.20699641 36.64449667 -25.375 47 Z M78 38 C76.96849564 47.33690841 75.94232606 56.67438437 74.92260075 66.01258659 C74.4487273 70.35063299 73.97315172 74.68847743 73.4934082 79.02587891 C73.02880154 83.2270421 72.56902872 87.42871083 72.1123333 91.63074112 C71.93900193 93.21813205 71.76405138 94.80534721 71.58729744 96.39236069 C70.34227823 107.58461763 69.52321002 118.75080281 69 130 C79.9271441 134.62298647 90.96142737 138.9641161 102 143.3125 C104.76945403 144.40427124 107.53876997 145.49639003 110.30786133 146.58908081 C112.13684009 147.31060993 113.96610237 148.03142082 115.7956543 148.75149536 C120.44925445 150.58572729 125.09388867 152.43916508 129.7265625 154.32568359 C131.1031604 154.8841523 131.1031604 154.8841523 132.50756836 155.4539032 C134.25497653 156.16401163 136.00067671 156.87834203 137.74438477 157.5974884 C138.52354248 157.9136058 139.3027002 158.22972321 140.10546875 158.55541992 C140.78762451 158.83528244 141.46978027 159.11514496 142.17260742 159.40348816 C144.15493585 160.15515675 144.15493585 160.15515675 147 160 C147.81264833 156.30969329 148.24739041 152.71223611 148.52490234 148.94506836 C148.61534317 147.73915543 148.705784 146.53324249 148.79896545 145.29078674 C148.89366623 143.98697556 148.988367 142.68316437 149.0859375 141.33984375 C149.18824491 139.96363572 149.29086672 138.58745104 149.39378357 137.21128845 C149.61137808 134.29533553 149.82723306 131.37926154 150.04165649 128.46307373 C150.53986607 121.69010078 151.04722471 114.9178121 151.55504036 108.14555359 C151.66683713 106.65458401 151.77853518 105.16360703 151.89013481 103.67262268 C153.15574368 86.77253284 154.55095837 69.8852631 156 53 C147.15991844 51.18715679 138.31895572 49.3786908 129.476861 47.57569218 C125.37044847 46.73820968 121.26434645 45.89926474 117.15893555 45.05688477 C113.19148922 44.24287106 109.22325202 43.4328203 105.25445366 42.62542534 C103.74604351 42.3178535 102.23791573 42.00889325 100.73008919 41.69847298 C93.17617982 40.14423861 85.69300905 38.66454983 78 38 Z M163 46 C163.17492981 46.82876648 163.34985962 47.65753296 163.53009033 48.51141357 C164.05038831 52.37408032 163.86937506 55.96082987 163.51855469 59.81738281 C163.4552446 60.57984818 163.39193451 61.34231354 163.32670593 62.12788391 C163.11532583 64.65359991 162.89350557 67.17828959 162.671875 69.703125 C162.51996358 71.49959278 162.36879471 73.29612348 162.21832275 75.0927124 C161.81813047 79.8512473 161.40949933 84.60901758 160.99859619 89.36663818 C160.27590634 97.74881137 159.56678906 106.13215067 158.859375 114.515625 C158.74273247 115.89659615 158.74273247 115.89659615 158.62373352 117.3054657 C157.49943494 130.65080018 156.4371093 143.99984024 155.46582794 157.35723114 C155.33428403 159.16553503 155.20152395 160.97375094 155.06743622 162.78186798 C154.39684961 171.86333045 153.76722271 180.88592299 154 190 C155.98 189.67 157.96 189.34 160 189 C161.66035394 183.05862536 162.43776735 177.45086896 162.82421875 171.3046875 C162.96353855 169.32191699 163.10320522 167.33917082 163.24316406 165.35644531 C163.35102234 163.77748474 163.35102234 163.77748474 163.46105957 162.16662598 C165.25196312 136.1333568 167.78041049 110.19521741 170.4768362 84.24315071 C170.78380747 81.28384874 171.08808376 78.32427228 171.39217949 75.36467361 C171.60309906 73.32627773 171.81883096 71.28843236 172.03492737 69.25057983 C173.86133858 58.52165592 173.86133858 58.52165592 171.375 48.5625 C168.5627594 46.71234171 166.32739873 46.30249079 163 46 Z M-98 55 C-97.855625 56.0725 -97.71125 57.145 -97.5625 58.25 C-97.3744172 59.83326421 -97.18699579 61.41660704 -97 63 C-96.80470703 64.44632813 -96.80470703 64.44632813 -96.60546875 65.921875 C-95.84451 72.51127602 -95.77393901 77.10409543 -99 83 C-101.11328125 83.70703125 -101.11328125 83.70703125 -103 84 C-103.66 82.68 -104.32 81.36 -105 80 C-107.43717258 80.27034634 -107.43717258 80.27034634 -110 81 C-112.30260759 83.81598187 -112.30260759 83.81598187 -111.875 87 C-111.21668597 90.00554047 -111.21668597 90.00554047 -109.375 91.9375 C-106.00996099 93.44291219 -103.5343001 92.74764041 -100 92 C-100 92.99 -100 93.98 -100 95 C-100.66386719 94.95359375 -101.32773438 94.9071875 -102.01171875 94.859375 C-107.73637242 94.53913682 -107.73637242 94.53913682 -112.8125 96.875 C-113.8953125 97.926875 -113.8953125 97.926875 -115 99 C-119.52678985 101.51488325 -123.96575292 101.19742145 -129 101 C-129.33 102.32 -129.66 103.64 -130 105 C-129.32195312 105.40089844 -128.64390625 105.80179688 -127.9453125 106.21484375 C-118.48505136 111.9932027 -110.59018608 118.77437239 -103.47265625 127.2734375 C-102.05384201 128.93687488 -100.56620423 130.47587289 -99 132 C-95.73679523 124.08809569 -92.83795387 116.07188518 -90 108 C-88.845 108.061875 -87.69 108.12375 -86.5 108.1875 C-80.30322621 108.19848719 -75.45299165 105.72649582 -70 103 C-70 97.72 -70 92.44 -70 87 C-68.68 86.34 -67.36 85.68 -66 85 C-66.66952097 80.34049595 -68.44300401 76.43070606 -70.375 72.1875 C-72.78525069 66.85124582 -74.9915005 61.50180999 -77 56 C-78.09699219 56.01160156 -79.19398438 56.02320313 -80.32421875 56.03515625 C-81.77864412 56.04453964 -83.23307135 56.05363925 -84.6875 56.0625 C-85.40873047 56.07087891 -86.12996094 56.07925781 -86.87304688 56.08789062 C-90.71555382 56.10543632 -94.26639526 55.93524221 -98 55 Z M5 57 C4.0925 57.45375 3.185 57.9075 2.25 58.375 C-1.24490029 60.12245015 -4.13670528 60.61367053 -8 61 C-8.33 64.96 -8.66 68.92 -9 73 C-5.7 72.67 -2.4 72.34 1 72 C1 70.68 1 69.36 1 68 C4.63263511 65.67511353 7.76685233 65.76038787 12 66 C12.33 66.33 12.66 66.66 13 67 C11.93458984 67.18175781 11.93458984 67.18175781 10.84765625 67.3671875 C9.92855469 67.53476563 9.00945312 67.70234375 8.0625 67.875 C6.68771484 68.11863281 6.68771484 68.11863281 5.28515625 68.3671875 C4.53105469 68.57601562 3.77695313 68.78484375 3 69 C2.67 69.66 2.34 70.32 2 71 C5.96 71 9.92 71 14 71 C14 71.66 14 72.32 14 73 C15.32 73 16.64 73 18 73 C18 72.01 18 71.02 18 70 C20.31 70 22.62 70 25 70 C25.33 69.01 25.66 68.02 26 67 C23.83125748 67.50603992 22.00032373 67.99983813 20 69 C21.36983503 65.83884224 21.9890638 65.0072908 25 63 C24.505 61.515 24.505 61.515 24 60 C23.14728516 60.16048828 23.14728516 60.16048828 22.27734375 60.32421875 C16.41428248 61.2345104 13.25121138 60.73062992 8 58 C7.01 57.67 6.02 57.34 5 57 Z M20 72 C20.33 74.97 20.66 77.94 21 81 C22.65 80.67 24.3 80.34 26 80 C26 77.36 26 74.72 26 72 C24.02 72 22.04 72 20 72 Z M29 72 C29 74.64 29 77.28 29 80 C29.66 80 30.32 80 31 80 C31 77.36 31 74.72 31 72 C30.34 72 29.68 72 29 72 Z M-2 74 C-1.67 76.97 -1.34 79.94 -1 83 C3.92127034 83.16682272 7.50343896 83.24828052 12 81 C12 78.36 12 75.72 12 73 C7.21974517 72.88049363 2.72383963 73.34843591 -2 74 Z M-24 77 C-26.31543207 79.76988076 -26.31543207 79.76988076 -25.6875 82.625 C-25.2258486 84.93501965 -25.2258486 84.93501965 -24 86 C-22.00041636 86.04080783 -19.99954746 86.04254356 -18 86 C-18.12117187 86.75095947 -18.24234375 87.50191895 -18.3671875 88.27563477 C-18.91707633 91.70371577 -19.45860691 95.13306745 -20 98.5625 C-20.19078125 99.74392578 -20.3815625 100.92535156 -20.578125 102.14257812 C-22.47559427 114.23894474 -22.45489162 123.69907796 -15.47265625 134.32421875 C-12.93972969 137.3985342 -10.7305848 139.47286002 -7 141 C-3.38361581 140.92465866 -1.57753388 140.46523563 1.25 138.1875 C5.66699426 130.14226046 5.56078392 120.89011802 4.10546875 112.01171875 C2.80481751 108.46824842 1.79819055 107.60110617 -1.5 105.875 C-2.69109375 105.43800781 -2.69109375 105.43800781 -3.90625 104.9921875 C-6.48981313 103.76788706 -7.00036263 102.61861528 -8 100 C-7.52949219 100.34933594 -7.05898437 100.69867188 -6.57421875 101.05859375 C-5.95160156 101.51363281 -5.32898438 101.96867187 -4.6875 102.4375 C-4.07261719 102.88996094 -3.45773438 103.34242188 -2.82421875 103.80859375 C1.14094363 106.39826083 5.41053328 106.6119289 10 106 C18.51911849 101.74044075 22.40519582 95.00238321 25.3359375 86.2578125 C26.04702772 84.23234633 26.04702772 84.23234633 26 83 C24.02 83 22.04 83 20 83 C19.67 84.65 19.34 86.3 19 88 C17.35 88.33 15.7 88.66 14 89 C15.32 88.01 16.64 87.02 18 86 C17.34 84.35 16.68 82.7 16 81 C15.34 81.33 14.68 81.66 14 82 C14 82.66 14 83.32 14 84 C11.41638953 84.3304618 8.84083445 84.61502007 6.25 84.875 C5.52039063 84.97296875 4.79078125 85.0709375 4.0390625 85.171875 C1.890625 85.3671875 1.890625 85.3671875 -2 85 C-3.38637623 83.03639649 -4.72178849 81.03567019 -6 79 C-9.20231619 78.35043825 -9.20231619 78.35043825 -12.625 78.75 C-14.74681712 78.89304385 -16.87339754 78.98853584 -19 79 C-19.66 78.34 -20.32 77.68 -21 77 C-21.99 77 -22.98 77 -24 77 Z M17 78 C18 80 18 80 18 80 Z M-143.5 108.3125 C-143.995 109.199375 -144.49 110.08625 -145 111 C-143.72967411 114.81097766 -142.48097549 115.14007875 -139.0625 117.125 C-134.9074694 119.6436865 -131.56256961 122.26121962 -128.125 125.6875 C-123.49633192 130.04475649 -119.35056198 131.35720641 -113.2734375 132.89453125 C-107.74187842 134.7625876 -103.46073002 138.31699245 -99 142 C-98.505 141.01 -98.505 141.01 -98 140 C-104.21988714 125.93764646 -117.83380865 113.13820939 -131.7109375 106.81640625 C-136.59039367 105.07612239 -139.6170326 104.72075516 -143.5 108.3125 Z M25 131 C20.74974062 135.46600859 17.01515033 139.71448544 14.125 145.1875 C12.04878073 148.78841406 10.29497395 150.78988448 6.68359375 152.84375 C5.79542969 153.34994873 4.90726563 153.85614746 3.9921875 154.37768555 C-1.65155435 157.43762881 -7.34610966 160.39166314 -13.0625 163.3125 C-15.63098385 164.63130567 -18.19826687 165.95244201 -20.765625 167.2734375 C-21.39072464 167.59467087 -22.01582428 167.91590424 -22.65986633 168.24687195 C-30.14344572 172.09554347 -37.5737718 176.04227397 -45 180 C-44.86224158 184.50454795 -44.68636357 189.00537958 -44.47509766 193.50708008 C-44.4086173 195.0382361 -44.35254591 196.56988115 -44.30712891 198.10180664 C-44.23997727 200.30566616 -44.13541089 202.50505015 -44.0234375 204.70703125 C-44.01065765 205.39150833 -43.99787781 206.07598541 -43.98471069 206.78120422 C-43.91254625 208.97253238 -43.91254625 208.97253238 -43 212 C-40.10284586 213.97273125 -40.10284586 213.97273125 -37 215 C-36.67 215.33 -36.34 215.66 -36 216 C-31.94570795 216.43646685 -29.80833224 216.62277169 -26.515625 214.0859375 C-25.76796875 213.19132812 -25.0203125 212.29671875 -24.25 211.375 C-23.39792969 210.36953125 -22.54585937 209.3640625 -21.66796875 208.328125 C-20.77459383 207.22201045 -19.88533966 206.11255643 -19 205 C-18.5560791 204.44376953 -18.1121582 203.88753906 -17.65478516 203.31445312 C-15.81779156 201.00115286 -13.99209934 198.67969952 -12.18334961 196.34423828 C-8.55546934 191.66165995 -4.77506215 187.13188791 -0.92749023 182.62915039 C1.89796865 179.3174047 4.6624006 175.96724484 7.375 172.5625 C8.01695312 171.76972656 8.65890625 170.97695312 9.3203125 170.16015625 C10.9844687 168.0943424 10.9844687 168.0943424 12.1796875 166.12109375 C14.03191727 163.31570925 15.58492549 162.10248047 18.83203125 161.30078125 C20.93355054 160.98313928 23.04420935 160.71965233 25.16015625 160.51953125 C28.23310328 159.95735525 29.69245313 159.05299733 32 157 C31.43637698 154.95163118 31.43637698 154.95163118 30 153 C26.94091587 152.18415432 26.94091587 152.18415432 24 152 C23.67 152.66 23.34 153.32 23 154 C23.639375 154.12375 24.27875 154.2475 24.9375 154.375 C25.618125 154.58125 26.29875 154.7875 27 155 C27.495 155.99 27.495 155.99 28 157 C21.25 155.125 21.25 155.125 19 154 C16.98072489 154.60578253 14.97746603 155.26919734 13 156 C15.36433852 152.45349222 15.96353512 152.56696782 19.9375 151.75 C22.64820679 151.09450148 22.64820679 151.09450148 25 150 C26.73068271 146.545183 26.73068271 146.545183 28 143 C31.25 141.375 31.25 141.375 35 140 C37.43520408 138.44430652 39.6910588 136.74348621 42 135 C37.51713644 133.50571215 34.95412673 135.54444345 30.875 137.5625 C30.13378906 137.89830078 29.39257812 138.23410156 28.62890625 138.58007812 C26.56794826 139.59171838 24.7734538 140.53994358 23 142 C22.11475244 145.07232029 22.11475244 145.07232029 22 148 C21.01 148.66 20.02 149.32 19 150 C19.28875 149.505 19.5775 149.01 19.875 148.5 C20.87092299 146.2868378 21.40907363 144.41155505 21.9375 142.0625 C22.7410129 138.58277077 24.11933413 136.0448876 26 133 C25.505 132.01 25.505 132.01 25 131 Z M-97 133 C-96.39891424 138.65020618 -94.92471317 143.66164461 -93 149 C-92.67 149 -92.34 149 -92 149 C-92.42089996 143.39538469 -92.91613111 138.27913453 -95 133 C-95.66 133 -96.32 133 -97 133 Z M65 139 C64.67 142.63 64.34 146.26 64 150 C71.55701942 154.72136485 79.28538962 158.65661535 87.375 162.375 C88.66567577 162.97299984 89.95628273 163.57114822 91.24682617 164.16943359 C105.55241342 170.78082477 119.96160153 177.16667575 134.38372803 183.51901245 C138.07237791 185.14383551 141.74856109 186.79322424 145.41796875 188.4609375 C148.65648157 190.13158853 148.65648157 190.13158853 151 190 C151.165 188.865625 151.33 187.73125 151.5 186.5625 C151.5928125 185.92441406 151.685625 185.28632813 151.78125 184.62890625 C152.10370986 180.75362974 152.03777724 176.88633342 152 173 C151.09386963 172.66492432 150.18773926 172.32984863 149.25415039 171.98461914 C130.21618831 164.92884183 111.31202963 157.60515539 92.5625 149.8125 C91.67305695 149.44351593 90.78361389 149.07453186 89.86721802 148.69436646 C87.3280207 147.6394682 84.79052762 146.58060704 82.25390625 145.51953125 C81.50540405 145.20755798 80.75690186 144.89558472 79.98571777 144.57415771 C76.80875449 143.23771188 73.73733018 141.86426253 70.67163086 140.2800293 C68.04282463 138.78395736 68.04282463 138.78395736 65 139 Z M-43 140 C-42.49929946 149.68376158 -41.99881766 159.35184646 -41 169 C-40.67 169 -40.34 169 -40 169 C-39.78894508 159.10386916 -39.89915262 149.7351767 -42 140 C-42.33 140 -42.66 140 -43 140 Z M30 144 C30 144.66 30 145.32 30 146 C32.64 146.66 35.28 147.32 38 148 C38 147.01 38 146.02 38 145 C35.29120665 143.64560332 32.99066732 143.93498549 30 144 Z M-90 148 C-90.36717043 152.27675978 -89.56859351 154.11584015 -86.94921875 157.46484375 C-82.51870426 163.48557059 -79.19214654 169.91008777 -75.8125 176.5625 C-75.20986328 177.72974609 -74.60722656 178.89699219 -73.98632812 180.09960938 C-70.79178448 186.32388485 -67.76422911 192.57299583 -65 199 C-61.21272429 191.9560861 -59.63283233 182.96368242 -60 175 C-62.00122153 170.3977672 -65.09653578 168.04521911 -69 165 C-70.10854685 163.98441726 -71.20575367 162.95635586 -72.29296875 161.91796875 C-75.47479031 158.8821023 -78.70136002 155.90862249 -82 153 C-82.54736816 152.51611816 -83.09473633 152.03223633 -83.65869141 151.53369141 C-86.43117575 148.85214298 -86.43117575 148.85214298 -90 148 Z M29 148 C30.22934015 151.68802044 31.93859378 152.72356973 35 155 C35.66 153.68 36.32 152.36 37 151 C34.4345406 148.4345406 32.52313332 148.45953913 29 148 Z M97 170 C96.34 177.26 95.68 184.52 95 192 C91.54947917 192.48828125 88.09895833 192.9765625 84.6484375 193.46484375 C81.42443816 193.93774301 78.21187824 194.45151002 75 195 C76.19711266 198.59133797 76.95503618 198.84831145 80.1484375 200.6640625 C80.98890625 201.14617187 81.829375 201.62828125 82.6953125 202.125 C83.57960938 202.62 84.46390625 203.115 85.375 203.625 C86.2515625 204.12773437 87.128125 204.63046875 88.03125 205.1484375 C94.22327692 208.67050786 97.38977434 210.40299385 104.36914062 208.50585938 C105.17544922 208.27705078 105.98175781 208.04824219 106.8125 207.8125 C107.60720703 207.60302734 108.40191406 207.39355469 109.22070312 207.17773438 C114.14858399 205.80412325 118.02934754 204.27031691 122 201 C122.73915382 198.04338471 122.98564014 195.98684986 123 193 C123.01417969 191.948125 123.02835937 190.89625 123.04296875 189.8125 C123.06029673 186.87367438 123.04407693 183.93846217 123 181 C110.5461824 173.60245602 110.5461824 173.60245602 97 170 Z M-58 175 C-58.12117187 176.05058594 -58.24234375 177.10117188 -58.3671875 178.18359375 C-59.8801678 190.95868799 -59.8801678 190.95868799 -61.125 196.0625 C-63.00806551 204.11108643 -61.32325504 209.62652789 -58 217 C-53.76037486 215.68773508 -49.94766444 214.01806376 -46 212 C-44.53032043 194.14386484 -44.53032043 194.14386484 -50.3125 178.375 C-52.83436912 177.08474138 -55.36501646 176.03280762 -58 175 Z M-14.80197906 203.2342186 C-16.62407992 205.91984095 -18.68311726 208.3740713 -20.75 210.875 C-21.83597254 212.24791651 -22.92047011 213.62201185 -24 215 C-21.3574973 217.6425027 -19.87280249 217.37970701 -16.1796875 217.6328125 C-15.0040625 217.71660156 -13.8284375 217.80039062 -12.6171875 217.88671875 C-11.38226563 217.96535156 -10.14734375 218.04398438 -8.875 218.125 C-7.66328125 218.21136719 -6.4515625 218.29773438 -5.203125 218.38671875 C6.30727853 219.9239182 6.30727853 219.9239182 17 217 C15.83657911 213.50973732 14.95095983 213.02351531 12 211 C8.11111111 208.33333333 8.11111111 208.33333333 7 205 C7.87011719 204.72027344 8.74023438 204.44054687 9.63671875 204.15234375 C12.76797352 203.07949804 15.77265488 201.86877883 18.8125 200.5625 C35.93454688 193.3911842 35.93454688 193.3911842 42.76635742 196.09472656 C43.70326416 196.60487305 44.6401709 197.11501953 45.60546875 197.640625 C46.66330566 198.21095459 47.72114258 198.78128418 48.81103516 199.36889648 C49.92526855 199.98966064 51.03950195 200.6104248 52.1875 201.25 C53.3326709 201.88172119 54.4778418 202.51344238 55.65771484 203.16430664 C59.11973611 205.08428156 62.56039241 207.04015955 66 209 C67.01304199 209.57024902 68.02608398 210.14049805 69.06982422 210.72802734 C71.77551285 212.26563351 74.45382109 213.84086175 77.125 215.4375 C77.9296167 215.89608398 78.7342334 216.35466797 79.56323242 216.82714844 C81.62425198 218.10104149 83.34773162 219.2281983 85 221 C85.6171875 224.72265625 85.6171875 224.72265625 85 228 C83 230 83 230 80.0625 230.25 C77 230 77 230 74 228 C68.71731751 228.30810299 64.24152517 229.91514159 59.4375 232 C50.61330449 235.80616368 50.61330449 235.80616368 46 236 C43.90234375 234.6796875 43.90234375 234.6796875 41.9375 232.875 C39.20580696 230.91790829 37.69503547 229.97634269 34.29589844 230.09204102 C25.19503572 232.29020608 17.10107407 235.87794411 8.68774414 239.92150879 C4.63474681 241.8684389 0.56371406 243.77633801 -3.51171875 245.67578125 C-4.31922577 246.05217743 -5.12673279 246.42857361 -5.95870972 246.81637573 C-14.20640708 250.62151899 -22.61987441 253.86779907 -31.1940918 256.86743164 C-36.72918759 258.85877514 -40.13787119 260.56120756 -44 265 C-46.8125 265.8125 -46.8125 265.8125 -49 266 C-48.67 267.98 -48.34 269.96 -48 272 C-24.27225582 273.07193081 -0.54222566 273.31111823 23.20581055 273.5328331 C26.40495461 273.56278041 29.60408899 273.59362765 32.80322266 273.62466431 C46.29885034 273.75481018 59.79455193 273.87261052 73.29039001 273.97868347 C75.83784217 273.9987243 78.38529071 274.01918043 80.93273926 274.03967285 C88.85090645 274.10234383 96.76891594 274.15232583 104.68731689 274.17623901 C106.85786286 274.18361747 109.02840087 274.19418124 111.19891357 274.20828247 C140.31703681 274.66087644 140.31703681 274.66087644 165.5625 261.75 C174.54473046 251.61620154 175.85681632 241.18020604 175.18212891 228.08349609 C174.28226655 217.78936018 167.36441532 210.77064416 159.953125 204.1796875 C150.30259206 196.49786328 139.8840626 194.801029 128 193 C127.88785156 193.89203125 127.77570313 194.7840625 127.66015625 195.703125 C126.10405948 204.93799992 126.10405948 204.93799992 123.359375 207.578125 C120.94069025 208.6674563 118.56814184 209.32633297 116 210 C114.69613833 210.4455116 113.3955608 210.90070195 112.09765625 211.36328125 C110.69097145 211.84887387 109.28341055 212.33193571 107.875 212.8125 C107.20637939 213.04453125 106.53775879 213.2765625 105.84887695 213.515625 C100.47470544 215.22116471 96.23086695 215.44473866 91.01757812 213.11352539 C88.90681276 212.0128763 86.85955642 210.83977902 84.8125 209.625 C83.76545898 209.02558594 83.76545898 209.02558594 82.69726562 208.4140625 C79.8919662 206.79120612 77.22320869 205.16897451 74.63671875 203.2109375 C73.07136449 201.80174379 73.07136449 201.80174379 71 202 C71 199.36 71 196.72 71 194 C72.134375 193.87625 73.26875 193.7525 74.4375 193.625 C75.613125 193.41875 76.78875 193.2125 78 193 C78.33 192.34 78.66 191.68 79 191 C68.38632272 190.67432935 57.77384974 190.4262335 47.15617752 190.27462959 C42.22454541 190.20182832 37.29635188 190.10326913 32.36669922 189.94384766 C27.60067284 189.79069838 22.83793189 189.70782162 18.06963348 189.6717186 C16.25923688 189.64602637 14.4490026 189.59584587 12.64002228 189.51977921 C-1.0005448 188.96949009 -7.18489484 191.77481808 -14.80197906 203.2342186 Z M25.125 199.8125 C24.11824219 200.16892578 23.11148438 200.52535156 22.07421875 200.89257812 C21.10355469 201.24384766 20.13289062 201.59511719 19.1328125 201.95703125 C18.24480957 202.27647705 17.35680664 202.59592285 16.44189453 202.92504883 C13.97300937 204.0118816 12.08232303 205.29823528 10 207 C11.42722659 208.1998278 12.86715776 209.3845576 14.3125 210.5625 C15.11300781 211.22378906 15.91351563 211.88507813 16.73828125 212.56640625 C17.48464844 213.03949219 18.23101562 213.51257813 19 214 C19.99 213.67 20.98 213.34 22 213 C22.22988506 210.63721264 22.22988506 210.63721264 19.5 208.375 C18.675 207.59125 17.85 206.8075 17 206 C22.30094216 204.19695845 27.60308488 202.49276376 33 201 C26.565 203.97 26.565 203.97 20 207 C20.99 207.99 21.98 208.98 23 210 C25.9719385 208.87548273 28.33440687 207.77706209 31 206 C32.32 206 33.64 206 35 206 C34.67 207.65 34.34 209.3 34 211 C37.3 210.67 40.6 210.34 44 210 C43.566875 211.0209375 43.566875 211.0209375 43.125 212.0625 C41.87402645 215.32893093 40.92552045 218.62846123 40 222 C44.40785039 225.90405886 44.40785039 225.90405886 49.9375 226.8125 C50.618125 226.544375 51.29875 226.27625 52 226 C49.96620584 222.94930876 49.16593866 222.42977875 46 221 C45.67 220.67 45.34 220.34 45 220 C45.94875 219.87625 46.8975 219.7525 47.875 219.625 C51.08667191 219.28312823 51.08667191 219.28312823 53 217 C50.525 216.01 50.525 216.01 48 215 C48 214.34 48 213.68 48 213 C48.83144531 213.433125 48.83144531 213.433125 49.6796875 213.875 C50.40414062 214.24625 51.12859375 214.6175 51.875 215 C52.59429687 215.37125 53.31359375 215.7425 54.0546875 216.125 C55.94848977 217.13673746 55.94848977 217.13673746 58 217 C58.2475 217.639375 58.495 218.27875 58.75 218.9375 C59.81188031 221.11212071 59.81188031 221.11212071 61.8125 221.875 C64.62762177 222.0358641 66.476506 221.19164995 69 220 C63.60648838 215.31586465 57.36994823 211.99096782 51.21679688 208.421875 C50.34990234 207.91140625 49.48300781 207.4009375 48.58984375 206.875 C47.41216431 206.19050781 47.41216431 206.19050781 46.21069336 205.4921875 C43.8332657 203.88745665 41.96193117 202.08467419 40 200 C49.04708906 204.92180666 57.83573585 210.02173577 66.30102539 215.89990234 C69.364933 218.23321181 69.364933 218.23321181 73 219 C73 219.66 73 220.32 73 221 C72.33355469 221.17015625 71.66710937 221.3403125 70.98046875 221.515625 C65.91856148 222.84658803 61.05698889 224.32360879 56.1875 226.25 C52.03793402 227.79059278 49.31414194 228.54076498 45 227 C42.125 225.4375 42.125 225.4375 40 224 C39.67 225.65 39.34 227.3 39 229 C40.0238606 229.8754311 41.0702046 230.72459976 42.125 231.5625 C42.99511719 232.27599609 42.99511719 232.27599609 43.8828125 233.00390625 C46.9743212 234.45839835 48.72053185 233.87135627 52 233 C54.58652892 231.94939497 57.09813339 230.86309286 59.625 229.6875 C66.29080396 226.66976789 72.9936902 224.13639371 80 222 C80 221.34 80 220.68 80 220 C77.34313769 218.29799603 74.68765691 216.72701215 71.9375 215.1875 C70.6856189 214.47630005 70.6856189 214.47630005 69.40844727 213.75073242 C67.58917782 212.7183818 65.76803851 211.6893213 63.9453125 210.66308594 C60.85165426 208.91623581 57.76896786 207.15106903 54.6875 205.3828125 C52.60441627 204.1922715 50.52108727 203.00215953 48.4375 201.8125 C47.43259521 201.23588623 46.42769043 200.65927246 45.39233398 200.06518555 C44.45719971 199.53449463 43.52206543 199.00380371 42.55859375 198.45703125 C41.72642334 197.98241455 40.89425293 197.50779785 40.03686523 197.01879883 C35.26152423 194.63026976 29.78945983 198.12037385 25.125 199.8125 Z M26.9765625 210.8984375 C25.41392425 212.54413957 23.85142334 214.18997207 22.2890625 215.8359375 C18.68063712 219.24731576 16.01815485 220.25428789 11.0703125 220.23046875 C10.11688965 220.22917969 9.1634668 220.22789062 8.18115234 220.2265625 C7.17262207 220.21367187 6.1640918 220.20078125 5.125 220.1875 C3.57159912 220.17783203 3.57159912 220.17783203 1.98681641 220.16796875 C-4.65305907 220.10162183 -11.21291566 219.79543657 -17.828125 219.22265625 C-23.21582158 218.84445587 -28.60237669 218.91930463 -34 219 C-33.90460938 219.54785156 -33.80921875 220.09570312 -33.7109375 220.66015625 C-32.59205412 228.66147341 -33.71553469 236.07231284 -35 244 C-35.19207031 245.19753906 -35.38414062 246.39507812 -35.58203125 247.62890625 C-36.04040221 250.42200124 -36.51196314 253.21195963 -37 256 C-22.39858116 251.44352887 -8.75242311 245.63515873 5.08203125 239.1484375 C6.13503418 238.65819092 7.18803711 238.16794434 8.27294922 237.6628418 C10.3240955 236.70657911 12.3715655 235.74237497 14.41455078 234.76879883 C20.10408573 232.11313856 25.57226966 230.13622158 31.70727539 228.7668457 C34.24871712 227.91681179 35.35312766 227.08944102 37 225 C37.93324184 222.34490181 37.93324184 222.34490181 38.5625 219.4375 C39.79166667 214.20833333 39.79166667 214.20833333 42 212 C40.39536551 212.31008884 38.79130769 212.62316287 37.1875 212.9375 C36.29417969 213.11152344 35.40085937 213.28554688 34.48046875 213.46484375 C31.88602829 213.97741153 31.88602829 213.97741153 29 215 C29.66 213.02 30.32 211.04 31 209 C28.78065914 208.77192598 28.78065914 208.77192598 26.9765625 210.8984375 Z M-50 216 C-49.97752197 216.7832666 -49.95504395 217.5665332 -49.93188477 218.37353516 C-49.79982357 226.5759352 -50.56917409 234.29761593 -51.9375 242.375 C-52.30090942 244.61195835 -52.66419431 246.84893693 -53.02734375 249.0859375 C-53.19733887 250.11170898 -53.36733398 251.13748047 -53.54248047 252.19433594 C-54.07462701 255.457638 -54.55159328 258.72427094 -55 262 C-50.23046333 263.82487407 -50.23046333 263.82487407 -45.3125 263.1875 C-39.49445474 257.68394367 -38.07525261 249.09670156 -36.6875 241.5 C-36.50638672 240.61441406 -36.32527344 239.72882813 -36.13867188 238.81640625 C-34.59574897 230.6395152 -34.45915413 223.26535339 -39 216 C-42.398985 214.3005075 -46.601015 214.3005075 -50 216 Z M55 219 C53.02 219.99 53.02 219.99 51 221 C52.10041919 222.68681738 52.10041919 222.68681738 54 224 C57.14921909 223.76716851 57.14921909 223.76716851 60 223 C58.35 221.68 56.7 220.36 55 219 Z M81 223 C81.66 223.66 82.32 224.32 83 225 C83 224.34 83 223.68 83 223 C82.34 223 81.68 223 81 223 Z M79 224 C79 225.65 79 227.3 79 229 C79.66 228.67 80.32 228.34 81 228 C81 226.68 81 225.36 81 224 C80.34 224 79.68 224 79 224 Z M177 243 C176.85304688 243.68964844 176.70609375 244.37929688 176.5546875 245.08984375 C174.18672796 255.0107777 169.73760607 263.33095797 161 269 C142.65035666 278.52044851 118.90107405 276.16761684 98.83203125 276.09375 C96.83494602 276.08994501 94.83786042 276.08632848 92.84077454 276.08288574 C71.1583705 276.03285461 49.47747888 275.7911837 27.79669189 275.53643799 C18.4725724 275.42716453 9.14840725 275.32195256 -0.17578125 275.21875 C-1.15342564 275.20784332 -2.13107002 275.19693665 -3.13834 275.18569946 C-17.75967861 275.02419766 -32.37767872 274.93284384 -47 275 C-46.8399498 275.55401993 -46.6798996 276.10803986 -46.51499939 276.67884827 C-46.3011409 277.41912766 -46.08728241 278.15940704 -45.86694336 278.92211914 C-45.64408661 279.69314972 -45.42122986 280.4641803 -45.19161987 281.25857544 C-44.72585828 282.87171695 -44.26196123 284.48539708 -43.79907227 286.09936523 C-42.96653517 289.84697676 -42.96653517 289.84697676 -41 293 C-38.24918709 293.12557864 -35.52234508 293.18615597 -32.77001953 293.20532227 C-31.46625571 293.22015892 -31.46625571 293.22015892 -30.13615322 293.2352953 C-27.21840141 293.26717289 -24.30063434 293.29183508 -21.3828125 293.31640625 C-19.32364032 293.33717262 -17.26447183 293.35830804 -15.20530701 293.37979126 C-9.66120032 293.43604176 -4.11705365 293.48547678 1.42713547 293.5328331 C4.86347197 293.56240081 8.29979363 293.5933353 11.7361145 293.62466431 C27.49062162 293.76749588 43.24522536 293.89079731 59 294 C59.95629555 294.00671219 60.91259109 294.01342438 61.8978653 294.02033997 C72.35743578 294.09317648 82.81687087 294.15149907 93.27667236 294.17623901 C96.01283263 294.18274517 98.74891856 294.19350762 101.48504639 294.20828247 C113.57347116 294.26548203 125.61113419 294.24931829 137.66015625 293.17578125 C138.46891708 293.10642868 139.27767792 293.03707611 140.11094666 292.96562195 C152.14071284 291.71367536 161.9894734 287.59975566 170.375 278.6875 C176.89169557 270.49086307 178.18154622 260.7530864 178.0625 250.625 C178.05573242 249.52091797 178.05573242 249.52091797 178.04882812 248.39453125 C178.03715142 246.59631842 178.01922011 244.79814803 178 243 C177.67 243 177.34 243 177 243 Z " fill="#000000" transform="translate(210,60)"/>
<path d="M0 0 C2.43588762 1.88485174 3.41122712 3.27638935 5 6 C5 6.99 5 7.98 5 9 C6.093125 9.04125 7.18625 9.0825 8.3125 9.125 C12 10 12 10 14 12.5625 C15.30993238 17.06539256 15.10590914 19.42890888 14 24 C11.73893429 26.96277576 9.40713122 28.5398009 6 30 C6.825 30.70125 7.65 31.4025 8.5 32.125 C11 35 11 35 11.6875 38 C10.91408622 41.37489648 9.80504483 42.89473365 6.98046875 44.8984375 C-4.72703958 51.41030604 -22.18477208 50.68055111 -34.9375 47.75 C-40.33927922 46.09210522 -44.89190214 44.0422198 -49 40.0625 C-50 38 -50 38 -50.0625 35.5625 C-48.49142123 31.77342766 -46.35876581 30.35113607 -43 28 C-42.01 28 -41.02 28 -40 28 C-40.16081055 27.44062744 -40.32162109 26.88125488 -40.48730469 26.30493164 C-41.42874207 22.07249814 -41.22666901 17.75665023 -41.25 13.4375 C-41.270625 12.47908203 -41.29125 11.52066406 -41.3125 10.53320312 C-41.31765625 9.61345703 -41.3228125 8.69371094 -41.328125 7.74609375 C-41.3374707 6.90747803 -41.34681641 6.0688623 -41.35644531 5.20483398 C-40.9198527 2.50423957 -40.11792955 1.67210069 -38 0 C-27.25250468 -5.31902518 -10.82319696 -4.67562109 0 0 Z M-37 3 C-37.66 3.99 -38.32 4.98 -39 6 C-37.68 6.99 -36.36 7.98 -35 9 C-34.401875 8.525625 -33.80375 8.05125 -33.1875 7.5625 C-28.84128779 4.4580627 -24.38106133 4.78299718 -19.25 4.75 C-18.46367187 4.729375 -17.67734375 4.70875 -16.8671875 4.6875 C-11.4161041 4.65128018 -7.91584688 5.69948053 -3 8 C-1.68 8 -0.36 8 1 8 C1 6.68 1 5.36 1 4 C-6.1107634 0.28301004 -11.39962896 -0.20643292 -19.3125 -0.25 C-20.23740234 -0.270625 -21.16230469 -0.29125 -22.11523438 -0.3125 C-27.85844662 -0.34515508 -31.96517039 0.15335922 -37 3 Z M-38 11 C-38.32953654 18.32303413 -38.51378671 24.44093147 -35 31 C-28.22098786 36.74742334 -20.52093248 36.57469324 -12 36 C-8.12494524 35.37398146 -5.20535346 34.5048874 -2.6953125 31.37109375 C0.73527523 25.17349912 2 18.01542636 2 11 C0.989375 11.309375 -0.02125 11.61875 -1.0625 11.9375 C-11.76486363 14.57047088 -22.30539012 14.35862997 -33 12 C-34.66631262 11.66490132 -36.33287198 11.3310182 -38 11 Z M5 12 C5 12.66 5 13.32 5 14 C6.32 14.66 7.64 15.32 9 16 C9.125 18.375 9.125 18.375 9 21 C6.8614515 23.1385485 5.86724686 23.42655063 3 24 C3 24.66 3 25.32 3 26 C7.33365182 25.63419875 7.33365182 25.63419875 10.875 23.3125 C12.32475128 20.33245569 12.34871643 18.27793445 12 15 C11.34 14.01 10.68 13.02 10 12 C7.41619823 11.74969023 7.41619823 11.74969023 5 12 Z M4 17 C4 18.32 4 19.64 4 21 C4.99 20.67 5.98 20.34 7 20 C7 19.01 7 18.02 7 17 C6.01 17 5.02 17 4 17 Z M-46 34 C-46.95231597 36.12119128 -46.95231597 36.12119128 -47 38 C-38.50612414 45.94588387 -25.13260235 47.21779533 -13.89111328 46.94970703 C-6.26803959 46.45243126 0.599282 45.26714533 7 41 C8.20443733 38.94682708 8.20443733 38.94682708 9 37 C8.071875 36.195625 7.14375 35.39125 6.1875 34.5625 C5.40439453 33.88380859 5.40439453 33.88380859 4.60546875 33.19140625 C2.89287029 31.79128769 2.89287029 31.79128769 0 31 C-0.29132813 31.55429687 -0.58265625 32.10859375 -0.8828125 32.6796875 C-1.29273438 33.40414062 -1.70265625 34.12859375 -2.125 34.875 C-2.51945312 35.59429687 -2.91390625 36.31359375 -3.3203125 37.0546875 C-6.37972426 40.59791322 -10.08235603 40.92302986 -14.5859375 41.30078125 C-28.35805397 41.34337542 -28.35805397 41.34337542 -34 38 C-35.59819154 35.9589846 -36.87369357 33.9325426 -38.08984375 31.64453125 C-38.54037109 30.83048828 -38.54037109 30.83048828 -39 30 C-41.57734368 30 -44.06884388 32.55163291 -46 34 Z " fill="#000000" transform="translate(357,277)"/>
<path d="M0 0 C6.32033504 0.45084489 12.37434989 1.42630533 18.52734375 2.89453125 C19.2344751 3.05590576 19.94160645 3.21728027 20.67016602 3.38354492 C22.6640625 3.88671875 22.6640625 3.88671875 25.83984375 5.01953125 C27.13361832 8.90085497 26.50121563 12.18095202 25.96484375 16.14453125 C25.82755859 17.25634766 25.82755859 17.25634766 25.6875 18.390625 C24.97433036 23.88504464 24.97433036 23.88504464 23.83984375 25.01953125 C22.0449737 24.95521995 20.25245597 24.81813139 18.46484375 24.64453125 C17.48773438 24.55429688 16.510625 24.4640625 15.50390625 24.37109375 C12.83984375 24.01953125 12.83984375 24.01953125 9.83984375 23.01953125 C9.86046875 24.07140625 9.88109375 25.12328125 9.90234375 26.20703125 C9.85057307 29.36504275 9.51008646 31.9638578 8.83984375 35.01953125 C10.05220703 35.30957031 10.05220703 35.30957031 11.2890625 35.60546875 C12.35769531 35.86585938 13.42632812 36.12625 14.52734375 36.39453125 C16.11095703 36.77738281 16.11095703 36.77738281 17.7265625 37.16796875 C20.54391141 37.93858614 23.156527 38.87451668 25.83984375 40.01953125 C25.83984375 42.98953125 25.83984375 45.95953125 25.83984375 49.01953125 C26.61070312 49.15230469 27.3815625 49.28507812 28.17578125 49.421875 C29.17867188 49.59847656 30.1815625 49.77507812 31.21484375 49.95703125 C32.21257812 50.13105469 33.2103125 50.30507812 34.23828125 50.484375 C36.83984375 51.01953125 36.83984375 51.01953125 38.83984375 52.01953125 C38.99474598 57.75091369 38.4922926 62.91302331 37.33984375 68.51953125 C37.19675781 69.2465625 37.05367188 69.97359375 36.90625 70.72265625 C36.55750677 72.48962196 36.19964652 74.25478434 35.83984375 76.01953125 C37.81984375 76.34953125 39.79984375 76.67953125 41.83984375 77.01953125 C42.8647959 80.09438771 42.84144275 81.53417579 42.5 84.6875 C42.40654297 85.58017578 42.31308594 86.47285156 42.21679688 87.39257812 C42.11302734 88.32134766 42.00925781 89.25011719 41.90234375 90.20703125 C41.75249023 91.61758789 41.75249023 91.61758789 41.59960938 93.05664062 C41.35212409 95.37828833 41.09865242 97.69912308 40.83984375 100.01953125 C32.95814751 98.76826521 26.1128313 96.2936253 18.83984375 93.01953125 C18.57202457 86.02647486 19.27994943 79.8440689 20.83984375 73.01953125 C24.46984375 73.34953125 28.09984375 73.67953125 31.83984375 74.01953125 C32.03320312 73.24609375 32.2265625 72.47265625 32.42578125 71.67578125 C33.89713542 65.79036458 35.36848958 59.90494792 36.83984375 54.01953125 C33.20984375 53.35953125 29.57984375 52.69953125 25.83984375 52.01953125 C24.84984375 54.98953125 23.85984375 57.95953125 22.83984375 61.01953125 C-4.14984697 56.02984053 -4.14984697 56.02984053 -8.16015625 52.01953125 C-8.43007531 49.3311374 -8.24752982 46.72811189 -8.16015625 44.01953125 C-10.80015625 44.01953125 -13.44015625 44.01953125 -16.16015625 44.01953125 C-16.29292969 44.93476563 -16.42570312 45.85 -16.5625 46.79296875 C-16.73910156 47.98148438 -16.91570312 49.17 -17.09765625 50.39453125 C-17.27167969 51.57789063 -17.44570313 52.76125 -17.625 53.98046875 C-18.16015625 57.01953125 -18.16015625 57.01953125 -19.16015625 59.01953125 C-18.06703125 59.16390625 -16.97390625 59.30828125 -15.84765625 59.45703125 C-12.16015625 60.01953125 -12.16015625 60.01953125 -9.16015625 61.01953125 C-8.89611169 67.88468987 -9.90173679 74.27799842 -11.16015625 81.01953125 C-18.07149265 80.54830377 -23.88219786 77.81317119 -30.16015625 75.01953125 C-30.01820861 72.95676018 -29.87143409 70.89432094 -29.72265625 68.83203125 C-29.60083984 67.10919922 -29.60083984 67.10919922 -29.4765625 65.3515625 C-29.20611813 62.50354954 -28.78493878 59.80742643 -28.16015625 57.01953125 C-25.85015625 57.34953125 -23.54015625 57.67953125 -21.16015625 58.01953125 C-21.02738281 56.87613281 -20.89460938 55.73273438 -20.7578125 54.5546875 C-20.57965315 53.06377505 -20.40125543 51.57289107 -20.22265625 50.08203125 C-20.13564453 49.32728516 -20.04863281 48.57253906 -19.95898438 47.79492188 C-19.2734375 42.1328125 -19.2734375 42.1328125 -18.16015625 41.01953125 C-14.27788955 40.87303062 -10.89567195 40.98051364 -7.16015625 42.01953125 C-7.11117188 41.38144531 -7.0621875 40.74335938 -7.01171875 40.0859375 C-6.93695313 39.25964844 -6.8621875 38.43335938 -6.78515625 37.58203125 C-6.71554687 36.75832031 -6.6459375 35.93460938 -6.57421875 35.0859375 C-6.43757813 34.40402344 -6.3009375 33.72210938 -6.16015625 33.01953125 C-3.3453158 31.61211103 -1.59079512 32.35300961 1.46484375 32.95703125 C4.12546875 33.48296875 4.12546875 33.48296875 6.83984375 34.01953125 C6.83984375 30.05953125 6.83984375 26.09953125 6.83984375 22.01953125 C5.21046875 21.71015625 3.58109375 21.40078125 1.90234375 21.08203125 C-3.03515625 20.14453125 -3.03515625 20.14453125 -4.16015625 19.01953125 C-4.56072234 12.97569581 -4.13639386 6.98542775 -3.16015625 1.01953125 C-2.16015625 0.01953125 -2.16015625 0.01953125 0 0 Z M-1.16015625 3.01953125 C-1.49015625 7.63953125 -1.82015625 12.25953125 -2.16015625 17.01953125 C0.71378873 17.83592443 3.58889505 18.64775266 6.46484375 19.45703125 C7.27308594 19.68712891 8.08132813 19.91722656 8.9140625 20.15429688 C13.19287282 21.35445099 17.41057365 22.52350889 21.83984375 23.01953125 C23.89906777 20.96030723 23.25411954 16.80245001 23.40234375 13.95703125 C23.44552734 13.19841797 23.48871094 12.43980469 23.53320312 11.65820312 C23.63958008 9.77887687 23.74024309 7.89922881 23.83984375 6.01953125 C20.61160396 5.51342222 17.3821201 5.01573218 14.15234375 4.51953125 C12.78432617 4.30490234 12.78432617 4.30490234 11.38867188 4.0859375 C10.50244141 3.95058594 9.61621094 3.81523438 8.703125 3.67578125 C7.48556519 3.48725586 7.48556519 3.48725586 6.2434082 3.29492188 C3.41514193 2.92467192 3.41514193 2.92467192 -1.16015625 3.01953125 Z M-4.16015625 35.01953125 C-4.82015625 40.29953125 -5.48015625 45.57953125 -6.16015625 51.01953125 C-2.43187396 52.16831011 1.29740312 53.31366013 5.02734375 54.45703125 C6.08244141 54.78251953 7.13753906 55.10800781 8.22460938 55.44335938 C9.24619141 55.75595703 10.26777344 56.06855469 11.3203125 56.390625 C12.25770264 56.6786499 13.19509277 56.9666748 14.16088867 57.26342773 C16.70795622 57.98230755 19.2383971 58.53885158 21.83984375 59.01953125 C22.17793061 56.95780512 22.51011736 54.89511095 22.83984375 52.83203125 C23.02546875 51.68347656 23.21109375 50.53492188 23.40234375 49.3515625 C23.77576419 46.50756576 23.87394253 43.87743565 23.83984375 41.01953125 C19.73701363 40.01399244 15.63237318 39.01605015 11.52734375 38.01953125 C9.77647461 37.59027344 9.77647461 37.59027344 7.99023438 37.15234375 C6.87197266 36.88164062 5.75371094 36.6109375 4.6015625 36.33203125 C3.56990967 36.08066406 2.53825684 35.82929688 1.4753418 35.5703125 C-1.20084334 34.91724817 -1.20084334 34.91724817 -4.16015625 35.01953125 Z M-26.16015625 59.01953125 C-26.82015625 63.96953125 -27.48015625 68.91953125 -28.16015625 74.01953125 C-26.05640625 74.84453125 -23.95265625 75.66953125 -21.78515625 76.51953125 C-20.01011719 77.215625 -20.01011719 77.215625 -18.19921875 77.92578125 C-15.38483185 79.13240919 -15.38483185 79.13240919 -13.16015625 79.01953125 C-12.50015625 73.73953125 -11.84015625 68.45953125 -11.16015625 63.01953125 C-16.86462084 61.38393512 -16.86462084 61.38393512 -22.59765625 59.89453125 C-23.77328125 59.60578125 -24.94890625 59.31703125 -26.16015625 59.01953125 Z M22.83984375 75.01953125 C22.17984375 80.29953125 21.51984375 85.57953125 20.83984375 91.01953125 C22.69609375 91.80328125 24.55234375 92.58703125 26.46484375 93.39453125 C27.50898438 93.83539063 28.553125 94.27625 29.62890625 94.73046875 C32.65438734 95.94507795 35.74695995 96.98856998 38.83984375 98.01953125 C39.16984375 91.74953125 39.49984375 85.47953125 39.83984375 79.01953125 C34.12316237 77.38619371 28.65483592 76.13473523 22.83984375 75.01953125 Z " fill="#000000" transform="translate(314.16015625,108.98046875)"/>
<path d="M0 0 C5.08985716 3.51784854 8.25773284 8.10077818 11.8125 13.0625 C12.42689941 13.90997803 13.04129883 14.75745605 13.67431641 15.63061523 C14.89460643 17.31442253 16.11244558 19.00000918 17.32763672 20.6875 C18.76740777 22.67837757 20.22200248 24.65596491 21.69140625 26.625 C22.41199219 27.594375 23.13257813 28.56375 23.875 29.5625 C24.49117188 30.38878906 25.10734375 31.21507813 25.7421875 32.06640625 C27 34 27 34 27 36 C17.77187885 32.04053375 12.1826651 21.15590643 7 13.0625 C6.32066406 12.02287109 5.64132813 10.98324219 4.94140625 9.91210938 C0 2.27132325 0 2.27132325 0 0 Z " fill="#000000" transform="translate(246,41)"/>
<path d="M0 0 C0.33 0 0.66 0 1 0 C1.33 15.84 1.66 31.68 2 48 C1.34 48 0.68 48 0 48 C-1.17210616 45.65578767 -1.12677084 44.26967765 -1.12939453 41.65795898 C-1.13254669 40.7604039 -1.13569885 39.86284882 -1.13894653 38.93809509 C-1.13591019 37.48180443 -1.13591019 37.48180443 -1.1328125 35.99609375 C-1.13376923 35.0024733 -1.13472595 34.00885284 -1.13571167 32.98512268 C-1.13639286 30.88274065 -1.1345428 28.78035652 -1.13037109 26.67797852 C-1.12501638 23.44738072 -1.13032105 20.21692161 -1.13671875 16.98632812 C-1.13605807 14.94791636 -1.13477711 12.90950468 -1.1328125 10.87109375 C-1.13483673 9.89820908 -1.13686096 8.9253244 -1.13894653 7.92295837 C-1.13579437 7.02855545 -1.13264221 6.13415253 -1.12939453 5.21264648 C-1.12859894 4.42147934 -1.12780334 3.63031219 -1.12698364 2.81517029 C-1 1 -1 1 0 0 Z " fill="#000000" transform="translate(296,20)"/>
<path d="M0 0 C0.33 0.66 0.66 1.32 1 2 C-0.08188423 4.74077339 -1.22590376 7.34959669 -2.5 10 C-2.86512695 10.76513916 -3.23025391 11.53027832 -3.60644531 12.31860352 C-11.38632616 28.2538876 -11.38632616 28.2538876 -18 31 C-17.33610913 27.11658905 -15.49812818 24.2790885 -13.4375 20.95703125 C-13.0861499 20.38796555 -12.7347998 19.81889984 -12.37280273 19.23258972 C-11.63218661 18.03512257 -10.88905005 16.83921103 -10.14355469 15.64477539 C-8.99927023 13.81133072 -7.86226605 11.97353544 -6.7265625 10.13476562 C-1.17668751 1.17668751 -1.17668751 1.17668751 0 0 Z " fill="#000000" transform="translate(339,42)"/>
<path d="M0 0 C3.47598164 0.57977557 6.29104698 1.46521105 9.42578125 3.06640625 C10.22177734 3.46923828 11.01777344 3.87207031 11.83789062 4.28710938 C12.65451172 4.70798828 13.47113281 5.12886719 14.3125 5.5625 C15.14845703 5.98724609 15.98441406 6.41199219 16.84570312 6.84960938 C18.89996426 7.8943479 20.95120292 8.94459762 23 10 C23 10.66 23 11.32 23 12 C16.89395661 11.55869594 12.77540413 9.55188828 7.5625 6.4375 C6.83095703 6.01275391 6.09941406 5.58800781 5.34570312 5.15039062 C3.55786242 4.11040486 1.77807338 3.05659823 0 2 C0 1.34 0 0.68 0 0 Z " fill="#000000" transform="translate(242,92)"/>
<path d="M0 0 C3.63 0.66 7.26 1.32 11 2 C11 2.66 11 3.32 11 4 C7.71303767 4.79953138 6.28976808 5.09658936 3 4 C3 5.32 3 6.64 3 8 C5.97 8.495 5.97 8.495 9 9 C9 9.66 9 10.32 9 11 C3.375 11.25 3.375 11.25 0 9 C-0.91399027 5.4202048 -1.17841928 3.53525784 0 0 Z " fill="#000000" transform="translate(124,149)"/>
<path d="M0 0 C-1 3 -1 3 -3.4765625 4.5703125 C-13.91194969 9.72327044 -13.91194969 9.72327044 -20 10 C-19 7 -19 7 -17.35766602 6.0168457 C-16.66342529 5.73929443 -15.96918457 5.46174316 -15.25390625 5.17578125 C-14.49916016 4.86962891 -13.74441406 4.56347656 -12.96679688 4.24804688 C-12.17337891 3.93931641 -11.37996094 3.63058594 -10.5625 3.3125 C-9.77294922 2.99216797 -8.98339844 2.67183594 -8.16992188 2.34179688 C-2.3129331 0 -2.3129331 0 0 0 Z " fill="#000000" transform="translate(361,76)"/>
<path d="M0 0 C1.27118864 0.79109602 2.54193623 1.58290078 3.8125 2.375 C4.52019531 2.81585938 5.22789062 3.25671875 5.95703125 3.7109375 C7.65432039 4.78188476 9.33014358 5.88676239 11 7 C8.21176345 8.0326802 7.1322726 8.04509293 4.25 7.0625 C3.5075 6.711875 2.765 6.36125 2 6 C2.33 7.65 2.66 9.3 3 11 C2.01 11 1.02 11 0 11 C-1.62651522 7.74696956 -1.11453156 4.60774398 -1 1 C-0.67 0.67 -0.34 0.34 0 0 Z " fill="#000000" transform="translate(213,149)"/>
<path d="M0 0 C1.50433594 0.29197266 1.50433594 0.29197266 3.0390625 0.58984375 C4.19535156 0.82380859 4.19535156 0.82380859 5.375 1.0625 C5.705 2.0525 6.035 3.0425 6.375 4.0625 C4.62508666 4.08965383 2.87505055 4.10896551 1.125 4.125 C-0.33679688 4.14240234 -0.33679688 4.14240234 -1.828125 4.16015625 C-4.28258678 4.07445577 -6.28668914 3.76956066 -8.625 3.0625 C-8.295 2.0725 -7.965 1.0825 -7.625 0.0625 C-4.81015955 -1.34492022 -3.05563887 -0.60402164 0 0 Z " fill="#000000" transform="translate(323.625,116.9375)"/>
<path d="M0 0 C2.31 0 4.62 0 7 0 C7 0.66 7 1.32 7 2 C9.31 2.66 11.62 3.32 14 4 C13.67 4.66 13.34 5.32 13 6 C11.5199159 5.88637738 10.04089926 5.75877092 8.5625 5.625 C7.73878906 5.55539063 6.91507812 5.48578125 6.06640625 5.4140625 C5.38449219 5.27742187 4.70257813 5.14078125 4 5 C3.67 4.34 3.34 3.68 3 3 C1.68 3 0.36 3 -1 3 C-0.67 2.01 -0.34 1.02 0 0 Z " fill="#000000" transform="translate(313,149)"/>
<path d="M0 0 C4.96916636 0.51405169 9.29026351 1.23384882 14 3 C14 3.66 14 4.32 14 5 C3.44191344 4.22095672 3.44191344 4.22095672 -1 2 C-0.67 1.34 -0.34 0.68 0 0 Z " fill="#000000" transform="translate(338,194)"/>
<path d="M0 0 C1.43791516 0.14168137 2.8753237 0.28851043 4.3125 0.4375 C5.11300781 0.51871094 5.91351563 0.59992188 6.73828125 0.68359375 C9 1 9 1 12 2 C12 2.66 12 3.32 12 4 C10.56260487 4.02712066 9.12506137 4.04645067 7.6875 4.0625 C6.48673828 4.07990234 6.48673828 4.07990234 5.26171875 4.09765625 C3 4 3 4 0 3 C0 2.01 0 1.02 0 0 Z " fill="#000000" transform="translate(288,177)"/>
<path d="M0 0 C3.3 0.66 6.6 1.32 10 2 C9.67 2.99 9.34 3.98 9 5 C5.7 4.34 2.4 3.68 -1 3 C-0.67 2.01 -0.34 1.02 0 0 Z " fill="#000000" transform="translate(312,154)"/>
<path d="M0 0 C0 0.99 0 1.98 0 3 C-2.9826906 4.52448631 -5.818202 5.93940067 -9 7 C-8.02086745 1.32103121 -5.73500486 -0.46500039 0 0 Z " fill="#000000" transform="translate(134,123)"/>
<path d="M0 0 C1.6254308 0.14095064 3.25034051 0.28792087 4.875 0.4375 C5.77992188 0.51871094 6.68484375 0.59992188 7.6171875 0.68359375 C10 1 10 1 12 2 C12 2.66 12 3.32 12 4 C7.45194365 4.17835515 4.1205746 3.99785435 0 2 C0 1.34 0 0.68 0 0 Z " fill="#000000" transform="translate(316,122)"/>
<path d="M0 0 C1.32 0.66 2.64 1.32 4 2 C3.625 3.9375 3.625 3.9375 3 6 C2.01 6.495 2.01 6.495 1 7 C0.01 6.34 -0.98 5.68 -2 5 C-1.125 1.125 -1.125 1.125 0 0 Z " fill="#000000" transform="translate(313,219)"/>
<path d="M0 0 C2.64 0.33 5.28 0.66 8 1 C8.33 1.99 8.66 2.98 9 4 C2.25 4.125 2.25 4.125 0 3 C0 2.01 0 1.02 0 0 Z " fill="#000000" transform="translate(338,189)"/>
<path d="M0 0 C5.75 -0.125 5.75 -0.125 8 1 C8 1.66 8 2.32 8 3 C5.39417629 3.93065133 4.35801776 4.14917407 1.75 3.0625 C1.1725 2.711875 0.595 2.36125 0 2 C0 1.34 0 0.68 0 0 Z " fill="#000000" transform="translate(289,173)"/>
<path d="M0 0 C0.99 0 1.98 0 3 0 C3 1.65 3 3.3 3 5 C2.01 5 1.02 5 0 5 C0 3.35 0 1.7 0 0 Z " fill="#000000" transform="translate(131,131)"/>
<path d="M0 0 C0.99 0 1.98 0 3 0 C3 1.32 3 2.64 3 4 C2.01 4 1.02 4 0 4 C0 2.68 0 1.36 0 0 Z " fill="#000000" transform="translate(216,136)"/>
<path d="M0 0 C0.66 0 1.32 0 2 0 C2 1.32 2 2.64 2 4 C1.34 4 0.68 4 0 4 C0 2.68 0 1.36 0 0 Z " fill="#000000" transform="translate(233,135)"/>
</svg>
