<svg width="75" height="19" viewBox="0 0 75 19" fill="none" xmlns="http://www.w3.org/2000/svg">
<g clip-path="url(#clip0_164_42)">
<path d="M20.5954 3.72966L21.1655 4.13837C22.1572 4.93028 22.7273 5.82444 22.8512 6.84624C23.9172 6.64188 25.2805 6.79518 25.8756 7.2039L26.4209 7.53604L26.3218 7.74054C26.1482 8.12359 26.0987 8.22584 26.0739 8.27689C25.1071 10.1928 23.1983 10.2184 22.3059 10.1928C20.05 15.7874 15.2409 18.8785 8.74582 18.8785C5.74641 18.8785 3.46579 17.9332 1.92873 16.0683C-0.103883 13.6162 -0.103883 10.4227 0.0695543 9.40094L0.119213 9.19644H18.042C18.9839 9.19644 19.703 8.94117 20.05 8.73666C19.6781 8.17464 19.5542 7.53604 19.5294 7.17837C19.455 6.15658 19.703 5.08359 20.1989 4.31721L20.5954 3.72966ZM36.1248 4.91592C36.3248 4.91592 36.4941 4.9823 36.6328 5.11506C36.7715 5.24782 36.8408 5.41544 36.8408 5.61791V11.9362C36.8408 12.9892 36.468 13.8802 35.7225 14.6093C34.968 15.3473 34.0681 15.7163 33.0228 15.7163C31.9683 15.7163 31.0684 15.3473 30.3231 14.6093C29.5777 13.8712 29.205 12.9802 29.205 11.9362C29.205 10.8922 29.5777 10.0012 30.3231 9.26315C31.0684 8.52501 31.9683 8.15598 33.0228 8.15608C33.9273 8.15608 34.725 8.43281 35.4158 8.98627V5.61791C35.4158 5.41544 35.4828 5.24782 35.6169 5.11506C35.751 4.9823 35.9203 4.91592 36.1248 4.91592ZM41.47 8.15608C42.5154 8.15608 43.4153 8.52505 44.1697 9.26301C44.5426 9.63218 44.821 10.0394 45.005 10.4848C45.189 10.9304 45.2834 11.4142 45.288 11.9362C45.288 12.9892 44.9153 13.8802 44.1698 14.6093C43.4155 15.3473 42.5156 15.7163 41.4701 15.7163C40.4157 15.7163 39.5157 15.3473 38.7704 14.6093C38.0249 13.8712 37.6522 12.9802 37.6522 11.9362C37.6522 10.8922 38.0249 10.0012 38.7703 9.26315C39.5157 8.52501 40.4156 8.15598 41.47 8.15608ZM49.9037 8.15608C50.8627 8.15608 51.6922 8.46211 52.3922 9.07417C52.5557 9.21805 52.6375 9.39577 52.6375 9.60733C52.6375 9.8099 52.5705 9.97863 52.4364 10.1135C52.3023 10.2486 52.133 10.3161 51.9285 10.3161C51.7596 10.3175 51.5956 10.2602 51.4649 10.1541C51.2332 9.96054 50.99 9.8143 50.7354 9.71538C50.4808 9.61647 50.2036 9.56696 49.9037 9.56686C49.572 9.56686 49.2606 9.62875 48.9697 9.75251C48.6852 9.87196 48.426 10.0437 48.2061 10.2587C47.9866 10.474 47.8118 10.7297 47.6913 11.0114C47.5663 11.2993 47.5038 11.6075 47.5038 11.9362C47.5038 12.2647 47.5663 12.5729 47.6913 12.861C47.8118 13.1427 47.9866 13.3984 48.2061 13.6137C48.426 13.8287 48.6852 14.0005 48.9697 14.1199C49.2606 14.2437 49.572 14.3056 49.9037 14.3056C50.2037 14.3056 50.4809 14.2572 50.7354 14.1605C50.99 14.0636 51.2309 13.9184 51.458 13.725C51.5854 13.6305 51.7354 13.581 51.908 13.5764C52.1125 13.5764 52.2818 13.6428 52.4159 13.7756C52.55 13.9083 52.617 14.076 52.617 14.2786C52.617 14.4766 52.5421 14.6498 52.3922 14.7982C51.6877 15.4103 50.8582 15.7163 49.9037 15.7163C48.8492 15.7163 47.9493 15.3473 47.204 14.6093C46.4586 13.8712 46.0859 12.9802 46.0859 11.9362C46.0859 10.8922 46.4586 10.0012 47.204 9.26315C47.9494 8.5251 48.8493 8.15608 49.9037 8.15608ZM54.1582 4.91592C54.3536 4.91592 54.5206 4.98458 54.6592 5.12188C54.7978 5.25899 54.8672 5.4266 54.8672 5.62473V10.8899L58.9441 8.26399C59.0577 8.19205 59.1849 8.15608 59.3259 8.15608C59.4259 8.15608 59.519 8.17406 59.6054 8.21003C59.6918 8.246 59.7668 8.29662 59.8303 8.36189C59.8939 8.42715 59.9451 8.50257 59.9837 8.58815C60.0224 8.67372 60.0417 8.76364 60.0417 8.85792C60.0417 9.10999 59.9508 9.2968 59.769 9.41834L56.9125 11.2545L59.844 14.5215C59.9758 14.6655 60.0417 14.8298 60.0417 15.0144C60.0417 15.1088 60.0224 15.1988 59.9837 15.2843C59.9463 15.368 59.8944 15.4446 59.8303 15.5105C59.7668 15.5758 59.6918 15.6264 59.6054 15.6622C59.5168 15.6986 59.4217 15.717 59.3259 15.7163C59.1349 15.7163 58.9759 15.6556 58.8486 15.534L55.6989 12.0306L54.8672 12.5707V15.0075C54.8672 15.201 54.7978 15.3675 54.6592 15.507C54.5205 15.6466 54.3535 15.7163 54.1582 15.7163C53.9582 15.7163 53.7888 15.6466 53.6502 15.507C53.5115 15.3675 53.4422 15.201 53.4422 15.0075V5.62473C53.4422 5.4267 53.5115 5.25904 53.6502 5.12173C53.7888 4.98443 53.9582 4.91592 54.1582 4.91592ZM64.6302 8.15593C65.6755 8.15593 66.5754 8.52491 67.3299 9.26286C67.7026 9.62739 67.9821 10.0335 68.1685 10.4813C68.3549 10.929 68.448 11.4139 68.448 11.9361C68.448 12.1385 68.3787 12.3062 68.24 12.4389C68.1013 12.5717 67.9321 12.638 67.7322 12.638H62.3327C62.4078 12.8812 62.523 13.1104 62.6736 13.3164C62.8206 13.5183 62.9989 13.696 63.2018 13.8429C63.4055 13.99 63.6309 14.105 63.8701 14.1839C64.1133 14.2649 64.3666 14.3054 64.6302 14.3054C64.9302 14.3054 65.2052 14.2604 65.4551 14.1704C65.7051 14.0805 65.9369 13.9454 66.1506 13.7653C66.2821 13.6548 66.4483 13.5928 66.6208 13.5898C66.8254 13.5898 66.9947 13.6562 67.1288 13.7889C67.2629 13.9217 67.3299 14.0893 67.3299 14.2919C67.3299 14.4898 67.2617 14.6586 67.1254 14.7981C66.4209 15.4102 65.5892 15.7162 64.6302 15.7162C63.5757 15.7162 62.6758 15.3472 61.9305 14.6091C61.1851 13.8711 60.8124 12.98 60.8124 11.9361C60.8124 10.8921 61.1851 10.0011 61.9305 9.26301C62.6759 8.52496 63.5758 8.15593 64.6302 8.15593ZM73.0501 8.15593C73.2501 8.15593 73.4649 8.16942 73.6944 8.1964C73.9239 8.22347 74.1352 8.27182 74.3285 8.34144C74.5217 8.41115 74.6818 8.50678 74.809 8.62832C74.9364 8.74986 75.0001 8.90738 75 9.10086C75 9.19997 74.9806 9.29226 74.942 9.37773C74.9046 9.4614 74.8527 9.53792 74.7886 9.60385C74.725 9.66912 74.65 9.71973 74.5636 9.7557C74.475 9.79199 74.38 9.81033 74.2841 9.80966C74.1977 9.80966 74.0977 9.7849 73.9841 9.7354C73.6978 9.62294 73.3865 9.56672 73.0501 9.56672C72.7184 9.56672 72.4071 9.6286 72.1161 9.75237C71.8253 9.87613 71.5719 10.0449 71.3559 10.2586C71.1401 10.4723 70.9697 10.7233 70.8447 11.0113C70.7197 11.2992 70.6572 11.6074 70.6572 11.9361V15.0142C70.6572 15.2077 70.5878 15.373 70.4492 15.5102C70.3105 15.6474 70.1435 15.7161 69.9482 15.7162C69.7482 15.7162 69.5789 15.6475 69.4403 15.5102C69.3017 15.3729 69.2324 15.2076 69.2323 15.0142V8.85806C69.2323 8.66448 69.3016 8.49914 69.4403 8.36203C69.579 8.22473 69.7483 8.15608 69.9482 8.15608C70.1436 8.15608 70.3106 8.22473 70.4492 8.36203C70.5878 8.49914 70.6572 8.66448 70.6572 8.85806V8.99295C70.9907 8.72715 71.3661 8.51738 71.7684 8.37204C72.1683 8.22797 72.5955 8.15593 73.0501 8.15593ZM33.0228 9.56672C32.6865 9.56672 32.3729 9.62971 32.082 9.7557C31.791 9.88169 31.5388 10.0516 31.3252 10.2654C31.1116 10.4792 30.9424 10.7301 30.8174 11.0181C30.6924 11.3062 30.6299 11.6121 30.6299 11.9361C30.6299 12.26 30.6924 12.566 30.8174 12.8542C30.9424 13.1423 31.1116 13.3932 31.3252 13.6068C31.5388 13.8203 31.791 13.9902 32.082 14.1164C32.3729 14.2423 32.6865 14.3053 33.0228 14.3054C33.3546 14.3054 33.6659 14.2424 33.9568 14.1164C34.2409 13.9948 34.4989 13.8207 34.7171 13.6033C34.9335 13.3863 35.107 13.131 35.2283 12.8507C35.3533 12.5649 35.4158 12.2601 35.4158 11.9361C35.4158 11.612 35.3533 11.3071 35.2283 11.0213C35.107 10.741 34.9335 10.4857 34.7171 10.2687C34.4989 10.0514 34.2409 9.87725 33.9568 9.7557C33.666 9.62971 33.3547 9.56672 33.0228 9.56672ZM41.4701 9.56672C41.1338 9.56672 40.8202 9.62971 40.5293 9.7557C40.2384 9.88169 39.9861 10.0516 39.7725 10.2654C39.559 10.4792 39.3896 10.7301 39.2645 11.0181C39.1394 11.3062 39.0769 11.6121 39.077 11.9361C39.0771 12.26 39.1396 12.566 39.2645 12.8542C39.3896 13.1421 39.559 13.393 39.7725 13.6068C39.9861 13.8205 40.2384 13.9904 40.5293 14.1164C40.8202 14.2424 41.1338 14.3054 41.4701 14.3054C41.8019 14.3054 42.1132 14.2424 42.4041 14.1164C42.6882 13.9948 42.9463 13.8207 43.1644 13.6033C43.3809 13.3863 43.5543 13.131 43.6756 12.8507C43.8006 12.5649 43.8631 12.2601 43.8631 11.9361C43.8631 11.612 43.8006 11.3071 43.6756 11.0213C43.5543 10.741 43.3809 10.4857 43.1644 10.2687C42.9462 10.0514 42.6882 9.87725 42.4041 9.7557C42.1132 9.62971 41.8019 9.56672 41.4701 9.56672ZM64.6302 9.56672C64.3711 9.56672 64.1189 9.60718 63.8735 9.68811C63.6322 9.76697 63.4046 9.88192 63.1985 10.029C62.9939 10.1752 62.8144 10.353 62.6667 10.5556C62.5166 10.7609 62.4036 10.9904 62.3327 11.2339H66.9277C66.8523 10.9902 66.7359 10.7609 66.5834 10.5556C66.4345 10.3542 66.2551 10.1766 66.0517 10.0291C65.848 9.88209 65.6227 9.76712 65.3836 9.68826C65.1408 9.60726 64.8863 9.5662 64.6302 9.56672ZM4.77961 6.13076V8.68547H2.05281V6.13105L4.77961 6.13076ZM8.00227 6.13076V8.68547H5.27546V6.13105L8.00227 6.13076ZM11.2249 6.13076V8.68547H8.49797V6.13105L11.2249 6.13076ZM14.4476 6.13076V8.68547H11.7206V6.13105L14.4476 6.13076ZM17.6702 6.13076V8.68547H14.9433V6.13105L17.6702 6.13076ZM14.4476 3.06538V5.61994H11.7206V3.06553L14.4476 3.06538ZM11.2249 3.06538V5.61994H8.49797V3.06553L11.2249 3.06538ZM8.00227 3.06538V5.61994H5.27546V3.06553L8.00227 3.06538ZM14.4476 0V2.55456H11.7206V0H14.4476Z" fill="black"/>
</g>
<defs>
<clipPath id="clip0_164_42">
<rect width="75" height="19" fill="white"/>
</clipPath>
</defs>
</svg>
