<svg width="79" height="19" viewBox="0 0 79 19" fill="none" xmlns="http://www.w3.org/2000/svg">
<path d="M25.4425 9.82841C25.5888 9.66489 25.7351 9.50136 25.8998 9.33783C26.0527 9.16875 26.2051 8.99921 26.357 8.82923C26.5034 8.64734 26.6497 8.48381 26.7779 8.33829C26.9061 8.19278 27.0339 8.04779 27.1253 7.93883H28.8996C28.5521 8.33847 28.2045 8.73828 27.8571 9.10154C27.5278 9.46498 27.162 9.84654 26.7596 10.2462C26.9801 10.4514 27.1878 10.6699 27.3815 10.9004C27.6009 11.1547 27.8021 11.409 28.0034 11.6633C28.2029 11.9182 28.3861 12.1853 28.5521 12.4629C28.7167 12.7354 28.8632 12.9715 28.9729 13.1896H27.2535C27.1436 13.0077 27.0156 12.8261 26.8876 12.6262C26.7538 12.406 26.6071 12.1937 26.4484 11.9905C26.2998 11.7725 26.1347 11.566 25.9547 11.3727C25.8089 11.1915 25.6433 11.027 25.4608 10.8822V13.1714H23.9609V5.6678L25.4608 5.43152V9.82841M34.1859 13.0079C33.8619 13.0976 33.5318 13.1644 33.1983 13.2078C32.7811 13.2754 32.3586 13.3058 31.936 13.2985C31.5497 13.3125 31.1644 13.2508 30.802 13.117C30.5293 13.0146 30.2881 12.8436 30.1021 12.6206C29.916 12.3976 29.7917 12.1303 29.7411 11.8451C29.6665 11.5234 29.6296 11.1942 29.6313 10.864V7.93883H31.1313V10.6823C31.1313 11.1547 31.1862 11.4999 31.3142 11.718C31.4422 11.9361 31.6799 12.0451 32.0275 12.0451C32.1437 12.0476 32.2599 12.0415 32.3751 12.0269C32.5031 12.0087 32.5947 12.0087 32.7044 11.9905V7.93883H34.2042L34.1859 13.0079ZM38.9968 10.5187C38.9968 9.55593 38.6492 9.08353 37.9357 9.08353C37.7817 9.08369 37.6282 9.10195 37.4784 9.13792C37.3502 9.16878 37.227 9.21772 37.1127 9.28326V11.9905C37.1858 12.0087 37.2774 12.0087 37.3871 12.0269C37.4968 12.0269 37.6248 12.0451 37.753 12.0451C37.9306 12.053 38.1076 12.0193 38.2696 11.9467C38.4317 11.8741 38.5743 11.7646 38.6858 11.627C38.9046 11.2994 39.0135 10.9115 38.9968 10.5187ZM40.515 10.5551C40.5227 10.9444 40.4607 11.332 40.332 11.6998C40.2219 12.0257 40.0408 12.3234 39.8017 12.5718C39.5524 12.8106 39.2609 13.0016 38.9419 13.1352C38.5656 13.2644 38.1691 13.3258 37.7711 13.3167C37.5883 13.3167 37.4054 13.2985 37.2041 13.2805C37.0029 13.2625 36.8201 13.2441 36.6188 13.2258C36.4359 13.2078 36.2529 13.1714 36.07 13.135C35.9136 13.1083 35.7603 13.0657 35.6127 13.0079V5.66763L37.1127 5.43152V8.04779C37.283 7.97431 37.4608 7.91947 37.6431 7.88427C37.836 7.84731 38.0321 7.82909 38.2286 7.82987C38.5685 7.82363 38.9057 7.89176 39.2162 8.02943C39.4996 8.152 39.7502 8.33876 39.948 8.57476C40.1584 8.829 40.3084 9.12706 40.3869 9.44679C40.4698 9.81055 40.5127 10.1822 40.515 10.5551ZM41.4114 10.6097C41.4015 10.1934 41.4761 9.77941 41.6308 9.3924C41.763 9.0688 41.9554 8.77285 42.1979 8.52001C42.4222 8.28577 42.6974 8.10564 43.0026 7.9934C43.3043 7.87036 43.6277 7.80851 43.9538 7.81151C44.2818 7.79659 44.6092 7.85036 44.9149 7.96931C45.2206 8.08827 45.4977 8.26976 45.7282 8.502C46.1671 8.95621 46.3865 9.62868 46.3865 10.5005C46.3891 10.5978 46.383 10.6952 46.3684 10.7914C46.3684 10.8822 46.3501 10.9729 46.3501 11.0639H42.9475C42.9624 11.2096 43.0095 11.3503 43.0854 11.4759C43.1613 11.6016 43.2641 11.709 43.3866 11.7906C43.6912 11.985 44.0493 12.0803 44.4109 12.0631C44.681 12.0668 44.9508 12.0425 45.2158 11.9905C45.4411 11.9528 45.6618 11.8918 45.8743 11.8086L46.0754 13.026C46.0023 13.0624 45.8926 13.0988 45.7463 13.1532C45.5983 13.2026 45.4446 13.2332 45.2888 13.2441C45.1138 13.2796 44.9367 13.3038 44.7585 13.3165C44.5755 13.3349 44.3745 13.3531 44.1913 13.3531C43.7663 13.3628 43.3435 13.2888 42.9475 13.1352C42.6206 13.0061 42.3224 12.8148 42.0696 12.5718C41.8436 12.3168 41.6697 12.0207 41.5575 11.6998C41.4616 11.3442 41.4123 10.9778 41.411 10.6097M44.9414 10.0283C44.9365 9.90409 44.9118 9.78142 44.8682 9.66489C44.832 9.54754 44.7763 9.437 44.7035 9.33783C44.6168 9.22924 44.5051 9.14288 44.3778 9.08597C44.2505 9.02907 44.1113 9.00329 43.9719 9.01077C43.8208 9.01089 43.6714 9.04179 43.5328 9.10154C43.4182 9.14832 43.3175 9.22339 43.2403 9.31964C43.1581 9.41556 43.0959 9.52672 43.0572 9.6467C43.0182 9.76556 42.9876 9.887 42.9658 10.0101H44.9414M50.7218 9.24706C50.5663 9.2029 50.4071 9.17247 50.2462 9.15611C50.0534 9.11905 49.8573 9.10071 49.6609 9.10137C49.5445 9.1073 49.4284 9.1195 49.3133 9.13792C49.2149 9.15108 49.1172 9.16929 49.0207 9.19249V13.2076H47.5207V8.21132C47.832 8.10669 48.1497 8.02175 48.4718 7.95702C48.8738 7.86604 49.2852 7.82335 49.6974 7.82987C49.7952 7.82788 49.8931 7.8339 49.99 7.84789C50.1066 7.85194 50.2227 7.8641 50.3376 7.88427C50.4475 7.90245 50.5572 7.92064 50.6852 7.93883C50.7949 7.95702 50.9047 7.9934 50.9778 8.01124L50.7218 9.24706ZM51.7827 8.12055C52.517 7.92811 53.2732 7.83042 54.0326 7.82987C54.4132 7.81411 54.7929 7.87589 55.1485 8.01141C55.428 8.10499 55.6752 8.27504 55.8618 8.502C56.034 8.72937 56.1584 8.98881 56.2277 9.2649C56.3043 9.58635 56.3412 9.91591 56.3374 10.2462V13.2078H54.8373V10.428C54.8373 9.95556 54.7826 9.61032 54.6546 9.41041C54.5265 9.2105 54.2887 9.11973 53.9411 9.11973C53.8249 9.11719 53.7087 9.12327 53.5935 9.13792C53.4829 9.14005 53.3727 9.15223 53.2644 9.1743V13.226H51.7827V8.12055ZM57.4532 10.6097C57.4433 10.1934 57.5179 9.77941 57.6726 9.3924C57.8048 9.06881 57.9972 8.77285 58.2397 8.52001C58.464 8.28575 58.7393 8.10561 59.0446 7.9934C59.3463 7.87036 59.6697 7.80851 59.9958 7.81151C60.3237 7.79659 60.6512 7.85036 60.9569 7.96931C61.2626 8.08827 61.5397 8.26976 61.7701 8.502C62.2089 8.95621 62.4285 9.62868 62.4285 10.5005C62.431 10.5978 62.4249 10.6952 62.4102 10.7914C62.4102 10.8822 62.3919 10.9729 62.3919 11.0639H58.9896C59.0045 11.2096 59.0516 11.3503 59.1275 11.4759C59.2034 11.6016 59.3063 11.709 59.4288 11.7906C59.7333 11.985 60.0913 12.0802 60.4529 12.0631C60.723 12.0668 60.9928 12.0425 61.2579 11.9905C61.4831 11.9528 61.7038 11.8918 61.9163 11.8086L62.1175 13.026C62.0445 13.0624 61.9346 13.0988 61.7883 13.1532C61.6403 13.2026 61.4867 13.2332 61.331 13.2441C61.1559 13.2797 60.9787 13.3038 60.8005 13.3165C60.6177 13.3349 60.4164 13.3531 60.2335 13.3531C59.8084 13.3628 59.3857 13.2888 58.9896 13.1352C58.6628 13.0061 58.3645 12.8148 58.1117 12.5718C57.8857 12.3169 57.7118 12.0207 57.5995 11.6998C57.5036 11.3442 57.4544 10.9778 57.4532 10.6097ZM60.9834 10.0283C60.9786 9.9041 60.9539 9.78143 60.9103 9.66489C60.8741 9.54754 60.8185 9.43701 60.7457 9.33783C60.6589 9.22921 60.5472 9.14284 60.4198 9.08593C60.2925 9.02903 60.1533 9.00326 60.0139 9.01077C59.8629 9.01092 59.7135 9.04181 59.5749 9.10154C59.4603 9.14829 59.3595 9.22337 59.2823 9.31964C59.2002 9.41558 59.138 9.52674 59.0993 9.6467C59.0603 9.76555 59.0298 9.887 59.008 10.0101H60.9834M63.5443 6.63061L65.0442 6.3945V7.93883H66.8368V9.17413H65.0442V11.0273C65.0317 11.2857 65.0885 11.5428 65.2088 11.7722C65.3187 11.9541 65.5564 12.0449 65.8857 12.0449C66.0508 12.0418 66.2157 12.0296 66.3796 12.0085C66.5414 11.9792 66.7004 11.9367 66.8552 11.8813L67.0746 13.0441C66.8806 13.1261 66.6782 13.1871 66.471 13.2258C66.2004 13.282 65.9241 13.3063 65.6478 13.2982C65.2992 13.3077 64.9518 13.2524 64.6237 13.135C64.3773 13.0356 64.1579 12.8799 63.9833 12.6806C63.8138 12.4675 63.695 12.2191 63.6357 11.9539C63.5745 11.6488 63.5439 11.3384 63.5443 11.0273V6.63061ZM67.6051 10.6097C67.5952 10.1934 67.6699 9.77939 67.8247 9.3924C67.9568 9.06882 68.1492 8.77286 68.3916 8.52001C68.6159 8.28575 68.8913 8.10561 69.1965 7.9934C69.4982 7.87036 69.8216 7.80851 70.1477 7.81151C70.4757 7.79659 70.8031 7.85036 71.1088 7.96931C71.4145 8.08827 71.6916 8.26976 71.922 8.502C72.361 8.95621 72.5804 9.62868 72.5804 10.5005C72.5829 10.5978 72.5768 10.6952 72.5621 10.7914C72.5621 10.8822 72.5438 10.9729 72.5438 11.0639H69.1416C69.1564 11.2096 69.2035 11.3503 69.2794 11.4759C69.3553 11.6016 69.4582 11.709 69.5807 11.7906C69.8852 11.985 70.2432 12.0802 70.6048 12.0631C70.8749 12.0668 71.1448 12.0425 71.4098 11.9905C71.6351 11.9528 71.8557 11.8918 72.0682 11.8086L72.2695 13.026C72.1964 13.0624 72.0865 13.0988 71.9402 13.1532C71.7922 13.2026 71.6386 13.2332 71.4829 13.2441C71.3079 13.2796 71.1307 13.3038 70.9525 13.3165C70.7694 13.3349 70.5685 13.3531 70.3854 13.3531C69.9604 13.3628 69.5376 13.2888 69.1416 13.1352C68.8147 13.0061 68.5164 12.8148 68.2636 12.5718C68.0377 12.3168 67.8638 12.0207 67.7516 11.6998C67.6467 11.3461 67.5973 10.9784 67.6051 10.6097ZM71.1172 10.0283C71.1123 9.90409 71.0876 9.78142 71.0439 9.66489C71.0077 9.54754 70.9521 9.437 70.8793 9.33783C70.7925 9.22924 70.6808 9.14288 70.5535 9.08597C70.4262 9.02907 70.2871 9.00329 70.1477 9.01077C69.9966 9.01089 69.8471 9.04179 69.7085 9.10154C69.5939 9.14829 69.4931 9.22337 69.4159 9.31964C69.3338 9.41559 69.2717 9.52675 69.2331 9.6467C69.194 9.76555 69.1634 9.887 69.1416 10.0101H71.1172M75.2327 12.1176C75.4308 12.1321 75.6298 12.1074 75.8182 12.0451C75.873 12.0151 75.9177 11.9699 75.947 11.915C75.9762 11.8601 75.9886 11.7978 75.9826 11.736C75.9826 11.6089 75.9096 11.5181 75.7632 11.4273C75.5494 11.3005 75.3225 11.1969 75.0864 11.1183C74.8487 11.0275 74.6291 10.9367 74.4463 10.8458C74.2713 10.7625 74.1107 10.6521 73.9706 10.5187C73.8362 10.3835 73.7304 10.2229 73.6596 10.0463C73.5817 9.83722 73.5444 9.61531 73.5499 9.3924C73.5398 9.16893 73.5845 8.94638 73.68 8.74383C73.7756 8.54128 73.9192 8.36479 74.0986 8.22951C74.4645 7.93883 74.9767 7.79332 75.6169 7.79332C75.93 7.7957 76.2422 7.82613 76.5498 7.88427C76.7874 7.92019 77.0204 7.98117 77.245 8.06616L76.9888 9.22887C76.8058 9.17412 76.6229 9.11973 76.4216 9.06534C76.2003 9.01127 75.9727 8.9868 75.7449 8.99258C75.2693 8.99258 75.0498 9.11973 75.0498 9.37403C75.0532 9.43018 75.0655 9.48544 75.0864 9.53774C75.1121 9.59867 75.157 9.64967 75.2144 9.68308C75.2693 9.71945 75.3607 9.77385 75.4523 9.82841C75.562 9.88281 75.69 9.91918 75.8546 9.99194C76.1377 10.0925 76.4129 10.2139 76.6778 10.3552C76.8699 10.4427 77.039 10.5733 77.1717 10.7366C77.298 10.8614 77.3867 11.0188 77.4277 11.191C77.4825 11.3798 77.5072 11.576 77.501 11.7724C77.5126 12.0025 77.4649 12.2317 77.3624 12.4383C77.26 12.645 77.1062 12.8223 76.9155 12.9535C76.5315 13.226 75.9826 13.3531 75.251 13.3531C74.8568 13.3652 74.4628 13.3224 74.0804 13.226C73.8608 13.1808 73.6463 13.1139 73.4402 13.026L73.6962 11.8088C73.9522 11.9065 74.2151 11.9854 74.4828 12.0449C74.7292 12.0969 74.9808 12.1213 75.2327 12.1176Z" fill="black"/>
<path d="M1.55566 11.2704H2.42347V11.9551H1.55566V11.2704Z" fill="white"/>
<path d="M11.7026 10.7069C11.6796 10.7023 11.6562 10.7006 11.6328 10.7016C11.5923 10.7037 11.5527 10.7139 11.5163 10.7316C11.4457 10.7655 11.3909 10.8251 11.3634 10.8981C11.336 10.971 11.3379 11.0517 11.3689 11.1233L11.3668 11.1263L12.0637 12.7987C12.7305 12.376 13.2364 11.7447 13.5015 11.0044L11.7056 10.7033L11.7026 10.7069ZM8.90827 10.9437C8.89315 10.8778 8.8562 10.8188 8.80334 10.7762C8.75047 10.7336 8.68475 10.7099 8.61669 10.7088C8.59659 10.7086 8.57652 10.7104 8.55678 10.7141L8.55375 10.7104L6.77352 11.0106C7.04087 11.7449 7.54471 12.3711 8.20688 12.792L8.89671 11.1362L8.89138 11.1297C8.91685 11.071 8.92277 11.0059 8.90827 10.9437ZM10.3992 11.593C10.3732 11.5449 10.3345 11.5047 10.2873 11.4766C10.2401 11.4486 10.1861 11.4339 10.1311 11.4339C10.0761 11.434 10.0221 11.4489 9.97497 11.477C9.92782 11.5052 9.88925 11.5455 9.86337 11.5937H9.86194L8.9865 13.1662C9.61333 13.3781 10.2872 13.4126 10.9326 13.2656C11.0523 13.2385 11.1692 13.2061 11.2834 13.1683L10.4058 11.593H10.3992ZM13.1706 7.94067L11.8237 9.138L11.8244 9.14188C11.783 9.17781 11.7522 9.2242 11.7353 9.27612C11.7183 9.32804 11.7158 9.38356 11.728 9.43678C11.7403 9.48999 11.7668 9.53893 11.8047 9.57839C11.8427 9.61785 11.8907 9.64636 11.9437 9.6609L11.9453 9.66796L13.6902 10.1674C13.7656 9.38871 13.5832 8.60703 13.1706 7.94067ZM10.6682 8.07471C10.6708 8.12925 10.6881 8.1821 10.7185 8.22763C10.7488 8.27316 10.791 8.30969 10.8405 8.33332C10.8901 8.35695 10.9452 8.36681 10.9999 8.36186C11.0547 8.3569 11.107 8.33731 11.1515 8.30517L11.1568 8.30746L12.6307 7.26943C12.0697 6.72353 11.3436 6.37582 10.5642 6.27979L10.6666 8.074L10.6682 8.07471ZM9.1074 8.31188C9.15186 8.34399 9.20426 8.36352 9.25901 8.3684C9.31377 8.37328 9.36883 8.36332 9.41834 8.33959C9.46784 8.31585 9.50995 8.27923 9.54016 8.23361C9.57038 8.18799 9.58757 8.13509 9.58992 8.08054L9.59739 8.07701L9.6998 6.27996C9.57618 6.29467 9.45341 6.31566 9.33195 6.34283C8.6859 6.48709 8.0933 6.80785 7.62106 7.2689L9.10455 8.31347L9.1074 8.31188ZM8.31658 9.66973C8.36968 9.65534 8.41785 9.62689 8.45596 9.58744C8.49406 9.54798 8.52066 9.49899 8.53293 9.44569C8.54519 9.39239 8.54266 9.33678 8.5256 9.2848C8.50854 9.23282 8.47759 9.18641 8.43606 9.15054L8.43748 9.14347L7.08306 7.94014C6.66985 8.60817 6.4925 9.3939 6.57902 10.1732L8.31516 9.67556L8.31658 9.66973ZM9.63206 10.1983L10.1317 10.4367L10.6298 10.1988L10.7536 9.66461L10.4088 9.23636H9.85394L9.50814 9.66372L9.63206 10.1983Z" fill="black"/>
<path d="M18.3915 11.2507L16.9678 5.1082C16.9295 4.9493 16.8562 4.80082 16.7531 4.67348C16.65 4.54613 16.5198 4.44309 16.3718 4.37179L10.6089 1.63879C10.4595 1.56799 10.2961 1.53125 10.1306 1.53125C9.9651 1.53125 9.8017 1.56799 9.65234 1.63879L3.89064 4.3732C3.74259 4.44446 3.61231 4.54749 3.50922 4.67484C3.40613 4.80219 3.33279 4.95069 3.29451 5.10961L1.87306 11.252C1.83801 11.4072 1.83788 11.5682 1.87271 11.7235C1.88298 11.7708 1.8964 11.8174 1.91289 11.863C1.94069 11.9407 1.9775 12.015 2.02258 12.0843C2.04214 12.114 2.06276 12.1426 2.08517 12.1706L6.07339 17.0959C6.09082 17.1171 6.11002 17.1369 6.12904 17.1568C6.19162 17.223 6.26227 17.2811 6.33937 17.3299C6.43691 17.3908 6.54319 17.4367 6.65459 17.4659C6.74591 17.4908 6.8401 17.5037 6.93479 17.5044H6.99684L13.3305 17.503C13.369 17.5028 13.4075 17.5006 13.4457 17.4963C13.5006 17.4901 13.5549 17.4798 13.6082 17.4655C13.6464 17.4555 13.6841 17.4436 13.7211 17.4297C13.7501 17.4192 13.7785 17.4074 13.8064 17.3944C13.8481 17.3746 13.8884 17.3524 13.9273 17.3278C14.0277 17.2651 14.1171 17.1865 14.1919 17.0952L14.3135 16.9451L18.1787 12.1691C18.2528 12.0768 18.311 11.9729 18.351 11.8618C18.3677 11.8161 18.3813 11.7694 18.3919 11.7219C18.4268 11.5666 18.4267 11.4056 18.3915 11.2504V11.2507ZM12.414 13.6397C12.4302 13.687 12.4493 13.7332 12.4714 13.778C12.4362 13.8393 12.4266 13.9118 12.4447 13.98C12.5286 14.1708 12.631 14.353 12.7505 14.524C12.8174 14.6114 12.8792 14.7025 12.9354 14.797C12.9493 14.8226 12.9674 14.8621 12.9806 14.8892C13.0055 14.9304 13.0214 14.9763 13.0273 15.024C13.0332 15.0717 13.029 15.1201 13.015 15.166C13.0009 15.212 12.9773 15.2546 12.9457 15.291C12.9141 15.3273 12.8752 15.3567 12.8315 15.3773C12.7878 15.3978 12.7402 15.409 12.6918 15.4102C12.6435 15.4114 12.5954 15.4025 12.5507 15.3841C12.506 15.3657 12.4657 15.3382 12.4324 15.3034C12.399 15.2686 12.3734 15.2272 12.3571 15.182C12.3439 15.1551 12.3256 15.1194 12.3144 15.0942C12.275 14.9915 12.2416 14.8867 12.2143 14.7802C12.1545 14.581 12.0753 14.3881 11.9777 14.2041C11.9352 14.1473 11.8721 14.1092 11.8017 14.098C11.7906 14.0791 11.7497 14.0048 11.7279 13.9663C10.702 14.3522 9.56894 14.3493 8.54505 13.9581L8.467 14.0987C8.41131 14.1073 8.35951 14.1323 8.31837 14.1706C8.20077 14.3623 8.11087 14.5695 8.05133 14.786C8.02429 14.8925 7.99105 14.9974 7.95176 15.1C7.94074 15.1251 7.92225 15.1604 7.90909 15.1871V15.1878L7.90856 15.1885C7.89229 15.2338 7.86665 15.2752 7.83328 15.31C7.79991 15.3449 7.75956 15.3724 7.71483 15.3908C7.6701 15.4091 7.62199 15.418 7.57359 15.4168C7.5252 15.4156 7.4776 15.4043 7.43386 15.3837C7.39013 15.3631 7.35123 15.3336 7.31968 15.2971C7.28813 15.2606 7.26463 15.218 7.25069 15.172C7.23675 15.1259 7.23268 15.0775 7.23875 15.0298C7.24482 14.9821 7.2609 14.9361 7.28593 14.895C7.29891 14.8678 7.31633 14.8284 7.33002 14.8028C7.3863 14.7081 7.44804 14.6167 7.51493 14.5291C7.63662 14.3536 7.74116 14.167 7.82713 13.9717C7.83626 13.9056 7.82556 13.8382 7.79637 13.778L7.85913 13.6286C6.91516 13.0753 6.20769 12.1979 5.87018 11.1621L5.71994 11.1875C5.66164 11.1464 5.5929 11.1224 5.52153 11.1181C5.3159 11.1572 5.11458 11.2161 4.92041 11.2938C4.81957 11.3389 4.71623 11.3782 4.61088 11.4116C4.58599 11.4183 4.55007 11.4252 4.52163 11.4314C4.51931 11.4321 4.51736 11.4332 4.51505 11.4337L4.50971 11.4342C4.46393 11.4492 4.41551 11.4545 4.36754 11.4498C4.31958 11.4451 4.27313 11.4305 4.23117 11.407C4.18921 11.3834 4.15267 11.3514 4.12388 11.313C4.09509 11.2746 4.07469 11.2307 4.06399 11.184C4.05328 11.1373 4.05251 11.0889 4.06172 11.0419C4.07093 10.9949 4.08991 10.9504 4.11746 10.9111C4.14501 10.8718 4.18051 10.8387 4.2217 10.8138C4.26288 10.789 4.30884 10.7729 4.35663 10.7667L4.36161 10.7655L4.36464 10.7646C4.39344 10.7579 4.43042 10.7483 4.45673 10.7434C4.56642 10.7283 4.67689 10.7194 4.7876 10.7169C4.99647 10.7033 5.20351 10.6696 5.40578 10.6161C5.46573 10.5782 5.5164 10.5274 5.55406 10.4675L5.69843 10.4257C5.54173 9.34459 5.79238 8.24409 6.40231 7.33526L6.29172 7.23742C6.28769 7.16635 6.26366 7.09782 6.22238 7.03963C6.06355 6.90401 5.89175 6.78412 5.70945 6.68167C5.61103 6.63183 5.51558 6.57641 5.42356 6.51567C5.40258 6.50013 5.37485 6.47682 5.35209 6.45845L5.34693 6.45492C5.26848 6.39895 5.21553 6.3144 5.19964 6.21977C5.18374 6.12513 5.20621 6.02809 5.26213 5.94986C5.29517 5.90969 5.33727 5.87781 5.38503 5.85683C5.43278 5.83584 5.48485 5.82633 5.53699 5.82907C5.62475 5.83281 5.70899 5.86437 5.77737 5.91913C5.80084 5.93749 5.83302 5.96187 5.85382 5.9797C5.93412 6.05513 6.00998 6.13508 6.08104 6.21917C6.22198 6.37296 6.37769 6.51272 6.54596 6.63646C6.609 6.6694 6.68253 6.6765 6.75078 6.65624C6.77051 6.67072 6.83718 6.71805 6.87523 6.74401C7.48128 6.10418 8.26604 5.65887 9.12874 5.46528C9.33408 5.41904 9.54243 5.38717 9.75226 5.36991L9.76044 5.22511C9.814 5.17786 9.85286 5.11641 9.87245 5.04798C9.87998 4.84014 9.86711 4.63207 9.83404 4.42671C9.8121 4.31909 9.79637 4.2103 9.78693 4.10089C9.78604 4.07599 9.78746 4.04156 9.78782 4.01312C9.78782 4.00995 9.78693 4.00677 9.78693 4.00359C9.782 3.95568 9.78724 3.90727 9.80232 3.8615C9.8174 3.81573 9.84197 3.77361 9.87446 3.73786C9.90694 3.7021 9.94662 3.67352 9.99092 3.65394C10.0352 3.63437 10.0832 3.62424 10.1316 3.62422C10.1801 3.62419 10.2281 3.63427 10.2724 3.6538C10.3167 3.67333 10.3564 3.70187 10.389 3.73759C10.4215 3.77331 10.4461 3.81541 10.4612 3.86116C10.4763 3.90692 10.4816 3.95532 10.4768 4.00324C10.4768 4.03326 10.4785 4.07317 10.4775 4.10072C10.468 4.21008 10.4522 4.31881 10.4302 4.42636C10.3969 4.63176 10.3838 4.83989 10.3911 5.0478C10.4047 5.11732 10.4451 5.1788 10.5038 5.2191C10.505 5.24382 10.5091 5.32647 10.5121 5.37203C11.6024 5.47051 12.6197 5.95871 13.3749 6.74595L13.5062 6.65289C13.5767 6.6649 13.6492 6.65707 13.7154 6.63028C13.8837 6.50631 14.0394 6.36638 14.1803 6.21246C14.2515 6.12833 14.3276 6.04837 14.4081 5.97299C14.4292 5.95498 14.4613 5.93061 14.4845 5.91242C14.5192 5.87851 14.5606 5.85222 14.6061 5.83524C14.6516 5.81826 14.7002 5.81097 14.7487 5.81385C14.7972 5.81674 14.8446 5.82972 14.8877 5.85197C14.9309 5.87422 14.9688 5.90523 14.9991 5.94299C15.0294 5.98075 15.0514 6.02442 15.0636 6.07116C15.0758 6.1179 15.078 6.16666 15.07 6.21429C15.0619 6.26191 15.044 6.30733 15.0171 6.3476C14.9903 6.38787 14.9553 6.42209 14.9143 6.44804C14.8912 6.46658 14.8606 6.49254 14.8383 6.50896C14.7461 6.56974 14.6504 6.62517 14.5517 6.67496C14.3695 6.77747 14.1977 6.89735 14.0388 7.03292C13.9926 7.08674 13.9693 7.1564 13.9741 7.227C13.9549 7.24449 13.8875 7.30382 13.8518 7.33596C14.4634 8.24153 14.719 9.33859 14.5702 10.419L14.7094 10.4592C14.7443 10.5215 14.7958 10.573 14.8583 10.6079C15.0606 10.6615 15.2677 10.6953 15.4766 10.709C15.5873 10.7115 15.6977 10.7203 15.8073 10.7353C15.8363 10.7406 15.8783 10.752 15.9078 10.7588C15.9555 10.765 16.0014 10.7811 16.0425 10.8061C16.0836 10.831 16.1191 10.8641 16.1466 10.9034C16.174 10.9427 16.193 10.9872 16.2021 11.0342C16.2113 11.0812 16.2105 11.1295 16.1998 11.1761C16.1891 11.2228 16.1687 11.2667 16.1399 11.305C16.1111 11.3434 16.0746 11.3754 16.0327 11.3989C15.9907 11.4225 15.9443 11.4371 15.8964 11.4418C15.8485 11.4465 15.8001 11.4412 15.7543 11.4263L15.7494 11.4256C15.747 11.4251 15.7449 11.4238 15.7426 11.4233C15.7142 11.4171 15.6784 11.4109 15.6535 11.4044C15.5482 11.3708 15.4449 11.3312 15.3442 11.2857C15.1498 11.2079 14.9483 11.149 14.7425 11.11C14.6713 11.1077 14.602 11.1333 14.5494 11.1812C14.5005 11.1718 14.4514 11.1632 14.402 11.1556C14.0686 12.1978 13.361 13.0819 12.414 13.6397Z" fill="black"/>
</svg>
