<svg width="78" height="39" viewBox="0 0 78 39" fill="none" xmlns="http://www.w3.org/2000/svg">
<path fill-rule="evenodd" clip-rule="evenodd" d="M20.6533 6.4292C20.4641 6.4292 20.2848 6.47096 20.1251 6.52747C20.469 6.7584 20.6607 7.06303 20.7565 7.41188C20.7638 7.46101 20.7761 7.49295 20.781 7.53962C20.786 7.5863 20.7958 7.62069 20.7958 7.66246C20.8204 8.25944 20.641 8.33314 20.5108 8.6869C20.4185 8.9006 20.379 9.1334 20.3957 9.3656C20.4123 9.5978 20.4847 9.82257 20.6066 10.0209C20.6283 10.0735 20.6555 10.1238 20.6877 10.1707C20.4297 8.45597 21.8595 8.19802 22.1249 7.66492C22.1445 7.17358 21.7564 6.88614 21.4542 6.6675C21.2144 6.51634 20.9367 6.43626 20.6533 6.43657V6.4292ZM22.8078 6.8149C22.7833 6.96967 22.8004 6.93036 22.7931 7.01144L22.7783 7.18832L22.7292 7.35046C22.7142 7.40548 22.6962 7.45961 22.6752 7.5126L22.6015 7.66737C22.5818 7.69194 22.5671 7.72142 22.5474 7.74844L22.5056 7.80986L22.4074 7.94498C22.3656 7.98674 22.3337 8.03342 22.2845 8.06781C22.2354 8.10221 22.2035 8.14888 22.1568 8.18328C22.0143 8.29137 21.8522 8.37244 21.7023 8.47808C21.6532 8.51247 21.604 8.5395 21.5672 8.57635C21.5303 8.6132 21.4787 8.64514 21.4394 8.68444C21.4001 8.72375 21.3584 8.76551 21.3166 8.81219C21.2748 8.85887 21.2429 8.90063 21.2183 8.94731L21.1201 9.0898L21.0464 9.24457L20.9923 9.39934L20.9432 9.57131C20.9358 9.59588 20.9358 9.63273 20.9284 9.65975C20.9211 9.68677 20.9211 9.7138 20.9137 9.74082L20.9063 9.91279C20.9054 9.95387 20.9078 9.99496 20.9137 10.0356C20.9137 10.0897 20.9211 10.1437 20.9334 10.2076C20.9456 10.2715 20.953 10.3157 20.9678 10.3697L21.0218 10.5319C21.0365 10.5663 21.0562 10.6007 21.0709 10.6301L19.5134 10.0258L18.7273 9.82189L18.2998 9.72362C17.892 9.64268 17.4804 9.58201 17.0665 9.54183C16.6521 9.49614 16.2355 9.47318 15.8185 9.47304L14.9341 9.50743C14.5184 9.53731 14.1044 9.58732 13.6935 9.65729L13.3889 9.71134L12.7796 9.84646L12.475 9.92753L12.1802 10.0553L11.9591 10.1535L11.738 10.2616C11.7183 10.269 11.7036 10.2764 11.6888 10.2813L11.4775 10.3894C11.4284 10.409 11.3793 10.4385 11.3424 10.4582C11.3228 10.4729 11.2933 10.4827 11.281 10.4926L11.1041 10.5908C11.0427 10.6252 10.9887 10.6596 10.942 10.6891L10.8069 10.7874L10.6595 10.8955L10.544 10.9937C10.4703 11.0478 10.4359 11.0822 10.4015 11.1092L10.2541 11.2517L10.119 11.3794L10.0035 11.5023C9.98879 11.517 9.96914 11.5268 9.9544 11.544C9.92001 11.5858 9.8807 11.6251 9.83894 11.6669L9.65714 11.8634L9.28864 12.2147C9.16883 12.3216 9.04248 12.4209 8.91031 12.512L8.50249 12.7699C8.36403 12.846 8.2213 12.9141 8.07503 12.9738C7.93254 13.0352 7.78023 13.0893 7.63283 13.136C7.34785 13.1974 7.05796 13.3129 6.80492 13.3325C6.75087 13.3325 6.68946 13.3472 6.63295 13.3522L6.46098 13.3939L6.29884 13.4553C6.24479 13.475 6.19075 13.5045 6.1367 13.529C6.08265 13.5536 6.03843 13.5905 5.9893 13.6273C5.94123 13.6621 5.89605 13.7007 5.85418 13.7428C5.80505 13.7772 5.75591 13.8238 5.71906 13.8656L5.6036 14.0007C5.5692 14.0548 5.5299 14.099 5.50533 14.1555C5.48076 14.212 5.43654 14.2538 5.40706 14.3103L5.33336 14.4872L5.27194 14.664L5.23755 14.8262C5.2179 14.9072 5.2179 14.9883 5.21298 15.0301C5.20807 15.0718 5.19824 15.1185 5.19824 15.1652C5.19824 15.1898 5.19824 15.2266 5.20561 15.2536C5.21298 15.3028 5.22035 15.3421 5.23018 15.3814L5.27931 15.5042C5.29897 15.5534 5.32845 15.5927 5.35301 15.632L5.44145 15.7548L5.55692 15.8629C5.59868 15.9047 5.63799 15.9366 5.68467 15.971C5.84681 16.1135 5.88857 16.1602 6.09739 16.2658C6.13179 16.2855 6.16618 16.3002 6.20549 16.3198C6.23988 16.4181 6.25462 16.4672 6.2669 16.5237C6.27919 16.5803 6.3013 16.6392 6.32095 16.6859L6.375 16.8087L6.47327 16.9905L6.57153 17.133L6.687 17.2608C6.72876 17.3025 6.76807 17.3345 6.81475 17.3762L6.94986 17.4745C6.99736 17.5079 7.04747 17.5375 7.09972 17.5629C7.14886 17.5875 7.19799 17.617 7.25449 17.6366C7.29626 17.6563 7.34294 17.671 7.38961 17.6858C7.43629 17.7005 7.47805 17.7103 7.50508 17.7202C7.48542 18.0887 7.48051 18.4572 7.52964 18.5554C7.59106 18.6906 7.88832 18.2778 8.18804 17.8037C8.14627 18.295 8.11925 18.8208 8.18804 18.9829C8.25682 19.145 8.66955 18.6242 9.02331 18.0395C13.8286 16.9291 18.2113 20.2506 18.6781 24.9379C18.5897 24.2058 17.6881 23.8005 17.2778 23.9012C17.0739 24.4024 16.73 25.046 16.1723 25.4489C16.2205 24.9961 16.1973 24.5385 16.1035 24.0928C15.9561 24.7168 15.6613 25.2966 15.2633 25.8002C14.9529 25.8213 14.6421 25.7656 14.3585 25.6379C14.0748 25.5102 13.827 25.3145 13.637 25.0681C13.6124 25.0485 13.6026 25.0067 13.5829 24.9797L13.5117 24.8126C13.492 24.7635 13.4773 24.7144 13.4699 24.6701C13.4626 24.6259 13.4626 24.5719 13.4626 24.5227V24.4245C13.4699 24.3753 13.4822 24.3262 13.497 24.282L13.5461 24.1395C13.5707 24.0904 13.5952 24.0412 13.6272 23.997C13.7426 23.6727 13.7426 23.4074 13.5289 23.2526C13.4871 23.2281 13.4478 23.2035 13.4011 23.1838C13.3766 23.1765 13.3397 23.1642 13.3127 23.1593L13.2587 23.1396L13.1162 23.1052C13.0698 23.0921 13.0219 23.0854 12.9737 23.0856C12.9241 23.0773 12.874 23.0723 12.8238 23.0708C12.7894 23.0708 12.755 23.0782 12.7255 23.0782C12.6715 23.0782 12.6273 23.0856 12.5781 23.0979L12.4357 23.1224L12.2932 23.1716L12.1581 23.233L12.0303 23.3018C10.4507 24.3336 11.3916 26.7411 12.4725 27.4437C12.0647 27.5174 11.652 27.6059 11.539 27.6943C11.8166 27.8835 12.1212 28.0334 12.4406 28.1857L13.5387 28.51C14.0994 28.6302 14.6738 28.6732 15.2461 28.6377C18.2482 28.4264 20.7098 26.1442 21.1569 23.1347L21.1987 23.3116L21.2601 23.6899C21.2748 23.7587 21.2798 23.8177 21.2847 23.8717L21.2994 24.0756L21.3141 24.2967V24.4048C21.3141 24.4392 21.3215 24.4785 21.3215 24.5129C21.3215 24.5473 21.3141 24.594 21.3141 24.6357V24.734C21.3141 24.7832 21.3068 24.8225 21.3068 24.8691C21.3068 24.8937 21.3068 24.9232 21.2994 24.9576L21.292 25.105C21.2847 25.1246 21.2847 25.1467 21.2847 25.1664L21.265 25.3212C21.265 25.3408 21.265 25.3629 21.2576 25.3826L21.2331 25.5791V25.5914L21.1913 25.7806L21.1495 25.9845L21.0415 26.4021L20.9727 26.6183L20.8253 27.0114L20.7442 27.2079L20.6459 27.3971C20.6386 27.4167 20.6312 27.4315 20.6263 27.4462C20.1745 28.351 19.5175 29.1376 18.7076 29.7432C18.6535 29.7776 18.5995 29.8169 18.5455 29.8587C18.5307 29.8734 18.5111 29.8783 18.4963 29.8931L18.3489 29.9913L18.3686 30.0331H18.3759L18.6609 29.9913H18.6683L19.1965 29.8931C19.2456 29.8857 19.2947 29.8734 19.3439 29.8587L19.4421 29.839L19.5846 29.8145L19.7075 29.7801C20.379 29.6163 21.0363 29.3986 21.6728 29.129C20.584 30.6128 19.1359 31.7955 17.4645 32.566C18.247 32.5141 19.0219 32.3799 19.7763 32.1655C22.5081 31.3597 24.8051 29.5221 26.1809 27.0482C25.9032 28.6131 25.2792 30.1043 24.358 31.4064C25.0164 30.9716 25.6183 30.4729 26.1686 29.9029C27.6868 28.3159 28.6842 26.3038 29.0183 24.142C29.2493 25.2131 29.3131 26.3186 29.2149 27.4094C34.1086 20.5847 29.6227 13.5094 27.7409 11.6448C27.7163 11.6939 27.7065 11.7725 27.7015 11.856L27.6328 12.3105L27.5173 12.7576L27.3552 13.1925L27.1512 13.6052L26.9056 13.9909L26.628 14.3594C26.5297 14.4822 26.4167 14.5903 26.3086 14.6984L26.1121 14.8704L25.9573 15.0055C25.8367 15.1016 25.7104 15.1902 25.579 15.2708L25.1785 15.5018L24.7511 15.6909C24.6069 15.7455 24.4601 15.7931 24.3113 15.8334L23.8568 15.9317C23.7021 15.9563 23.5448 15.9735 23.395 15.9857L23.0707 16.0005C22.9159 16.0005 22.7587 15.9857 22.6088 15.9759C22.4535 15.9644 22.2992 15.9423 22.147 15.9096C21.9922 15.885 21.8423 15.8408 21.6925 15.7941H21.6851L22.1322 15.7401L22.5867 15.6418L23.0289 15.4993C23.1763 15.4453 23.3237 15.3765 23.4564 15.3101C23.5959 15.2423 23.732 15.1677 23.8642 15.0866L24.2425 14.8409C24.3642 14.7467 24.4799 14.6449 24.5889 14.5363C24.7022 14.4325 24.8088 14.3217 24.9083 14.2046L25.1933 13.8361C25.208 13.8165 25.2178 13.787 25.235 13.7673L25.4316 13.4431L25.6355 13.0303L25.7976 12.5955C25.8467 12.453 25.8787 12.3007 25.9131 12.1533L25.9819 11.6988L26.0064 11.2369L25.9941 10.9127L25.9401 10.4582L25.8418 10.0037L25.6944 9.56885C25.6404 9.42636 25.5716 9.28388 25.5053 9.15121L25.2743 8.75077L25.0287 8.37736L24.7167 8.03342L24.5398 7.86145L23.5989 7.19814C23.5497 7.17358 23.5104 7.14901 23.4638 7.12936C23.2427 6.98687 23.0289 6.91317 22.8201 6.84438L22.8078 6.8149Z" fill="black"/>
<path d="M36.374 24.0903C36.5313 24.0155 36.6971 23.9602 36.8678 23.9257C37.2486 23.8643 37.4648 23.8127 37.5262 23.7709C37.6294 23.7095 37.6982 23.6235 37.7326 23.5449C37.7743 23.3975 37.794 23.1027 37.794 22.6286V21.7319L37.8038 20.9998L37.7719 19.9065V19.2604C37.7719 18.8281 37.7399 18.4669 37.6687 18.1991C37.649 18.096 37.5557 17.9928 37.4107 17.8896C37.2142 17.7422 36.9194 17.612 36.433 17.4769L36.4232 16.9855L36.659 16.9364C36.7327 16.9266 37.0103 16.8529 37.4943 16.73L38.2264 16.4426L38.3983 16.3493C38.4862 16.2744 38.579 16.2055 38.6759 16.1429C38.9535 15.9241 39.2028 15.6716 39.4179 15.3911L39.9633 15.3494L39.9436 16.5139C39.9338 16.6269 39.9338 16.7202 39.9338 16.7915L39.9436 17.2656C40.5209 16.7743 41.0368 16.4303 41.511 16.2338C42.0609 15.9909 42.6541 15.8614 43.2552 15.853C43.8606 15.8408 44.4559 16.0093 44.9651 16.337C45.4466 16.6563 45.7758 17.0248 45.9478 17.4425C46.1197 17.8601 46.1738 18.72 46.1738 19.9876L46.132 23.368C46.1297 23.5029 46.1583 23.6365 46.2155 23.7586C46.398 23.8422 46.5931 23.8945 46.7929 23.9134L47.2989 24.0068C47.3633 24.1042 47.3959 24.2192 47.3923 24.336L47.3825 24.675L45.3532 24.5276L44.7563 24.5472H44.2821L42.9113 24.6504H42.56C42.5501 24.5571 42.5501 24.4956 42.5501 24.4441L42.5698 24.0412C42.6632 24.0215 42.9088 23.992 43.2921 23.938C43.3953 23.9282 43.5083 23.8962 43.6434 23.8643C43.7785 23.8151 43.8596 23.7513 43.8792 23.6997C43.9284 23.5768 43.9627 23.3607 43.9627 23.029L43.9431 21.6901L43.9529 20.4937C43.9529 19.0295 43.8694 18.123 43.7073 17.7741C43.4616 17.2484 43.0489 16.988 42.5231 16.988C42.107 16.9978 41.6983 17.1001 41.3267 17.2877C40.8542 17.5189 40.42 17.8213 40.0394 18.1844L40.0198 18.3564L40.0394 19.0049L40.0296 19.6928L40.0713 21.3511L40.0517 21.609C40.0517 22.7317 40.0935 23.3705 40.1868 23.5154C40.2802 23.6604 40.6192 23.8151 41.2186 23.9896L41.2506 24.2475C41.2506 24.331 41.2186 24.4539 41.1769 24.6283L40.6315 24.6381C40.4036 24.6312 40.1764 24.6107 39.951 24.5767L38.816 24.5669L36.4256 24.6406C36.397 24.5722 36.3828 24.4986 36.3839 24.4244L36.3937 24.0952L36.374 24.0903ZM48.5445 19.1622C48.7287 18.5726 48.8835 18.1844 49.0285 17.9977C49.4092 17.4327 49.822 17.015 50.2568 16.6711C50.6916 16.3271 51.0921 16.1453 51.4409 16.0422C51.8011 15.9259 52.1756 15.8598 52.5538 15.8456C53.0807 15.8313 53.6073 15.8833 54.1212 16.0004C54.4813 16.0764 54.8239 16.2198 55.1309 16.423C55.47 16.6573 55.7808 16.9302 56.057 17.2361C56.2996 17.528 56.4914 17.8585 56.6245 18.2139C56.789 18.6448 56.8763 19.1014 56.8825 19.5626L55.7279 19.543C55.0304 19.5269 54.3333 19.4958 53.6372 19.4496L52.8118 19.4078L51.6989 19.4177H50.8022L50.7825 19.6633C50.7825 20.0318 50.8317 20.4151 50.9176 20.8278C51.0036 21.2405 51.1437 21.5796 51.3205 21.8891C51.4955 22.1883 51.7226 22.4537 51.9912 22.6728C52.2369 22.8988 52.5366 23.0536 52.8167 23.1567L53.4136 23.3533L54.4848 23.3042C54.7801 23.2438 55.0694 23.1575 55.3495 23.0462C55.6725 22.8918 55.9795 22.7058 56.2659 22.491L56.8948 22.9823C56.288 23.6407 55.6468 24.137 54.9982 24.4563C54.3496 24.7757 53.6176 24.8985 52.7872 24.8985C52.2418 24.8985 51.7971 24.8568 51.4483 24.7511C51.0032 24.635 50.5812 24.4439 50.2003 24.1861C49.8273 23.9207 49.4961 23.6011 49.2176 23.2378C48.9228 22.8693 48.7435 22.464 48.6108 22.0635C48.4462 21.5378 48.3529 21.1152 48.3529 20.8057C48.3475 20.2592 48.3968 19.7135 48.5003 19.1769L48.5445 19.1622ZM54.5634 18.72C54.5535 18.3269 54.4799 17.9682 54.3374 17.6071C54.1949 17.2459 53.9689 16.988 53.6569 16.7964C53.3875 16.6086 53.0688 16.5043 52.7405 16.4967C52.2492 16.4967 51.8635 16.703 51.4827 17.1035C51.1019 17.5039 50.9054 18.0861 50.8538 18.7617L53.2122 18.7716L53.8509 18.7396L54.2833 18.7077L54.5609 18.7175L54.5634 18.72ZM58.4941 21.722C58.6435 21.6881 58.7956 21.6676 58.9486 21.6606L59.1648 21.6704L59.2581 21.7736L60 22.97C60.2359 23.2476 60.4742 23.4761 60.737 23.6505C60.8918 23.7537 61.1399 23.8766 61.479 23.9896C61.714 24.0729 61.9617 24.1145 62.2111 24.1124C62.6213 24.1229 63.0198 23.9751 63.3239 23.6997C63.6335 23.4122 63.8153 23.1101 63.8153 22.7833C63.8153 22.5671 63.7539 22.3804 63.6433 22.2281C63.5328 22.0758 63.292 21.9186 62.9432 21.7368C62.7712 21.6631 62.3364 21.5402 61.6337 21.3683L60.4349 21.0293C60.1178 20.9109 59.8248 20.7361 59.5701 20.5133C59.3283 20.3049 59.1318 20.049 58.9928 19.7616C58.8208 19.3685 58.7471 19.0295 58.7471 18.7789C58.7471 18.2532 58.8307 17.8306 58.9731 17.4916C59.1298 17.1567 59.35 16.8555 59.6217 16.6047C59.8182 16.4082 60.113 16.2362 60.5184 16.079C60.9325 15.9209 61.3723 15.841 61.8155 15.8432C62.3958 15.8354 62.9755 15.8806 63.5475 15.9783C63.9838 16.052 64.4074 16.1876 64.8053 16.3812C64.8545 16.536 64.9085 16.9069 64.9896 17.4744L65.1026 18.4939C65.1026 18.5431 65.0928 18.5971 65.0707 18.6487C64.9235 18.6963 64.7707 18.7244 64.6162 18.7322C64.5547 18.7322 64.4516 18.7224 64.3165 18.7126C64.2283 18.5721 64.1464 18.4278 64.0708 18.2802C63.7416 17.6611 63.4001 17.2287 63.0513 16.9831C62.7024 16.7374 62.3093 16.6023 61.8229 16.6023C61.3365 16.6023 60.9459 16.7497 60.6265 17.015C60.5096 17.1173 60.4173 17.2446 60.3564 17.3876C60.2956 17.5305 60.2678 17.6853 60.2752 17.8405C60.2752 18.0665 60.398 18.295 60.6437 18.5283C60.8894 18.7617 61.3021 18.9509 61.9015 19.0737C62.8105 19.2703 63.4787 19.4766 63.9013 19.6707C64.5204 19.9581 64.9626 20.3094 65.2107 20.7025C65.4588 21.0956 65.5915 21.5476 65.5915 22.0635C65.5915 22.8669 65.2819 23.5375 64.6751 24.0731C64.0683 24.6087 63.2011 24.8666 62.0366 24.8666C61.6407 24.8479 61.2457 24.8134 60.8525 24.7634C60.5651 24.7315 60.2236 24.6602 59.833 24.5571C59.5749 24.4683 59.3208 24.3683 59.0714 24.2573C59.007 24.2201 58.9509 24.1699 58.9068 24.1099C58.8872 24.0485 58.8331 23.7586 58.7717 23.2452L58.5997 21.7294L58.4941 21.722ZM66.9844 16.7743C67.7951 16.4352 68.3847 16.0938 68.7459 15.7916C69.107 15.4894 69.4976 14.9145 69.9103 14.1702H70.4999C70.5618 14.353 70.5934 14.5447 70.5933 14.7377L70.5835 15.5828L70.5515 16.1896L70.5614 16.4254L70.7972 16.4352L71.7651 16.3935L72.539 16.3738C72.58 16.5355 72.6038 16.701 72.6102 16.8676C72.6102 17.0322 72.5783 17.2189 72.5267 17.4228C72.3559 17.4483 72.1835 17.4622 72.0108 17.4646C71.9617 17.4646 71.8462 17.4646 71.6816 17.4449H71.1461L70.9593 17.4351L70.468 17.4548L70.4484 21.3855L70.4901 22.8177C70.5339 23.0148 70.6185 23.2006 70.7382 23.3631C70.903 23.4391 71.0825 23.4777 71.264 23.4761C71.4482 23.4761 71.5833 23.4565 71.6767 23.427C71.7701 23.3975 71.9224 23.2919 72.1312 23.1273C72.173 23.0855 72.2442 23.0437 72.3277 22.9799C72.4819 23.0913 72.6207 23.2227 72.7404 23.3705L72.7822 23.4933C72.5287 23.8817 72.1724 24.1921 71.7529 24.39C71.3205 24.6062 70.8562 24.7094 70.3624 24.7094C69.7138 24.7094 69.1979 24.503 68.795 24.1026C68.3921 23.7021 68.198 23.0609 68.198 22.206L68.2398 20.393V17.4425L67.9204 17.4327L67.1687 17.4425L67.0336 17.4105C66.9954 17.3612 66.9739 17.301 66.9721 17.2386L66.9918 16.7472L66.9844 16.7743Z" fill="black"/>
</svg>
