<svg width="66" height="13" viewBox="0 0 66 13" fill="none" xmlns="http://www.w3.org/2000/svg">
<g clip-path="url(#clip0_161_10)">
<path d="M55.3708 0.005375V2.06287H50.8105V12.8875H48.5301V2.063H43.8748V0.005375H55.3708ZM55.8834 11.6604C56.0441 11.6604 56.1846 11.7164 56.3035 11.8286C56.4242 11.9407 56.4843 12.0751 56.4859 12.2316C56.4855 12.3343 56.4561 12.4349 56.4009 12.5225C56.3465 12.6088 56.2705 12.6804 56.1799 12.7306C56.0904 12.7827 55.9878 12.8097 55.8834 12.8089C55.7164 12.8089 55.5743 12.7527 55.4555 12.6406C55.3365 12.5284 55.2776 12.3925 55.2791 12.2316C55.2777 12.0751 55.3364 11.9408 55.4555 11.8286C55.5743 11.7164 55.7164 11.6604 55.8834 11.6604ZM10.6884 12.8875L2.28035 2.7535V12.8822H0V0H2.85025L13.4729 12.7911L13.473 2.063L13.4721 0.005375H24.968V2.06287H15.7532V5.37287H23.1638V7.4305H15.7532V10.83H24.9681V12.8875H10.6884ZM32.2762 7.41087L33.7706 9.2125L30.7084 12.9027H27.7159L32.2762 7.41087ZM30.7084 0.01075L34.5666 4.657L38.4126 0.025L41.3968 0.020625L36.0606 6.45625L41.4055 12.8929H38.4126L27.7244 0.01075H30.7084ZM59.7752 7.382H60.7856V11.157C60.7842 11.5039 60.7067 11.8005 60.5555 12.0501C60.4025 12.2995 60.1907 12.49 59.919 12.6244C59.6485 12.7571 59.3318 12.8251 58.9718 12.8251C58.6427 12.8251 58.3477 12.7676 58.085 12.6554C57.8223 12.5431 57.6139 12.3749 57.4609 12.1534C57.3062 11.932 57.2305 11.6559 57.2305 11.3252H58.2427C58.2442 11.4699 58.2781 11.5952 58.343 11.7002C58.4068 11.8039 58.5002 11.8874 58.6119 11.9407C58.7277 11.997 58.8605 12.0251 59.0103 12.025C59.1727 12.025 59.3117 11.9925 59.4245 11.926C59.5372 11.861 59.6238 11.7636 59.6841 11.6337C59.7428 11.5052 59.7737 11.3459 59.7752 11.1569V7.382ZM64.9431 8.85825C64.9186 8.6295 64.8103 8.45075 64.6219 8.32387C64.4317 8.19537 64.1862 8.132 63.8848 8.132C63.6734 8.132 63.491 8.163 63.3395 8.2235C63.1882 8.2855 63.0707 8.36812 62.9903 8.473C62.9101 8.57775 62.8699 8.69737 62.8667 8.83175C62.8667 8.94387 62.8945 9.04137 62.9485 9.1225C63.0045 9.20761 63.0802 9.27891 63.1695 9.33075C63.2665 9.38988 63.3702 9.43791 63.4786 9.47387C63.5929 9.51221 63.7072 9.54471 63.8215 9.57137L64.3483 9.69687C64.5601 9.74412 64.7656 9.8075 64.9618 9.88875C65.1579 9.9685 65.3356 10.0704 65.4916 10.1929C65.6477 10.3154 65.7714 10.463 65.8625 10.6357C65.9536 10.8085 66 11.0107 66 11.244C66 11.5584 65.9166 11.8345 65.7481 12.0736C65.5798 12.3114 65.3372 12.4974 65.0189 12.6317C64.7022 12.7646 64.3189 12.8325 63.8679 12.8325C63.4322 12.8325 63.0522 12.7675 62.7322 12.6376C62.411 12.5092 62.1607 12.3201 61.9798 12.0721C61.7989 11.8241 61.7018 11.5215 61.6878 11.1657H62.6892C62.703 11.3517 62.7648 11.5067 62.8699 11.6322C62.9764 11.7562 63.1155 11.8477 63.2855 11.9097C63.4569 11.9704 63.6485 12.0014 63.8602 12.0014C64.0811 12.0014 64.2757 11.9689 64.4441 11.9054C64.611 11.8419 64.7423 11.7534 64.8366 11.6381C64.9324 11.5244 64.9804 11.3901 64.9819 11.2366C64.9804 11.0964 64.9369 10.9797 64.8535 10.8881C64.7685 10.7966 64.6511 10.7199 64.5012 10.6579C64.35 10.5959 64.1738 10.5397 63.9729 10.4911L63.3333 10.3346C62.8713 10.2209 62.5052 10.0482 62.2379 9.81637C61.9691 9.58462 61.8362 9.27762 61.8362 8.89225C61.8362 8.57637 61.9258 8.29875 62.1066 8.061C62.2858 7.8235 62.5315 7.63887 62.8421 7.5075C63.154 7.37462 63.5064 7.30962 63.8987 7.30962C64.2974 7.30962 64.6465 7.37462 64.9479 7.5075C65.249 7.63887 65.4855 7.82187 65.6569 8.05512C65.8284 8.2885 65.9181 8.55562 65.9228 8.85825H64.9431Z" fill="black"/>
</g>
<defs>
<clipPath id="clip0_161_10">
<rect width="66" height="13" fill="white"/>
</clipPath>
</defs>
</svg>
