<svg width="78" height="22" viewBox="0 0 78 22" fill="none" xmlns="http://www.w3.org/2000/svg">
<g clip-path="url(#clip0_161_13)">
<path d="M12.2742 11.7386C12.2742 11.5 12.1489 11.2809 11.9435 11.1625L6.4675 8.00262C6.37482 7.94802 6.27098 7.91956 6.16592 7.91528C6.15649 7.91528 6.11703 7.91528 6.10932 7.91528C6.00475 7.91956 5.90083 7.94793 5.807 8.00262L0.331109 11.1625C0.126965 11.2808 0 11.5 0 11.7386L0.0119747 20.2476C0.0119747 20.3663 0.0733247 20.4763 0.177078 20.5339C0.278699 20.5954 0.404434 20.5954 0.505563 20.5339L3.75998 18.6653C3.96585 18.5427 4.09109 18.3264 4.09109 18.0899V14.1149C4.09109 13.8781 4.21625 13.6582 4.42138 13.5409L5.80717 12.7407C5.91051 12.6805 6.02329 12.6512 6.13869 12.6512C6.25146 12.6512 6.36727 12.6804 6.46766 12.7407L7.85296 13.5409C8.05792 13.6584 8.18358 13.8781 8.18358 14.1149V18.0899C8.18358 18.3264 8.31054 18.5444 8.5151 18.6653L11.7685 20.5339C11.8706 20.5954 11.998 20.5954 12.0993 20.5339C12.2001 20.4763 12.2635 20.3661 12.2635 20.2476L12.2742 11.7386Z" fill="#010101"/>
<path d="M41.5148 0.042004C41.4117 -0.0152363 41.2875 -0.0139204 41.1852 0.0456226C41.0849 0.105166 41.0223 0.213972 41.0223 0.331577V8.75815C41.0223 8.84097 40.9786 8.9177 40.9074 8.95923C40.8353 9.00076 40.747 9.00076 40.6751 8.95923L39.3041 8.16692C39.0991 8.04865 38.8473 8.0489 38.6431 8.16708L33.1648 11.3371C32.9601 11.4556 32.834 11.6746 32.834 11.9115V18.2529C32.834 18.4898 32.9601 18.7087 33.1645 18.8273L38.6423 21.9998C38.8473 22.1183 39.0995 22.1183 39.304 21.9998L44.7827 18.8274C44.9878 18.7087 45.1138 18.4899 45.1138 18.2529V2.44535C45.1138 2.20496 44.9842 1.98324 44.7742 1.86604L41.5148 0.042004ZM41.0061 16.1694C41.0061 16.2288 40.9745 16.2834 40.9237 16.313L39.0426 17.3999C38.9915 17.4294 38.9289 17.4294 38.8779 17.3999L36.9968 16.313C36.9456 16.2834 36.914 16.2288 36.914 16.1694V13.9916C36.914 13.9323 36.9455 13.8776 36.9967 13.848L38.8774 12.7587C38.929 12.729 38.9916 12.729 39.0431 12.7587L40.9241 13.848C40.9747 13.8776 41.0064 13.9323 41.0064 13.9916L41.0061 16.1694Z" fill="#010101"/>
<path d="M61.1128 13.9349C61.3168 13.8161 61.4421 13.5975 61.4421 13.3611V11.8247C61.4421 11.5882 61.3171 11.3694 61.1128 11.2507L55.6702 8.08191C55.4653 7.9625 55.2122 7.96233 55.0072 8.08109L49.5313 11.2512C49.3262 11.3697 49.2002 11.5886 49.2002 11.8256V18.1653C49.2002 18.4036 49.3281 18.6237 49.5348 18.7416L54.9764 21.8509C55.1771 21.966 55.4232 21.967 55.6247 21.8549L58.9169 20.0202C59.0216 19.9616 59.0868 19.8522 59.0868 19.7325C59.0877 19.6129 59.0241 19.5023 58.9211 19.4426L53.4101 16.2711C53.3071 16.2122 53.2437 16.102 53.2437 15.9835V13.9966C53.2437 13.8783 53.307 13.7687 53.4094 13.7094L55.1249 12.7176C55.2268 12.6587 55.353 12.6587 55.455 12.7176L57.1704 13.7094C57.2735 13.7688 57.3362 13.8785 57.3362 13.9966V15.5598C57.3362 15.6785 57.3995 15.7882 57.5025 15.8477C57.6046 15.9066 57.7307 15.9061 57.8336 15.8465L61.1128 13.9349Z" fill="#010101"/>
<path d="M22.2357 8.04781C22.4403 7.92938 22.6925 7.92938 22.897 8.04781L28.3746 11.2174C28.5794 11.3357 28.7054 11.5548 28.7054 11.7919V18.1358C28.7054 18.3728 28.5794 18.5915 28.3747 18.7102L22.8973 21.8823C22.6926 22.0009 22.4404 22.0009 22.2356 21.8823L16.7593 18.7102C16.5548 18.5915 16.4287 18.3727 16.4287 18.1358V11.7916C16.4287 11.5546 16.5549 11.3357 16.7596 11.2174L22.2357 8.04781Z" fill="#010101"/>
<path d="M71.7487 21.9725C71.5599 21.9725 71.3722 21.923 71.2074 21.8271L69.4824 20.8041C69.225 20.6599 69.3511 20.6088 69.4362 20.5793C69.7792 20.4598 69.8488 20.4321 70.2158 20.2236C70.2535 20.2015 70.3042 20.2103 70.3438 20.2331L71.6689 21.0218C71.717 21.0488 71.7846 21.0488 71.8285 21.0218L76.9939 18.0323C77.042 18.0048 77.0729 17.9497 77.0729 17.8926V11.9157C77.0729 11.8573 77.042 11.8023 76.9923 11.7731L71.8295 8.78628C71.7825 8.75832 71.7188 8.75832 71.6709 8.78628L66.5087 11.774C66.4591 11.8025 66.4275 11.8592 66.4275 11.916V17.8928C66.4275 17.9499 66.4591 18.0039 66.5087 18.031L67.9232 18.851C68.691 19.2356 69.161 18.7822 69.161 18.3269V12.4261C69.161 12.3426 69.2278 12.2764 69.3112 12.2764H69.9664C70.0479 12.2764 70.1157 12.3427 70.1157 12.4261V18.3267C70.1157 19.3541 69.5581 19.9432 68.5863 19.9432C68.2878 19.9432 68.0527 19.9432 67.3965 19.6193L66.0422 18.837C65.7077 18.6434 65.501 18.2804 65.501 17.8927V11.9158C65.501 11.527 65.7077 11.1647 66.0422 10.9718L71.2077 7.979C71.5344 7.79362 71.9685 7.79362 72.2928 7.979L77.4573 10.9718C77.7919 11.1655 78.0003 11.5271 78.0003 11.9158V17.8927C78.0003 18.2807 77.7919 18.6418 77.4573 18.837L72.2928 21.8269C72.1278 21.923 71.9399 21.9725 71.7487 21.9725Z" fill="#010101"/>
<path d="M73.344 17.8548C71.0837 17.8548 70.6104 16.8146 70.6104 15.9423C70.6104 15.8589 70.6772 15.7928 70.7595 15.7928H71.4277C71.5022 15.7928 71.564 15.8469 71.576 15.9196C71.6763 16.6013 71.9775 16.9458 73.3439 16.9458C74.4323 16.9458 74.8957 16.699 74.8957 16.1201C74.8957 15.7862 74.7644 15.5386 73.0728 15.3722C71.66 15.2324 70.7861 14.9188 70.7861 13.7854C70.7861 12.7407 71.6645 12.1172 73.1373 12.1172C74.7919 12.1172 75.6101 12.693 75.714 13.9286C75.7183 13.9714 75.7027 14.0124 75.6745 14.0437C75.6462 14.0733 75.6068 14.0914 75.5658 14.0914H74.8948C74.8253 14.0914 74.7643 14.0419 74.7498 13.9744C74.5895 13.2575 74.1982 13.0283 73.1373 13.0283C71.9493 13.0283 71.8111 13.4433 71.8111 13.7537C71.8111 14.1304 71.9741 14.2401 73.578 14.4529C75.1651 14.6636 75.919 14.9613 75.919 16.0803C75.9191 17.2089 74.9807 17.8548 73.344 17.8548Z" fill="#010101"/>
<path d="M55.2579 13.6378C55.2972 13.6151 55.3451 13.6151 55.3847 13.6378L56.4362 14.2458C56.4757 14.2686 56.4997 14.3103 56.4997 14.3561V15.5735C56.4997 15.6187 56.4756 15.6608 56.4362 15.6837L55.3847 16.2917C55.3453 16.3144 55.2974 16.3144 55.2579 16.2917L54.2078 15.6837C54.1684 15.6609 54.1445 15.6187 54.1445 15.5735V14.3562C54.1445 14.3104 54.1685 14.2689 54.2078 14.2459L55.2579 13.6378Z" fill="#010101"/>
</g>
<defs>
<clipPath id="clip0_161_13">
<rect width="78" height="22" fill="white"/>
</clipPath>
</defs>
</svg>
