<svg width="78" height="29" viewBox="0 0 78 29" fill="none" xmlns="http://www.w3.org/2000/svg">
<path d="M75.1968 18.1766H69.7915V10.5244H70.5368V17.5346H75.207V18.1766M69.2125 18.3469L68.7211 18.8901L67.5541 17.8959C67.3078 18.0557 67.0043 18.1766 66.6513 18.2572C66.2983 18.3572 65.8857 18.378 65.4146 18.378C64.1982 18.378 63.237 18.0063 62.5399 17.2734C61.8326 16.53 61.4898 15.5552 61.4898 14.3505C61.4898 13.1145 61.8326 12.1411 62.5297 11.4172C63.2268 10.6842 64.1779 10.3229 65.3956 10.3229C66.0228 10.3229 66.5828 10.423 67.0729 10.614C67.563 10.8051 67.9757 11.1066 68.3185 11.4978C68.9661 12.2113 69.2899 13.1652 69.2899 14.3505C69.2899 15.0133 69.1921 15.6059 68.9966 16.1076C68.7998 16.6105 68.4963 17.042 68.0836 17.3929L69.2125 18.3469ZM68.5255 14.3505C68.5255 13.828 68.4265 13.3667 68.3185 12.9547C68.1845 12.548 67.9632 12.1772 67.671 11.8695C67.1224 11.247 66.3669 10.935 65.4044 10.935C64.4534 10.935 63.6877 11.2366 63.1189 11.8292C62.5399 12.4322 62.2554 13.2757 62.2554 14.3505C62.2554 15.385 62.5399 16.2181 63.1189 16.8406C63.7068 17.454 64.4623 17.7646 65.4044 17.7646C65.8666 17.7646 66.278 17.6645 66.6513 17.5437C67.0234 17.4033 67.3573 17.1824 67.6519 16.8913C68.2411 16.2687 68.5255 15.4253 68.5255 14.3505ZM61.3526 16.1284C61.3526 17.6243 60.3711 18.3676 58.4093 18.3676C57.231 18.3676 56.3676 18.1168 55.8279 17.6048C55.386 17.1824 55.1613 16.5391 55.1613 15.6761H55.9562C55.9562 17.0615 56.7701 17.7646 58.4093 17.7646C59.1941 17.7646 59.7527 17.6139 60.1057 17.3227C60.4003 17.0823 60.5476 16.6898 60.5476 16.1479C60.5476 15.6163 60.3521 15.2446 59.9496 15.0328C59.7134 14.9132 59.1648 14.7716 58.2709 14.6013C57.1624 14.3908 56.4361 14.1802 56.1035 13.9684C55.6222 13.6669 55.386 13.1457 55.386 12.4218C55.386 11.7291 55.593 11.2171 55.9955 10.8961C56.4361 10.5244 57.1828 10.3437 58.2519 10.3437C60.1756 10.3437 61.1469 11.1261 61.1469 12.6831H60.3419C60.3419 11.5186 59.6258 10.935 58.2024 10.935C57.4862 10.935 56.9567 11.0455 56.6228 11.2872C56.3092 11.5381 56.1517 11.8994 56.1517 12.3919C56.1517 12.8936 56.3574 13.2562 56.7599 13.4667C56.9758 13.5876 57.6043 13.7578 58.6544 13.9684C59.6448 14.149 60.3026 14.3609 60.6555 14.6013C61.1165 14.8924 61.3526 15.4045 61.3526 16.1284ZM54.4058 15.8464H50.5978C50.5978 16.3285 50.7362 16.7106 50.9901 17.0121C51.2847 17.363 51.7164 17.5437 52.2662 17.5437C53.0611 17.5437 53.5512 17.1824 53.7481 16.4598H54.3271C54.2293 16.8705 54.0325 17.2227 53.7087 17.5034C53.5322 17.6541 53.3163 17.7646 53.0713 17.8452C52.8262 17.9453 52.5608 17.9765 52.2764 17.9765C51.5603 17.9765 51.0003 17.7555 50.5978 17.3032C50.2346 16.9108 50.0581 16.3792 50.0581 15.6956C50.0581 15.0237 50.2448 14.5012 50.6283 14.1087C51.0105 13.7176 51.5399 13.5161 52.2269 13.5161C52.6002 13.5161 52.924 13.6175 53.1983 13.6877C53.4738 13.7877 53.7087 13.958 53.8954 14.1802C54.2293 14.5818 54.4058 15.1433 54.4058 15.8464ZM53.8458 15.4656C53.8458 15.0731 53.6896 14.7118 53.3849 14.3908C53.0903 14.0789 52.7081 13.919 52.2269 13.919C51.992 13.919 51.766 13.919 51.5793 14.0295C51.3838 14.1295 51.2073 14.2192 51.06 14.37C50.8238 14.6312 50.6664 14.9925 50.5978 15.4656H53.8458ZM50.0188 14.0685H49.5782C48.6944 14.0685 48.2627 14.652 48.2627 15.8269V17.8556H47.7332V13.6981H48.2627V14.4402C48.3617 14.149 48.4887 13.9281 48.6855 13.7773C48.9014 13.637 49.215 13.5668 49.6366 13.5668H49.9896V14.1087M46.9282 17.6944C46.9282 18.9603 46.2324 19.5867 44.8382 19.5867C44.1119 19.5867 43.6027 19.4697 43.2878 19.2215C43.0237 19.0097 42.8662 18.6783 42.8078 18.2065H43.3564C43.4554 18.5483 43.5341 18.7887 43.7005 18.92C43.9265 19.1006 44.2985 19.1916 44.8293 19.1916C45.388 19.1916 45.7803 19.0603 46.0254 18.7991C46.2717 18.5379 46.3987 18.1766 46.3987 17.6944V16.951C46.0647 17.4943 45.4959 17.7555 44.6909 17.7555C44.0242 17.7555 43.5138 17.5736 43.1405 17.2032C42.9742 17.0121 42.8472 16.7912 42.7583 16.53C42.6605 16.2687 42.6313 15.9672 42.6313 15.6358C42.6313 14.9626 42.8078 14.4506 43.1507 14.0997C43.5138 13.7072 44.0433 13.5161 44.7404 13.5161C45.2115 13.5161 45.6038 13.6175 45.8984 13.8176C45.9962 13.919 46.1638 14.0789 46.3987 14.37V13.6474H46.9282V17.6944ZM46.3987 15.6163C46.3987 15.1134 46.2616 14.7118 45.986 14.4207C45.7219 14.1191 45.3296 13.9684 44.7988 13.9684C44.2896 13.9684 43.877 14.1087 43.5925 14.4103C43.3081 14.7014 43.171 15.1134 43.171 15.6358C43.171 16.76 43.7297 17.3227 44.8382 17.3227C45.0832 17.3227 45.2991 17.3227 45.4857 17.2123C45.6724 17.1122 45.84 17.0212 45.986 16.8705C46.2616 16.5794 46.3987 16.1583 46.3987 15.6163ZM42.5818 17.8348H42.1894C41.8161 17.8348 41.5419 17.7347 41.3743 17.6347C41.2079 17.4943 41.1203 17.263 41.1203 16.9212V14.0295H40.4232V13.5967H41.1102V12.2217H41.6396V13.6071H42.5716V14.0386H41.6396V16.851C41.6396 17.0615 41.7374 17.2032 41.7768 17.2825C41.8758 17.3838 42.032 17.4033 42.2682 17.4033H42.5615V17.8452M40.0397 16.6703C40.0397 17.5242 39.4125 17.9557 38.1567 17.9557C37.7732 17.9557 37.4494 17.9557 37.1853 17.8556C36.9199 17.7555 36.7142 17.6944 36.5466 17.5541C36.4197 17.454 36.3219 17.3136 36.2432 17.1525C36.1454 16.9822 36.1251 16.76 36.0959 16.5092H36.685C36.685 16.851 36.7828 17.0927 36.9885 17.2526C37.2044 17.4436 37.5967 17.5437 38.1567 17.5437C39.0392 17.5437 39.481 17.2734 39.481 16.7405C39.481 16.4195 39.3338 16.2077 39.0392 16.0881C38.9414 16.0881 38.6176 15.9867 37.97 15.9074C37.3225 15.8061 36.9098 15.7164 36.7536 15.6462C36.4095 15.4747 36.233 15.1744 36.233 14.7326C36.233 14.3102 36.3905 13.9892 36.6939 13.7773C36.8514 13.6773 37.038 13.6175 37.2641 13.5772C37.499 13.5772 37.7643 13.4771 38.0678 13.4771C39.2753 13.4771 39.8836 13.9385 39.8836 14.8625H39.3236C39.3236 14.2101 38.902 13.8878 38.0488 13.8878C37.617 13.8878 37.2933 13.9892 37.0863 14.0893C36.8704 14.2101 36.7625 14.4207 36.7625 14.6923C36.7625 14.9431 36.9098 15.1342 37.1942 15.2446C37.3618 15.3447 37.744 15.3746 38.3522 15.4448C38.8919 15.5448 39.2652 15.5955 39.462 15.6956C39.8544 15.8866 40.0397 16.1882 40.0397 16.63M35.6642 15.7359C35.6642 16.4091 35.4978 16.9419 35.1436 17.3227C34.7614 17.7555 34.1925 17.9661 33.456 17.9661C33.0929 17.9661 32.7894 17.9661 32.524 17.8153C32.2599 17.7152 32.0339 17.5541 31.8371 17.3331C31.474 16.9316 31.2975 16.3896 31.2975 15.7359C31.2975 15.0731 31.474 14.5415 31.8181 14.149C32.2003 13.7176 32.7501 13.4966 33.456 13.4966C34.2027 13.4966 34.7614 13.7072 35.1436 14.1399C35.4877 14.5207 35.6642 15.0536 35.6642 15.7359ZM35.1245 15.7359C35.1245 14.5415 34.5645 13.9489 33.456 13.9489C32.9456 13.9489 32.5533 14.1087 32.2688 14.4311C32.1317 14.5818 32.0238 14.7716 31.945 14.9925C31.8473 15.2043 31.8371 15.4552 31.8371 15.7359C31.8371 16.2791 31.9742 16.7106 32.2599 17.042C32.5342 17.363 32.9367 17.5242 33.456 17.5242C34.0262 17.5242 34.4566 17.3526 34.7322 17.0212C34.8693 16.8705 34.9671 16.6898 35.0267 16.4793C35.1245 16.2583 35.1245 16.0179 35.1245 15.7359ZM31.1311 13.2757C31.1311 13.8475 30.9648 14.2998 30.6308 14.6221C30.2969 14.9431 29.8449 15.1134 29.2671 15.1134H26.9612V17.8153H26.3327V11.4484H29.4335C29.9629 11.4484 30.3756 11.6083 30.6702 11.9397C30.9737 12.262 31.121 12.7129 31.121 13.2861M30.4924 13.2861C30.4924 12.3919 30.0709 11.9501 29.2366 11.9501H26.9511V14.5909H29.1198C30.0315 14.5909 30.4924 14.1594 30.4924 13.2861ZM18.8284 2.85913C17.9878 2.87473 17.2565 2.99429 16.7511 3.11516C16.4984 3.17624 16.3029 3.23342 16.1746 3.27631C16.1124 3.29711 16.0692 3.3127 16.0375 3.3257C15.9105 3.30101 15.781 3.28021 15.6477 3.25942C15.2249 3.17494 14.7766 3.12426 14.3017 3.11516C13.0777 3.09566 12.1025 3.43357 11.3495 3.97292C10.8328 3.77277 9.03986 3.13595 7.13649 3.24252C6.01656 3.30231 4.8687 3.64281 4.02939 4.54995C3.19008 5.4558 2.70376 6.89579 2.80788 9.03239C2.83201 9.53404 2.99962 10.575 3.28531 11.8682C3.56847 13.1613 3.96717 14.678 4.4573 16.0413C4.94616 17.4046 5.50993 18.6107 6.21465 19.3086C6.56637 19.6647 6.98285 19.8986 7.4425 19.8856C7.89962 19.8596 8.33768 19.5867 8.73004 19.0993C9.61506 18.0089 10.3579 17.1954 10.5826 16.9471C10.6651 16.99 10.7464 17.029 10.8302 17.0641C11.1591 17.2084 11.5146 17.2954 11.8867 17.3097V17.3253C11.6175 17.6489 11.4714 17.8595 11.3407 17.9648C11.187 18.0908 10.9356 18.1948 10.2169 18.3481C9.81949 18.4313 9.55538 18.5223 9.3573 18.6874C9.25826 18.7692 9.16937 18.8836 9.13763 19.0253C9.10462 19.1656 9.13763 19.3086 9.18842 19.4125C9.29508 19.6257 9.45634 19.7427 9.62141 19.8336C9.75727 19.9116 9.90075 19.9636 10.0392 20.0156L10.1763 20.0546C10.1818 20.0547 10.1873 20.0547 10.1928 20.0546C10.561 20.1455 11.1781 20.2625 11.8714 20.1455C12.3996 20.0546 12.9698 19.8076 13.4739 19.3086C13.517 19.4567 13.5627 19.6257 13.5958 19.8336C13.6745 20.3145 13.7164 20.9123 13.6999 21.4712C13.6326 22.6538 13.6199 23.4986 13.8916 24.2264V24.2004C13.9881 24.4863 14.1062 25.0582 14.5062 25.539C14.9049 25.9939 15.6159 26.2928 16.6584 26.0589C17.513 25.8769 18.1948 25.539 18.6786 24.9932C19.1598 24.4733 19.4239 23.7845 19.4849 22.9398C19.5281 22.4329 19.5839 22.238 19.6436 22.03C19.7008 21.8091 19.7541 21.5491 19.7655 21.0943L19.9014 20.6654C19.9089 20.6443 19.9145 20.6226 19.9179 20.6004C20.0068 19.8596 20.0322 19.3346 20.088 19.1916C20.1172 19.1188 20.088 19.15 20.1274 19.1396C20.1617 19.1227 20.3001 19.1227 20.5324 19.1747C20.5551 19.1824 20.5785 19.1877 20.6023 19.1903H20.7178C20.841 19.1903 20.9692 19.2072 21.1013 19.2072C21.8314 19.2072 22.6517 19.0565 23.2256 18.7861C23.3881 18.7094 23.543 18.625 23.6853 18.5418C24.1182 18.2884 24.4522 18.0011 24.6439 17.7048C24.7087 17.6048 24.7633 17.5008 24.776 17.3591C24.7912 17.2149 24.7163 17.0173 24.5881 16.9212C24.3354 16.7249 24.0903 16.7769 23.7564 16.8471C23.7425 16.8518 23.7289 16.8574 23.7157 16.864C22.4142 17.1356 21.7578 17.0329 21.4695 16.9095C21.4265 16.8919 21.3853 16.8701 21.3464 16.8445C22.7342 14.678 23.7221 12.2685 24.2439 10.1956C24.5144 9.12726 24.6617 8.14863 24.6744 7.33247C24.6909 6.61507 24.6046 6.01594 24.3481 5.57276C24.3091 5.49979 24.265 5.42985 24.216 5.36352C22.672 3.34389 20.5197 2.85913 18.8348 2.87343L18.8284 2.85913ZM19.0278 3.57913C20.5502 3.59732 22.3558 4.04959 23.6941 5.8041C23.7335 5.85738 23.7716 5.92886 23.8072 6.01464C23.9125 6.29536 23.9811 6.72684 23.9735 7.26748C23.9583 8.00697 23.8249 8.94011 23.5634 9.96942C23.0809 11.8812 22.1781 14.1256 20.921 16.1544C20.8829 16.1076 20.8461 16.0582 20.8054 16.0075C21.2841 15.1965 21.3629 14.37 21.3248 13.6214C21.2841 12.8247 21.1305 12.0995 21.161 11.4796C21.1611 11.4744 21.1611 11.4692 21.161 11.464C21.1851 10.5984 21.4302 9.98762 21.3743 9.06618C21.3895 9.00639 21.3895 8.9648 21.3895 8.92712C21.3895 8.84524 21.373 8.77116 21.3514 8.68018C21.3095 8.50084 21.2359 8.2708 21.1254 7.99788C20.9045 7.45073 20.5388 6.74113 19.9915 6.02764C19.3363 5.17248 18.417 4.31342 17.1981 3.74808C17.6831 3.64801 18.3243 3.55833 19.0367 3.56613L19.0278 3.57913ZM14.3487 3.83775C14.736 3.85465 15.0979 3.87284 15.4331 3.91573C17.3174 4.26273 18.6062 5.35832 19.4519 6.46301C19.956 7.12193 20.2963 7.78214 20.4956 8.2734C20.5591 8.42936 20.5832 8.52813 20.6188 8.6425C19.4366 8.52293 18.6291 8.72437 18.1783 9.25202C17.6704 9.84985 17.6996 10.6946 17.899 11.5134C18.0983 12.3309 18.4831 13.1704 18.8348 13.8618C19.0113 14.2101 19.1789 14.5181 19.3135 14.7638C19.4468 15.0094 19.5497 15.2056 19.57 15.2576C19.7719 15.7645 20.0322 16.1232 20.2353 16.387C20.3788 16.5703 20.4182 16.6443 20.469 16.7314C20.3915 16.7548 20.3369 16.7639 20.2264 16.8146C20.036 16.903 19.8163 17.0654 19.6728 17.3331C19.5319 17.5996 19.4658 17.9505 19.49 18.4105C19.5065 18.521 19.5331 18.6237 19.5877 18.712C19.5281 18.7822 19.4798 18.8615 19.4493 18.9395C19.2982 19.3346 19.3186 19.7946 19.2386 20.4834L19.1014 20.9123C19.0894 20.9501 19.0838 20.9896 19.0849 21.0293C19.0684 21.4842 19.0405 21.6401 18.9821 21.8481C18.9262 22.056 18.8475 22.3419 18.803 22.9008C18.7484 23.6026 18.5389 24.1224 18.1745 24.5383C17.8075 24.9282 17.2666 25.2271 16.506 25.3831C15.6223 25.578 15.2553 25.3701 15.0026 25.0712C14.75 24.7852 14.6433 24.3434 14.5163 23.9795C14.5164 23.9751 14.5164 23.9708 14.5163 23.9665C14.3132 23.4206 14.3017 22.6538 14.369 21.4842C14.3691 21.4798 14.3691 21.4755 14.369 21.4712C14.3868 20.8603 14.3436 20.2235 14.2573 19.7037C14.2141 19.4255 14.1595 19.1955 14.0884 18.9954C14.0516 18.8836 14.011 18.7861 13.9564 18.6926C13.9747 18.641 13.9808 18.5858 13.9741 18.5314C14.0859 18.2351 14.0579 17.9115 13.9576 17.636C13.8332 17.2864 13.5958 16.9796 13.2516 16.8367C13.1336 16.7847 12.9444 16.7028 12.7057 16.7262H12.7222C12.693 16.7262 12.6663 16.7262 12.6371 16.7431C12.6319 16.7346 12.6264 16.7264 12.6206 16.7184C12.6917 16.4312 12.8085 16.0959 12.9469 15.7151C13.2847 14.7781 14.2141 13.5343 13.5094 10.1904C13.3621 9.49376 12.9558 9.03498 12.4644 8.84004C12.2181 8.74387 11.9603 8.70488 11.6987 8.70488C11.4397 8.70488 11.1781 8.74387 10.9255 8.80235C10.4226 8.92192 9.95282 9.12856 9.5922 9.3339C9.5757 9.3339 9.5757 9.3339 9.57189 9.3495C9.62141 8.72957 9.75092 7.79124 10.0938 6.8633C10.3883 6.06662 10.834 5.28944 11.5007 4.7215H11.5159C11.5804 4.71648 11.6421 4.69257 11.6937 4.65262C12.3412 4.14837 13.1894 3.83775 14.3589 3.83775H14.3487ZM7.43869 3.91053C8.73893 3.89234 10.0341 4.24584 10.7578 4.48497C10.1496 5.11009 9.7395 5.87168 9.46142 6.62417C8.81892 8.36567 8.86717 10.0968 8.86717 10.1007C8.86717 10.3216 8.90653 10.6998 8.91669 11.2574C8.9332 11.8188 8.90019 12.5271 8.80368 13.2835C8.62338 14.6039 9.14525 15.8204 10.015 16.556C9.65188 16.9575 8.95352 17.7425 8.21832 18.6445C7.89835 19.0383 7.63805 19.1682 7.41965 19.176C7.20379 19.1916 6.96507 19.0772 6.69207 18.8056C6.14354 18.2598 5.57088 17.1135 5.09599 15.7905C4.62237 14.47 4.22747 12.9742 3.94813 11.7044C3.67132 10.4347 3.50752 9.36509 3.48847 8.983C3.38943 6.96727 3.8402 5.75081 4.52587 5.01002C5.21027 4.27053 6.16639 3.97292 7.17966 3.91573H7.43869V3.91053ZM19.9458 9.28321H20.0855C20.2696 9.28321 20.4766 9.30271 20.7039 9.33C20.7039 10.0071 20.5096 10.5673 20.4842 11.4536C20.4486 12.2048 20.6099 12.943 20.6493 13.6643C20.6772 14.2478 20.6328 14.8093 20.3725 15.3811C20.3077 15.2654 20.2467 15.1407 20.1909 14.999C20.1299 14.8482 20.0322 14.6754 19.9001 14.4298C19.7655 14.1828 19.6004 13.8826 19.429 13.546C19.0875 12.8754 18.7243 12.0683 18.5504 11.347C18.3739 10.6257 18.3992 10.0409 18.6849 9.70689C18.8843 9.47296 19.2652 9.29231 19.9458 9.28321ZM11.6987 9.40278C11.8943 9.40278 12.0733 9.43007 12.2244 9.48986C12.5253 9.60942 12.7425 9.81996 12.8517 10.3411C13.5259 13.5395 12.7247 14.357 12.3184 15.4812C12.1812 15.8607 12.0416 16.222 11.9565 16.5768C10.4887 16.5768 9.23667 15.1368 9.47539 13.3784C9.59093 12.5713 9.60871 11.824 9.59728 11.2392C9.58078 10.705 9.55665 10.345 9.5503 10.1917C9.56681 10.1761 9.56681 10.1761 9.57316 10.1709C9.6468 10.1098 9.77124 10.024 9.92488 9.93693C10.2322 9.76278 10.6588 9.57563 11.0829 9.47556C11.2937 9.42487 11.5057 9.39758 11.7025 9.39758L11.6987 9.40278ZM19.6804 9.59253V9.60942C19.6144 9.60942 19.5446 9.62502 19.4735 9.63801C19.3262 9.66011 19.1979 9.7017 19.1052 9.75628C19.0113 9.81216 18.9389 9.87975 18.9389 9.97072C18.9554 10.0188 18.9681 10.0617 19.0011 10.1072C19.0341 10.1514 19.0786 10.1969 19.1332 10.2358C19.2398 10.3151 19.3871 10.3697 19.5471 10.332C19.7046 10.3086 19.8353 10.2138 19.928 10.1124C19.975 10.0617 20.0118 10.0084 20.036 9.95772C20.0626 9.90834 20.0791 9.86415 20.0791 9.81866V9.80177C20.0626 9.7017 19.9737 9.64191 19.8633 9.61332C19.8087 9.59773 19.7477 9.59253 19.6804 9.59383V9.59253ZM19.6804 9.71599C19.7376 9.71599 19.7896 9.73159 19.8341 9.73159C19.9179 9.75368 19.956 9.79137 19.9636 9.82386C19.9636 9.83946 19.9471 9.86415 19.9344 9.90184C19.9141 9.94213 19.8823 9.98891 19.8417 10.0331C19.7617 10.1202 19.65 10.1982 19.5268 10.2164C19.4036 10.2462 19.2881 10.2008 19.2005 10.1397C19.1589 10.1111 19.1224 10.0755 19.0925 10.0344C19.071 10.0019 19.0595 9.97202 19.0557 9.95902C19.0557 9.93823 19.0862 9.89014 19.1636 9.84596C19.2424 9.80047 19.3566 9.76148 19.4925 9.74198C19.5539 9.72587 19.617 9.71758 19.6804 9.71729V9.71599ZM11.7368 9.77058C11.667 9.77058 11.5997 9.77058 11.5387 9.79267C11.4778 9.80827 11.4232 9.83036 11.3775 9.86935C11.3305 9.90704 11.2924 9.96422 11.2861 10.0331V10.05C11.2861 10.1124 11.3064 10.1631 11.3356 10.2189C11.3648 10.2722 11.4029 10.3294 11.4524 10.384C11.5502 10.4919 11.6898 10.5906 11.8625 10.6179C12.0416 10.6595 12.2041 10.5984 12.3196 10.5153C12.3793 10.4724 12.4276 10.4243 12.4644 10.3762C12.5012 10.3255 12.5279 10.28 12.5355 10.2151V10.1826C12.5355 10.0565 12.4466 9.97462 12.3438 9.91224C12.2409 9.85245 12.1089 9.80827 11.9565 9.78617C11.8816 9.76798 11.8079 9.75758 11.7368 9.75628V9.77058ZM11.7216 10.0006C11.7762 10.0006 11.8371 10.0175 11.8994 10.0253H11.9311C12.0606 10.0435 12.1711 10.0825 12.2397 10.1228C12.3057 10.1631 12.3146 10.1943 12.3171 10.1904C12.3171 10.1904 12.3006 10.2073 12.2943 10.228C12.2714 10.2579 12.2397 10.2917 12.2003 10.3203C12.1216 10.3775 12.0225 10.4113 11.9197 10.3866H11.8879C11.7787 10.371 11.6759 10.3021 11.6048 10.2228C11.5679 10.1826 11.5387 10.1397 11.521 10.1059C11.5057 10.0747 11.5019 10.0565 11.5007 10.0526H11.5159C11.5324 10.037 11.5527 10.0279 11.5921 10.0201V10.0032C11.6289 9.98762 11.6759 9.98761 11.7305 9.98761L11.7216 10.0006ZM20.8334 17.3292C20.9261 17.415 21.0505 17.4995 21.2105 17.5671C21.6816 17.7646 22.4549 17.8387 23.7868 17.5671C23.5773 17.7516 23.2967 17.9635 22.9272 18.1389C22.4637 18.3611 21.5152 18.4924 20.8181 18.4924H20.7305C20.5566 18.4768 20.4029 18.456 20.2963 18.4222C20.215 18.3936 20.1668 18.365 20.149 18.3495C20.1337 17.9934 20.1858 17.7815 20.2506 17.6619C20.314 17.5424 20.3864 17.4904 20.4893 17.4436C20.5832 17.3994 20.6975 17.3747 20.8334 17.3292ZM12.7615 17.4241C12.8149 17.4241 12.8809 17.441 12.9875 17.4852C12.993 17.4853 12.9985 17.4853 13.004 17.4852C13.1107 17.5307 13.2631 17.6931 13.3316 17.8842C13.3989 18.0752 13.3888 18.2572 13.3075 18.3767C12.8174 19.0785 12.2447 19.3476 11.6962 19.4437C11.2937 19.5217 10.9077 19.4827 10.6029 19.4255C10.5077 19.4126 10.4214 19.3866 10.3464 19.3736C10.2411 19.3476 10.1039 19.2826 9.99853 19.2293C9.95535 19.2033 9.95916 19.2007 9.93123 19.176C10.0214 19.1331 10.1572 19.0772 10.3985 19.0279C11.1464 18.8693 11.5197 18.7445 11.8079 18.5106C12.0936 18.2767 12.2181 18.0258 12.5685 17.6269C12.6033 17.587 12.6285 17.5394 12.6422 17.4878C12.6993 17.4462 12.7425 17.428 12.7729 17.4241H12.7615Z" fill="black"/>
</svg>
