<svg width="80" height="24" viewBox="0 0 80 24" fill="none" xmlns="http://www.w3.org/2000/svg">
<g clip-path="url(#clip0_163_28)">
<path d="M31.8232 18.1155V5.41541H37.2803C38.8775 5.41541 40.0739 5.77525 40.8697 6.49493C41.6652 7.20854 42.063 8.17316 42.063 9.38873C42.063 10.308 41.8354 11.0881 41.3799 11.7292C40.9244 12.3702 40.2379 12.8268 39.321 13.099C39.8735 13.8791 40.4142 14.6895 40.9426 15.5301C41.471 16.3707 41.9781 17.2325 42.4639 18.1155H40.232C39.7886 17.2567 39.321 16.4191 38.829 15.6027C38.343 14.7863 37.8662 14.0394 37.3986 13.362C37.3622 13.362 37.3227 13.362 37.2803 13.362H33.7364V18.1155H31.8232ZM37.0981 7.18437H33.7364V11.6294H37.0981C38.1305 11.6294 38.8896 11.448 39.3756 11.0851C39.8614 10.7162 40.1044 10.1568 40.1044 9.40688C40.1044 8.65696 39.8614 8.10058 39.3756 7.73772C38.8896 7.36881 38.1305 7.18437 37.0981 7.18437ZM48.1319 18.3332C47.2573 18.3332 46.489 18.1336 45.8269 17.7345C45.171 17.3353 44.6578 16.7789 44.2874 16.0653C43.923 15.3517 43.7408 14.5262 43.7408 13.5888C43.7408 12.6514 43.923 11.8259 44.2874 11.1123C44.6578 10.3926 45.171 9.83324 45.8269 9.43409C46.489 9.02889 47.2573 8.8263 48.1319 8.8263H48.3323C49.1279 8.8263 49.8264 9.02284 50.4276 9.41595C51.0348 9.80298 51.5086 10.3654 51.8488 11.1032C52.1889 11.835 52.359 12.718 52.359 13.7521V14.3055H45.6265C45.7358 15.0493 46.0153 15.6359 46.4646 16.0653C46.9201 16.4887 47.5124 16.7003 48.2412 16.7003H48.4234C48.8607 16.7003 49.2798 16.6126 49.6806 16.4373C50.0815 16.2558 50.4184 16.0139 50.6917 15.7116L51.8124 16.8908C51.3992 17.3323 50.8891 17.6831 50.2819 17.9431C49.6806 18.2032 49.0306 18.3332 48.3323 18.3332H48.1319ZM48.0772 10.4592C47.4272 10.4592 46.8837 10.6738 46.4464 11.1032C46.0153 11.5266 45.742 12.1071 45.6265 12.845H50.5277C50.4731 12.1737 50.2514 11.6082 49.8628 11.1486C49.4802 10.689 48.9457 10.4592 48.2594 10.4592H48.0772ZM56.9687 18.2969C56.009 18.2969 55.2619 18.052 54.7276 17.5621C54.1992 17.0662 53.9349 16.4161 53.9349 15.6118C53.9349 14.8135 54.2326 14.1452 54.8277 13.607C55.429 13.0687 56.3857 12.7996 57.6975 12.7996H60.1755V12.7724C60.1755 11.2484 59.4708 10.4864 58.0619 10.4864C57.4727 10.4864 56.9746 10.5922 56.5679 10.8039C56.167 11.0155 55.8419 11.3119 55.593 11.6929L54.345 10.686C54.7335 10.0872 55.2437 9.62761 55.8755 9.30709C56.5132 8.98655 57.2359 8.8263 58.0437 8.8263H58.2441C59.3615 8.8263 60.2604 9.14682 60.9407 9.78788C61.6208 10.4289 61.961 11.3875 61.961 12.6635V18.1155H60.2119V16.6368C59.8596 17.169 59.4071 17.5803 58.8544 17.8706C58.3016 18.1548 57.6731 18.2969 56.9687 18.2969ZM57.3695 16.6822C58.074 16.6822 58.6601 16.5249 59.1277 16.2105C59.5953 15.8899 59.9445 15.4576 60.1755 14.9133V14.2238H57.7704C57.0537 14.2238 56.5404 14.3387 56.2307 14.5685C55.9271 14.7923 55.7752 15.0977 55.7752 15.4848C55.7752 16.2831 56.3066 16.6822 57.3695 16.6822ZM68.4624 18.3332C67.5878 18.3332 66.8136 18.1427 66.1394 17.7617C65.4653 17.3807 64.9369 16.8364 64.5542 16.1288C64.1775 15.4152 63.9894 14.5685 63.9894 13.5888C63.9894 12.6031 64.1775 11.7564 64.5542 11.0488C64.9307 10.3352 65.453 9.78788 66.1212 9.40688C66.7953 9.01982 67.5757 8.8263 68.4624 8.8263H68.6628C69.3675 8.8263 70.0324 9.00773 70.658 9.37059C71.2896 9.72739 71.7998 10.2203 72.1885 10.8492L70.7763 11.829C70.5153 11.4177 70.2025 11.0972 69.8381 10.8674C69.4737 10.6315 69.0606 10.5136 68.5991 10.5136H68.4169C67.6273 10.5136 67.0048 10.7918 66.5492 11.3482C66.0999 11.8985 65.8751 12.6424 65.8751 13.5798C65.8751 14.5111 66.0999 15.2549 66.5492 15.8113C67.0048 16.3677 67.6273 16.6459 68.4169 16.6459H68.5991C69.0606 16.6459 69.4858 16.5431 69.8746 16.3375C70.2631 16.1319 70.5972 15.8567 70.8767 15.512L72.1885 16.6187C71.7815 17.1509 71.2683 17.5712 70.6488 17.8796C70.0355 18.182 69.3734 18.3332 68.6628 18.3332H68.4624ZM78.2873 18.2334C77.2061 18.2334 76.3833 17.9613 75.8185 17.417C75.2537 16.8727 74.9712 16.0351 74.9712 14.9042V10.6225H73.1856V9.04402H74.9712V6.3407H76.7932V9.04402H79.8634V10.6225H76.7932V14.6593C76.7932 15.3729 76.942 15.8688 77.2397 16.147C77.5372 16.4252 77.9775 16.5643 78.5606 16.5643C78.84 16.5643 79.0889 16.5522 79.3076 16.528C79.5324 16.5038 79.7631 16.4736 80 16.4373V18.0248C79.7569 18.0852 79.4836 18.1336 79.18 18.1699C78.8764 18.2122 78.5788 18.2334 78.2873 18.2334Z" fill="black"/>
<path d="M13.3776 9.45862C12.8735 9.45862 12.3808 9.60765 11.9617 9.88686C11.5426 10.1661 11.216 10.563 11.0231 11.0273C10.8302 11.4916 10.7797 12.0026 10.8781 12.4955C10.9764 12.9884 11.2191 13.4412 11.5755 13.7966C11.9319 14.152 12.386 14.394 12.8804 14.492C13.3748 14.5901 13.8872 14.5398 14.3528 14.3474C14.8185 14.1551 15.2165 13.8294 15.4966 13.4115C15.7766 12.9936 15.9261 12.5023 15.9261 11.9997C15.9261 11.3258 15.6576 10.6794 15.1796 10.2029C14.7017 9.72633 14.0535 9.45862 13.3776 9.45862Z" fill="#58C4DC"/>
<path d="M26.7552 12C26.7552 9.9944 24.8919 8.23536 21.9254 7.07773C21.965 6.81704 22.0008 6.55917 22.0263 6.30598C22.3189 3.42416 21.6224 1.3442 20.0659 0.448213C18.3245 -0.554122 15.8647 0.173393 13.3776 2.15736C10.8905 0.173393 8.43072 -0.554122 6.68926 0.448213C5.13282 1.3442 4.43623 3.42416 4.72883 6.30598C4.75432 6.55917 4.78924 6.81798 4.82983 7.07963C4.58254 7.17374 4.33995 7.2735 4.10682 7.37796C1.45829 8.56478 0 10.208 0 12C0 14.0056 1.86322 15.7646 4.82983 16.9223C4.78924 17.183 4.75432 17.4409 4.72883 17.694C4.43623 20.5758 5.13282 22.6558 6.68926 23.5518C7.22441 23.8543 7.83077 24.0088 8.44582 23.9999C9.92017 23.9999 11.6418 23.2261 13.3776 21.8426C15.1125 23.2261 16.835 23.9999 18.3112 23.9999C18.9263 24.0088 19.5326 23.8541 20.0678 23.5518C21.6243 22.6558 22.3209 20.5758 22.0283 17.694C22.0028 17.4409 21.9668 17.183 21.9273 16.9223C24.8939 15.7665 26.7572 14.0047 26.7572 12H26.7552ZM18.2999 1.27079C18.6954 1.26128 19.0863 1.35677 19.4326 1.5475C20.5133 2.1696 20.9985 3.85709 20.7625 6.17705C20.7465 6.33516 20.7276 6.49517 20.7049 6.65609C19.4714 6.28569 18.2083 6.02151 16.9294 5.86646C16.1542 4.83896 15.2921 3.87954 14.3526 2.99876C15.8279 1.86183 17.2126 1.27079 18.299 1.27079H18.2999ZM17.7921 14.5411C17.3148 15.3673 16.7949 16.1684 16.2347 16.9411C15.2852 17.0383 14.3312 17.0867 13.3767 17.086C12.4224 17.0867 11.4688 17.0383 10.5195 16.9411C9.96083 16.1683 9.44258 15.3673 8.96686 14.5411C8.48951 13.7172 8.05567 12.869 7.66714 12C8.05567 11.131 8.48951 10.2828 8.96686 9.45887C9.44183 8.63604 9.95848 7.83786 10.5148 7.06739C11.4658 6.96771 12.4214 6.91807 13.3776 6.91868C14.3318 6.91812 15.2855 6.96649 16.2347 7.06363C16.793 7.83528 17.3115 8.63472 17.7883 9.45887C18.2653 10.283 18.6992 11.1311 19.0881 12C18.6992 12.8689 18.2653 13.717 17.7883 14.5411H17.7921ZM19.7375 13.6C20.037 14.4145 20.283 15.2476 20.4737 16.094C19.646 16.3513 18.8022 16.5541 17.9479 16.7011C18.2726 16.2129 18.5872 15.705 18.8917 15.1774C19.1928 14.656 19.4751 14.1299 19.7412 13.6037L19.7375 13.6ZM13.3785 20.1815C12.74 19.5939 12.141 18.9651 11.5852 18.2992C12.1723 18.335 12.7716 18.3557 13.3785 18.3557C13.9855 18.3557 14.5886 18.335 15.1766 18.2992C14.6191 18.9651 14.0184 19.5938 13.3785 20.1815ZM8.80828 16.6992C7.95364 16.5529 7.10956 16.3507 6.28152 16.094C6.47148 15.2489 6.71646 14.4171 7.01492 13.6037C7.27731 14.1299 7.55859 14.656 7.8644 15.1774C8.17022 15.6988 8.48641 16.2126 8.80828 16.7011V16.6992ZM7.01492 10.3953C6.71754 9.585 6.47319 8.7563 6.28341 7.91443C7.1094 7.65745 7.95122 7.45403 8.80356 7.3055C8.48075 7.79208 8.16455 8.29654 7.85968 8.82265C7.55481 9.34875 7.27637 9.86827 7.0102 10.3953H7.01492ZM13.3729 3.81757C14.013 4.40497 14.6137 5.03379 15.171 5.69987C14.5839 5.66411 13.9845 5.64341 13.3729 5.64341C12.7663 5.64341 12.1685 5.66223 11.5795 5.69987C12.1353 5.03394 12.7344 4.40514 13.3729 3.81757ZM18.8899 8.82265C18.584 8.29434 18.2678 7.78612 17.9413 7.29796C18.7979 7.44494 19.6438 7.64805 20.4737 7.90597C20.2833 8.75095 20.0383 9.58279 19.7403 10.3963C19.4779 9.87015 19.1957 9.34405 18.8908 8.82359L18.8899 8.82265ZM5.99645 6.17799C5.75766 3.85897 6.24565 2.17054 7.32546 1.54844C7.67184 1.35801 8.06267 1.26253 8.4581 1.27173C9.5445 1.27173 10.9292 1.86277 12.4045 2.9997C11.4644 3.88112 10.6017 4.84114 9.82578 5.8693C8.54731 6.02507 7.2843 6.28827 6.05026 6.65609C6.02855 6.49517 6.00873 6.3361 5.99362 6.17799H5.99645ZM1.27424 12C1.27424 10.7558 2.50129 9.49369 4.62972 8.53653C4.77508 8.4738 4.92328 8.41104 5.07429 8.34831C5.37119 9.59726 5.77379 10.8189 6.27775 12C5.77283 13.1834 5.36992 14.4076 5.07335 15.6592C2.66834 14.6757 1.27424 13.3129 1.27424 12ZM7.32546 22.4516C6.24565 21.8295 5.75766 20.141 5.99645 17.822C6.01156 17.6639 6.03138 17.5048 6.05309 17.343C7.28667 17.7133 8.54979 17.9774 9.82861 18.1326C10.6041 19.1605 11.4661 20.1205 12.4054 21.0022C10.3487 22.5863 8.46942 23.1085 7.32829 22.4516H7.32546ZM20.7616 17.822C20.9975 20.142 20.5124 21.8295 19.4316 22.4516C18.2914 23.1104 16.4112 22.5863 14.3555 21.0022C15.2944 20.1205 16.1561 19.1605 16.9313 18.1326C18.2102 17.9776 19.4733 17.7134 20.7068 17.343C20.7295 17.5048 20.7483 17.6639 20.7644 17.822H20.7616ZM21.6875 15.6574C21.3901 14.4065 20.9869 13.183 20.4822 12C20.9867 10.8164 21.3896 9.59228 21.6866 8.34076C24.0869 9.32429 25.4848 10.6871 25.4848 12C25.4848 13.3129 24.0907 14.6757 21.6856 15.6592" fill="#58C4DC"/>
<path d="M13.378 14.6701C14.7809 14.6701 15.9181 13.5 15.9181 12.0565C15.9181 10.613 14.7809 9.44287 13.378 9.44287C11.9751 9.44287 10.8379 10.613 10.8379 12.0565C10.8379 13.5 11.9751 14.6701 13.378 14.6701Z" fill="black"/>
<path d="M26.7559 11.9725C26.7559 9.97399 24.8924 8.21937 21.927 7.06812C22.4063 3.9358 21.8091 1.45274 20.0668 0.453505C18.5109 -0.439634 16.3561 -0.00256678 13.999 1.68553C13.7904 1.83439 13.5833 1.99275 13.3763 2.15744C13.1708 1.99275 12.9638 1.83439 12.7568 1.68553C10.3997 -0.00256678 8.24492 -0.441218 6.68893 0.453505C4.94822 1.45274 4.35099 3.9342 4.83196 7.06336C1.86335 8.2162 0 9.9724 0 11.9725C0 13.9709 1.86335 15.7255 4.82878 16.8768C4.34941 20.0091 4.94664 22.4922 6.68893 23.4914C7.21609 23.7939 7.81332 23.9443 8.4631 23.9443C9.72923 23.9443 11.1992 23.3742 12.7568 22.2594C12.9654 22.1106 13.1724 21.9521 13.3795 21.7875C13.5849 21.9521 13.7919 22.1106 13.999 22.2594C15.5566 23.3758 17.0265 23.9443 18.2927 23.9443C18.9424 23.9443 19.5397 23.7939 20.0668 23.4914C21.6228 22.5983 22.3187 20.5238 22.0274 17.6496C22.0019 17.3962 21.9683 17.1397 21.927 16.8784C24.8941 15.7271 26.7559 13.9725 26.7559 11.9725ZM14.7443 2.71327C16.0694 1.7647 17.3021 1.27063 18.2927 1.27063C18.7211 1.27063 19.1033 1.36248 19.4298 1.54934C20.5701 2.20494 21.0574 4.08466 20.7086 6.64688C19.562 6.29692 18.2927 6.0293 16.9278 5.85825C16.1108 4.78935 15.2444 3.82495 14.3573 3.00148C14.4863 2.90331 14.6153 2.80512 14.7443 2.71327ZM7.32598 1.54934C7.65248 1.36248 8.03468 1.27063 8.4631 1.27063C9.45371 1.27063 10.6864 1.76312 12.0114 2.71327C12.1404 2.80512 12.2694 2.90172 12.3984 3.00148C11.5113 3.82495 10.6466 4.78775 9.82955 5.85668C8.46629 6.0277 7.19539 6.29692 6.04872 6.64531C5.69993 4.08466 6.18568 2.20494 7.32598 1.54934ZM1.27408 11.9725C1.27408 10.6628 2.6692 9.30255 5.07563 8.32231C5.34479 9.48308 5.74611 10.7104 6.27645 11.9693C5.74293 13.2298 5.3416 14.4587 5.07245 15.621C2.6692 14.6408 1.27408 13.2821 1.27408 11.9725ZM12.0114 21.2316C10.113 22.5904 8.40576 23.0147 7.32598 22.3956C6.18568 21.7401 5.69835 19.8603 6.04712 17.298C7.19379 17.648 8.4631 17.9156 9.82797 18.0867C10.645 19.1556 11.5113 20.12 12.3984 20.9434C12.2694 21.0432 12.1404 21.1398 12.0114 21.2316ZM13.3779 20.1184C11.7853 18.6678 10.2548 16.7295 8.96317 14.5062C8.61758 13.9123 7.91887 12.4197 7.63538 11.8417C7.40923 12.3801 7.18584 12.874 7.01064 13.3997C7.15399 13.6642 7.70661 14.8736 7.85951 15.138C8.16209 15.659 8.47904 16.1658 8.80551 16.6567C7.88976 16.4968 7.04249 16.2909 6.27167 16.0486C6.70963 14.0818 7.58399 11.8141 8.96317 9.43873C9.3024 8.8544 10.0394 7.54968 10.4089 7.0081C9.82602 7.08253 9.35791 7.05789 8.81005 7.17031C8.65079 7.42685 8.0124 8.54242 7.85951 8.8069C7.55371 9.33263 7.27343 9.85838 7.01064 10.381C6.69212 9.51159 6.44845 8.67863 6.27487 7.89317C8.2067 7.28665 10.6195 6.90501 13.3779 6.90501C14.0675 6.90501 15.5077 6.89111 16.1511 6.93704C15.7959 6.47304 15.4913 6.05304 15.1203 5.63815C14.8193 5.62865 13.6853 5.63815 13.3779 5.63815C12.7695 5.63815 12.1739 5.65872 11.5894 5.69357C12.1691 5.00787 12.7695 4.38078 13.3779 3.82653C14.9689 5.27709 16.501 7.21539 17.7926 9.43873C18.1318 10.0231 18.8648 11.3834 19.153 11.9725C19.3808 11.434 19.5962 10.943 19.773 10.4141C19.6296 10.148 19.0491 9.06818 18.8962 8.8053C18.5937 8.28431 18.2767 7.77756 17.9502 7.28824C18.866 7.44816 19.7133 7.65403 20.4841 7.89634C20.0461 9.86314 19.1718 12.1308 17.7926 14.5062C17.4534 15.0905 16.4879 16.4287 16.1185 16.9702C16.7013 16.8958 17.3326 16.7845 17.8805 16.6721C18.0397 16.4156 18.7434 15.4025 18.8962 15.138C19.2004 14.6155 19.4807 14.0929 19.7403 13.5719C20.0493 14.4175 20.2946 15.2489 20.4729 16.0533C18.5427 16.6599 16.1331 17.0399 13.3779 17.0399C12.6883 17.0399 11.0849 16.9497 10.4415 16.9038C10.7967 17.3678 11.1792 17.8509 11.5503 18.2658C11.8513 18.2752 13.0705 18.3068 13.3779 18.3068C13.9863 18.3068 14.5819 18.2862 15.1664 18.2514C14.5851 18.937 13.9863 19.5641 13.3779 20.1184ZM19.4298 22.3956C18.35 23.0164 16.6411 22.5919 14.7443 21.2316C14.6153 21.1398 14.4863 21.0432 14.3573 20.9434C15.2444 20.12 16.1092 19.1572 16.9262 18.0882C18.2879 17.9172 19.5556 17.6496 20.7007 17.3012C20.723 17.4612 20.7453 17.6211 20.7612 17.7779C20.9953 20.0931 20.5096 21.7748 19.4298 22.3956ZM21.6833 15.6226C21.4094 14.4444 21.0033 13.2172 20.4793 11.9772C21.0128 10.7167 21.4142 9.48783 21.6833 8.32547C24.0865 9.30572 25.4818 10.6628 25.4818 11.9725C25.4818 13.2821 24.0882 14.6408 21.6833 15.6226Z" fill="black"/>
</g>
<defs>
<clipPath id="clip0_163_28">
<rect width="80" height="24" fill="white"/>
</clipPath>
</defs>
</svg>
