<svg width="98" height="20" viewBox="0 0 98 20" fill="none" xmlns="http://www.w3.org/2000/svg">
<g clip-path="url(#clip0_161_9)">
<path d="M0.9375 0C0.418333 0 0 0.418333 0 0.9375V19.0625C0 19.5817 0.418333 20 0.9375 20H19.0625C19.5817 20 20 19.5817 20 19.0625V0.9375C20 0.418333 19.5817 0 19.0625 0H0.9375ZM15.4067 8.125C15.9167 8.125 16.3683 8.15583 16.7625 8.2175C17.1343 8.2732 17.4991 8.36818 17.8508 8.50083V10.5492C17.682 10.4324 17.5026 10.3317 17.315 10.2483C17.1215 10.1613 16.9218 10.0889 16.7175 10.0317C16.3305 9.92383 15.9309 9.86778 15.5292 9.865C15.2792 9.865 15.0517 9.88833 14.8467 9.93667C14.664 9.97574 14.4887 10.0438 14.3275 10.1383C14.1858 10.225 14.0775 10.3292 14 10.45C13.9221 10.5718 13.8815 10.7137 13.8833 10.8583C13.8833 11.0217 13.9275 11.1692 14.0133 11.2992C14.1 11.4292 14.2233 11.5525 14.3825 11.6692C14.5417 11.7858 14.735 11.8992 14.9625 12.0108C15.19 12.1233 15.4475 12.2392 15.7342 12.3575C16.1258 12.5217 16.4775 12.6967 16.7892 12.8808C17.1008 13.0658 17.3683 13.275 17.5917 13.5083C17.815 13.7408 17.985 14.0067 18.1033 14.3058C18.2217 14.605 18.2817 14.9525 18.2817 15.35C18.2817 15.8975 18.1775 16.3583 17.9708 16.73C17.7689 17.0966 17.4791 17.4072 17.1275 17.6342C16.7485 17.8745 16.3284 18.0429 15.8883 18.1308C15.4167 18.2308 14.9192 18.2808 14.3967 18.2808C13.8824 18.2831 13.3691 18.2373 12.8633 18.1442C12.4258 18.0685 12.0014 17.9301 11.6033 17.7333V15.5417C12.3565 16.1826 13.3119 16.5368 14.3008 16.5417C14.5783 16.5417 14.8208 16.5167 15.0275 16.4667C15.235 16.4167 15.4075 16.3467 15.5467 16.2583C15.685 16.1683 15.7883 16.0633 15.8575 15.9417C15.9339 15.8 15.9687 15.6396 15.9578 15.479C15.9469 15.3184 15.8907 15.1642 15.7958 15.0342C15.672 14.8703 15.5206 14.7293 15.3483 14.6175C15.1347 14.4759 14.9098 14.3521 14.6758 14.2475C14.3985 14.1209 14.1188 13.9997 13.8367 13.8842C13.0717 13.565 12.5017 13.1742 12.1258 12.7133C11.7508 12.2525 11.5625 11.695 11.5625 11.0425C11.5625 10.5308 11.665 10.0917 11.87 9.72417C12.075 9.35667 12.3533 9.05417 12.7067 8.81667C13.0804 8.57012 13.4953 8.39259 13.9317 8.2925C14.415 8.17855 14.9101 8.12232 15.4067 8.125ZM2.8125 8.28167H10.7817V10.0867H7.92167V18.125H5.6575V10.0867H2.8125V8.28167Z" fill="black"/>
</g>
<g clip-path="url(#clip1_161_9)">
<path d="M34.8794 3.5395H31.188V14.7746H29.6915V3.5395H26V2.19653H34.8462V3.5395H34.8794Z" fill="black"/>
<path d="M41.963 5.79962L37.7727 16.2158C37.0078 18.0828 35.9769 19 34.6134 19C34.2475 19 33.915 18.9672 33.6489 18.9017V17.6243C33.9482 17.7225 34.2475 17.7881 34.5136 17.7881C35.2452 17.7881 35.8106 17.3622 36.1764 16.4778L36.908 14.7746L33.3496 5.79962H34.9792L37.4401 12.711C37.4734 12.8093 37.5399 13.0385 37.6397 13.3988H37.7062C37.7394 13.2678 37.806 13.0385 37.8725 12.7437L40.4665 5.79962H41.963ZM44.424 13.4971H44.3907V18.9345H42.9274V5.83237H44.3907V7.40462H44.424C45.1556 6.22543 46.1866 5.60308 47.5833 5.60308C48.7473 5.60308 49.6785 5.99615 50.3436 6.81503C51.0087 7.63392 51.3413 8.68208 51.3413 10.0578C51.3413 11.5645 50.9755 12.7765 50.2438 13.6609C49.5122 14.5453 48.4812 15.0039 47.1843 15.0039C45.987 15.0039 45.0891 14.5125 44.424 13.4971ZM44.3907 9.86127V11.106C44.3907 11.8593 44.6235 12.4817 45.1224 13.0058C45.6212 13.5299 46.2198 13.7919 46.9847 13.7919C47.8826 13.7919 48.5478 13.4644 49.0799 12.7765C49.612 12.0886 49.8448 11.1715 49.8448 9.99229C49.8448 8.97688 49.612 8.22351 49.1464 7.63392C48.6808 7.07708 48.0489 6.78228 47.2508 6.78228C46.3861 6.78228 45.721 7.07707 45.1889 7.66666C44.6568 8.25626 44.3907 8.97688 44.3907 9.86127ZM60.3538 10.6474H53.902C53.9353 11.6628 54.2013 12.4162 54.7334 12.973C55.2655 13.5299 55.9639 13.7919 56.8951 13.7919C57.9261 13.7919 58.8572 13.4644 59.7219 12.7765V14.1195C58.9237 14.7091 57.8595 14.9711 56.5293 14.9711C55.2323 14.9711 54.2346 14.578 53.503 13.7591C52.7713 12.9403 52.4055 11.7938 52.4055 10.3198C52.4055 8.91137 52.8046 7.79769 53.6027 6.91329C54.4009 6.0289 55.3986 5.60308 56.5958 5.60308C57.793 5.60308 58.7242 5.99615 59.3561 6.74952C60.0212 7.50289 60.3205 8.55106 60.3205 9.92679V10.6474H60.3538ZM58.8572 9.43546C58.8572 8.61657 58.6577 7.96146 58.2586 7.50289C57.8595 7.04431 57.2942 6.81503 56.5958 6.81503C55.8974 6.81503 55.3321 7.04431 54.8332 7.53564C54.3676 8.02697 54.0683 8.64933 53.9353 9.43546H58.8572ZM61.1519 14.3488V13.3661C62.0831 13.9557 62.981 14.2177 63.9455 14.2177C64.9431 14.2177 65.708 14.0212 66.2069 13.5954C66.739 13.2023 66.9718 12.6127 66.9718 11.8921C66.9718 11.237 66.8055 10.7457 66.4397 10.3526C66.1071 9.95954 65.3422 9.43546 64.1782 8.78035C62.8812 8.02698 62.0498 7.40462 61.7173 6.91329C61.3847 6.42197 61.1852 5.83237 61.1852 5.17727C61.1852 4.29287 61.551 3.53949 62.2494 2.91714C62.9478 2.29479 63.8789 2 65.0429 2C65.8078 2 66.5727 2.13103 67.3376 2.39307V3.31021C66.5727 2.98266 65.7745 2.81888 64.9431 2.81888C64.0785 2.81888 63.3801 3.04817 62.8812 3.47399C62.3824 3.89981 62.1164 4.45665 62.1164 5.11175C62.1164 5.76686 62.2826 6.25819 62.6485 6.65126C62.981 7.04432 63.7459 7.53564 64.9099 8.19075C66.1071 8.84586 66.9053 9.43545 67.3043 9.95953C67.7034 10.4836 67.903 11.0732 67.903 11.7611C67.903 12.711 67.5704 13.4971 66.872 14.1195C66.2069 14.7418 65.2424 15.0366 63.9787 15.0366C63.5464 15.0366 63.0475 14.9711 62.4489 14.8401C61.9168 14.6763 61.4845 14.5125 61.1519 14.3488ZM75.6184 14.3815C74.9533 14.7746 74.1219 15.0039 73.1907 15.0039C71.9602 15.0039 70.9625 14.578 70.1976 13.7591C69.4327 12.9075 69.0669 11.8266 69.0669 10.4509C69.0669 9.00963 69.4993 7.8632 70.3639 6.94605C71.2286 6.0289 72.326 5.57033 73.6563 5.57033C74.3547 5.57033 75.0198 5.70135 75.6849 5.99615V6.91329C75.0198 6.52023 74.3214 6.3237 73.5233 6.3237C72.4591 6.3237 71.5944 6.71677 70.9293 7.47014C70.2642 8.22351 69.9316 9.20617 69.9316 10.4181C69.9316 11.5973 70.2309 12.5144 70.8295 13.2351C71.4281 13.9557 72.2263 14.2832 73.224 14.2832C74.1219 14.2832 74.92 14.0539 75.6184 13.5626V14.3815ZM81.139 6.65126C80.8729 6.45472 80.5404 6.35645 80.1745 6.35645C79.4429 6.35645 78.8443 6.71676 78.3787 7.43738C77.8799 8.158 77.6471 9.20617 77.6471 10.5491V14.7746H76.8489V5.79962H77.6471V7.79769H77.6803C77.8799 7.10983 78.2124 6.58574 78.678 6.19267C79.1436 5.79961 79.6424 5.63584 80.2411 5.63584C80.5736 5.63584 80.8729 5.70135 81.139 5.79962V6.65126ZM82.5357 3.5395C82.3695 3.5395 82.2032 3.47399 82.0702 3.34297C81.9371 3.21195 81.8706 3.04817 81.8706 2.85164C81.8706 2.65511 81.9371 2.49133 82.0702 2.39307C82.2032 2.26205 82.3695 2.22929 82.5357 2.22929C82.7353 2.22929 82.8683 2.2948 83.0346 2.39307C83.1676 2.52409 83.2341 2.65511 83.2341 2.85164C83.2341 3.04817 83.1676 3.21195 83.0346 3.34297C82.8683 3.47399 82.7353 3.5395 82.5357 3.5395ZM82.1367 14.8073V5.83237H82.9681V14.8073H82.1367ZM85.8281 13.2023H85.7949V18.9345H84.9635V5.83237H85.7949V7.69942H85.8281C86.1607 7.04431 86.6263 6.52024 87.2249 6.15993C87.8235 5.79962 88.4886 5.63584 89.2203 5.63584C90.3842 5.63584 91.2822 6.02891 91.9473 6.81503C92.6124 7.60116 92.9117 8.68208 92.9117 10.025C92.9117 11.5318 92.5459 12.7437 91.781 13.6609C91.0494 14.578 90.0517 15.0366 88.8212 15.0366C87.4909 15.0038 86.4933 14.4143 85.8281 13.2023ZM85.7949 9.86127V11.0077C85.7949 11.9249 86.0942 12.6782 86.6595 13.3333C87.2249 13.9884 87.9898 14.316 88.921 14.316C89.8521 14.316 90.617 13.9229 91.1824 13.1368C91.7478 12.3507 92.0471 11.3025 92.0471 10.025C92.0471 8.91137 91.781 7.99422 91.2489 7.33911C90.7168 6.684 89.9852 6.35645 89.1205 6.35645C88.0563 6.35645 87.2249 6.71676 86.6595 7.40462C86.0942 8.09249 85.7949 8.91137 85.7949 9.86127ZM98 14.6763C97.5676 14.8728 97.1685 14.9711 96.8027 14.9711C95.4392 14.9711 94.7741 14.185 94.7741 12.58V6.55298H93.1445V5.79962H94.7741V3.47399C94.9071 3.44123 95.0401 3.37572 95.1732 3.34297C95.3062 3.31021 95.4392 3.24471 95.5722 3.21195V5.83237H97.9667V6.58574H95.5722V12.5145C95.5722 13.1368 95.672 13.5954 95.8715 13.8574C96.0711 14.1195 96.4036 14.2832 96.8692 14.2832C97.2018 14.2832 97.5676 14.185 97.9667 13.9557V14.6763H98Z" fill="black"/>
</g>
<defs>
<clipPath id="clip0_161_9">
<rect width="20" height="20" fill="white"/>
</clipPath>
<clipPath id="clip1_161_9">
<rect width="72" height="17" fill="white" transform="translate(26 2)"/>
</clipPath>
</defs>
</svg>
